M48
;Layer_Color=9474304
;FILE_FORMAT=4:4
METRIC,LZ
;TYPE=PLATED
T1F00S00C0.3000
T2F00S00C0.4000
T4F00S00C0.8000
T5F00S00C0.8890
T6F00S00C0.9000
T7F00S00C1.0000
T9F00S00C1.2000
T11F00S00C3.0000
%
T01
X0046Y0036
X00492Y00352
X00567Y0036
X00605Y00353
X00675Y0036225
X00713462Y00353
X00785Y0036275
X00826Y00353
X00897Y00361782
X00934754Y00353
X01016
X01009Y00363
X009885Y00444145
X009735
X009585
X00966Y00459145
X00981
X00951
X00936
X00921
X00906
X008985Y00474145
X009135
X009285
X009435
X00936Y00489145
X00921
X00906
X008985Y00504145
X009135
X009285
X009435
X00951Y00519145
X00936
X00921
X00906
X009135Y00534145
X009285
X009435
X0097315Y00547
X00975Y00555
X01005
X010125Y0057
X009975
X01005Y00585
X01024Y00602
X00966Y00608
X009225Y0057
X009075
X008625
X008475
X008325
X008175
X008025
X008085Y00534145
X008235
X008385
X00831Y00519145
X00816
X00801
X008085Y00504145
X008235
X008385
X00831Y00489145
X00816
X00801
X008085Y00474145
X008235
X00831Y00459145
X00846
X00861
X00876
X008685Y00444145
X008535
X00831Y00429145
X00816
X00801
X008085Y00444145
X00816Y00459145
X00801
X008985Y00444145
X009135
X009285
X00936Y00429145
X00921
X00906
X008685Y00504145
X00876Y00519145
X00861
X00858Y00543
X008625Y0063
X008775
Y0066
X00896Y006625
Y0067
Y00677
X00905Y00678
X00905Y0067
Y006625
X00915Y00662
Y006695
Y006775
X00924
X00924Y006695
Y00662
X009975Y0066
X010125Y0072
Y0075
X01005Y00765
X009825Y0075
X009675
X00877436Y007155
Y007075
Y007
Y006915
X00868
X00868Y007
Y007075
X00868Y007155
X00859
Y007075
Y007
X00859Y006915
X008495Y006915
X008495Y007
Y007075
X008495Y007155
X008405
Y007075
Y007
X008405Y006915
X0084Y00675
X00855
X00844032Y00662935
X008475Y0063
X008025
X00795Y00645
X0081
X00802Y00663
X0081Y00765
X00825
X008175Y0078
X00796Y00779
X009885Y00534145
X00981Y00519145
X009735Y00504145
X009885
X007935
Y00474145
Y00444145
X00786Y00429145
X007635Y00444145
X007485
X007335
X00741Y00459145
X00756
X00726
X00711
X00696
X00681
X006885Y00474145
X007035
X007185
X00711Y00489145
X00696
X00681
X006885Y00504145
X007035
X007185
X00726Y00519145
X00711
X00696
X006885Y00534145
X007035
X007185
X00743Y00551
X007425Y0057
X007575
X007875
X007635Y00534145
X00756Y00519145
X007485Y00504145
X007635
X007275Y0057
X007125
X006975
X00676755Y00587
X00667
X00657
X00647
X00657Y00597
X00667
X00677
Y00607
X00667
X00657
X0066Y0065
X0067
X0065
X0066Y0066
Y0067
X006825Y0066
X00675Y0071
Y0072
Y0073
X00665
Y0072
Y0071
X00655
Y0073
X0064495Y00720257
X00641Y00749
X00631
X00621
X00611
Y00759
X00621
X00631
X00641
Y00769
X00631
X00621
X00612
X00601
Y00759
X005775Y0078
X005625
X00563546Y00767
X0054Y00765
Y00735
X0051629Y00739
X005175Y0075
X0051Y00765
X00517395Y00777
X005175Y0072
X005025
X0051Y00705
X005175Y0069
X005025
X0051Y00675
X005175Y0066
Y0063
X005325
X005475
X005625
X005775
X0057Y00645
X00585
Y00615
X0057
X00555
X0054
X00525
X0051
X00495
X0048
X00465
X004725Y0063
X004875
X005025
Y006
X005175
X005325
X005475
X005625
X005775
X005925
X0059Y00572027
X005835Y00534145
X005985
X006135
X00606Y00519145
X00591
X005835Y00504145
X005985
X006135
X00606Y00489145
X00591
X00576
X005685Y00504145
Y00534145
X005385
X00521Y00539
X005085Y00534145
X004935
X004785
X004635
X00471Y00519145
X00486
X00501
X004935Y00504145
X004785
X004635
X00471Y00489145
X00486
X00501
X004935Y00474145
X004785
X004635
X00471Y00459145
X00486
X00501
X00516
X00531
X00546
X005385Y00444145
X005235
X005085
X004935
X004785
X004635
X00471Y00429145
X00486
X00456
Y00459145
Y00489145
X004335Y00504145
X004185
X00417Y00535
X004035Y00534145
X004335
X00416Y00572
Y00582
Y00591
X0041Y00595
Y00586
Y00577
Y00568
X0042553Y00601084
X00445Y0061
X004425Y0063
X004575
X0045Y00645
X00465
X0048
X004875Y0066
X004725
X004575
X004425
X00435Y00675
X0045
X00465
X0048
X004725Y0069
X004575
X004425
X00435Y00705
X0045
X004425Y0072
X00435Y00735
X0045
X004575Y0075
X004725
X004425
X00423825Y00772115
X00435Y00645
X004875Y006
X0048Y00585
X00495
X0051
X00525
X0054
X00555
X00546Y00519145
X005385Y00504145
X005235
X00531Y00489145
X005685Y00474145
X005835
X005985
X00606Y00459145
X00621
X00636
X00651
X006435Y00444145
X006585
X006885
X007035
X00711Y00429145
X00696
X00681
X006285Y00444145
X006135
X005835
X005685
X00576Y00459145
X00591
Y00429145
X00576
X006435Y00504145
X006585
X00651Y00519145
X006585Y00534145
X00631Y00545
X00603Y00693
X005625Y0072
X0054Y00705
Y00675
X005625Y0066
X006525Y0075
X00688Y00715173
X0071392Y00707
X0072Y00765
X00735
X0075
X007425Y0078
Y0075
X00781Y007405
X0078Y00765
X007125Y0078
X0075Y00675
X007575Y0066
X0075Y00645
X00765
X007575Y0063
X007425
X007275
X00735Y00645
X007875Y0066
X0078Y00675
X007875Y0063
X00426Y00459145
X00411
X004035Y00444145
X004185
X004335
X00396Y00459145
Y00429145
X0036Y00995098
X003585Y01044145
Y01074145
Y01104145
X00366Y01119145
X003585Y01134145
X00366Y01149145
X00381
X003735Y01164145
X003585
X00392839Y01084
X0040127
X00411Y0108445
X00421Y01084
X00443299Y01089
X0045017Y01083
X004485Y01074145
X004635
X004785
X00471Y01059145
X004635Y01044145
X004785
X004938Y01049125
X00498889Y0099
X0054Y00975
X005625Y0096
X005775
X005925
X006075
X006225
X006375
X006525
X006675
X006825
X006975
X007125
X00705Y00975
X0072
X00735
X0075
X00765
X0078
X007875Y0096
X007725
X007575
X007425
Y0093
X007575
X007725
X00765Y00915
X0078
X0075
X00735
X0072
X00705
X0069
X00675
X0066
X00645
X0063
X00615
X006
X00585
X0057
X00563546Y00904
X0057Y00885
X00585
X006
X00621Y00884
Y00894
X00631
Y00884
Y00874
X00621
X00641
X00651
X00661
Y00884
X00651
X00641
Y00894
X00651
X0065545Y00862902
Y0085413
X006555Y00845
X0069Y00855
X0072
X00735
X0075
Y00825
X00762976Y00835741
X0072Y00825
X007125Y0081
X006975
X00705Y00795
X0072
X0078
X0063Y00825
X00615
X006
X00585
X0057
X005775Y0084
X005625
X0057Y00855
X005775Y0087
X005625
X0054Y00885
Y00855
Y00825
X005625Y0081
X005775
X00513Y00835741
X004875Y0084
X0048Y00855
X00495
X00492027Y00888
X0048Y00885
X004875Y009
X0048Y00915
X004725Y0096
X004575
X004425
X00435Y00975
X0045
Y00945
X00435
X004425Y0093
X004275
Y0087
X004425
X004575
X0045Y00855
X00435
X0048Y00825
Y00795
X00465
X0045
X00435163Y01013
X00424Y01014
X00434114Y01035
X004185Y01044145
X005535
X00566169Y01045
X00591Y01029605
X006135Y01044145
X006285
X006435
X006585
X006735
X006885
X007035
X007185
X007335
X007485
X007635
X00756Y01059145
X00741
X00726
X00711
X00696
X007335Y01074145
X007485
X00773049Y01077861
X00781Y01082
X00766Y01109584
X0076696Y0112171
X00769Y01131
X00782951Y01145605
X00756Y01149145
Y01179145
X00771
X00726Y01149145
X00705Y01142
X0068974Y011425
X00681Y01149145
X00651
X006285Y01164145
X006135
X005985
X005835
X005685
X005535
X00561Y01149145
X005535Y01134145
X00533009Y01139
X00530009Y01149
X00521009Y01148
X00512009
X00503009
X00495009Y01162
X004923Y0118935
X00485133Y01189
X00516Y0119
X00576Y01179145
X00591
X00606
X005345Y01126
X00531Y01119145
X005235Y01104145
X00537719Y01079324
X005835Y01074145
X00615Y00975
X0063
X00645
X0066
X00675
X0069
X006975Y0093
X007125
X006825
X006675
X006525
X006375
X006225
X006075
X005925
X005775
X005625
X00732427Y01026
X00481009Y01127
X00448009Y011565
X0044Y01189
X004035Y01164145
X0096Y01155
X00975
X0099
X01005
X010125Y0117
X009975
X009825
X009675
Y0114
X009825
X009975
X010125
X01005Y01125
X0099
X00975
X00945Y01132827
X00935Y01128013
X00933252Y01119
X00934409Y01105
X00933987Y01094013
X00934409Y01081582
Y01071829
X00934Y01061173
X00962Y01066
X00992Y0103364
X01Y01034
X01009
X010125Y0102
Y0099
Y0096
X009975
X009825
X009675
X0096Y00945
X009675Y009
X009825
X0096Y00885
Y00855
X00975
X0099
X009975Y0084
X009825
Y0081
X009975
X0099Y00795
X01005
X00975
X0096
X00937Y00799
Y00809
X00927
Y00819
X00917
Y00809
Y00799
X00907
X00897
Y00809
X00907
Y00819
X00897
X00927Y00799
X00856Y008405
X00825Y00855
X00839Y00895
X00849
X00859
X00869
X00879
Y00904745
X00869Y00905
X00859
X00849
X00839
X008175Y0093
X008025
X00795Y00945
X0081
X00825
X008175Y0096
X008025
X00825Y00975
X00828351Y01019
X00887Y00991
X00795Y00915
X0081Y00795
X010125Y0108
Y0111
X00824Y01246
X00846Y0133
X00852
X00858009
Y01337
X00852
X00846
Y01344
X00852
X00858009
Y01351
X00852
X00846
X0087141Y01348
X008715Y0134004
Y01332
X00754Y01333
Y01341
Y01349
X00741009Y01351
X00735
X00729
Y01344
X00735
X00741009
Y01337
X00735
X00729
Y0133
X00735
X00741009
X00513Y01195486
X005045Y01191195
X00491975Y01195904
X004845
X00476009Y01194
T02
X00823098Y00437
X00936909Y00439327
X0103Y00564
X0102179Y00729
X01014Y00777364
X00836819Y0076
X00705667Y00773902
X0072Y006955
X00718098Y00600339
X006Y0061
X0059Y00572027
X00568256Y00668
X00598823Y00436
X00501Y00439
X00719Y00435722
X00712Y0086435
X00462Y00922
X00469Y00938473
X00486675Y00968
X00914674Y00894144
X00947Y00882399
X00921085Y00830585
X01028573Y00856
X01017Y01062
X00962Y01066
X00966Y01049991
X00954288Y01053238
X00953173Y01042
X00737Y01264
X0068141Y01278
X00658081Y01331
T04
X01016112Y006665
Y006815
X01016Y008075
Y008225
X009615Y0083
Y00815
X00974148Y00881128
X00989148
X00994Y01087678
Y01102678
X00836655Y00807152
X00821655
X00697Y01315145
Y01330145
X00658Y012925
Y012775
T05
X00849222Y0048
X00874618
X00960452
X00985848
X00763388
X00737992
X00652158
X00626762
X00540928
X00515532
X00429698
X00404302
T06
X0064155Y0107445
X0066695
X0069235
X0071775
X00716769Y0116
X00742169
Y011854
X00716769
X00691369
Y0116
X00665969
Y011854
X0064057
Y0116
X004Y012356
Y01261
Y012864
Y013118
Y013372
X003746
Y013118
Y012864
Y01261
Y012356
T07
X00837Y00648
X00862
X00887
X00553
X00528
X00503
Y00919
X00528
X00553
X00837Y0092
X00862
X00887
T09
X00837Y0108
X00862
X00887
Y01225
X00837
X005773Y0127
Y01337
X004727
Y0127
T11
X00417Y00375
X0052823
X0063946
X0075069
X0086192
X0097315
M30
