M48
;Layer_Color=9474304
;FILE_FORMAT=4:4
METRIC,LZ
;TYPE=PLATED
T3F00S00C0.6000
T8F00S00C1.0000
T10F00S00C1.8000
%
G90
G05
T03
G00X00407Y00342
M15
G01X00427
M16
G00X0051823Y00342
M15
G01X0053823
M16
G00X0062946Y00342
M15
G01X0064946
M16
G00X0074069Y00342
M15
G01X0076069
M16
G00X0085192Y00342
M15
G01X0087192
M16
G00X0096315Y00342
M15
G01X0098315
M16
G00X0096315Y00424
M15
G01X0098315
M16
G00X0085192Y00424
M15
G01X0087192
M16
G00X0074069Y00424
M15
G01X0076069
M16
G00X0062946Y00424
M15
G01X0064946
M16
G00X0051823Y00424
M15
G01X0053823
M16
G00X00407Y00424
M15
G01X00427
M16
T08
G00X0037Y003675
M15
G01Y003825
M16
G00X00464Y003725
M15
G01Y003775
M16
G00X0048123Y003675
M15
G01Y003825
M16
G00X0057523Y003725
M15
G01Y003775
M16
G00X0059246Y003675
M15
G01Y003825
M16
G00X0068646Y003725
M15
G01Y003775
M16
G00X0070369Y003675
M15
G01Y003825
M16
G00X0079769Y003725
M15
G01Y003775
M16
G00X0081492Y003675
M15
G01Y003825
M16
G00X0090892Y003725
M15
G01Y003775
M16
G00X0092615Y003675
M15
G01Y003825
M16
G00X0102015Y003725
M15
G01Y003775
M16
T10
G00X00806Y007195
M15
G01Y007265
M16
G00X00919Y007255
M15
G01Y007205
M16
G00X00585Y007255
M15
G01Y007205
M16
G00X00472Y007195
M15
G01Y007265
M16
G00X00472Y009905
M15
G01Y009975
M16
G00X00585Y009965
M15
G01Y009915
M16
G00X00806Y009915
M15
G01Y009985
M16
G00X00919Y009975
M15
G01Y009925
M16
G00X00914Y01153
M15
G01Y01157
M16
G00X0081Y01153
M15
G01Y01157
M16
M17
M30
