G04*
G04 #@! TF.GenerationSoftware,Altium Limited,Altium Designer,19.0.10 (269)*
G04*
G04 Layer_Color=255*
%FSLAX44Y44*%
%MOMM*%
G71*
G01*
G75*
%ADD18R,0.5300X0.9700*%
%ADD19R,0.3556X1.6002*%
G04:AMPARAMS|DCode=20|XSize=1.4mm|YSize=1.15mm|CornerRadius=0mm|HoleSize=0mm|Usage=FLASHONLY|Rotation=215.000|XOffset=0mm|YOffset=0mm|HoleType=Round|Shape=Rectangle|*
%AMROTATEDRECTD20*
4,1,4,0.2436,0.8725,0.9032,-0.0695,-0.2436,-0.8725,-0.9032,0.0695,0.2436,0.8725,0.0*
%
%ADD20ROTATEDRECTD20*%

%ADD21R,0.8000X0.9000*%
%ADD22R,0.9000X0.8000*%
%ADD23R,0.8000X0.9000*%
%ADD24R,0.9000X0.8000*%
%ADD25R,0.9000X2.5000*%
%ADD26R,2.5000X0.9000*%
G04:AMPARAMS|DCode=27|XSize=1.49mm|YSize=0.28mm|CornerRadius=0.07mm|HoleSize=0mm|Usage=FLASHONLY|Rotation=90.000|XOffset=0mm|YOffset=0mm|HoleType=Round|Shape=RoundedRectangle|*
%AMROUNDEDRECTD27*
21,1,1.4900,0.1400,0,0,90.0*
21,1,1.3500,0.2800,0,0,90.0*
1,1,0.1400,0.0700,0.6750*
1,1,0.1400,0.0700,-0.6750*
1,1,0.1400,-0.0700,-0.6750*
1,1,0.1400,-0.0700,0.6750*
%
%ADD27ROUNDEDRECTD27*%
G04:AMPARAMS|DCode=28|XSize=1.49mm|YSize=0.28mm|CornerRadius=0.07mm|HoleSize=0mm|Usage=FLASHONLY|Rotation=0.000|XOffset=0mm|YOffset=0mm|HoleType=Round|Shape=RoundedRectangle|*
%AMROUNDEDRECTD28*
21,1,1.4900,0.1400,0,0,0.0*
21,1,1.3500,0.2800,0,0,0.0*
1,1,0.1400,0.6750,-0.0700*
1,1,0.1400,-0.6750,-0.0700*
1,1,0.1400,-0.6750,0.0700*
1,1,0.1400,0.6750,0.0700*
%
%ADD28ROUNDEDRECTD28*%
%ADD29R,1.4500X0.5500*%
%ADD30R,1.4500X0.5500*%
%ADD31R,4.0000X3.2500*%
%ADD32R,1.5000X2.5000*%
%ADD70O,2.0000X1.2000*%
G04:AMPARAMS|DCode=71|XSize=2.65mm|YSize=3.5mm|CornerRadius=0.6625mm|HoleSize=0mm|Usage=FLASHONLY|Rotation=180.000|XOffset=0mm|YOffset=0mm|HoleType=Round|Shape=RoundedRectangle|*
%AMROUNDEDRECTD71*
21,1,2.6500,2.1750,0,0,180.0*
21,1,1.3250,3.5000,0,0,180.0*
1,1,1.3250,-0.6625,1.0875*
1,1,1.3250,0.6625,1.0875*
1,1,1.3250,0.6625,-1.0875*
1,1,1.3250,-0.6625,-1.0875*
%
%ADD71ROUNDEDRECTD71*%
G04:AMPARAMS|DCode=72|XSize=2.7mm|YSize=3.5mm|CornerRadius=0.675mm|HoleSize=0mm|Usage=FLASHONLY|Rotation=0.000|XOffset=0mm|YOffset=0mm|HoleType=Round|Shape=RoundedRectangle|*
%AMROUNDEDRECTD72*
21,1,2.7000,2.1500,0,0,0.0*
21,1,1.3500,3.5000,0,0,0.0*
1,1,1.3500,0.6750,-1.0750*
1,1,1.3500,-0.6750,-1.0750*
1,1,1.3500,-0.6750,1.0750*
1,1,1.3500,0.6750,1.0750*
%
%ADD72ROUNDEDRECTD72*%
%ADD73C,1.7000*%
G04:AMPARAMS|DCode=74|XSize=2mm|YSize=3.25mm|CornerRadius=0.5mm|HoleSize=0mm|Usage=FLASHONLY|Rotation=0.000|XOffset=0mm|YOffset=0mm|HoleType=Round|Shape=RoundedRectangle|*
%AMROUNDEDRECTD74*
21,1,2.0000,2.2500,0,0,0.0*
21,1,1.0000,3.2500,0,0,0.0*
1,1,1.0000,0.5000,-1.1250*
1,1,1.0000,-0.5000,-1.1250*
1,1,1.0000,-0.5000,1.1250*
1,1,1.0000,0.5000,1.1250*
%
%ADD74ROUNDEDRECTD74*%
G04:AMPARAMS|DCode=75|XSize=1.5mm|YSize=2mm|CornerRadius=0.375mm|HoleSize=0mm|Usage=FLASHONLY|Rotation=180.000|XOffset=0mm|YOffset=0mm|HoleType=Round|Shape=RoundedRectangle|*
%AMROUNDEDRECTD75*
21,1,1.5000,1.2500,0,0,180.0*
21,1,0.7500,2.0000,0,0,180.0*
1,1,0.7500,-0.3750,0.6250*
1,1,0.7500,0.3750,0.6250*
1,1,0.7500,0.3750,-0.6250*
1,1,0.7500,-0.3750,-0.6250*
%
%ADD75ROUNDEDRECTD75*%
G04:AMPARAMS|DCode=76|XSize=3.1mm|YSize=1.2mm|CornerRadius=0.3mm|HoleSize=0mm|Usage=FLASHONLY|Rotation=0.000|XOffset=0mm|YOffset=0mm|HoleType=Round|Shape=RoundedRectangle|*
%AMROUNDEDRECTD76*
21,1,3.1000,0.6000,0,0,0.0*
21,1,2.5000,1.2000,0,0,0.0*
1,1,0.6000,1.2500,-0.3000*
1,1,0.6000,-1.2500,-0.3000*
1,1,0.6000,-1.2500,0.3000*
1,1,0.6000,1.2500,0.3000*
%
%ADD76ROUNDEDRECTD76*%
%ADD77C,0.8000*%
%ADD78R,1.5000X1.5000*%
%ADD79C,1.5000*%
%ADD80R,1.5000X1.5000*%
%ADD81O,2.5000X3.0000*%
%ADD82C,2.0000*%
%ADD83O,1.2000X2.0000*%
%ADD84R,1.6510X1.6510*%
%ADD85C,1.6510*%
%ADD86R,2.0000X2.0000*%
D18*
X983000Y999250D02*
D03*
X975000D02*
D03*
X967000D02*
D03*
X959000D02*
D03*
X983000Y1016750D02*
D03*
X975000D02*
D03*
X967000D02*
D03*
X959000D02*
D03*
D19*
X1006352Y974670D02*
D03*
X999748D02*
D03*
X993652D02*
D03*
X987048D02*
D03*
X980952D02*
D03*
X974348D02*
D03*
X968252D02*
D03*
X961648D02*
D03*
Y921330D02*
D03*
X968252D02*
D03*
X974348D02*
D03*
X980952D02*
D03*
X987048D02*
D03*
X993652D02*
D03*
X999748D02*
D03*
X1006352D02*
D03*
D20*
X379588Y1134394D02*
D03*
X397609Y1147013D02*
D03*
X406787Y1133906D02*
D03*
X388765Y1121288D02*
D03*
D21*
X975734Y762000D02*
D03*
X988734D02*
D03*
X959424Y740000D02*
D03*
X972424D02*
D03*
X467500Y1188000D02*
D03*
X454500D02*
D03*
X655500Y766000D02*
D03*
X668500D02*
D03*
X1005190Y635000D02*
D03*
X1018190D02*
D03*
X1013500Y532548D02*
D03*
X1000500D02*
D03*
X903500Y529000D02*
D03*
X890500D02*
D03*
X791500Y528770D02*
D03*
X778500D02*
D03*
X634550Y602000D02*
D03*
X621550D02*
D03*
X685500Y601000D02*
D03*
X698500D02*
D03*
X637320Y562000D02*
D03*
X650320D02*
D03*
X679500Y524762D02*
D03*
X666500D02*
D03*
X569500Y520698D02*
D03*
X556500D02*
D03*
X460000Y521000D02*
D03*
X447000D02*
D03*
X960500Y533000D02*
D03*
X973500D02*
D03*
X849500Y529000D02*
D03*
X862500D02*
D03*
X738500D02*
D03*
X751500D02*
D03*
X626500Y525000D02*
D03*
X639500D02*
D03*
X515500Y521000D02*
D03*
X528500D02*
D03*
X404500D02*
D03*
X417500D02*
D03*
X524940Y1201000D02*
D03*
X537940D02*
D03*
D22*
X959234Y759500D02*
D03*
Y772500D02*
D03*
X435458Y1142137D02*
D03*
Y1129137D02*
D03*
X1008941Y1198500D02*
D03*
Y1211500D02*
D03*
X923000Y868000D02*
D03*
Y855000D02*
D03*
X901000Y868000D02*
D03*
Y855000D02*
D03*
Y898000D02*
D03*
Y885000D02*
D03*
X793789Y806189D02*
D03*
Y793189D02*
D03*
X763506Y806241D02*
D03*
Y793241D02*
D03*
X739836Y821241D02*
D03*
Y808241D02*
D03*
X685887Y828500D02*
D03*
Y841500D02*
D03*
X686000Y797500D02*
D03*
Y810500D02*
D03*
X964860Y576500D02*
D03*
Y563500D02*
D03*
X941860Y591500D02*
D03*
Y578500D02*
D03*
X603000Y664500D02*
D03*
Y677500D02*
D03*
X717750Y664500D02*
D03*
Y677500D02*
D03*
Y634500D02*
D03*
Y647500D02*
D03*
X602000Y634000D02*
D03*
Y647000D02*
D03*
X667210Y548500D02*
D03*
Y561500D02*
D03*
X556500Y548500D02*
D03*
Y561500D02*
D03*
X465291Y583500D02*
D03*
Y596500D02*
D03*
X445000D02*
D03*
Y583500D02*
D03*
Y553500D02*
D03*
Y566500D02*
D03*
X804000Y341500D02*
D03*
Y354500D02*
D03*
X779000Y341500D02*
D03*
Y354500D02*
D03*
X694000Y340500D02*
D03*
Y353500D02*
D03*
X669000Y340500D02*
D03*
Y353500D02*
D03*
X585000Y341500D02*
D03*
Y354500D02*
D03*
X558000Y341500D02*
D03*
Y354500D02*
D03*
X473000Y341500D02*
D03*
Y354500D02*
D03*
X446000Y341500D02*
D03*
Y354500D02*
D03*
X891000D02*
D03*
Y341500D02*
D03*
X916755Y354500D02*
D03*
Y341500D02*
D03*
X1001000Y353500D02*
D03*
Y340500D02*
D03*
X1029739Y353746D02*
D03*
Y340746D02*
D03*
X778000Y562500D02*
D03*
Y549500D02*
D03*
D23*
X945072Y771000D02*
D03*
X931072D02*
D03*
X435000Y1055000D02*
D03*
X449000D02*
D03*
X435000Y1040000D02*
D03*
X449000D02*
D03*
X810790Y1225000D02*
D03*
X796790D02*
D03*
X796500Y1243000D02*
D03*
X810500D02*
D03*
X839000Y897705D02*
D03*
X825000D02*
D03*
X888000Y840000D02*
D03*
X902000D02*
D03*
X421491Y981000D02*
D03*
X407491D02*
D03*
X417000Y924000D02*
D03*
X403000D02*
D03*
X373491Y937000D02*
D03*
X387491D02*
D03*
X373982Y920000D02*
D03*
X387982D02*
D03*
X624000Y884000D02*
D03*
X610000D02*
D03*
X600000Y764000D02*
D03*
X586000D02*
D03*
X641270Y723000D02*
D03*
X627270D02*
D03*
X650820Y580000D02*
D03*
X636820D02*
D03*
X933500Y1248009D02*
D03*
X919500D02*
D03*
X919500Y1230009D02*
D03*
X933500D02*
D03*
X791000Y824000D02*
D03*
X805000D02*
D03*
D24*
X986924Y726000D02*
D03*
Y740000D02*
D03*
X374440Y1103637D02*
D03*
Y1089637D02*
D03*
X388440Y1165637D02*
D03*
Y1179637D02*
D03*
X1023000Y933000D02*
D03*
Y947000D02*
D03*
X881000Y867500D02*
D03*
Y881500D02*
D03*
X763486Y822741D02*
D03*
Y836741D02*
D03*
X705600Y841870D02*
D03*
Y827870D02*
D03*
X922000Y661000D02*
D03*
Y647000D02*
D03*
X964860Y594000D02*
D03*
Y608000D02*
D03*
X587000Y678000D02*
D03*
Y664000D02*
D03*
X737000Y678000D02*
D03*
Y664000D02*
D03*
X779000Y371000D02*
D03*
Y385000D02*
D03*
X669000Y371000D02*
D03*
Y385000D02*
D03*
X558000Y371000D02*
D03*
Y385000D02*
D03*
X446000Y371000D02*
D03*
Y385000D02*
D03*
X891000D02*
D03*
Y371000D02*
D03*
X1001000Y383000D02*
D03*
Y369000D02*
D03*
D25*
X986260Y697598D02*
D03*
X973560D02*
D03*
X960860D02*
D03*
X948160D02*
D03*
X986260Y638598D02*
D03*
X973560D02*
D03*
X960860D02*
D03*
X948160D02*
D03*
X642750Y792870D02*
D03*
X655450D02*
D03*
X668150D02*
D03*
Y854130D02*
D03*
X630050Y792870D02*
D03*
X617350D02*
D03*
X604650D02*
D03*
X591950D02*
D03*
X655450Y854130D02*
D03*
X642750D02*
D03*
X630050D02*
D03*
X617350D02*
D03*
X604650D02*
D03*
X591950D02*
D03*
X439241Y834870D02*
D03*
X451941D02*
D03*
X464641D02*
D03*
Y896130D02*
D03*
X426541Y834870D02*
D03*
X413841D02*
D03*
X401141D02*
D03*
X388441D02*
D03*
X451941Y896130D02*
D03*
X439241D02*
D03*
X426541D02*
D03*
X413841D02*
D03*
X401141D02*
D03*
X388441D02*
D03*
X673187Y628870D02*
D03*
X685887D02*
D03*
X698587D02*
D03*
Y690130D02*
D03*
X660487Y628870D02*
D03*
X647787D02*
D03*
X635087D02*
D03*
X622387D02*
D03*
X685887Y690130D02*
D03*
X673187D02*
D03*
X660487D02*
D03*
X647787D02*
D03*
X635087D02*
D03*
X622387D02*
D03*
D26*
X857500Y840950D02*
D03*
Y853650D02*
D03*
Y866350D02*
D03*
Y879050D02*
D03*
X798500Y840950D02*
D03*
Y853650D02*
D03*
Y866350D02*
D03*
Y879050D02*
D03*
D27*
X484500Y1176700D02*
D03*
X489500D02*
D03*
X494500D02*
D03*
X499500D02*
D03*
X504500D02*
D03*
X509500D02*
D03*
X514500D02*
D03*
X519500D02*
D03*
X524500D02*
D03*
X529500D02*
D03*
X534500D02*
D03*
X539500D02*
D03*
X544500D02*
D03*
X549500D02*
D03*
X554500D02*
D03*
X559500D02*
D03*
Y1063300D02*
D03*
X554500D02*
D03*
X549500D02*
D03*
X544500D02*
D03*
X539500D02*
D03*
X534500D02*
D03*
X529500D02*
D03*
X524500D02*
D03*
X519500D02*
D03*
X514500D02*
D03*
X509500D02*
D03*
X504500D02*
D03*
X499500D02*
D03*
X494500D02*
D03*
X489500D02*
D03*
X484500D02*
D03*
D28*
X578700Y1157500D02*
D03*
Y1152500D02*
D03*
Y1147500D02*
D03*
Y1142500D02*
D03*
Y1137500D02*
D03*
Y1132500D02*
D03*
Y1127500D02*
D03*
Y1122500D02*
D03*
Y1117500D02*
D03*
Y1112500D02*
D03*
Y1107500D02*
D03*
Y1102500D02*
D03*
Y1097500D02*
D03*
Y1092500D02*
D03*
Y1087500D02*
D03*
Y1082500D02*
D03*
X465300D02*
D03*
Y1087500D02*
D03*
Y1092500D02*
D03*
Y1097500D02*
D03*
Y1102500D02*
D03*
Y1107500D02*
D03*
Y1112500D02*
D03*
Y1117500D02*
D03*
Y1122500D02*
D03*
Y1127500D02*
D03*
Y1132500D02*
D03*
Y1137500D02*
D03*
Y1142500D02*
D03*
Y1147500D02*
D03*
Y1152500D02*
D03*
Y1157500D02*
D03*
D29*
X407250Y963500D02*
D03*
D30*
X407332Y944348D02*
D03*
X428668Y954000D02*
D03*
D31*
X777000Y1287540D02*
D03*
X894000D02*
D03*
D32*
X754500Y1340040D02*
D03*
X777000D02*
D03*
X799500D02*
D03*
X871500D02*
D03*
X894000D02*
D03*
X916500D02*
D03*
D70*
X1016112Y666500D02*
D03*
Y681500D02*
D03*
X697000Y1330145D02*
D03*
Y1315145D02*
D03*
X658000Y1277500D02*
D03*
Y1292500D02*
D03*
X994000Y1087678D02*
D03*
Y1102678D02*
D03*
X1016000Y822500D02*
D03*
Y807500D02*
D03*
X961500Y815000D02*
D03*
Y830000D02*
D03*
D71*
X585000Y723000D02*
D03*
X919000D02*
D03*
Y995000D02*
D03*
X585000Y994000D02*
D03*
D72*
X472000Y723000D02*
D03*
X806000D02*
D03*
Y995000D02*
D03*
X472000Y994000D02*
D03*
D73*
X553000Y648000D02*
D03*
X528000D02*
D03*
X503000D02*
D03*
X837000D02*
D03*
X862000D02*
D03*
X887000D02*
D03*
Y920000D02*
D03*
X862000D02*
D03*
X837000D02*
D03*
X503000Y919000D02*
D03*
X528000D02*
D03*
X553000D02*
D03*
D74*
X814920Y375000D02*
D03*
X370000D02*
D03*
X481230D02*
D03*
X592460D02*
D03*
X703690D02*
D03*
X926150D02*
D03*
D75*
X908920D02*
D03*
X464000D02*
D03*
X575230D02*
D03*
X686460D02*
D03*
X797690D02*
D03*
X1020150D02*
D03*
D76*
X861920Y342000D02*
D03*
Y424000D02*
D03*
X417000Y342000D02*
D03*
Y424000D02*
D03*
X528230Y342000D02*
D03*
Y424000D02*
D03*
X639460Y342000D02*
D03*
Y424000D02*
D03*
X750690Y342000D02*
D03*
Y424000D02*
D03*
X973150Y342000D02*
D03*
Y424000D02*
D03*
D77*
X1017000Y1062000D02*
D03*
X936909Y439327D02*
D03*
X1030000Y564000D02*
D03*
X658081Y1331000D02*
D03*
X737000Y1264000D02*
D03*
X1021790Y729000D02*
D03*
X681410Y1278000D02*
D03*
X823098Y437000D02*
D03*
X966000Y1049991D02*
D03*
X921085Y830585D02*
D03*
X947000Y882399D02*
D03*
X962000Y1066000D02*
D03*
X598823Y436000D02*
D03*
X836819Y760000D02*
D03*
X712000Y864350D02*
D03*
X705667Y773902D02*
D03*
X1028573Y856000D02*
D03*
X568256Y668000D02*
D03*
X720000Y695500D02*
D03*
X718098Y600339D02*
D03*
X600000Y610000D02*
D03*
X914674Y894144D02*
D03*
X462000Y922000D02*
D03*
X469000Y938473D02*
D03*
X954288Y1053238D02*
D03*
X953173Y1042000D02*
D03*
X1014000Y777364D02*
D03*
X501000Y439000D02*
D03*
X486675Y968000D02*
D03*
X590000Y572027D02*
D03*
X719000Y435722D02*
D03*
D78*
X742169Y1160000D02*
D03*
X641550Y1074450D02*
D03*
D79*
X742169Y1185400D02*
D03*
X716769Y1160000D02*
D03*
Y1185400D02*
D03*
X691369Y1160000D02*
D03*
Y1185400D02*
D03*
X665969Y1160000D02*
D03*
Y1185400D02*
D03*
X640570Y1160000D02*
D03*
Y1185400D02*
D03*
X374600Y1235600D02*
D03*
X400000D02*
D03*
X374600Y1261000D02*
D03*
X400000D02*
D03*
X374600Y1286400D02*
D03*
X400000D02*
D03*
X374600Y1311800D02*
D03*
X400000D02*
D03*
X374600Y1337200D02*
D03*
X717750Y1074450D02*
D03*
X692350D02*
D03*
X666950D02*
D03*
D80*
X400000Y1337200D02*
D03*
D81*
X914000Y1155000D02*
D03*
X810000D02*
D03*
D82*
X862000Y1080000D02*
D03*
X837000D02*
D03*
X887000D02*
D03*
Y1225000D02*
D03*
X837000D02*
D03*
X472700Y1337000D02*
D03*
X577300Y1270000D02*
D03*
D83*
X989148Y881128D02*
D03*
X974148D02*
D03*
X821655Y807152D02*
D03*
X836655D02*
D03*
D84*
X404302Y480000D02*
D03*
X515532D02*
D03*
X626762D02*
D03*
X737992D02*
D03*
X849222D02*
D03*
X960452D02*
D03*
D85*
X429698D02*
D03*
X540928D02*
D03*
X652158D02*
D03*
X763388D02*
D03*
X874618D02*
D03*
X985848D02*
D03*
D86*
X577300Y1337000D02*
D03*
X472700Y1270000D02*
D03*
M02*
