G04*
G04 #@! TF.GenerationSoftware,Altium Limited,Altium Designer,19.0.10 (269)*
G04*
G04 Layer_Color=65535*
%FSLAX44Y44*%
%MOMM*%
G71*
G01*
G75*
%ADD10C,0.2540*%
%ADD11C,0.2000*%
%ADD12C,0.1524*%
%ADD13C,0.2500*%
%ADD14C,0.1000*%
%ADD15C,0.1270*%
%ADD16C,0.2032*%
%ADD17R,0.8000X2.8000*%
G36*
X658034Y1123206D02*
X659281D01*
Y1122582D01*
X659905D01*
Y1121959D01*
Y1121335D01*
Y1120711D01*
Y1120088D01*
Y1119464D01*
Y1118840D01*
X659281D01*
Y1118216D01*
X658657D01*
Y1117593D01*
X656162D01*
Y1116969D01*
X654915D01*
Y1116345D01*
X654291D01*
Y1116969D01*
Y1117593D01*
Y1118216D01*
Y1118840D01*
Y1119464D01*
Y1120088D01*
Y1120711D01*
Y1121335D01*
Y1121959D01*
Y1122582D01*
X654915D01*
Y1123206D01*
X656162D01*
Y1123830D01*
X658034D01*
Y1123206D01*
D02*
G37*
G36*
X626848D02*
X628095D01*
Y1122582D01*
Y1121959D01*
X628719D01*
Y1121335D01*
Y1120711D01*
Y1120088D01*
Y1119464D01*
X628095D01*
Y1118840D01*
Y1118216D01*
X626848D01*
Y1117593D01*
X624977D01*
Y1116969D01*
X623729D01*
Y1116345D01*
X623106D01*
Y1116969D01*
Y1117593D01*
Y1118216D01*
X622482D01*
Y1118840D01*
Y1119464D01*
Y1120088D01*
Y1120711D01*
Y1121335D01*
X623106D01*
Y1121959D01*
Y1122582D01*
X623729D01*
Y1123206D01*
X624353D01*
Y1123830D01*
X626848D01*
Y1123206D01*
D02*
G37*
G36*
X704812Y1115722D02*
X706059D01*
Y1115098D01*
X707307D01*
Y1114474D01*
X707930D01*
Y1113850D01*
X708554D01*
Y1113227D01*
X709178D01*
Y1112603D01*
X709801D01*
Y1111979D01*
Y1111356D01*
X710425D01*
Y1110732D01*
Y1110108D01*
X711049D01*
Y1109484D01*
Y1108861D01*
Y1108237D01*
Y1107613D01*
X711673D01*
Y1106990D01*
Y1106366D01*
Y1105742D01*
Y1105119D01*
X711049D01*
Y1104495D01*
Y1103871D01*
Y1103247D01*
Y1102624D01*
X710425D01*
Y1102000D01*
Y1101376D01*
X709801D01*
Y1100753D01*
Y1100129D01*
X709178D01*
Y1099505D01*
X708554D01*
Y1098881D01*
X707930D01*
Y1098258D01*
X707307D01*
Y1097634D01*
X706059D01*
Y1097010D01*
X704812D01*
Y1096387D01*
X699822D01*
Y1097010D01*
X698575D01*
Y1097634D01*
X697951D01*
Y1098258D01*
Y1098881D01*
X697327D01*
Y1099505D01*
Y1100129D01*
Y1100753D01*
Y1101376D01*
Y1102000D01*
X697951D01*
Y1101376D01*
X699198D01*
Y1100753D01*
X703564D01*
Y1101376D01*
X704812D01*
Y1102000D01*
X705435D01*
Y1102624D01*
Y1103247D01*
X706059D01*
Y1103871D01*
Y1104495D01*
X706683D01*
Y1105119D01*
Y1105742D01*
Y1106366D01*
Y1106990D01*
Y1107613D01*
Y1108237D01*
X706059D01*
Y1108861D01*
Y1109484D01*
Y1110108D01*
X705435D01*
Y1110732D01*
X704812D01*
Y1111356D01*
X703564D01*
Y1111979D01*
X699198D01*
Y1111356D01*
X698575D01*
Y1110732D01*
X697951D01*
Y1110108D01*
X697327D01*
Y1109484D01*
Y1108861D01*
X696704D01*
Y1108237D01*
Y1107613D01*
Y1106990D01*
Y1106366D01*
Y1105742D01*
X696080D01*
Y1105119D01*
Y1104495D01*
Y1103871D01*
Y1103247D01*
Y1102624D01*
Y1102000D01*
Y1101376D01*
Y1100753D01*
Y1100129D01*
Y1099505D01*
Y1098881D01*
Y1098258D01*
Y1097634D01*
Y1097010D01*
Y1096387D01*
Y1095763D01*
Y1095139D01*
Y1094516D01*
Y1093892D01*
Y1093268D01*
Y1092644D01*
Y1092021D01*
Y1091397D01*
Y1090773D01*
Y1090150D01*
Y1089526D01*
X691714D01*
Y1090150D01*
Y1090773D01*
Y1091397D01*
Y1092021D01*
Y1092644D01*
Y1093268D01*
Y1093892D01*
Y1094516D01*
Y1095139D01*
Y1095763D01*
Y1096387D01*
Y1097010D01*
Y1097634D01*
Y1098258D01*
Y1098881D01*
Y1099505D01*
Y1100129D01*
Y1100753D01*
Y1101376D01*
Y1102000D01*
Y1102624D01*
Y1103247D01*
Y1103871D01*
Y1104495D01*
Y1105119D01*
Y1105742D01*
Y1106366D01*
Y1106990D01*
Y1107613D01*
Y1108237D01*
Y1108861D01*
Y1109484D01*
Y1110108D01*
Y1110732D01*
Y1111356D01*
Y1111979D01*
Y1112603D01*
Y1113227D01*
Y1113850D01*
X692338D01*
Y1114474D01*
X692961D01*
Y1115098D01*
X693585D01*
Y1115722D01*
X696080D01*
Y1115098D01*
Y1114474D01*
Y1113850D01*
X696704D01*
Y1114474D01*
X697951D01*
Y1115098D01*
X698575D01*
Y1115722D01*
X700446D01*
Y1116345D01*
X704812D01*
Y1115722D01*
D02*
G37*
G36*
X684853D02*
X686100D01*
Y1115098D01*
X686724D01*
Y1114474D01*
X687348D01*
Y1113850D01*
Y1113227D01*
X687972D01*
Y1112603D01*
Y1111979D01*
X687348D01*
Y1111356D01*
Y1110732D01*
X686724D01*
Y1110108D01*
X686100D01*
Y1110732D01*
X685477D01*
Y1111356D01*
X684229D01*
Y1111979D01*
X681111D01*
Y1111356D01*
Y1110732D01*
Y1110108D01*
Y1109484D01*
X682358D01*
Y1108861D01*
X683606D01*
Y1108237D01*
X684853D01*
Y1107613D01*
X686100D01*
Y1106990D01*
X686724D01*
Y1106366D01*
X687348D01*
Y1105742D01*
X687972D01*
Y1105119D01*
X688595D01*
Y1104495D01*
Y1103871D01*
X689219D01*
Y1103247D01*
Y1102624D01*
Y1102000D01*
Y1101376D01*
Y1100753D01*
Y1100129D01*
X688595D01*
Y1099505D01*
Y1098881D01*
X687972D01*
Y1098258D01*
X687348D01*
Y1097634D01*
X686100D01*
Y1097010D01*
X684853D01*
Y1096387D01*
X679863D01*
Y1097010D01*
X677992D01*
Y1097634D01*
X677368D01*
Y1098258D01*
X676745D01*
Y1098881D01*
X676121D01*
Y1099505D01*
Y1100129D01*
X676745D01*
Y1100753D01*
X677368D01*
Y1101376D01*
X677992D01*
Y1102000D01*
X679240D01*
Y1101376D01*
X680487D01*
Y1100753D01*
X684229D01*
Y1101376D01*
X684853D01*
Y1102000D01*
Y1102624D01*
X684229D01*
Y1103247D01*
X683606D01*
Y1103871D01*
X682982D01*
Y1104495D01*
X681734D01*
Y1105119D01*
X680487D01*
Y1105742D01*
X679240D01*
Y1106366D01*
X678616D01*
Y1106990D01*
X677992D01*
Y1107613D01*
X677368D01*
Y1108237D01*
X676745D01*
Y1108861D01*
Y1109484D01*
Y1110108D01*
X676121D01*
Y1110732D01*
Y1111356D01*
Y1111979D01*
X676745D01*
Y1112603D01*
Y1113227D01*
X677368D01*
Y1113850D01*
Y1114474D01*
X677992D01*
Y1115098D01*
X679240D01*
Y1115722D01*
X680487D01*
Y1116345D01*
X684853D01*
Y1115722D01*
D02*
G37*
G36*
X616869Y1121959D02*
X618116D01*
Y1121335D01*
X618740D01*
Y1120711D01*
X619363D01*
Y1120088D01*
Y1119464D01*
Y1118840D01*
Y1118216D01*
Y1117593D01*
Y1116969D01*
Y1116345D01*
Y1115722D01*
Y1115098D01*
Y1114474D01*
Y1113850D01*
Y1113227D01*
Y1112603D01*
Y1111979D01*
Y1111356D01*
Y1110732D01*
Y1110108D01*
Y1109484D01*
Y1108861D01*
Y1108237D01*
Y1107613D01*
Y1106990D01*
Y1106366D01*
Y1105742D01*
Y1105119D01*
Y1104495D01*
Y1103871D01*
Y1103247D01*
Y1102624D01*
Y1102000D01*
Y1101376D01*
Y1100753D01*
Y1100129D01*
Y1099505D01*
Y1098881D01*
Y1098258D01*
Y1097634D01*
Y1097010D01*
Y1096387D01*
X614997D01*
Y1097010D01*
Y1097634D01*
Y1098258D01*
X614374D01*
Y1097634D01*
X613126D01*
Y1097010D01*
X611879D01*
Y1096387D01*
X606265D01*
Y1097010D01*
X605018D01*
Y1097634D01*
X603771D01*
Y1098258D01*
X603147D01*
Y1098881D01*
X602523D01*
Y1099505D01*
X601899D01*
Y1100129D01*
Y1100753D01*
X601276D01*
Y1101376D01*
Y1102000D01*
X600652D01*
Y1102624D01*
Y1103247D01*
Y1103871D01*
Y1104495D01*
X600028D01*
Y1105119D01*
Y1105742D01*
Y1106366D01*
Y1106990D01*
Y1107613D01*
X600652D01*
Y1108237D01*
Y1108861D01*
Y1109484D01*
X601276D01*
Y1110108D01*
Y1110732D01*
Y1111356D01*
X601899D01*
Y1111979D01*
X602523D01*
Y1112603D01*
X603147D01*
Y1113227D01*
X603771D01*
Y1113850D01*
X604394D01*
Y1114474D01*
X605018D01*
Y1115098D01*
X606889D01*
Y1115722D01*
X611879D01*
Y1115098D01*
X612503D01*
Y1114474D01*
X613126D01*
Y1113850D01*
X613750D01*
Y1113227D01*
Y1112603D01*
X614374D01*
Y1111979D01*
Y1111356D01*
Y1110732D01*
Y1110108D01*
X613750D01*
Y1110732D01*
X613126D01*
Y1111356D01*
X607513D01*
Y1110732D01*
X606889D01*
Y1110108D01*
X606265D01*
Y1109484D01*
X605642D01*
Y1108861D01*
Y1108237D01*
X605018D01*
Y1107613D01*
Y1106990D01*
Y1106366D01*
Y1105742D01*
Y1105119D01*
Y1104495D01*
Y1103871D01*
Y1103247D01*
X605642D01*
Y1102624D01*
X606265D01*
Y1102000D01*
Y1101376D01*
X607513D01*
Y1100753D01*
X609384D01*
Y1100129D01*
X610631D01*
Y1100753D01*
X612503D01*
Y1101376D01*
X613126D01*
Y1102000D01*
X613750D01*
Y1102624D01*
X614374D01*
Y1103247D01*
Y1103871D01*
Y1104495D01*
X614997D01*
Y1105119D01*
Y1105742D01*
Y1106366D01*
Y1106990D01*
Y1107613D01*
Y1108237D01*
Y1108861D01*
Y1109484D01*
Y1110108D01*
Y1110732D01*
Y1111356D01*
Y1111979D01*
Y1112603D01*
Y1113227D01*
Y1113850D01*
Y1114474D01*
Y1115098D01*
Y1115722D01*
Y1116345D01*
Y1116969D01*
Y1117593D01*
Y1118216D01*
Y1118840D01*
Y1119464D01*
Y1120088D01*
Y1120711D01*
Y1121335D01*
Y1121959D01*
Y1122582D01*
X616869D01*
Y1121959D01*
D02*
G37*
G36*
X747848Y1115722D02*
X749719D01*
Y1115098D01*
X750343D01*
Y1114474D01*
X750966D01*
Y1113850D01*
X751590D01*
Y1113227D01*
Y1112603D01*
X752214D01*
Y1111979D01*
Y1111356D01*
Y1110732D01*
X751590D01*
Y1110108D01*
Y1109484D01*
X750343D01*
Y1110108D01*
X749719D01*
Y1110732D01*
X749095D01*
Y1111356D01*
X747848D01*
Y1111979D01*
X742858D01*
Y1111356D01*
X741611D01*
Y1110732D01*
X740987D01*
Y1110108D01*
X740363D01*
Y1109484D01*
X739740D01*
Y1108861D01*
Y1108237D01*
Y1107613D01*
Y1106990D01*
X739116D01*
Y1106366D01*
Y1105742D01*
Y1105119D01*
X739740D01*
Y1104495D01*
Y1103871D01*
Y1103247D01*
X740363D01*
Y1102624D01*
X740987D01*
Y1102000D01*
X741611D01*
Y1101376D01*
X742858D01*
Y1100753D01*
X747224D01*
Y1101376D01*
X748472D01*
Y1102000D01*
X749095D01*
Y1102624D01*
X750343D01*
Y1102000D01*
X750966D01*
Y1101376D01*
X752214D01*
Y1100753D01*
X752838D01*
Y1100129D01*
Y1099505D01*
X752214D01*
Y1098881D01*
X751590D01*
Y1098258D01*
X750966D01*
Y1097634D01*
X749719D01*
Y1097010D01*
X747848D01*
Y1096387D01*
X741611D01*
Y1097010D01*
X740363D01*
Y1097634D01*
X739116D01*
Y1098258D01*
X738492D01*
Y1098881D01*
X737868D01*
Y1099505D01*
X737245D01*
Y1100129D01*
X736621D01*
Y1100753D01*
Y1101376D01*
X735997D01*
Y1102000D01*
Y1102624D01*
X735374D01*
Y1103247D01*
Y1103871D01*
Y1104495D01*
X734750D01*
Y1105119D01*
Y1105742D01*
Y1106366D01*
Y1106990D01*
Y1107613D01*
Y1108237D01*
X735374D01*
Y1108861D01*
Y1109484D01*
Y1110108D01*
X735997D01*
Y1110732D01*
Y1111356D01*
X736621D01*
Y1111979D01*
Y1112603D01*
X737245D01*
Y1113227D01*
X737868D01*
Y1113850D01*
X738492D01*
Y1114474D01*
X739116D01*
Y1115098D01*
X740363D01*
Y1115722D01*
X742234D01*
Y1116345D01*
X747848D01*
Y1115722D01*
D02*
G37*
G36*
X768430D02*
X769678D01*
Y1115098D01*
X770301D01*
Y1114474D01*
X771549D01*
Y1113850D01*
X772173D01*
Y1113227D01*
Y1112603D01*
X772796D01*
Y1111979D01*
Y1111356D01*
X773420D01*
Y1110732D01*
Y1110108D01*
Y1109484D01*
Y1108861D01*
Y1108237D01*
X772796D01*
Y1107613D01*
Y1106990D01*
X772173D01*
Y1106366D01*
Y1105742D01*
X771549D01*
Y1105119D01*
X770301D01*
Y1104495D01*
X769054D01*
Y1103871D01*
X762817D01*
Y1104495D01*
X761570D01*
Y1105119D01*
X760946D01*
Y1105742D01*
Y1106366D01*
Y1106990D01*
X760322D01*
Y1107613D01*
X760946D01*
Y1108237D01*
X762193D01*
Y1107613D01*
X767807D01*
Y1108237D01*
X769054D01*
Y1108861D01*
Y1109484D01*
Y1110108D01*
Y1110732D01*
X768430D01*
Y1111356D01*
X767807D01*
Y1111979D01*
X766559D01*
Y1112603D01*
X763441D01*
Y1111979D01*
X762193D01*
Y1111356D01*
X761570D01*
Y1110732D01*
X760946D01*
Y1110108D01*
X760322D01*
Y1109484D01*
X759698D01*
Y1108861D01*
Y1108237D01*
Y1107613D01*
Y1106990D01*
Y1106366D01*
Y1105742D01*
Y1105119D01*
Y1104495D01*
Y1103871D01*
Y1103247D01*
X760322D01*
Y1102624D01*
Y1102000D01*
X760946D01*
Y1101376D01*
X761570D01*
Y1100753D01*
X763441D01*
Y1100129D01*
X765936D01*
Y1100753D01*
X767807D01*
Y1101376D01*
X769054D01*
Y1102000D01*
X770301D01*
Y1101376D01*
X771549D01*
Y1100753D01*
X772796D01*
Y1100129D01*
Y1099505D01*
X772173D01*
Y1098881D01*
X771549D01*
Y1098258D01*
X770925D01*
Y1097634D01*
X769678D01*
Y1097010D01*
X768430D01*
Y1096387D01*
X760946D01*
Y1097010D01*
X759698D01*
Y1097634D01*
X759075D01*
Y1098258D01*
X757827D01*
Y1098881D01*
X757204D01*
Y1099505D01*
Y1100129D01*
X756580D01*
Y1100753D01*
X755956D01*
Y1101376D01*
Y1102000D01*
X755332D01*
Y1102624D01*
Y1103247D01*
Y1103871D01*
X754709D01*
Y1104495D01*
Y1105119D01*
Y1105742D01*
Y1106366D01*
Y1106990D01*
Y1107613D01*
Y1108237D01*
X755332D01*
Y1108861D01*
Y1109484D01*
Y1110108D01*
X755956D01*
Y1110732D01*
Y1111356D01*
X756580D01*
Y1111979D01*
Y1112603D01*
X757204D01*
Y1113227D01*
X757827D01*
Y1113850D01*
X758451D01*
Y1114474D01*
X759075D01*
Y1115098D01*
X760322D01*
Y1115722D01*
X762193D01*
Y1116345D01*
X768430D01*
Y1115722D01*
D02*
G37*
G36*
X723523D02*
X724771D01*
Y1115098D01*
X725394D01*
Y1114474D01*
X726018D01*
Y1113850D01*
X726642D01*
Y1113227D01*
Y1112603D01*
Y1111979D01*
X727265D01*
Y1111356D01*
X726642D01*
Y1110732D01*
X726018D01*
Y1111356D01*
X724771D01*
Y1111979D01*
X721028D01*
Y1111356D01*
X719781D01*
Y1110732D01*
X719157D01*
Y1110108D01*
X718533D01*
Y1109484D01*
X717910D01*
Y1108861D01*
Y1108237D01*
Y1107613D01*
X717286D01*
Y1106990D01*
Y1106366D01*
Y1105742D01*
Y1105119D01*
Y1104495D01*
X717910D01*
Y1103871D01*
Y1103247D01*
Y1102624D01*
X718533D01*
Y1102000D01*
X719157D01*
Y1101376D01*
X719781D01*
Y1100753D01*
X721652D01*
Y1100129D01*
X723523D01*
Y1100753D01*
X725394D01*
Y1101376D01*
X726018D01*
Y1102000D01*
X726642D01*
Y1102624D01*
Y1103247D01*
X727265D01*
Y1103871D01*
Y1104495D01*
Y1105119D01*
X727889D01*
Y1105742D01*
Y1106366D01*
Y1106990D01*
Y1107613D01*
Y1108237D01*
Y1108861D01*
Y1109484D01*
Y1110108D01*
Y1110732D01*
Y1111356D01*
Y1111979D01*
Y1112603D01*
Y1113227D01*
Y1113850D01*
Y1114474D01*
Y1115098D01*
Y1115722D01*
X732879D01*
Y1115098D01*
Y1114474D01*
Y1113850D01*
Y1113227D01*
Y1112603D01*
Y1111979D01*
Y1111356D01*
Y1110732D01*
Y1110108D01*
Y1109484D01*
Y1108861D01*
Y1108237D01*
Y1107613D01*
Y1106990D01*
Y1106366D01*
Y1105742D01*
Y1105119D01*
Y1104495D01*
Y1103871D01*
Y1103247D01*
Y1102624D01*
Y1102000D01*
Y1101376D01*
Y1100753D01*
Y1100129D01*
Y1099505D01*
Y1098881D01*
Y1098258D01*
Y1097634D01*
Y1097010D01*
Y1096387D01*
X727889D01*
Y1097010D01*
Y1097634D01*
Y1098258D01*
X726642D01*
Y1097634D01*
X726018D01*
Y1097010D01*
X724771D01*
Y1096387D01*
X721652D01*
Y1095763D01*
X721028D01*
Y1096387D01*
X718533D01*
Y1097010D01*
X717286D01*
Y1097634D01*
X716039D01*
Y1098258D01*
X715415D01*
Y1098881D01*
X714791D01*
Y1099505D01*
Y1100129D01*
X714167D01*
Y1100753D01*
X713544D01*
Y1101376D01*
Y1102000D01*
Y1102624D01*
X712920D01*
Y1103247D01*
Y1103871D01*
Y1104495D01*
Y1105119D01*
Y1105742D01*
X712296D01*
Y1106366D01*
X712920D01*
Y1106990D01*
Y1107613D01*
Y1108237D01*
Y1108861D01*
Y1109484D01*
Y1110108D01*
X713544D01*
Y1110732D01*
Y1111356D01*
X714167D01*
Y1111979D01*
X714791D01*
Y1112603D01*
Y1113227D01*
X715415D01*
Y1113850D01*
X716039D01*
Y1114474D01*
X717286D01*
Y1115098D01*
X717910D01*
Y1115722D01*
X719781D01*
Y1116345D01*
X723523D01*
Y1115722D01*
D02*
G37*
G36*
X669884Y1121959D02*
Y1121335D01*
Y1120711D01*
Y1120088D01*
Y1119464D01*
Y1118840D01*
Y1118216D01*
Y1117593D01*
Y1116969D01*
Y1116345D01*
Y1115722D01*
X674250D01*
Y1115098D01*
Y1114474D01*
Y1113850D01*
X673626D01*
Y1113227D01*
Y1112603D01*
X673003D01*
Y1111979D01*
X669884D01*
Y1111356D01*
Y1110732D01*
Y1110108D01*
Y1109484D01*
Y1108861D01*
Y1108237D01*
Y1107613D01*
Y1106990D01*
Y1106366D01*
Y1105742D01*
Y1105119D01*
Y1104495D01*
Y1103871D01*
Y1103247D01*
Y1102624D01*
Y1102000D01*
Y1101376D01*
Y1100753D01*
Y1100129D01*
X673003D01*
Y1100753D01*
X673626D01*
Y1100129D01*
Y1099505D01*
Y1098881D01*
X673003D01*
Y1098258D01*
Y1097634D01*
X671755D01*
Y1097010D01*
X670508D01*
Y1096387D01*
X668013D01*
Y1097010D01*
X666765D01*
Y1097634D01*
X666142D01*
Y1098258D01*
X665518D01*
Y1098881D01*
Y1099505D01*
Y1100129D01*
X664894D01*
Y1100753D01*
Y1101376D01*
Y1102000D01*
Y1102624D01*
Y1103247D01*
Y1103871D01*
Y1104495D01*
Y1105119D01*
Y1105742D01*
Y1106366D01*
Y1106990D01*
Y1107613D01*
Y1108237D01*
Y1108861D01*
Y1109484D01*
Y1110108D01*
Y1110732D01*
Y1111356D01*
Y1111979D01*
X663023D01*
Y1112603D01*
Y1113227D01*
Y1113850D01*
Y1114474D01*
Y1115098D01*
Y1115722D01*
X664894D01*
Y1116345D01*
Y1116969D01*
Y1117593D01*
Y1118216D01*
Y1118840D01*
Y1119464D01*
X665518D01*
Y1120088D01*
Y1120711D01*
X666142D01*
Y1121335D01*
Y1121959D01*
X667389D01*
Y1122582D01*
X669884D01*
Y1121959D01*
D02*
G37*
G36*
X659905Y1115098D02*
Y1114474D01*
Y1113850D01*
Y1113227D01*
Y1112603D01*
Y1111979D01*
Y1111356D01*
Y1110732D01*
Y1110108D01*
Y1109484D01*
Y1108861D01*
Y1108237D01*
Y1107613D01*
Y1106990D01*
Y1106366D01*
Y1105742D01*
Y1105119D01*
Y1104495D01*
Y1103871D01*
Y1103247D01*
Y1102624D01*
Y1102000D01*
Y1101376D01*
Y1100753D01*
Y1100129D01*
Y1099505D01*
Y1098881D01*
Y1098258D01*
Y1097634D01*
Y1097010D01*
Y1096387D01*
X654915D01*
Y1097010D01*
Y1097634D01*
Y1098258D01*
Y1098881D01*
Y1099505D01*
Y1100129D01*
Y1100753D01*
Y1101376D01*
Y1102000D01*
Y1102624D01*
Y1103247D01*
Y1103871D01*
Y1104495D01*
Y1105119D01*
Y1105742D01*
Y1106366D01*
Y1106990D01*
Y1107613D01*
Y1108237D01*
Y1108861D01*
Y1109484D01*
Y1110108D01*
Y1110732D01*
Y1111356D01*
Y1111979D01*
Y1112603D01*
Y1113227D01*
Y1113850D01*
X655539D01*
Y1114474D01*
X656162D01*
Y1115098D01*
X656786D01*
Y1115722D01*
X659905D01*
Y1115098D01*
D02*
G37*
G36*
X628095D02*
Y1114474D01*
Y1113850D01*
Y1113227D01*
Y1112603D01*
Y1111979D01*
Y1111356D01*
Y1110732D01*
Y1110108D01*
Y1109484D01*
Y1108861D01*
Y1108237D01*
Y1107613D01*
Y1106990D01*
Y1106366D01*
Y1105742D01*
Y1105119D01*
Y1104495D01*
Y1103871D01*
Y1103247D01*
Y1102624D01*
Y1102000D01*
Y1101376D01*
Y1100753D01*
Y1100129D01*
Y1099505D01*
Y1098881D01*
Y1098258D01*
Y1097634D01*
Y1097010D01*
Y1096387D01*
X623106D01*
Y1097010D01*
Y1097634D01*
Y1098258D01*
Y1098881D01*
Y1099505D01*
Y1100129D01*
Y1100753D01*
Y1101376D01*
Y1102000D01*
Y1102624D01*
Y1103247D01*
Y1103871D01*
Y1104495D01*
Y1105119D01*
Y1105742D01*
Y1106366D01*
Y1106990D01*
Y1107613D01*
Y1108237D01*
Y1108861D01*
Y1109484D01*
Y1110108D01*
Y1110732D01*
Y1111356D01*
Y1111979D01*
X623729D01*
Y1112603D01*
Y1113227D01*
Y1113850D01*
X624353D01*
Y1114474D01*
X624977D01*
Y1115098D01*
X625601D01*
Y1115722D01*
X628095D01*
Y1115098D01*
D02*
G37*
G36*
X641817Y1115722D02*
X643064D01*
Y1115098D01*
X644312D01*
Y1114474D01*
Y1113850D01*
X644936D01*
Y1113227D01*
Y1112603D01*
X645559D01*
Y1111979D01*
Y1111356D01*
Y1110732D01*
X644312D01*
Y1111356D01*
X643064D01*
Y1111979D01*
X639322D01*
Y1111356D01*
X638075D01*
Y1110732D01*
X637451D01*
Y1110108D01*
X636827D01*
Y1109484D01*
X636204D01*
Y1108861D01*
Y1108237D01*
Y1107613D01*
X635580D01*
Y1106990D01*
Y1106366D01*
Y1105742D01*
Y1105119D01*
Y1104495D01*
X636204D01*
Y1103871D01*
Y1103247D01*
X636827D01*
Y1102624D01*
X637451D01*
Y1102000D01*
X638075D01*
Y1101376D01*
X639322D01*
Y1100753D01*
X642441D01*
Y1101376D01*
X643688D01*
Y1102000D01*
X644312D01*
Y1102624D01*
X644936D01*
Y1103247D01*
X645559D01*
Y1103871D01*
Y1104495D01*
Y1105119D01*
X646183D01*
Y1105742D01*
Y1106366D01*
Y1106990D01*
Y1107613D01*
Y1108237D01*
Y1108861D01*
Y1109484D01*
Y1110108D01*
Y1110732D01*
Y1111356D01*
Y1111979D01*
Y1112603D01*
Y1113227D01*
Y1113850D01*
Y1114474D01*
Y1115098D01*
Y1115722D01*
X651173D01*
Y1115098D01*
Y1114474D01*
Y1113850D01*
Y1113227D01*
Y1112603D01*
Y1111979D01*
Y1111356D01*
Y1110732D01*
Y1110108D01*
Y1109484D01*
Y1108861D01*
Y1108237D01*
Y1107613D01*
Y1106990D01*
Y1106366D01*
Y1105742D01*
Y1105119D01*
Y1104495D01*
Y1103871D01*
Y1103247D01*
Y1102624D01*
Y1102000D01*
Y1101376D01*
Y1100753D01*
Y1100129D01*
Y1099505D01*
Y1098881D01*
Y1098258D01*
Y1097634D01*
Y1097010D01*
Y1096387D01*
X650549D01*
Y1095763D01*
Y1095139D01*
Y1094516D01*
X649925D01*
Y1093892D01*
Y1093268D01*
X649302D01*
Y1092644D01*
Y1092021D01*
X648678D01*
Y1091397D01*
X647430D01*
Y1090773D01*
X646807D01*
Y1090150D01*
X645559D01*
Y1089526D01*
X643064D01*
Y1088902D01*
X639322D01*
Y1089526D01*
X636827D01*
Y1090150D01*
X634956D01*
Y1090773D01*
X634333D01*
Y1091397D01*
X633709D01*
Y1092021D01*
X633085D01*
Y1092644D01*
Y1093268D01*
X632461D01*
Y1093892D01*
Y1094516D01*
Y1095139D01*
Y1095763D01*
Y1096387D01*
X633085D01*
Y1095763D01*
X633709D01*
Y1095139D01*
X634956D01*
Y1094516D01*
X636827D01*
Y1093892D01*
X639322D01*
Y1093268D01*
X641193D01*
Y1093892D01*
X643688D01*
Y1094516D01*
X644936D01*
Y1095139D01*
Y1095763D01*
X645559D01*
Y1096387D01*
Y1097010D01*
X646183D01*
Y1097634D01*
Y1098258D01*
Y1098881D01*
X645559D01*
Y1098258D01*
X644312D01*
Y1097634D01*
X643688D01*
Y1097010D01*
X641817D01*
Y1096387D01*
X638075D01*
Y1097010D01*
X636204D01*
Y1097634D01*
X635580D01*
Y1098258D01*
X634333D01*
Y1098881D01*
X633709D01*
Y1099505D01*
X633085D01*
Y1100129D01*
Y1100753D01*
X632461D01*
Y1101376D01*
X631838D01*
Y1102000D01*
Y1102624D01*
Y1103247D01*
X631214D01*
Y1103871D01*
Y1104495D01*
Y1105119D01*
Y1105742D01*
Y1106366D01*
Y1106990D01*
Y1107613D01*
Y1108237D01*
Y1108861D01*
Y1109484D01*
Y1110108D01*
X631838D01*
Y1110732D01*
Y1111356D01*
X632461D01*
Y1111979D01*
Y1112603D01*
X633085D01*
Y1113227D01*
X633709D01*
Y1113850D01*
X634333D01*
Y1114474D01*
X634956D01*
Y1115098D01*
X636204D01*
Y1115722D01*
X638075D01*
Y1116345D01*
X641817D01*
Y1115722D01*
D02*
G37*
G36*
X731422Y1043614D02*
X733300D01*
Y1043379D01*
X734474D01*
Y1043144D01*
X735179D01*
Y1042909D01*
X735883D01*
Y1042674D01*
X736588D01*
Y1042439D01*
X737057D01*
Y1042205D01*
X737527D01*
Y1041970D01*
X737997D01*
Y1041735D01*
X738466D01*
Y1041500D01*
X738936D01*
Y1041265D01*
X739171D01*
Y1041030D01*
X739641D01*
Y1040796D01*
X739875D01*
Y1040561D01*
X740345D01*
Y1040326D01*
X740580D01*
Y1040091D01*
X740815D01*
Y1039856D01*
X741049D01*
Y1039622D01*
X741519D01*
Y1039387D01*
X741754D01*
Y1039152D01*
X741989D01*
Y1038917D01*
X742224D01*
Y1038682D01*
X742458D01*
Y1038447D01*
Y1038213D01*
X742693D01*
Y1037978D01*
X742928D01*
Y1037743D01*
X743163D01*
Y1037508D01*
X743398D01*
Y1037273D01*
X743633D01*
Y1037038D01*
Y1036804D01*
X743867D01*
Y1036569D01*
X744102D01*
Y1036334D01*
Y1036099D01*
X744337D01*
Y1035864D01*
X744572D01*
Y1035630D01*
Y1035395D01*
X744807D01*
Y1035160D01*
Y1034925D01*
X745041D01*
Y1034690D01*
Y1034455D01*
X745276D01*
Y1034221D01*
Y1033986D01*
X745511D01*
Y1033751D01*
Y1033516D01*
Y1033281D01*
X745746D01*
Y1033046D01*
Y1032812D01*
X745981D01*
Y1032577D01*
Y1032342D01*
Y1032107D01*
Y1031872D01*
X746216D01*
Y1031637D01*
Y1031403D01*
Y1031168D01*
Y1030933D01*
X746450D01*
Y1030698D01*
Y1030463D01*
Y1030229D01*
Y1029994D01*
Y1029759D01*
X746685D01*
Y1029524D01*
Y1029289D01*
Y1029054D01*
Y1028820D01*
Y1028585D01*
Y1028350D01*
Y1028115D01*
Y1027880D01*
Y1027645D01*
Y1027411D01*
Y1027176D01*
Y1026941D01*
Y1026706D01*
Y1026471D01*
Y1026236D01*
Y1026002D01*
Y1025767D01*
Y1025532D01*
Y1025297D01*
Y1025062D01*
Y1024827D01*
Y1024593D01*
Y1024358D01*
Y1024123D01*
Y1023888D01*
Y1023653D01*
Y1023419D01*
Y1023184D01*
Y1022949D01*
Y1022714D01*
Y1022479D01*
Y1022244D01*
Y1022010D01*
Y1021775D01*
Y1021540D01*
Y1021305D01*
Y1021070D01*
Y1020835D01*
Y1020601D01*
Y1020366D01*
Y1020131D01*
Y1019896D01*
Y1019661D01*
Y1019427D01*
Y1019192D01*
Y1018957D01*
Y1018722D01*
Y1018487D01*
Y1018252D01*
Y1018018D01*
Y1017783D01*
Y1017548D01*
Y1017313D01*
Y1017078D01*
Y1016843D01*
Y1016609D01*
Y1016374D01*
Y1016139D01*
Y1015904D01*
Y1015669D01*
Y1015434D01*
Y1015200D01*
Y1014965D01*
Y1014730D01*
Y1014495D01*
Y1014260D01*
Y1014026D01*
Y1013791D01*
Y1013556D01*
Y1013321D01*
Y1013086D01*
Y1012851D01*
Y1012617D01*
Y1012382D01*
Y1012147D01*
Y1011912D01*
Y1011677D01*
Y1011443D01*
Y1011208D01*
Y1010973D01*
Y1010738D01*
Y1010503D01*
Y1010268D01*
Y1010034D01*
Y1009799D01*
Y1009564D01*
Y1009329D01*
Y1009094D01*
Y1008859D01*
Y1008625D01*
Y1008390D01*
Y1008155D01*
Y1007920D01*
Y1007685D01*
Y1007450D01*
Y1007216D01*
Y1006981D01*
Y1006746D01*
Y1006511D01*
Y1006276D01*
Y1006042D01*
Y1005807D01*
Y1005572D01*
Y1005337D01*
Y1005102D01*
Y1004867D01*
Y1004633D01*
Y1004398D01*
Y1004163D01*
Y1003928D01*
Y1003693D01*
Y1003458D01*
Y1003224D01*
Y1002989D01*
Y1002754D01*
Y1002519D01*
Y1002284D01*
Y1002050D01*
Y1001815D01*
Y1001580D01*
Y1001345D01*
Y1001110D01*
Y1000875D01*
Y1000641D01*
Y1000406D01*
Y1000171D01*
Y999936D01*
Y999701D01*
Y999466D01*
Y999232D01*
Y998997D01*
Y998762D01*
Y998527D01*
Y998292D01*
Y998057D01*
Y997823D01*
Y997588D01*
Y997353D01*
Y997118D01*
Y996883D01*
Y996649D01*
Y996414D01*
Y996179D01*
Y995944D01*
Y995709D01*
Y995474D01*
Y995240D01*
Y995005D01*
Y994770D01*
Y994535D01*
Y994300D01*
Y994065D01*
Y993831D01*
Y993596D01*
Y993361D01*
Y993126D01*
Y992891D01*
Y992657D01*
Y992422D01*
Y992187D01*
Y991952D01*
Y991717D01*
Y991482D01*
Y991248D01*
Y991013D01*
Y990778D01*
Y990543D01*
Y990308D01*
Y990073D01*
Y989839D01*
Y989604D01*
Y989369D01*
Y989134D01*
Y988899D01*
Y988665D01*
Y988430D01*
Y988195D01*
Y987960D01*
Y987725D01*
Y987490D01*
Y987256D01*
Y987021D01*
Y986786D01*
Y986551D01*
Y986316D01*
Y986081D01*
Y985847D01*
Y985612D01*
Y985377D01*
Y985142D01*
Y984907D01*
Y984672D01*
Y984438D01*
Y984203D01*
Y983968D01*
Y983733D01*
Y983498D01*
Y983264D01*
Y983029D01*
Y982794D01*
Y982559D01*
Y982324D01*
Y982089D01*
Y981855D01*
Y981620D01*
Y981385D01*
Y981150D01*
Y980915D01*
Y980680D01*
Y980446D01*
Y980211D01*
Y979976D01*
Y979741D01*
Y979506D01*
Y979271D01*
Y979037D01*
Y978802D01*
Y978567D01*
Y978332D01*
Y978098D01*
Y977863D01*
Y977628D01*
Y977393D01*
Y977158D01*
Y976923D01*
Y976689D01*
Y976454D01*
Y976219D01*
Y975984D01*
Y975749D01*
Y975514D01*
Y975280D01*
Y975045D01*
Y974810D01*
Y974575D01*
Y974340D01*
Y974105D01*
Y973871D01*
Y973636D01*
Y973401D01*
Y973166D01*
Y972931D01*
Y972697D01*
Y972462D01*
Y972227D01*
Y971992D01*
Y971757D01*
Y971522D01*
Y971288D01*
Y971053D01*
Y970818D01*
Y970583D01*
Y970348D01*
Y970113D01*
Y969879D01*
Y969644D01*
Y969409D01*
Y969174D01*
Y968939D01*
Y968705D01*
Y968470D01*
Y968235D01*
Y968000D01*
Y967765D01*
Y967530D01*
Y967296D01*
Y967061D01*
Y966826D01*
Y966591D01*
Y966356D01*
Y966121D01*
Y965887D01*
Y965652D01*
Y965417D01*
Y965182D01*
Y964947D01*
Y964712D01*
Y964478D01*
Y964243D01*
Y964008D01*
Y963773D01*
Y963538D01*
Y963304D01*
Y963069D01*
Y962834D01*
Y962599D01*
Y962364D01*
Y962129D01*
Y961895D01*
Y961660D01*
Y961425D01*
Y961190D01*
Y960955D01*
Y960720D01*
Y960486D01*
Y960251D01*
Y960016D01*
Y959781D01*
Y959546D01*
Y959312D01*
Y959077D01*
Y958842D01*
Y958607D01*
Y958372D01*
Y958137D01*
Y957903D01*
Y957668D01*
Y957433D01*
Y957198D01*
Y956963D01*
Y956728D01*
Y956494D01*
Y956259D01*
X746450D01*
Y956024D01*
Y955789D01*
Y955554D01*
Y955320D01*
Y955085D01*
Y954850D01*
X746216D01*
Y954615D01*
Y954380D01*
Y954145D01*
Y953911D01*
X745981D01*
Y953676D01*
Y953441D01*
Y953206D01*
X745746D01*
Y952971D01*
Y952736D01*
Y952502D01*
X745511D01*
Y952267D01*
Y952032D01*
X745276D01*
Y951797D01*
Y951562D01*
X745041D01*
Y951327D01*
Y951093D01*
X744807D01*
Y950858D01*
Y950623D01*
X744572D01*
Y950388D01*
Y950153D01*
X744337D01*
Y949919D01*
Y949684D01*
X744102D01*
Y949449D01*
X743867D01*
Y949214D01*
Y948979D01*
X743633D01*
Y948744D01*
X743398D01*
Y948510D01*
X743163D01*
Y948275D01*
Y948040D01*
X742928D01*
Y947805D01*
X742693D01*
Y947570D01*
X742458D01*
Y947335D01*
X742224D01*
Y947101D01*
X741989D01*
Y946866D01*
X741754D01*
Y946631D01*
X741519D01*
Y946396D01*
X741284D01*
Y946161D01*
X741049D01*
Y945927D01*
X740815D01*
Y945692D01*
X740345D01*
Y945457D01*
X740110D01*
Y945222D01*
X739875D01*
Y944987D01*
X739406D01*
Y944752D01*
X739171D01*
Y944518D01*
X738701D01*
Y944283D01*
X738232D01*
Y944048D01*
X737762D01*
Y943813D01*
X737292D01*
Y943578D01*
X736823D01*
Y943343D01*
X736353D01*
Y943109D01*
X735648D01*
Y942874D01*
X734944D01*
Y942639D01*
X734005D01*
Y942404D01*
X732596D01*
Y942169D01*
X659096D01*
Y942404D01*
X657922D01*
Y942639D01*
X656982D01*
Y942874D01*
X656043D01*
Y943109D01*
X655573D01*
Y943343D01*
X654869D01*
Y943578D01*
X654399D01*
Y943813D01*
X653930D01*
Y944048D01*
X653460D01*
Y944283D01*
X652990D01*
Y944518D01*
X652755D01*
Y944752D01*
X652286D01*
Y944987D01*
X652051D01*
Y945222D01*
X651581D01*
Y945457D01*
X651346D01*
Y945692D01*
X651112D01*
Y945927D01*
X650877D01*
Y946161D01*
X650642D01*
Y946396D01*
X650172D01*
Y946631D01*
X649938D01*
Y946866D01*
X649703D01*
Y947101D01*
X649468D01*
Y947335D01*
X649233D01*
Y947570D01*
Y947805D01*
X648998D01*
Y948040D01*
X648763D01*
Y948275D01*
X648529D01*
Y948510D01*
X648294D01*
Y948744D01*
Y948979D01*
X648059D01*
Y949214D01*
X647824D01*
Y949449D01*
Y949684D01*
X647589D01*
Y949919D01*
X647354D01*
Y950153D01*
Y950388D01*
X647120D01*
Y950623D01*
Y950858D01*
X646885D01*
Y951093D01*
Y951327D01*
X646650D01*
Y951562D01*
Y951797D01*
X646415D01*
Y952032D01*
Y952267D01*
X646180D01*
Y952502D01*
Y952736D01*
Y952971D01*
X645946D01*
Y953206D01*
Y953441D01*
Y953676D01*
X645711D01*
Y953911D01*
Y954145D01*
Y954380D01*
X645476D01*
Y954615D01*
Y954850D01*
Y955085D01*
Y955320D01*
Y955554D01*
X645241D01*
Y955789D01*
Y956024D01*
Y956259D01*
Y956494D01*
Y956728D01*
Y956963D01*
Y957198D01*
Y957433D01*
X645006D01*
Y957668D01*
Y957903D01*
Y958137D01*
Y958372D01*
Y958607D01*
Y958842D01*
Y959077D01*
Y959312D01*
Y959546D01*
Y959781D01*
Y960016D01*
Y960251D01*
Y960486D01*
Y960720D01*
Y960955D01*
Y961190D01*
Y961425D01*
Y961660D01*
Y961895D01*
Y962129D01*
Y962364D01*
Y962599D01*
Y962834D01*
Y963069D01*
Y963304D01*
Y963538D01*
Y963773D01*
Y964008D01*
Y964243D01*
Y964478D01*
Y964712D01*
Y964947D01*
Y965182D01*
Y965417D01*
Y965652D01*
Y965887D01*
Y966121D01*
Y966356D01*
Y966591D01*
Y966826D01*
Y967061D01*
Y967296D01*
Y967530D01*
Y967765D01*
Y968000D01*
Y968235D01*
Y968470D01*
Y968705D01*
Y968939D01*
Y969174D01*
Y969409D01*
Y969644D01*
Y969879D01*
Y970113D01*
Y970348D01*
Y970583D01*
Y970818D01*
Y971053D01*
Y971288D01*
Y971522D01*
Y971757D01*
Y971992D01*
Y972227D01*
Y972462D01*
Y972697D01*
Y972931D01*
Y973166D01*
Y973401D01*
Y973636D01*
Y973871D01*
Y974105D01*
Y974340D01*
Y974575D01*
Y974810D01*
Y975045D01*
Y975280D01*
Y975514D01*
Y975749D01*
Y975984D01*
Y976219D01*
Y976454D01*
Y976689D01*
Y976923D01*
Y977158D01*
Y977393D01*
Y977628D01*
Y977863D01*
Y978098D01*
Y978332D01*
Y978567D01*
Y978802D01*
Y979037D01*
Y979271D01*
Y979506D01*
Y979741D01*
Y979976D01*
Y980211D01*
Y980446D01*
Y980680D01*
Y980915D01*
Y981150D01*
Y981385D01*
Y981620D01*
Y981855D01*
Y982089D01*
Y982324D01*
Y982559D01*
Y982794D01*
Y983029D01*
Y983264D01*
Y983498D01*
Y983733D01*
Y983968D01*
Y984203D01*
Y984438D01*
Y984672D01*
Y984907D01*
Y985142D01*
Y985377D01*
Y985612D01*
Y985847D01*
Y986081D01*
Y986316D01*
Y986551D01*
Y986786D01*
Y987021D01*
Y987256D01*
Y987490D01*
Y987725D01*
Y987960D01*
Y988195D01*
Y988430D01*
Y988665D01*
Y988899D01*
Y989134D01*
Y989369D01*
Y989604D01*
Y989839D01*
Y990073D01*
Y990308D01*
Y990543D01*
Y990778D01*
Y991013D01*
Y991248D01*
Y991482D01*
Y991717D01*
Y991952D01*
Y992187D01*
Y992422D01*
Y992657D01*
Y992891D01*
Y993126D01*
Y993361D01*
Y993596D01*
Y993831D01*
Y994065D01*
Y994300D01*
Y994535D01*
Y994770D01*
Y995005D01*
Y995240D01*
Y995474D01*
Y995709D01*
Y995944D01*
Y996179D01*
Y996414D01*
Y996649D01*
Y996883D01*
Y997118D01*
Y997353D01*
Y997588D01*
Y997823D01*
Y998057D01*
Y998292D01*
Y998527D01*
Y998762D01*
Y998997D01*
Y999232D01*
Y999466D01*
Y999701D01*
Y999936D01*
Y1000171D01*
Y1000406D01*
Y1000641D01*
Y1000875D01*
Y1001110D01*
Y1001345D01*
Y1001580D01*
Y1001815D01*
Y1002050D01*
Y1002284D01*
Y1002519D01*
Y1002754D01*
Y1002989D01*
Y1003224D01*
Y1003458D01*
Y1003693D01*
Y1003928D01*
Y1004163D01*
Y1004398D01*
Y1004633D01*
Y1004867D01*
Y1005102D01*
Y1005337D01*
Y1005572D01*
Y1005807D01*
Y1006042D01*
Y1006276D01*
Y1006511D01*
Y1006746D01*
Y1006981D01*
Y1007216D01*
Y1007450D01*
Y1007685D01*
Y1007920D01*
Y1008155D01*
Y1008390D01*
Y1008625D01*
Y1008859D01*
Y1009094D01*
Y1009329D01*
Y1009564D01*
Y1009799D01*
Y1010034D01*
Y1010268D01*
Y1010503D01*
Y1010738D01*
Y1010973D01*
Y1011208D01*
Y1011443D01*
Y1011677D01*
Y1011912D01*
Y1012147D01*
Y1012382D01*
Y1012617D01*
Y1012851D01*
Y1013086D01*
Y1013321D01*
Y1013556D01*
Y1013791D01*
Y1014026D01*
Y1014260D01*
Y1014495D01*
Y1014730D01*
Y1014965D01*
Y1015200D01*
Y1015434D01*
Y1015669D01*
Y1015904D01*
Y1016139D01*
Y1016374D01*
Y1016609D01*
Y1016843D01*
Y1017078D01*
Y1017313D01*
Y1017548D01*
Y1017783D01*
Y1018018D01*
Y1018252D01*
Y1018487D01*
Y1018722D01*
Y1018957D01*
Y1019192D01*
Y1019427D01*
Y1019661D01*
Y1019896D01*
Y1020131D01*
Y1020366D01*
Y1020601D01*
Y1020835D01*
Y1021070D01*
Y1021305D01*
Y1021540D01*
Y1021775D01*
Y1022010D01*
Y1022244D01*
Y1022479D01*
Y1022714D01*
Y1022949D01*
Y1023184D01*
Y1023419D01*
Y1023653D01*
Y1023888D01*
Y1024123D01*
Y1024358D01*
Y1024593D01*
Y1024827D01*
Y1025062D01*
Y1025297D01*
Y1025532D01*
Y1025767D01*
Y1026002D01*
Y1026236D01*
Y1026471D01*
Y1026706D01*
Y1026941D01*
Y1027176D01*
Y1027411D01*
Y1027645D01*
Y1027880D01*
Y1028115D01*
Y1028350D01*
Y1028585D01*
X645241D01*
Y1028820D01*
Y1029054D01*
Y1029289D01*
Y1029524D01*
Y1029759D01*
Y1029994D01*
Y1030229D01*
Y1030463D01*
X645476D01*
Y1030698D01*
Y1030933D01*
Y1031168D01*
Y1031403D01*
X645711D01*
Y1031637D01*
Y1031872D01*
Y1032107D01*
Y1032342D01*
X645946D01*
Y1032577D01*
Y1032812D01*
Y1033046D01*
X646180D01*
Y1033281D01*
Y1033516D01*
X646415D01*
Y1033751D01*
Y1033986D01*
Y1034221D01*
X646650D01*
Y1034455D01*
Y1034690D01*
X646885D01*
Y1034925D01*
Y1035160D01*
X647120D01*
Y1035395D01*
Y1035630D01*
X647354D01*
Y1035864D01*
X647589D01*
Y1036099D01*
Y1036334D01*
X647824D01*
Y1036569D01*
X648059D01*
Y1036804D01*
Y1037038D01*
X648294D01*
Y1037273D01*
X648529D01*
Y1037508D01*
X648763D01*
Y1037743D01*
Y1037978D01*
X648998D01*
Y1038213D01*
X649233D01*
Y1038447D01*
X649468D01*
Y1038682D01*
X649703D01*
Y1038917D01*
X649938D01*
Y1039152D01*
X650172D01*
Y1039387D01*
X650407D01*
Y1039622D01*
X650642D01*
Y1039856D01*
X650877D01*
Y1040091D01*
X651346D01*
Y1040326D01*
X651581D01*
Y1040561D01*
X651816D01*
Y1040796D01*
X652286D01*
Y1041030D01*
X652521D01*
Y1041265D01*
X652990D01*
Y1041500D01*
X653225D01*
Y1041735D01*
X653695D01*
Y1041970D01*
X654164D01*
Y1042205D01*
X654634D01*
Y1042439D01*
X655338D01*
Y1042674D01*
X655808D01*
Y1042909D01*
X656513D01*
Y1043144D01*
X657452D01*
Y1043379D01*
X658391D01*
Y1043614D01*
X660270D01*
Y1043848D01*
X731422D01*
Y1043614D01*
D02*
G37*
G36*
X631338Y1144110D02*
X631431Y1144091D01*
X631560Y1144054D01*
X631671Y1143999D01*
X631801Y1143925D01*
X631931Y1143832D01*
X631949Y1143813D01*
X631986Y1143776D01*
X632023Y1143721D01*
X632097Y1143628D01*
X632153Y1143517D01*
X632190Y1143369D01*
X632227Y1143221D01*
X632245Y1143036D01*
Y1143017D01*
Y1142962D01*
X632227Y1142869D01*
X632208Y1142758D01*
X632171Y1142628D01*
X632116Y1142499D01*
X632042Y1142351D01*
X631931Y1142240D01*
X631912Y1142221D01*
X631875Y1142203D01*
X631801Y1142147D01*
X631727Y1142110D01*
X631616Y1142054D01*
X631486Y1141999D01*
X631338Y1141980D01*
X631171Y1141962D01*
X631097D01*
X631023Y1141980D01*
X630912Y1141999D01*
X630783Y1142036D01*
X630671Y1142073D01*
X630542Y1142147D01*
X630412Y1142240D01*
X630394Y1142258D01*
X630357Y1142295D01*
X630320Y1142369D01*
X630264Y1142443D01*
X630190Y1142573D01*
X630153Y1142702D01*
X630116Y1142851D01*
X630097Y1143036D01*
Y1143054D01*
Y1143128D01*
X630116Y1143202D01*
X630134Y1143332D01*
X630171Y1143443D01*
X630227Y1143591D01*
X630301Y1143721D01*
X630412Y1143832D01*
X630431Y1143850D01*
X630468Y1143888D01*
X630542Y1143925D01*
X630634Y1143980D01*
X630745Y1144036D01*
X630875Y1144091D01*
X631005Y1144110D01*
X631171Y1144128D01*
X631245D01*
X631338Y1144110D01*
D02*
G37*
G36*
X745771Y1131259D02*
X745752D01*
X745659Y1131241D01*
X745548Y1131204D01*
X745363Y1131167D01*
X745160Y1131111D01*
X744900Y1131056D01*
X744622Y1131000D01*
X744289Y1130944D01*
X744252D01*
X744197Y1130926D01*
X744141D01*
X743956Y1130889D01*
X743697Y1130870D01*
X743400Y1130833D01*
X743049Y1130796D01*
X742678Y1130778D01*
X742067D01*
X741864Y1130796D01*
X741604Y1130815D01*
X741308Y1130852D01*
X740993Y1130926D01*
X740660Y1131000D01*
X740327Y1131111D01*
X740290Y1131130D01*
X740179Y1131167D01*
X740030Y1131259D01*
X739827Y1131352D01*
X739604Y1131500D01*
X739345Y1131667D01*
X739105Y1131852D01*
X738864Y1132074D01*
X738845Y1132111D01*
X738771Y1132185D01*
X738660Y1132315D01*
X738512Y1132500D01*
X738364Y1132722D01*
X738216Y1132981D01*
X738049Y1133278D01*
X737919Y1133592D01*
Y1133611D01*
X737901Y1133629D01*
X737883Y1133685D01*
X737864Y1133759D01*
X737827Y1133944D01*
X737771Y1134185D01*
X737697Y1134481D01*
X737660Y1134833D01*
X737623Y1135222D01*
X737605Y1135629D01*
Y1135648D01*
Y1135685D01*
Y1135740D01*
Y1135814D01*
X737623Y1136018D01*
X737642Y1136277D01*
X737660Y1136573D01*
X737716Y1136888D01*
X737771Y1137240D01*
X737864Y1137573D01*
Y1137592D01*
X737883Y1137610D01*
X737919Y1137721D01*
X737975Y1137888D01*
X738068Y1138110D01*
X738179Y1138351D01*
X738327Y1138610D01*
X738493Y1138870D01*
X738679Y1139110D01*
X738697Y1139147D01*
X738771Y1139221D01*
X738882Y1139333D01*
X739049Y1139481D01*
X739234Y1139647D01*
X739456Y1139814D01*
X739716Y1139962D01*
X739993Y1140110D01*
X740030Y1140129D01*
X740123Y1140166D01*
X740290Y1140221D01*
X740512Y1140295D01*
X740771Y1140369D01*
X741067Y1140425D01*
X741401Y1140462D01*
X741771Y1140480D01*
X741901D01*
X742049Y1140462D01*
X742252D01*
X742456Y1140425D01*
X742697Y1140388D01*
X742937Y1140332D01*
X743178Y1140258D01*
X743197Y1140240D01*
X743271Y1140221D01*
X743382Y1140184D01*
X743530Y1140129D01*
X743826Y1139999D01*
X743975Y1139925D01*
X744104Y1139851D01*
Y1144536D01*
X745771Y1144832D01*
Y1131259D01*
D02*
G37*
G36*
X717811Y1140443D02*
X718014Y1140425D01*
X718125D01*
X718181Y1140406D01*
X718366Y1140388D01*
X718551Y1140351D01*
X718607D01*
X718718Y1140332D01*
X718885Y1140295D01*
X719051Y1140258D01*
X719088D01*
X719181Y1140240D01*
X719292Y1140221D01*
X719384Y1140184D01*
X719088Y1138740D01*
X719051Y1138758D01*
X719014Y1138777D01*
X718940Y1138795D01*
X718847Y1138814D01*
X718736Y1138851D01*
X718607Y1138870D01*
X718440Y1138907D01*
X718422D01*
X718366Y1138925D01*
X718255Y1138944D01*
X718125Y1138962D01*
X717959Y1138981D01*
X717755Y1138999D01*
X717533Y1139018D01*
X717107D01*
X716977Y1138999D01*
X716848D01*
X716681Y1138981D01*
X716348Y1138907D01*
X716329D01*
X716274Y1138888D01*
X716200Y1138870D01*
X716107Y1138851D01*
X715922Y1138814D01*
X715829Y1138795D01*
X715774Y1138777D01*
Y1131000D01*
X714107D01*
Y1139869D01*
X714126Y1139888D01*
X714218Y1139906D01*
X714329Y1139943D01*
X714496Y1139999D01*
X714718Y1140055D01*
X714959Y1140129D01*
X715237Y1140184D01*
X715552Y1140258D01*
X715570D01*
X715589Y1140277D01*
X715644D01*
X715700Y1140295D01*
X715885Y1140332D01*
X716125Y1140369D01*
X716422Y1140406D01*
X716755Y1140425D01*
X717125Y1140462D01*
X717662D01*
X717811Y1140443D01*
D02*
G37*
G36*
X616654D02*
X616858Y1140425D01*
X616969D01*
X617025Y1140406D01*
X617210Y1140388D01*
X617395Y1140351D01*
X617450D01*
X617562Y1140332D01*
X617728Y1140295D01*
X617895Y1140258D01*
X617932D01*
X618024Y1140240D01*
X618136Y1140221D01*
X618228Y1140184D01*
X617932Y1138740D01*
X617895Y1138758D01*
X617858Y1138777D01*
X617784Y1138795D01*
X617691Y1138814D01*
X617580Y1138851D01*
X617450Y1138870D01*
X617284Y1138907D01*
X617265D01*
X617210Y1138925D01*
X617099Y1138944D01*
X616969Y1138962D01*
X616802Y1138981D01*
X616599Y1138999D01*
X616377Y1139018D01*
X615951D01*
X615821Y1138999D01*
X615691D01*
X615525Y1138981D01*
X615191Y1138907D01*
X615173D01*
X615117Y1138888D01*
X615043Y1138870D01*
X614951Y1138851D01*
X614766Y1138814D01*
X614673Y1138795D01*
X614618Y1138777D01*
Y1131000D01*
X612951D01*
Y1139869D01*
X612970Y1139888D01*
X613062Y1139906D01*
X613173Y1139943D01*
X613340Y1139999D01*
X613562Y1140055D01*
X613803Y1140129D01*
X614081Y1140184D01*
X614395Y1140258D01*
X614414D01*
X614432Y1140277D01*
X614488D01*
X614543Y1140295D01*
X614729Y1140332D01*
X614969Y1140369D01*
X615266Y1140406D01*
X615599Y1140425D01*
X615969Y1140462D01*
X616506D01*
X616654Y1140443D01*
D02*
G37*
G36*
X667723Y1140480D02*
X668001Y1140443D01*
X668075D01*
X668149Y1140425D01*
X668242D01*
X668464Y1140388D01*
X668723Y1140332D01*
X668779D01*
X668853Y1140314D01*
X668927Y1140295D01*
X669130Y1140258D01*
X669334Y1140203D01*
X669353D01*
X669371Y1140184D01*
X669482Y1140166D01*
X669612Y1140110D01*
X669741Y1140073D01*
X669427Y1138647D01*
X669408D01*
X669371Y1138666D01*
X669315Y1138703D01*
X669223Y1138740D01*
X669112Y1138777D01*
X668964Y1138832D01*
X668797Y1138888D01*
X668593Y1138944D01*
X668575D01*
X668501Y1138962D01*
X668371Y1138999D01*
X668223Y1139036D01*
X668019Y1139055D01*
X667779Y1139092D01*
X667519Y1139110D01*
X667112D01*
X666982Y1139092D01*
X666816Y1139073D01*
X666631Y1139036D01*
X666427Y1138999D01*
X666223Y1138925D01*
X666020Y1138832D01*
X666001Y1138814D01*
X665946Y1138777D01*
X665853Y1138721D01*
X665779Y1138629D01*
X665686Y1138499D01*
X665594Y1138351D01*
X665538Y1138166D01*
X665520Y1137962D01*
Y1137944D01*
Y1137907D01*
Y1137851D01*
X665538Y1137777D01*
X665575Y1137592D01*
X665631Y1137407D01*
Y1137388D01*
X665649Y1137370D01*
X665723Y1137277D01*
X665834Y1137148D01*
X665983Y1136999D01*
X666001D01*
X666020Y1136962D01*
X666075Y1136925D01*
X666149Y1136888D01*
X666334Y1136777D01*
X666575Y1136648D01*
X666594D01*
X666631Y1136629D01*
X666705Y1136592D01*
X666816Y1136555D01*
X666945Y1136499D01*
X667075Y1136444D01*
X667242Y1136388D01*
X667427Y1136314D01*
X667464Y1136296D01*
X667538Y1136277D01*
X667667Y1136222D01*
X667816Y1136166D01*
X668001Y1136092D01*
X668186Y1136000D01*
X668593Y1135814D01*
X668612Y1135796D01*
X668686Y1135777D01*
X668779Y1135722D01*
X668890Y1135648D01*
X669186Y1135481D01*
X669464Y1135259D01*
X669482Y1135240D01*
X669519Y1135203D01*
X669593Y1135129D01*
X669667Y1135037D01*
X669760Y1134926D01*
X669871Y1134796D01*
X670038Y1134481D01*
X670056Y1134463D01*
X670075Y1134407D01*
X670112Y1134314D01*
X670149Y1134185D01*
X670186Y1134018D01*
X670204Y1133833D01*
X670241Y1133611D01*
Y1133370D01*
Y1133352D01*
Y1133315D01*
Y1133241D01*
X670223Y1133166D01*
X670204Y1133055D01*
X670186Y1132926D01*
X670130Y1132648D01*
X670001Y1132333D01*
X669834Y1132018D01*
X669723Y1131852D01*
X669593Y1131704D01*
X669445Y1131555D01*
X669278Y1131426D01*
X669260D01*
X669241Y1131407D01*
X669186Y1131370D01*
X669112Y1131333D01*
X669001Y1131278D01*
X668890Y1131222D01*
X668742Y1131167D01*
X668593Y1131111D01*
X668408Y1131037D01*
X668204Y1130982D01*
X667982Y1130926D01*
X667742Y1130889D01*
X667464Y1130833D01*
X667186Y1130815D01*
X666890Y1130778D01*
X666353D01*
X666131Y1130796D01*
X665853D01*
X665557Y1130833D01*
X665223Y1130870D01*
X664909Y1130907D01*
X664631Y1130982D01*
X664594Y1131000D01*
X664520Y1131019D01*
X664409Y1131056D01*
X664260Y1131093D01*
X663946Y1131185D01*
X663816Y1131241D01*
X663705Y1131278D01*
X664001Y1132703D01*
X664020D01*
X664057Y1132685D01*
X664131Y1132666D01*
X664223Y1132629D01*
X664335Y1132592D01*
X664501Y1132537D01*
X664668Y1132463D01*
X664890Y1132389D01*
X664927D01*
X665001Y1132352D01*
X665149Y1132333D01*
X665334Y1132296D01*
X665575Y1132259D01*
X665853Y1132222D01*
X666186Y1132204D01*
X666557Y1132185D01*
X666723D01*
X666908Y1132204D01*
X667131Y1132222D01*
X667371Y1132241D01*
X667612Y1132296D01*
X667853Y1132352D01*
X668056Y1132444D01*
X668075Y1132463D01*
X668130Y1132500D01*
X668223Y1132555D01*
X668316Y1132648D01*
X668390Y1132759D01*
X668482Y1132907D01*
X668538Y1133092D01*
X668556Y1133296D01*
Y1133315D01*
Y1133389D01*
X668538Y1133500D01*
X668501Y1133648D01*
X668445Y1133796D01*
X668353Y1133963D01*
X668242Y1134111D01*
X668075Y1134259D01*
X668056Y1134277D01*
X667982Y1134333D01*
X667871Y1134407D01*
X667705Y1134500D01*
X667482Y1134611D01*
X667205Y1134759D01*
X666871Y1134907D01*
X666482Y1135055D01*
X666464Y1135074D01*
X666390Y1135092D01*
X666297Y1135129D01*
X666168Y1135203D01*
X666001Y1135259D01*
X665834Y1135333D01*
X665464Y1135499D01*
X665446Y1135518D01*
X665390Y1135537D01*
X665297Y1135592D01*
X665186Y1135648D01*
X664909Y1135814D01*
X664631Y1136018D01*
X664612Y1136037D01*
X664575Y1136074D01*
X664501Y1136129D01*
X664427Y1136222D01*
X664335Y1136333D01*
X664242Y1136444D01*
X664057Y1136740D01*
Y1136759D01*
X664020Y1136814D01*
X664001Y1136907D01*
X663964Y1137036D01*
X663927Y1137203D01*
X663890Y1137388D01*
X663872Y1137592D01*
X663853Y1137814D01*
Y1137833D01*
Y1137870D01*
Y1137925D01*
X663872Y1138018D01*
X663890Y1138129D01*
X663909Y1138240D01*
X663964Y1138518D01*
X664075Y1138832D01*
X664242Y1139147D01*
X664335Y1139314D01*
X664464Y1139462D01*
X664594Y1139610D01*
X664760Y1139758D01*
X664779D01*
X664798Y1139795D01*
X664853Y1139832D01*
X664927Y1139869D01*
X665020Y1139925D01*
X665131Y1139999D01*
X665260Y1140055D01*
X665408Y1140129D01*
X665760Y1140258D01*
X666186Y1140388D01*
X666668Y1140462D01*
X667223Y1140499D01*
X667464D01*
X667723Y1140480D01*
D02*
G37*
G36*
X649132D02*
X649336D01*
X649540Y1140462D01*
X650003Y1140388D01*
X650040D01*
X650114Y1140369D01*
X650225Y1140332D01*
X650392Y1140295D01*
X650577Y1140258D01*
X650780Y1140184D01*
X651206Y1140036D01*
X650817Y1138629D01*
X650799D01*
X650743Y1138666D01*
X650669Y1138703D01*
X650577Y1138740D01*
X650447Y1138777D01*
X650299Y1138832D01*
X649947Y1138925D01*
X649929D01*
X649873Y1138944D01*
X649762Y1138962D01*
X649632Y1138981D01*
X649484Y1138999D01*
X649299Y1139018D01*
X648910Y1139036D01*
X648781D01*
X648688Y1139018D01*
X648558D01*
X648429Y1138999D01*
X648132Y1138925D01*
X647781Y1138814D01*
X647429Y1138666D01*
X647077Y1138444D01*
X646929Y1138296D01*
X646781Y1138147D01*
Y1138129D01*
X646744Y1138110D01*
X646707Y1138055D01*
X646670Y1137981D01*
X646614Y1137888D01*
X646540Y1137777D01*
X646485Y1137647D01*
X646411Y1137499D01*
X646336Y1137333D01*
X646281Y1137148D01*
X646207Y1136944D01*
X646151Y1136703D01*
X646114Y1136462D01*
X646077Y1136203D01*
X646040Y1135907D01*
Y1135611D01*
Y1135574D01*
Y1135481D01*
X646059Y1135333D01*
Y1135148D01*
X646077Y1134944D01*
X646114Y1134703D01*
X646207Y1134222D01*
Y1134203D01*
X646244Y1134129D01*
X646281Y1134000D01*
X646336Y1133870D01*
X646411Y1133703D01*
X646503Y1133518D01*
X646725Y1133166D01*
X646744Y1133148D01*
X646799Y1133092D01*
X646873Y1133018D01*
X646984Y1132907D01*
X647114Y1132796D01*
X647281Y1132685D01*
X647466Y1132574D01*
X647670Y1132481D01*
X647688Y1132463D01*
X647781Y1132444D01*
X647892Y1132407D01*
X648058Y1132370D01*
X648262Y1132315D01*
X648503Y1132278D01*
X648781Y1132259D01*
X649077Y1132241D01*
X649318D01*
X649484Y1132259D01*
X649669D01*
X649873Y1132296D01*
X650281Y1132352D01*
X650299D01*
X650373Y1132370D01*
X650466Y1132407D01*
X650595Y1132444D01*
X650854Y1132518D01*
X651003Y1132574D01*
X651114Y1132629D01*
X651354Y1131241D01*
X651336Y1131222D01*
X651243Y1131185D01*
X651114Y1131130D01*
X650928Y1131074D01*
X650910D01*
X650891Y1131056D01*
X650836D01*
X650762Y1131037D01*
X650558Y1130982D01*
X650318Y1130944D01*
X650299D01*
X650262Y1130926D01*
X650188D01*
X650095Y1130907D01*
X649873Y1130870D01*
X649595Y1130833D01*
X649540D01*
X649466Y1130815D01*
X649373D01*
X649132Y1130796D01*
X648855Y1130778D01*
X648670D01*
X648466Y1130796D01*
X648188Y1130815D01*
X647892Y1130870D01*
X647559Y1130926D01*
X647225Y1131019D01*
X646892Y1131130D01*
X646855Y1131148D01*
X646744Y1131204D01*
X646596Y1131278D01*
X646392Y1131389D01*
X646170Y1131518D01*
X645929Y1131685D01*
X645688Y1131889D01*
X645448Y1132111D01*
X645429Y1132148D01*
X645355Y1132222D01*
X645244Y1132370D01*
X645133Y1132555D01*
X644985Y1132778D01*
X644855Y1133037D01*
X644707Y1133333D01*
X644596Y1133648D01*
Y1133666D01*
X644577Y1133685D01*
Y1133740D01*
X644559Y1133796D01*
X644503Y1133981D01*
X644466Y1134222D01*
X644411Y1134518D01*
X644355Y1134852D01*
X644337Y1135222D01*
X644318Y1135611D01*
Y1135629D01*
Y1135666D01*
Y1135722D01*
Y1135796D01*
X644337Y1136000D01*
X644355Y1136259D01*
X644392Y1136555D01*
X644448Y1136870D01*
X644522Y1137222D01*
X644614Y1137555D01*
Y1137573D01*
X644633Y1137592D01*
X644670Y1137703D01*
X644744Y1137870D01*
X644837Y1138092D01*
X644966Y1138333D01*
X645114Y1138592D01*
X645300Y1138851D01*
X645503Y1139110D01*
X645522Y1139147D01*
X645614Y1139221D01*
X645725Y1139333D01*
X645892Y1139481D01*
X646096Y1139647D01*
X646336Y1139814D01*
X646614Y1139980D01*
X646910Y1140129D01*
X646929D01*
X646947Y1140147D01*
X647059Y1140184D01*
X647225Y1140240D01*
X647447Y1140314D01*
X647725Y1140388D01*
X648040Y1140443D01*
X648373Y1140480D01*
X648744Y1140499D01*
X648984D01*
X649132Y1140480D01*
D02*
G37*
G36*
X773046Y1140240D02*
X773175Y1140221D01*
X773323Y1140166D01*
X773471Y1140110D01*
X773601Y1140018D01*
X773731Y1139888D01*
X773749Y1139869D01*
X773786Y1139832D01*
X773842Y1139758D01*
X773897Y1139647D01*
X773953Y1139536D01*
X774008Y1139388D01*
X774045Y1139221D01*
X774064Y1139055D01*
Y1139036D01*
Y1138981D01*
X774045Y1138888D01*
X774027Y1138777D01*
X773990Y1138647D01*
X773916Y1138499D01*
X773842Y1138351D01*
X773731Y1138222D01*
X773712Y1138203D01*
X773675Y1138166D01*
X773601Y1138110D01*
X773508Y1138055D01*
X773379Y1137981D01*
X773231Y1137925D01*
X773064Y1137888D01*
X772860Y1137870D01*
X772768D01*
X772675Y1137888D01*
X772546Y1137907D01*
X772397Y1137962D01*
X772268Y1138018D01*
X772120Y1138110D01*
X771990Y1138222D01*
X771972Y1138240D01*
X771935Y1138277D01*
X771898Y1138351D01*
X771842Y1138462D01*
X771768Y1138573D01*
X771731Y1138721D01*
X771694Y1138888D01*
X771675Y1139055D01*
Y1139073D01*
Y1139129D01*
X771694Y1139221D01*
X771712Y1139333D01*
X771749Y1139462D01*
X771805Y1139610D01*
X771879Y1139758D01*
X771990Y1139888D01*
X772009Y1139906D01*
X772046Y1139943D01*
X772120Y1139999D01*
X772212Y1140073D01*
X772342Y1140147D01*
X772490Y1140203D01*
X772657Y1140240D01*
X772860Y1140258D01*
X772953D01*
X773046Y1140240D01*
D02*
G37*
G36*
X770342D02*
X770305Y1140166D01*
X770286Y1140018D01*
X770231Y1139832D01*
X770175Y1139592D01*
X770101Y1139314D01*
X770009Y1138999D01*
X769916Y1138666D01*
X769824Y1138277D01*
X769713Y1137888D01*
X769583Y1137462D01*
X769453Y1137036D01*
X769194Y1136129D01*
X768898Y1135222D01*
Y1135203D01*
X768861Y1135111D01*
X768824Y1134981D01*
X768768Y1134814D01*
X768694Y1134592D01*
X768602Y1134352D01*
X768509Y1134074D01*
X768398Y1133759D01*
X768268Y1133426D01*
X768139Y1133074D01*
X767861Y1132315D01*
X767546Y1131518D01*
X767213Y1130722D01*
X767194Y1130685D01*
X767157Y1130593D01*
X767083Y1130444D01*
X766991Y1130259D01*
X766880Y1130037D01*
X766750Y1129815D01*
X766620Y1129574D01*
X766472Y1129352D01*
X766454Y1129333D01*
X766398Y1129259D01*
X766324Y1129148D01*
X766213Y1129019D01*
X766102Y1128852D01*
X765954Y1128704D01*
X765787Y1128537D01*
X765620Y1128389D01*
X765602Y1128371D01*
X765546Y1128334D01*
X765435Y1128260D01*
X765324Y1128186D01*
X765157Y1128093D01*
X764991Y1128000D01*
X764787Y1127908D01*
X764583Y1127834D01*
X764565D01*
X764491Y1127797D01*
X764361Y1127778D01*
X764213Y1127741D01*
X764009Y1127704D01*
X763787Y1127685D01*
X763547Y1127648D01*
X763158D01*
X763028Y1127667D01*
X762861Y1127685D01*
X762824D01*
X762732Y1127704D01*
X762602Y1127723D01*
X762454Y1127760D01*
X762417D01*
X762324Y1127778D01*
X762213Y1127815D01*
X762065Y1127852D01*
X762047Y1127871D01*
X761973Y1127889D01*
X761898Y1127908D01*
X761843Y1127945D01*
X762139Y1129278D01*
X762176Y1129259D01*
X762269Y1129222D01*
X762436Y1129167D01*
X762639Y1129111D01*
X762658D01*
X762695Y1129093D01*
X762750Y1129074D01*
X762843D01*
X763028Y1129037D01*
X763250Y1129019D01*
X763417D01*
X763584Y1129037D01*
X763806Y1129074D01*
X764046Y1129130D01*
X764306Y1129204D01*
X764546Y1129315D01*
X764769Y1129463D01*
X764787Y1129482D01*
X764861Y1129556D01*
X764972Y1129648D01*
X765102Y1129815D01*
X765250Y1130000D01*
X765417Y1130259D01*
X765602Y1130556D01*
X765769Y1130889D01*
X765750Y1130907D01*
X765713Y1130982D01*
X765657Y1131093D01*
X765583Y1131259D01*
X765491Y1131444D01*
X765380Y1131685D01*
X765250Y1131944D01*
X765102Y1132241D01*
X764954Y1132574D01*
X764787Y1132907D01*
X764602Y1133296D01*
X764435Y1133685D01*
X764065Y1134518D01*
X763695Y1135388D01*
X763676Y1135425D01*
X763658Y1135499D01*
X763602Y1135629D01*
X763528Y1135796D01*
X763454Y1136018D01*
X763343Y1136277D01*
X763250Y1136573D01*
X763121Y1136907D01*
X763009Y1137259D01*
X762880Y1137647D01*
X762732Y1138036D01*
X762602Y1138462D01*
X762343Y1139351D01*
X762084Y1140277D01*
X763861D01*
X763880Y1140240D01*
X763898Y1140129D01*
X763935Y1139962D01*
X763991Y1139758D01*
X764065Y1139499D01*
X764158Y1139203D01*
X764250Y1138870D01*
X764343Y1138536D01*
Y1138518D01*
X764361Y1138499D01*
X764380Y1138444D01*
X764398Y1138370D01*
X764454Y1138184D01*
X764528Y1137944D01*
X764621Y1137666D01*
X764713Y1137333D01*
X764824Y1136999D01*
X764954Y1136629D01*
Y1136610D01*
X764972Y1136592D01*
X764991Y1136536D01*
X765009Y1136462D01*
X765083Y1136259D01*
X765176Y1136018D01*
X765287Y1135722D01*
X765417Y1135388D01*
X765546Y1135037D01*
X765676Y1134666D01*
Y1134648D01*
X765694Y1134629D01*
X765713Y1134574D01*
X765750Y1134500D01*
X765824Y1134314D01*
X765917Y1134055D01*
X766046Y1133777D01*
X766176Y1133463D01*
X766491Y1132778D01*
Y1132796D01*
X766528Y1132870D01*
X766565Y1132963D01*
X766602Y1133092D01*
X766657Y1133259D01*
X766731Y1133463D01*
X766805Y1133685D01*
X766898Y1133944D01*
X766991Y1134222D01*
X767083Y1134500D01*
X767287Y1135129D01*
X767490Y1135796D01*
X767676Y1136481D01*
Y1136499D01*
X767694Y1136573D01*
X767731Y1136666D01*
X767768Y1136796D01*
X767805Y1136962D01*
X767861Y1137166D01*
X767916Y1137388D01*
X767990Y1137647D01*
X768046Y1137925D01*
X768120Y1138222D01*
X768287Y1138870D01*
X768453Y1139555D01*
X768620Y1140277D01*
X770342D01*
Y1140240D01*
D02*
G37*
G36*
X679740Y1131259D02*
X679722D01*
X679629Y1131241D01*
X679518Y1131204D01*
X679333Y1131167D01*
X679111Y1131130D01*
X678852Y1131074D01*
X678555Y1131019D01*
X678222Y1130963D01*
X678185D01*
X678129Y1130944D01*
X678055D01*
X677852Y1130907D01*
X677592Y1130889D01*
X677278Y1130852D01*
X676907Y1130815D01*
X676500Y1130796D01*
X675870D01*
X675685Y1130815D01*
X675426Y1130833D01*
X675148Y1130870D01*
X674834Y1130926D01*
X674537Y1131000D01*
X674241Y1131093D01*
X674204Y1131111D01*
X674130Y1131148D01*
X673982Y1131222D01*
X673834Y1131315D01*
X673648Y1131444D01*
X673445Y1131592D01*
X673260Y1131778D01*
X673074Y1131981D01*
X673056Y1132000D01*
X673000Y1132093D01*
X672926Y1132204D01*
X672834Y1132370D01*
X672723Y1132555D01*
X672611Y1132796D01*
X672519Y1133055D01*
X672426Y1133333D01*
Y1133370D01*
X672389Y1133463D01*
X672371Y1133629D01*
X672334Y1133833D01*
X672297Y1134092D01*
X672278Y1134389D01*
X672241Y1134703D01*
Y1135055D01*
Y1140277D01*
X673908D01*
Y1135407D01*
Y1135388D01*
Y1135333D01*
Y1135240D01*
Y1135129D01*
X673926Y1135000D01*
X673945Y1134833D01*
X673982Y1134481D01*
X674037Y1134074D01*
X674130Y1133666D01*
X674259Y1133296D01*
X674333Y1133129D01*
X674426Y1132981D01*
X674445Y1132944D01*
X674537Y1132870D01*
X674667Y1132759D01*
X674852Y1132629D01*
X675093Y1132481D01*
X675407Y1132370D01*
X675778Y1132296D01*
X676222Y1132259D01*
X676889D01*
X676963Y1132278D01*
X677130D01*
X677315Y1132296D01*
X677352D01*
X677463Y1132315D01*
X677611Y1132333D01*
X677778Y1132352D01*
X677815D01*
X677889Y1132370D01*
X677981Y1132407D01*
X678074Y1132426D01*
Y1140277D01*
X679740D01*
Y1131259D01*
D02*
G37*
G36*
X605915Y1143462D02*
X606137Y1143443D01*
X606378Y1143425D01*
X606655Y1143406D01*
X606970Y1143351D01*
X607600Y1143240D01*
X608266Y1143054D01*
X608600Y1142943D01*
X608914Y1142814D01*
X609211Y1142665D01*
X609488Y1142480D01*
X609507Y1142462D01*
X609544Y1142443D01*
X609618Y1142369D01*
X609711Y1142295D01*
X609822Y1142184D01*
X609933Y1142073D01*
X610062Y1141925D01*
X610192Y1141740D01*
X610322Y1141554D01*
X610451Y1141332D01*
X610562Y1141092D01*
X610673Y1140814D01*
X610766Y1140536D01*
X610840Y1140221D01*
X610877Y1139869D01*
X610896Y1139518D01*
Y1139499D01*
Y1139481D01*
Y1139425D01*
Y1139333D01*
X610877Y1139147D01*
X610840Y1138888D01*
X610803Y1138610D01*
X610729Y1138314D01*
X610636Y1137999D01*
X610507Y1137703D01*
X610488Y1137666D01*
X610433Y1137573D01*
X610340Y1137444D01*
X610229Y1137259D01*
X610062Y1137073D01*
X609877Y1136851D01*
X609655Y1136648D01*
X609396Y1136462D01*
X609359Y1136444D01*
X609266Y1136388D01*
X609118Y1136296D01*
X608914Y1136203D01*
X608655Y1136092D01*
X608359Y1135981D01*
X608007Y1135870D01*
X607637Y1135777D01*
X607581D01*
X607526Y1135759D01*
X607452Y1135740D01*
X607359Y1135722D01*
X607248D01*
X606952Y1135685D01*
X606618Y1135648D01*
X606211Y1135611D01*
X605785Y1135592D01*
X605304Y1135574D01*
X603933D01*
Y1131000D01*
X602211D01*
Y1143165D01*
X602248D01*
X602341Y1143202D01*
X602489Y1143221D01*
X602693Y1143258D01*
X602915Y1143314D01*
X603193Y1143351D01*
X603507Y1143388D01*
X603822Y1143406D01*
X603859D01*
X603970Y1143425D01*
X604156D01*
X604378Y1143443D01*
X604637Y1143462D01*
X604915D01*
X605489Y1143480D01*
X605729D01*
X605915Y1143462D01*
D02*
G37*
G36*
X722551Y1140277D02*
X726069D01*
Y1138888D01*
X722551D01*
Y1134592D01*
Y1134555D01*
Y1134481D01*
Y1134352D01*
X722569Y1134185D01*
Y1134000D01*
X722588Y1133796D01*
X722606Y1133611D01*
X722643Y1133426D01*
Y1133407D01*
X722662Y1133352D01*
X722699Y1133278D01*
X722717Y1133166D01*
X722829Y1132944D01*
X722958Y1132722D01*
X722977Y1132703D01*
X722995Y1132685D01*
X723106Y1132574D01*
X723273Y1132463D01*
X723495Y1132352D01*
X723514D01*
X723551Y1132333D01*
X723625Y1132315D01*
X723717D01*
X723828Y1132296D01*
X723958Y1132278D01*
X724254Y1132259D01*
X724384D01*
X724513Y1132278D01*
X724680D01*
X724865Y1132296D01*
X725069Y1132333D01*
X725273Y1132370D01*
X725458Y1132426D01*
X725476D01*
X725532Y1132463D01*
X725606Y1132481D01*
X725717Y1132518D01*
X725921Y1132592D01*
X726013Y1132629D01*
X726087Y1132666D01*
X726421Y1131278D01*
X726402D01*
X726365Y1131259D01*
X726310Y1131241D01*
X726217Y1131204D01*
X726087Y1131148D01*
X725939Y1131111D01*
X725754Y1131056D01*
X725532Y1130982D01*
X725495D01*
X725421Y1130944D01*
X725291Y1130926D01*
X725125Y1130889D01*
X724902Y1130852D01*
X724662Y1130833D01*
X724402Y1130796D01*
X723958D01*
X723773Y1130815D01*
X723551Y1130833D01*
X723310Y1130852D01*
X723051Y1130907D01*
X722773Y1130963D01*
X722532Y1131037D01*
X722514Y1131056D01*
X722440Y1131074D01*
X722329Y1131148D01*
X722180Y1131222D01*
X722032Y1131315D01*
X721866Y1131444D01*
X721699Y1131592D01*
X721551Y1131759D01*
X721532Y1131778D01*
X721495Y1131852D01*
X721421Y1131944D01*
X721347Y1132093D01*
X721255Y1132259D01*
X721180Y1132463D01*
X721106Y1132685D01*
X721032Y1132944D01*
Y1132981D01*
X721014Y1133074D01*
X720995Y1133222D01*
X720958Y1133407D01*
X720940Y1133648D01*
X720903Y1133926D01*
X720884Y1134240D01*
Y1134574D01*
Y1142851D01*
X722551Y1143147D01*
Y1140277D01*
D02*
G37*
G36*
X654687D02*
X658206D01*
Y1138888D01*
X654687D01*
Y1134592D01*
Y1134555D01*
Y1134481D01*
Y1134352D01*
X654706Y1134185D01*
Y1134000D01*
X654724Y1133796D01*
X654743Y1133611D01*
X654780Y1133426D01*
Y1133407D01*
X654799Y1133352D01*
X654836Y1133278D01*
X654854Y1133166D01*
X654965Y1132944D01*
X655095Y1132722D01*
X655113Y1132703D01*
X655132Y1132685D01*
X655243Y1132574D01*
X655410Y1132463D01*
X655632Y1132352D01*
X655650D01*
X655687Y1132333D01*
X655761Y1132315D01*
X655854D01*
X655965Y1132296D01*
X656095Y1132278D01*
X656391Y1132259D01*
X656521D01*
X656650Y1132278D01*
X656817D01*
X657002Y1132296D01*
X657206Y1132333D01*
X657409Y1132370D01*
X657595Y1132426D01*
X657613D01*
X657669Y1132463D01*
X657743Y1132481D01*
X657854Y1132518D01*
X658057Y1132592D01*
X658150Y1132629D01*
X658224Y1132666D01*
X658557Y1131278D01*
X658539D01*
X658502Y1131259D01*
X658446Y1131241D01*
X658354Y1131204D01*
X658224Y1131148D01*
X658076Y1131111D01*
X657891Y1131056D01*
X657669Y1130982D01*
X657632D01*
X657558Y1130944D01*
X657428Y1130926D01*
X657261Y1130889D01*
X657039Y1130852D01*
X656798Y1130833D01*
X656539Y1130796D01*
X656095D01*
X655910Y1130815D01*
X655687Y1130833D01*
X655447Y1130852D01*
X655187Y1130907D01*
X654910Y1130963D01*
X654669Y1131037D01*
X654650Y1131056D01*
X654576Y1131074D01*
X654465Y1131148D01*
X654317Y1131222D01*
X654169Y1131315D01*
X654002Y1131444D01*
X653836Y1131592D01*
X653688Y1131759D01*
X653669Y1131778D01*
X653632Y1131852D01*
X653558Y1131944D01*
X653484Y1132093D01*
X653391Y1132259D01*
X653317Y1132463D01*
X653243Y1132685D01*
X653169Y1132944D01*
Y1132981D01*
X653150Y1133074D01*
X653132Y1133222D01*
X653095Y1133407D01*
X653076Y1133648D01*
X653039Y1133926D01*
X653021Y1134240D01*
Y1134574D01*
Y1142851D01*
X654687Y1143147D01*
Y1140277D01*
D02*
G37*
G36*
X754399Y1139851D02*
X754418D01*
X754455Y1139888D01*
X754529Y1139925D01*
X754622Y1139980D01*
X754751Y1140036D01*
X754899Y1140110D01*
X755084Y1140184D01*
X755307Y1140258D01*
X755344Y1140277D01*
X755418Y1140295D01*
X755547Y1140332D01*
X755714Y1140369D01*
X755918Y1140406D01*
X756158Y1140443D01*
X756418Y1140480D01*
X756880D01*
X757066Y1140462D01*
X757306Y1140443D01*
X757584Y1140388D01*
X757880Y1140332D01*
X758195Y1140240D01*
X758492Y1140110D01*
X758529Y1140092D01*
X758621Y1140055D01*
X758769Y1139962D01*
X758954Y1139851D01*
X759158Y1139703D01*
X759380Y1139536D01*
X759603Y1139333D01*
X759806Y1139110D01*
X759825Y1139073D01*
X759899Y1138999D01*
X759991Y1138870D01*
X760102Y1138684D01*
X760250Y1138462D01*
X760380Y1138203D01*
X760510Y1137907D01*
X760621Y1137573D01*
Y1137555D01*
X760639Y1137536D01*
Y1137481D01*
X760658Y1137425D01*
X760714Y1137240D01*
X760769Y1136999D01*
X760806Y1136703D01*
X760862Y1136370D01*
X760880Y1136018D01*
X760899Y1135629D01*
Y1135611D01*
Y1135574D01*
Y1135518D01*
Y1135444D01*
X760880Y1135333D01*
Y1135222D01*
X760862Y1134944D01*
X760825Y1134629D01*
X760751Y1134296D01*
X760676Y1133944D01*
X760565Y1133592D01*
Y1133574D01*
X760547Y1133555D01*
X760510Y1133444D01*
X760436Y1133278D01*
X760325Y1133074D01*
X760195Y1132833D01*
X760028Y1132574D01*
X759843Y1132315D01*
X759621Y1132074D01*
X759603Y1132055D01*
X759510Y1131963D01*
X759380Y1131852D01*
X759214Y1131722D01*
X758991Y1131555D01*
X758751Y1131407D01*
X758473Y1131241D01*
X758158Y1131111D01*
X758121Y1131093D01*
X758010Y1131056D01*
X757825Y1131000D01*
X757603Y1130944D01*
X757306Y1130889D01*
X756992Y1130833D01*
X756621Y1130796D01*
X756232Y1130778D01*
X755936D01*
X755825Y1130796D01*
X755547D01*
X755233Y1130815D01*
X754881Y1130852D01*
X754529Y1130889D01*
X754177Y1130944D01*
X754140D01*
X754029Y1130963D01*
X753862Y1131000D01*
X753659Y1131037D01*
X753436Y1131093D01*
X753196Y1131148D01*
X752955Y1131204D01*
X752733Y1131259D01*
Y1144536D01*
X754399Y1144832D01*
Y1139851D01*
D02*
G37*
G36*
X732179Y1140480D02*
X732327Y1140462D01*
X732513Y1140443D01*
X732716Y1140406D01*
X732920Y1140351D01*
X733383Y1140203D01*
X733624Y1140110D01*
X733864Y1139999D01*
X734105Y1139869D01*
X734327Y1139703D01*
X734531Y1139518D01*
X734735Y1139314D01*
X734753Y1139295D01*
X734772Y1139258D01*
X734827Y1139184D01*
X734883Y1139092D01*
X734975Y1138962D01*
X735050Y1138814D01*
X735142Y1138647D01*
X735235Y1138425D01*
X735327Y1138203D01*
X735420Y1137925D01*
X735512Y1137647D01*
X735586Y1137314D01*
X735642Y1136981D01*
X735697Y1136592D01*
X735716Y1136185D01*
X735735Y1135759D01*
Y1135740D01*
Y1135685D01*
Y1135611D01*
Y1135481D01*
Y1135462D01*
Y1135388D01*
Y1135277D01*
X735716Y1135185D01*
X729365D01*
Y1135166D01*
Y1135129D01*
X729383Y1135037D01*
Y1134944D01*
X729402Y1134814D01*
X729439Y1134685D01*
X729494Y1134370D01*
X729606Y1134000D01*
X729754Y1133648D01*
X729939Y1133296D01*
X730180Y1132981D01*
X730217Y1132944D01*
X730328Y1132870D01*
X730494Y1132741D01*
X730754Y1132611D01*
X731068Y1132481D01*
X731254Y1132407D01*
X731457Y1132352D01*
X731679Y1132315D01*
X731939Y1132278D01*
X732198Y1132241D01*
X732790D01*
X732994Y1132259D01*
X733216Y1132278D01*
X733457Y1132296D01*
X733698Y1132333D01*
X733939Y1132389D01*
X733957D01*
X734031Y1132407D01*
X734142Y1132444D01*
X734290Y1132481D01*
X734586Y1132574D01*
X734716Y1132629D01*
X734846Y1132685D01*
X735087Y1131278D01*
X735068D01*
X735031Y1131259D01*
X734938Y1131222D01*
X734827Y1131185D01*
X734679Y1131130D01*
X734494Y1131074D01*
X734272Y1131019D01*
X734013Y1130963D01*
X733976D01*
X733883Y1130926D01*
X733716Y1130907D01*
X733513Y1130870D01*
X733253Y1130833D01*
X732976Y1130815D01*
X732642Y1130778D01*
X732087D01*
X731976Y1130796D01*
X731865D01*
X731587Y1130815D01*
X731254Y1130870D01*
X730902Y1130926D01*
X730550Y1131019D01*
X730198Y1131130D01*
X730180D01*
X730161Y1131148D01*
X730050Y1131204D01*
X729902Y1131278D01*
X729698Y1131389D01*
X729457Y1131537D01*
X729217Y1131704D01*
X728976Y1131907D01*
X728754Y1132130D01*
X728735Y1132167D01*
X728661Y1132241D01*
X728550Y1132389D01*
X728439Y1132574D01*
X728291Y1132796D01*
X728161Y1133055D01*
X728013Y1133352D01*
X727902Y1133666D01*
Y1133685D01*
X727884Y1133703D01*
Y1133759D01*
X727865Y1133814D01*
X727828Y1134000D01*
X727772Y1134240D01*
X727717Y1134537D01*
X727680Y1134870D01*
X727661Y1135222D01*
X727643Y1135611D01*
Y1135629D01*
Y1135666D01*
Y1135722D01*
Y1135814D01*
X727661Y1135925D01*
Y1136037D01*
X727680Y1136333D01*
X727735Y1136666D01*
X727791Y1137018D01*
X727884Y1137388D01*
X727995Y1137740D01*
Y1137759D01*
X728013Y1137777D01*
X728069Y1137888D01*
X728143Y1138073D01*
X728254Y1138277D01*
X728383Y1138518D01*
X728550Y1138777D01*
X728735Y1139036D01*
X728939Y1139277D01*
X728958Y1139295D01*
X729050Y1139370D01*
X729161Y1139481D01*
X729328Y1139629D01*
X729531Y1139758D01*
X729754Y1139925D01*
X730013Y1140055D01*
X730291Y1140184D01*
X730328Y1140203D01*
X730420Y1140240D01*
X730568Y1140277D01*
X730772Y1140351D01*
X731013Y1140406D01*
X731272Y1140443D01*
X731568Y1140480D01*
X731865Y1140499D01*
X732050D01*
X732179Y1140480D01*
D02*
G37*
G36*
X696979Y1140443D02*
X697239Y1140425D01*
X697535Y1140369D01*
X697850Y1140314D01*
X698183Y1140221D01*
X698516Y1140110D01*
X698535D01*
X698553Y1140092D01*
X698664Y1140055D01*
X698812Y1139980D01*
X699016Y1139869D01*
X699257Y1139721D01*
X699498Y1139573D01*
X699738Y1139370D01*
X699979Y1139147D01*
X699997Y1139110D01*
X700072Y1139036D01*
X700183Y1138907D01*
X700331Y1138721D01*
X700479Y1138499D01*
X700627Y1138240D01*
X700794Y1137944D01*
X700923Y1137610D01*
Y1137592D01*
X700942Y1137573D01*
X700960Y1137518D01*
X700979Y1137462D01*
X701034Y1137277D01*
X701090Y1137036D01*
X701146Y1136740D01*
X701201Y1136388D01*
X701238Y1136018D01*
X701257Y1135611D01*
Y1135592D01*
Y1135555D01*
Y1135499D01*
Y1135425D01*
X701238Y1135222D01*
X701220Y1134963D01*
X701183Y1134666D01*
X701146Y1134333D01*
X701071Y1134000D01*
X700979Y1133648D01*
Y1133629D01*
X700960Y1133611D01*
X700923Y1133500D01*
X700868Y1133333D01*
X700775Y1133129D01*
X700664Y1132889D01*
X700516Y1132629D01*
X700349Y1132370D01*
X700164Y1132111D01*
X700146Y1132093D01*
X700072Y1132000D01*
X699960Y1131889D01*
X699794Y1131759D01*
X699609Y1131592D01*
X699387Y1131426D01*
X699127Y1131278D01*
X698849Y1131130D01*
X698812Y1131111D01*
X698720Y1131074D01*
X698553Y1131019D01*
X698331Y1130963D01*
X698072Y1130889D01*
X697775Y1130833D01*
X697442Y1130796D01*
X697072Y1130778D01*
X696942D01*
X696794Y1130796D01*
X696590Y1130815D01*
X696387Y1130833D01*
X696146Y1130870D01*
X695905Y1130926D01*
X695665Y1131000D01*
X695646Y1131019D01*
X695572Y1131037D01*
X695461Y1131074D01*
X695331Y1131130D01*
X695017Y1131259D01*
X694887Y1131315D01*
X694757Y1131389D01*
Y1127704D01*
X693091D01*
Y1139980D01*
X693109D01*
X693202Y1139999D01*
X693313Y1140036D01*
X693498Y1140073D01*
X693702Y1140110D01*
X693943Y1140166D01*
X694239Y1140221D01*
X694554Y1140277D01*
X694591D01*
X694646Y1140295D01*
X694720Y1140314D01*
X694887Y1140332D01*
X695146Y1140369D01*
X695442Y1140406D01*
X695794Y1140425D01*
X696183Y1140462D01*
X696776D01*
X696979Y1140443D01*
D02*
G37*
G36*
X686480D02*
X686740Y1140425D01*
X687036Y1140369D01*
X687351Y1140314D01*
X687684Y1140221D01*
X688017Y1140110D01*
X688036D01*
X688054Y1140092D01*
X688165Y1140055D01*
X688314Y1139980D01*
X688517Y1139869D01*
X688758Y1139721D01*
X688999Y1139573D01*
X689239Y1139370D01*
X689480Y1139147D01*
X689499Y1139110D01*
X689573Y1139036D01*
X689684Y1138907D01*
X689832Y1138721D01*
X689980Y1138499D01*
X690128Y1138240D01*
X690295Y1137944D01*
X690424Y1137610D01*
Y1137592D01*
X690443Y1137573D01*
X690462Y1137518D01*
X690480Y1137462D01*
X690536Y1137277D01*
X690591Y1137036D01*
X690647Y1136740D01*
X690702Y1136388D01*
X690739Y1136018D01*
X690758Y1135611D01*
Y1135592D01*
Y1135555D01*
Y1135499D01*
Y1135425D01*
X690739Y1135222D01*
X690721Y1134963D01*
X690684Y1134666D01*
X690647Y1134333D01*
X690573Y1134000D01*
X690480Y1133648D01*
Y1133629D01*
X690462Y1133611D01*
X690424Y1133500D01*
X690369Y1133333D01*
X690276Y1133129D01*
X690165Y1132889D01*
X690017Y1132629D01*
X689850Y1132370D01*
X689665Y1132111D01*
X689647Y1132093D01*
X689573Y1132000D01*
X689462Y1131889D01*
X689295Y1131759D01*
X689110Y1131592D01*
X688888Y1131426D01*
X688628Y1131278D01*
X688351Y1131130D01*
X688314Y1131111D01*
X688221Y1131074D01*
X688054Y1131019D01*
X687832Y1130963D01*
X687573Y1130889D01*
X687277Y1130833D01*
X686943Y1130796D01*
X686573Y1130778D01*
X686443D01*
X686295Y1130796D01*
X686092Y1130815D01*
X685888Y1130833D01*
X685647Y1130870D01*
X685406Y1130926D01*
X685166Y1131000D01*
X685147Y1131019D01*
X685073Y1131037D01*
X684962Y1131074D01*
X684832Y1131130D01*
X684518Y1131259D01*
X684388Y1131315D01*
X684258Y1131389D01*
Y1127704D01*
X682592D01*
Y1139980D01*
X682610D01*
X682703Y1139999D01*
X682814Y1140036D01*
X682999Y1140073D01*
X683203Y1140110D01*
X683444Y1140166D01*
X683740Y1140221D01*
X684055Y1140277D01*
X684092D01*
X684147Y1140295D01*
X684221Y1140314D01*
X684388Y1140332D01*
X684647Y1140369D01*
X684943Y1140406D01*
X685295Y1140425D01*
X685684Y1140462D01*
X686277D01*
X686480Y1140443D01*
D02*
G37*
G36*
X638893Y1140480D02*
X639041Y1140462D01*
X639226Y1140443D01*
X639430Y1140406D01*
X639633Y1140351D01*
X640096Y1140203D01*
X640337Y1140110D01*
X640578Y1139999D01*
X640818Y1139869D01*
X641041Y1139703D01*
X641244Y1139518D01*
X641448Y1139314D01*
X641467Y1139295D01*
X641485Y1139258D01*
X641541Y1139184D01*
X641596Y1139092D01*
X641689Y1138962D01*
X641763Y1138814D01*
X641855Y1138647D01*
X641948Y1138425D01*
X642041Y1138203D01*
X642133Y1137925D01*
X642226Y1137647D01*
X642300Y1137314D01*
X642355Y1136981D01*
X642411Y1136592D01*
X642429Y1136185D01*
X642448Y1135759D01*
Y1135740D01*
Y1135685D01*
Y1135611D01*
Y1135481D01*
Y1135462D01*
Y1135388D01*
Y1135277D01*
X642429Y1135185D01*
X636078D01*
Y1135166D01*
Y1135129D01*
X636097Y1135037D01*
Y1134944D01*
X636115Y1134814D01*
X636152Y1134685D01*
X636208Y1134370D01*
X636319Y1134000D01*
X636467Y1133648D01*
X636652Y1133296D01*
X636893Y1132981D01*
X636930Y1132944D01*
X637041Y1132870D01*
X637208Y1132741D01*
X637467Y1132611D01*
X637782Y1132481D01*
X637967Y1132407D01*
X638171Y1132352D01*
X638393Y1132315D01*
X638652Y1132278D01*
X638911Y1132241D01*
X639504D01*
X639707Y1132259D01*
X639930Y1132278D01*
X640170Y1132296D01*
X640411Y1132333D01*
X640652Y1132389D01*
X640670D01*
X640744Y1132407D01*
X640855Y1132444D01*
X641004Y1132481D01*
X641300Y1132574D01*
X641430Y1132629D01*
X641559Y1132685D01*
X641800Y1131278D01*
X641781D01*
X641744Y1131259D01*
X641652Y1131222D01*
X641541Y1131185D01*
X641393Y1131130D01*
X641207Y1131074D01*
X640985Y1131019D01*
X640726Y1130963D01*
X640689D01*
X640596Y1130926D01*
X640430Y1130907D01*
X640226Y1130870D01*
X639967Y1130833D01*
X639689Y1130815D01*
X639356Y1130778D01*
X638800D01*
X638689Y1130796D01*
X638578D01*
X638300Y1130815D01*
X637967Y1130870D01*
X637615Y1130926D01*
X637263Y1131019D01*
X636912Y1131130D01*
X636893D01*
X636874Y1131148D01*
X636763Y1131204D01*
X636615Y1131278D01*
X636412Y1131389D01*
X636171Y1131537D01*
X635930Y1131704D01*
X635689Y1131907D01*
X635467Y1132130D01*
X635449Y1132167D01*
X635375Y1132241D01*
X635263Y1132389D01*
X635152Y1132574D01*
X635004Y1132796D01*
X634875Y1133055D01*
X634726Y1133352D01*
X634615Y1133666D01*
Y1133685D01*
X634597Y1133703D01*
Y1133759D01*
X634578Y1133814D01*
X634541Y1134000D01*
X634486Y1134240D01*
X634430Y1134537D01*
X634393Y1134870D01*
X634375Y1135222D01*
X634356Y1135611D01*
Y1135629D01*
Y1135666D01*
Y1135722D01*
Y1135814D01*
X634375Y1135925D01*
Y1136037D01*
X634393Y1136333D01*
X634449Y1136666D01*
X634504Y1137018D01*
X634597Y1137388D01*
X634708Y1137740D01*
Y1137759D01*
X634726Y1137777D01*
X634782Y1137888D01*
X634856Y1138073D01*
X634967Y1138277D01*
X635097Y1138518D01*
X635263Y1138777D01*
X635449Y1139036D01*
X635652Y1139277D01*
X635671Y1139295D01*
X635763Y1139370D01*
X635874Y1139481D01*
X636041Y1139629D01*
X636245Y1139758D01*
X636467Y1139925D01*
X636726Y1140055D01*
X637004Y1140184D01*
X637041Y1140203D01*
X637134Y1140240D01*
X637282Y1140277D01*
X637486Y1140351D01*
X637726Y1140406D01*
X637985Y1140443D01*
X638282Y1140480D01*
X638578Y1140499D01*
X638763D01*
X638893Y1140480D01*
D02*
G37*
G36*
X773046Y1133129D02*
X773175Y1133111D01*
X773323Y1133055D01*
X773471Y1133000D01*
X773601Y1132907D01*
X773731Y1132778D01*
X773749Y1132759D01*
X773786Y1132722D01*
X773842Y1132648D01*
X773897Y1132537D01*
X773953Y1132426D01*
X774008Y1132278D01*
X774045Y1132111D01*
X774064Y1131944D01*
Y1131926D01*
Y1131870D01*
X774045Y1131778D01*
X774027Y1131667D01*
X773990Y1131537D01*
X773916Y1131389D01*
X773842Y1131241D01*
X773731Y1131111D01*
X773712Y1131093D01*
X773675Y1131056D01*
X773601Y1131000D01*
X773508Y1130944D01*
X773379Y1130870D01*
X773231Y1130815D01*
X773064Y1130778D01*
X772860Y1130759D01*
X772768D01*
X772675Y1130778D01*
X772546Y1130796D01*
X772397Y1130852D01*
X772268Y1130907D01*
X772120Y1131000D01*
X771990Y1131111D01*
X771972Y1131130D01*
X771935Y1131167D01*
X771898Y1131241D01*
X771842Y1131352D01*
X771768Y1131463D01*
X771731Y1131611D01*
X771694Y1131778D01*
X771675Y1131944D01*
Y1131963D01*
Y1132018D01*
X771694Y1132111D01*
X771712Y1132222D01*
X771749Y1132352D01*
X771805Y1132500D01*
X771879Y1132648D01*
X771990Y1132778D01*
X772009Y1132796D01*
X772046Y1132833D01*
X772120Y1132889D01*
X772212Y1132963D01*
X772342Y1133037D01*
X772490Y1133092D01*
X772657Y1133129D01*
X772860Y1133148D01*
X772953D01*
X773046Y1133129D01*
D02*
G37*
G36*
X707756Y1140480D02*
X707997Y1140462D01*
X708256Y1140406D01*
X708552Y1140351D01*
X708867Y1140258D01*
X709163Y1140147D01*
X709182D01*
X709200Y1140129D01*
X709293Y1140092D01*
X709441Y1139999D01*
X709626Y1139888D01*
X709848Y1139740D01*
X710071Y1139573D01*
X710311Y1139370D01*
X710534Y1139147D01*
X710552Y1139110D01*
X710626Y1139036D01*
X710737Y1138907D01*
X710867Y1138721D01*
X711015Y1138499D01*
X711163Y1138240D01*
X711311Y1137944D01*
X711441Y1137610D01*
Y1137592D01*
X711459Y1137573D01*
X711478Y1137518D01*
X711496Y1137444D01*
X711552Y1137259D01*
X711607Y1137018D01*
X711663Y1136722D01*
X711719Y1136388D01*
X711756Y1136018D01*
X711774Y1135629D01*
Y1135611D01*
Y1135574D01*
Y1135518D01*
Y1135444D01*
X711756Y1135222D01*
X711737Y1134963D01*
X711700Y1134648D01*
X711626Y1134314D01*
X711552Y1133963D01*
X711441Y1133611D01*
Y1133592D01*
X711422Y1133574D01*
X711385Y1133463D01*
X711311Y1133296D01*
X711219Y1133092D01*
X711089Y1132852D01*
X710922Y1132592D01*
X710737Y1132333D01*
X710534Y1132074D01*
X710515Y1132055D01*
X710441Y1131963D01*
X710311Y1131852D01*
X710145Y1131722D01*
X709941Y1131555D01*
X709719Y1131389D01*
X709460Y1131241D01*
X709163Y1131093D01*
X709126Y1131074D01*
X709034Y1131037D01*
X708867Y1130982D01*
X708645Y1130926D01*
X708386Y1130870D01*
X708089Y1130815D01*
X707775Y1130778D01*
X707423Y1130759D01*
X707256D01*
X707071Y1130778D01*
X706849Y1130796D01*
X706571Y1130833D01*
X706275Y1130907D01*
X705960Y1130982D01*
X705664Y1131093D01*
X705627Y1131111D01*
X705534Y1131167D01*
X705386Y1131241D01*
X705201Y1131352D01*
X704978Y1131481D01*
X704738Y1131648D01*
X704497Y1131852D01*
X704275Y1132074D01*
X704256Y1132111D01*
X704182Y1132185D01*
X704071Y1132333D01*
X703942Y1132518D01*
X703812Y1132741D01*
X703664Y1133000D01*
X703516Y1133296D01*
X703386Y1133611D01*
Y1133629D01*
X703368Y1133648D01*
X703349Y1133703D01*
X703331Y1133777D01*
X703294Y1133963D01*
X703238Y1134203D01*
X703164Y1134500D01*
X703127Y1134852D01*
X703090Y1135222D01*
X703071Y1135629D01*
Y1135648D01*
Y1135685D01*
Y1135740D01*
Y1135814D01*
X703090Y1136018D01*
X703108Y1136277D01*
X703145Y1136592D01*
X703201Y1136925D01*
X703275Y1137259D01*
X703386Y1137610D01*
Y1137629D01*
X703405Y1137647D01*
X703442Y1137759D01*
X703516Y1137925D01*
X703608Y1138147D01*
X703738Y1138388D01*
X703886Y1138647D01*
X704071Y1138907D01*
X704275Y1139147D01*
X704293Y1139184D01*
X704386Y1139258D01*
X704497Y1139370D01*
X704664Y1139518D01*
X704867Y1139684D01*
X705108Y1139851D01*
X705367Y1139999D01*
X705664Y1140147D01*
X705682D01*
X705701Y1140166D01*
X705812Y1140203D01*
X705960Y1140258D01*
X706182Y1140332D01*
X706441Y1140388D01*
X706738Y1140443D01*
X707071Y1140480D01*
X707423Y1140499D01*
X707589D01*
X707756Y1140480D01*
D02*
G37*
G36*
X624005D02*
X624246Y1140462D01*
X624505Y1140406D01*
X624802Y1140351D01*
X625116Y1140258D01*
X625413Y1140147D01*
X625431D01*
X625450Y1140129D01*
X625542Y1140092D01*
X625690Y1139999D01*
X625876Y1139888D01*
X626098Y1139740D01*
X626320Y1139573D01*
X626561Y1139370D01*
X626783Y1139147D01*
X626801Y1139110D01*
X626875Y1139036D01*
X626987Y1138907D01*
X627116Y1138721D01*
X627264Y1138499D01*
X627412Y1138240D01*
X627561Y1137944D01*
X627690Y1137610D01*
Y1137592D01*
X627709Y1137573D01*
X627727Y1137518D01*
X627746Y1137444D01*
X627801Y1137259D01*
X627857Y1137018D01*
X627912Y1136722D01*
X627968Y1136388D01*
X628005Y1136018D01*
X628023Y1135629D01*
Y1135611D01*
Y1135574D01*
Y1135518D01*
Y1135444D01*
X628005Y1135222D01*
X627986Y1134963D01*
X627949Y1134648D01*
X627875Y1134314D01*
X627801Y1133963D01*
X627690Y1133611D01*
Y1133592D01*
X627672Y1133574D01*
X627635Y1133463D01*
X627561Y1133296D01*
X627468Y1133092D01*
X627338Y1132852D01*
X627172Y1132592D01*
X626987Y1132333D01*
X626783Y1132074D01*
X626764Y1132055D01*
X626690Y1131963D01*
X626561Y1131852D01*
X626394Y1131722D01*
X626190Y1131555D01*
X625968Y1131389D01*
X625709Y1131241D01*
X625413Y1131093D01*
X625376Y1131074D01*
X625283Y1131037D01*
X625116Y1130982D01*
X624894Y1130926D01*
X624635Y1130870D01*
X624339Y1130815D01*
X624024Y1130778D01*
X623672Y1130759D01*
X623506D01*
X623320Y1130778D01*
X623098Y1130796D01*
X622820Y1130833D01*
X622524Y1130907D01*
X622209Y1130982D01*
X621913Y1131093D01*
X621876Y1131111D01*
X621783Y1131167D01*
X621635Y1131241D01*
X621450Y1131352D01*
X621228Y1131481D01*
X620987Y1131648D01*
X620746Y1131852D01*
X620524Y1132074D01*
X620506Y1132111D01*
X620432Y1132185D01*
X620321Y1132333D01*
X620191Y1132518D01*
X620061Y1132741D01*
X619913Y1133000D01*
X619765Y1133296D01*
X619636Y1133611D01*
Y1133629D01*
X619617Y1133648D01*
X619599Y1133703D01*
X619580Y1133777D01*
X619543Y1133963D01*
X619487Y1134203D01*
X619413Y1134500D01*
X619376Y1134852D01*
X619339Y1135222D01*
X619321Y1135629D01*
Y1135648D01*
Y1135685D01*
Y1135740D01*
Y1135814D01*
X619339Y1136018D01*
X619358Y1136277D01*
X619395Y1136592D01*
X619450Y1136925D01*
X619524Y1137259D01*
X619636Y1137610D01*
Y1137629D01*
X619654Y1137647D01*
X619691Y1137759D01*
X619765Y1137925D01*
X619858Y1138147D01*
X619987Y1138388D01*
X620135Y1138647D01*
X620321Y1138907D01*
X620524Y1139147D01*
X620543Y1139184D01*
X620635Y1139258D01*
X620746Y1139370D01*
X620913Y1139518D01*
X621117Y1139684D01*
X621357Y1139851D01*
X621617Y1139999D01*
X621913Y1140147D01*
X621931D01*
X621950Y1140166D01*
X622061Y1140203D01*
X622209Y1140258D01*
X622431Y1140332D01*
X622691Y1140388D01*
X622987Y1140443D01*
X623320Y1140480D01*
X623672Y1140499D01*
X623839D01*
X624005Y1140480D01*
D02*
G37*
G36*
X632023Y1131167D02*
Y1131148D01*
Y1131093D01*
Y1131000D01*
X632005Y1130870D01*
Y1130741D01*
X631986Y1130556D01*
X631931Y1130185D01*
X631819Y1129759D01*
X631671Y1129315D01*
X631486Y1128908D01*
X631357Y1128704D01*
X631208Y1128537D01*
X631171Y1128500D01*
X631116Y1128463D01*
X631060Y1128408D01*
X630968Y1128334D01*
X630875Y1128260D01*
X630616Y1128111D01*
X630264Y1127945D01*
X629857Y1127797D01*
X629394Y1127704D01*
X629116Y1127685D01*
X628838Y1127667D01*
X628690D01*
X628523Y1127685D01*
X628301Y1127723D01*
X628283D01*
X628246Y1127741D01*
X628172D01*
X628098Y1127760D01*
X627912Y1127815D01*
X627709Y1127871D01*
X627931Y1129222D01*
X627968D01*
X628060Y1129185D01*
X628190Y1129167D01*
X628357Y1129130D01*
X628394D01*
X628486Y1129111D01*
X628616Y1129093D01*
X628912D01*
X629060Y1129130D01*
X629246Y1129167D01*
X629431Y1129222D01*
X629635Y1129315D01*
X629820Y1129445D01*
X629986Y1129630D01*
X630005Y1129648D01*
X630042Y1129722D01*
X630097Y1129852D01*
X630171Y1130019D01*
X630246Y1130222D01*
X630301Y1130481D01*
X630338Y1130796D01*
X630357Y1131148D01*
Y1140277D01*
X632023D01*
Y1131167D01*
D02*
G37*
%LPC*%
G36*
X706295Y1021070D02*
X705121D01*
Y1020835D01*
X704886D01*
Y1020601D01*
Y1020366D01*
X704652D01*
Y1020131D01*
X704417D01*
Y1019896D01*
Y1019661D01*
X704182D01*
Y1019427D01*
X703947D01*
Y1019192D01*
X703712D01*
Y1018957D01*
Y1018722D01*
X703477D01*
Y1018487D01*
X703243D01*
Y1018252D01*
X703008D01*
Y1018018D01*
Y1017783D01*
X702773D01*
Y1017548D01*
X702538D01*
Y1017313D01*
Y1017078D01*
X702303D01*
Y1016843D01*
X702068D01*
Y1016609D01*
X701834D01*
Y1016374D01*
Y1016139D01*
X701599D01*
Y1015904D01*
X701364D01*
Y1015669D01*
X701129D01*
Y1015434D01*
Y1015200D01*
X700894D01*
Y1014965D01*
X700660D01*
Y1014730D01*
Y1014495D01*
X700425D01*
Y1014260D01*
X700190D01*
Y1014026D01*
X699955D01*
Y1013791D01*
Y1013556D01*
X699720D01*
Y1013321D01*
X699485D01*
Y1013086D01*
Y1012851D01*
X699251D01*
Y1012617D01*
X699016D01*
Y1012382D01*
X698781D01*
Y1012147D01*
Y1011912D01*
X698546D01*
Y1011677D01*
X698311D01*
Y1011443D01*
X698076D01*
Y1011208D01*
Y1010973D01*
X697842D01*
Y1010738D01*
X697607D01*
Y1010503D01*
Y1010268D01*
X697372D01*
Y1010034D01*
X697137D01*
Y1009799D01*
X696902D01*
Y1009564D01*
Y1009329D01*
X696668D01*
Y1009094D01*
X696433D01*
Y1008859D01*
Y1008625D01*
X696198D01*
Y1008390D01*
X695963D01*
Y1008155D01*
X695728D01*
Y1007920D01*
Y1007685D01*
X695493D01*
Y1007450D01*
X695259D01*
Y1007216D01*
X695024D01*
Y1006981D01*
Y1006746D01*
X694789D01*
Y1006511D01*
X694554D01*
Y1006276D01*
Y1006042D01*
X694319D01*
Y1005807D01*
X694084D01*
Y1005572D01*
X693850D01*
Y1005337D01*
Y1005102D01*
X693615D01*
Y1004867D01*
X693380D01*
Y1004633D01*
X693145D01*
Y1004398D01*
Y1004163D01*
X692910D01*
Y1003928D01*
X692676D01*
Y1003693D01*
Y1003458D01*
X692441D01*
Y1003224D01*
X692206D01*
Y1002989D01*
X691971D01*
Y1002754D01*
Y1002519D01*
X691736D01*
Y1002284D01*
X691501D01*
Y1002050D01*
Y1001815D01*
X691267D01*
Y1001580D01*
X691032D01*
Y1001345D01*
X690797D01*
Y1001110D01*
Y1000875D01*
X690562D01*
Y1000641D01*
X690327D01*
Y1000406D01*
X690092D01*
Y1000171D01*
Y999936D01*
X689858D01*
Y999701D01*
X689623D01*
Y999466D01*
Y999232D01*
X689388D01*
Y998997D01*
X689153D01*
Y998762D01*
X688918D01*
Y998527D01*
Y998292D01*
X688683D01*
Y998057D01*
X688449D01*
Y997823D01*
Y997588D01*
X688214D01*
Y997353D01*
X687979D01*
Y997118D01*
X687040D01*
Y996883D01*
X686335D01*
Y997118D01*
Y997353D01*
Y997588D01*
Y997823D01*
Y998057D01*
Y998292D01*
Y998527D01*
Y998762D01*
Y998997D01*
Y999232D01*
Y999466D01*
Y999701D01*
Y999936D01*
Y1000171D01*
Y1000406D01*
Y1000641D01*
Y1000875D01*
Y1001110D01*
Y1001345D01*
Y1001580D01*
Y1001815D01*
Y1002050D01*
Y1002284D01*
Y1002519D01*
Y1002754D01*
Y1002989D01*
Y1003224D01*
Y1003458D01*
Y1003693D01*
Y1003928D01*
Y1004163D01*
Y1004398D01*
Y1004633D01*
Y1004867D01*
Y1005102D01*
Y1005337D01*
Y1005572D01*
Y1005807D01*
Y1006042D01*
Y1006276D01*
Y1006511D01*
Y1006746D01*
Y1006981D01*
Y1007216D01*
Y1007450D01*
Y1007685D01*
Y1007920D01*
Y1008155D01*
Y1008390D01*
Y1008625D01*
Y1008859D01*
Y1009094D01*
Y1009329D01*
Y1009564D01*
Y1009799D01*
Y1010034D01*
Y1010268D01*
Y1010503D01*
Y1010738D01*
Y1010973D01*
Y1011208D01*
Y1011443D01*
Y1011677D01*
Y1011912D01*
Y1012147D01*
Y1012382D01*
Y1012617D01*
Y1012851D01*
Y1013086D01*
Y1013321D01*
Y1013556D01*
Y1013791D01*
Y1014026D01*
Y1014260D01*
Y1014495D01*
Y1014730D01*
Y1014965D01*
Y1015200D01*
Y1015434D01*
Y1015669D01*
Y1015904D01*
Y1016139D01*
Y1016374D01*
Y1016609D01*
Y1016843D01*
Y1017078D01*
Y1017313D01*
Y1017548D01*
Y1017783D01*
Y1018018D01*
Y1018252D01*
Y1018487D01*
Y1018722D01*
Y1018957D01*
Y1019192D01*
Y1019427D01*
Y1019661D01*
Y1019896D01*
Y1020131D01*
Y1020366D01*
Y1020601D01*
Y1020835D01*
Y1021070D01*
X685396D01*
Y1020835D01*
X684926D01*
Y1020601D01*
X684457D01*
Y1020366D01*
X683752D01*
Y1020131D01*
X683283D01*
Y1019896D01*
X682813D01*
Y1019661D01*
X682343D01*
Y1019427D01*
X681874D01*
Y1019192D01*
X681404D01*
Y1018957D01*
X680934D01*
Y1018722D01*
X680465D01*
Y1018487D01*
X679760D01*
Y1018252D01*
X679291D01*
Y1018018D01*
X679056D01*
Y1017783D01*
Y1017548D01*
Y1017313D01*
Y1017078D01*
Y1016843D01*
Y1016609D01*
Y1016374D01*
Y1016139D01*
Y1015904D01*
Y1015669D01*
Y1015434D01*
Y1015200D01*
Y1014965D01*
Y1014730D01*
Y1014495D01*
Y1014260D01*
Y1014026D01*
Y1013791D01*
Y1013556D01*
Y1013321D01*
Y1013086D01*
Y1012851D01*
Y1012617D01*
Y1012382D01*
Y1012147D01*
Y1011912D01*
Y1011677D01*
Y1011443D01*
Y1011208D01*
Y1010973D01*
Y1010738D01*
Y1010503D01*
Y1010268D01*
Y1010034D01*
Y1009799D01*
Y1009564D01*
Y1009329D01*
Y1009094D01*
Y1008859D01*
Y1008625D01*
Y1008390D01*
Y1008155D01*
Y1007920D01*
Y1007685D01*
Y1007450D01*
Y1007216D01*
Y1006981D01*
Y1006746D01*
Y1006511D01*
Y1006276D01*
Y1006042D01*
Y1005807D01*
Y1005572D01*
Y1005337D01*
Y1005102D01*
Y1004867D01*
Y1004633D01*
Y1004398D01*
Y1004163D01*
Y1003928D01*
Y1003693D01*
Y1003458D01*
Y1003224D01*
Y1002989D01*
Y1002754D01*
Y1002519D01*
Y1002284D01*
Y1002050D01*
Y1001815D01*
Y1001580D01*
Y1001345D01*
Y1001110D01*
Y1000875D01*
Y1000641D01*
Y1000406D01*
Y1000171D01*
Y999936D01*
Y999701D01*
Y999466D01*
Y999232D01*
Y998997D01*
Y998762D01*
Y998527D01*
Y998292D01*
Y998057D01*
Y997823D01*
Y997588D01*
Y997353D01*
Y997118D01*
Y996883D01*
Y996649D01*
Y996414D01*
Y996179D01*
Y995944D01*
Y995709D01*
Y995474D01*
Y995240D01*
Y995005D01*
Y994770D01*
Y994535D01*
Y994300D01*
Y994065D01*
Y993831D01*
Y993596D01*
Y993361D01*
Y993126D01*
Y992891D01*
Y992657D01*
Y992422D01*
Y992187D01*
Y991952D01*
Y991717D01*
Y991482D01*
Y991248D01*
Y991013D01*
Y990778D01*
Y990543D01*
Y990308D01*
Y990073D01*
Y989839D01*
Y989604D01*
Y989369D01*
Y989134D01*
Y988899D01*
Y988665D01*
Y988430D01*
Y988195D01*
Y987960D01*
Y987725D01*
Y987490D01*
Y987256D01*
Y987021D01*
Y986786D01*
Y986551D01*
Y986316D01*
Y986081D01*
Y985847D01*
Y985612D01*
Y985377D01*
Y985142D01*
Y984907D01*
Y984672D01*
Y984438D01*
Y984203D01*
Y983968D01*
Y983733D01*
Y983498D01*
Y983264D01*
Y983029D01*
Y982794D01*
Y982559D01*
Y982324D01*
Y982089D01*
Y981855D01*
Y981620D01*
Y981385D01*
Y981150D01*
Y980915D01*
Y980680D01*
Y980446D01*
Y980211D01*
Y979976D01*
Y979741D01*
Y979506D01*
Y979271D01*
Y979037D01*
Y978802D01*
Y978567D01*
Y978332D01*
Y978098D01*
Y977863D01*
Y977628D01*
Y977393D01*
Y977158D01*
Y976923D01*
Y976689D01*
Y976454D01*
Y976219D01*
Y975984D01*
Y975749D01*
Y975514D01*
Y975280D01*
Y975045D01*
Y974810D01*
Y974575D01*
Y974340D01*
Y974105D01*
Y973871D01*
Y973636D01*
Y973401D01*
Y973166D01*
Y972931D01*
Y972697D01*
Y972462D01*
Y972227D01*
Y971992D01*
Y971757D01*
Y971522D01*
Y971288D01*
Y971053D01*
Y970818D01*
Y970583D01*
Y970348D01*
Y970113D01*
Y969879D01*
Y969644D01*
Y969409D01*
Y969174D01*
Y968939D01*
Y968705D01*
Y968470D01*
Y968235D01*
Y968000D01*
Y967765D01*
Y967530D01*
Y967296D01*
Y967061D01*
Y966826D01*
Y966591D01*
Y966356D01*
Y966121D01*
Y965887D01*
Y965652D01*
Y965417D01*
Y965182D01*
X680230D01*
Y965417D01*
X680699D01*
Y965652D01*
X681169D01*
Y965887D01*
X681639D01*
Y966121D01*
X682343D01*
Y966356D01*
X682813D01*
Y966591D01*
X683283D01*
Y966826D01*
X683752D01*
Y967061D01*
X684222D01*
Y967296D01*
X684691D01*
Y967530D01*
X685161D01*
Y967765D01*
X685631D01*
Y968000D01*
X686100D01*
Y968235D01*
X686335D01*
Y968470D01*
Y968705D01*
Y968939D01*
Y969174D01*
Y969409D01*
Y969644D01*
Y969879D01*
Y970113D01*
Y970348D01*
Y970583D01*
Y970818D01*
Y971053D01*
Y971288D01*
Y971522D01*
Y971757D01*
Y971992D01*
Y972227D01*
Y972462D01*
Y972697D01*
Y972931D01*
Y973166D01*
Y973401D01*
Y973636D01*
Y973871D01*
Y974105D01*
Y974340D01*
Y974575D01*
Y974810D01*
Y975045D01*
Y975280D01*
Y975514D01*
Y975749D01*
Y975984D01*
Y976219D01*
Y976454D01*
Y976689D01*
Y976923D01*
Y977158D01*
Y977393D01*
Y977628D01*
Y977863D01*
Y978098D01*
Y978332D01*
Y978567D01*
Y978802D01*
Y979037D01*
Y979271D01*
Y979506D01*
Y979741D01*
Y979976D01*
Y980211D01*
Y980446D01*
Y980680D01*
Y980915D01*
Y981150D01*
Y981385D01*
Y981620D01*
Y981855D01*
Y982089D01*
Y982324D01*
Y982559D01*
Y982794D01*
Y983029D01*
Y983264D01*
Y983498D01*
Y983733D01*
Y983968D01*
Y984203D01*
Y984438D01*
Y984672D01*
Y984907D01*
Y985142D01*
Y985377D01*
X686570D01*
Y985612D01*
Y985847D01*
Y986081D01*
Y986316D01*
Y986551D01*
Y986786D01*
Y987021D01*
Y987256D01*
X686805D01*
Y987490D01*
Y987725D01*
Y987960D01*
X687040D01*
Y988195D01*
Y988430D01*
X687275D01*
Y988665D01*
Y988899D01*
X687509D01*
Y989134D01*
X687744D01*
Y989369D01*
Y989604D01*
X687979D01*
Y989839D01*
X688449D01*
Y990073D01*
X688683D01*
Y990308D01*
X689153D01*
Y990543D01*
X689858D01*
Y990778D01*
X691736D01*
Y991013D01*
X701364D01*
Y990778D01*
X703243D01*
Y990543D01*
X703947D01*
Y990308D01*
X704417D01*
Y990073D01*
X704652D01*
Y989839D01*
X704886D01*
Y989604D01*
X705121D01*
Y989369D01*
X705356D01*
Y989134D01*
X705591D01*
Y988899D01*
X705826D01*
Y988665D01*
Y988430D01*
X706061D01*
Y988195D01*
Y987960D01*
X706295D01*
Y987725D01*
Y987490D01*
Y987256D01*
Y987021D01*
X706530D01*
Y986786D01*
Y986551D01*
Y986316D01*
Y986081D01*
Y985847D01*
Y985612D01*
Y985377D01*
Y985142D01*
Y984907D01*
Y984672D01*
Y984438D01*
Y984203D01*
Y983968D01*
Y983733D01*
Y983498D01*
Y983264D01*
Y983029D01*
Y982794D01*
Y982559D01*
Y982324D01*
Y982089D01*
Y981855D01*
Y981620D01*
Y981385D01*
Y981150D01*
Y980915D01*
Y980680D01*
Y980446D01*
Y980211D01*
Y979976D01*
Y979741D01*
Y979506D01*
Y979271D01*
Y979037D01*
Y978802D01*
Y978567D01*
Y978332D01*
Y978098D01*
Y977863D01*
Y977628D01*
Y977393D01*
Y977158D01*
Y976923D01*
Y976689D01*
Y976454D01*
Y976219D01*
Y975984D01*
Y975749D01*
Y975514D01*
Y975280D01*
Y975045D01*
Y974810D01*
Y974575D01*
Y974340D01*
Y974105D01*
Y973871D01*
Y973636D01*
Y973401D01*
Y973166D01*
Y972931D01*
Y972697D01*
Y972462D01*
Y972227D01*
Y971992D01*
Y971757D01*
Y971522D01*
Y971288D01*
Y971053D01*
Y970818D01*
Y970583D01*
Y970348D01*
Y970113D01*
Y969879D01*
Y969644D01*
Y969409D01*
Y969174D01*
Y968939D01*
Y968705D01*
Y968470D01*
Y968235D01*
Y968000D01*
Y967765D01*
Y967530D01*
Y967296D01*
Y967061D01*
Y966826D01*
Y966591D01*
Y966356D01*
Y966121D01*
Y965887D01*
Y965652D01*
Y965417D01*
Y965182D01*
X707704D01*
Y965417D01*
X708174D01*
Y965652D01*
X708644D01*
Y965887D01*
X709113D01*
Y966121D01*
X709583D01*
Y966356D01*
X710287D01*
Y966591D01*
X710757D01*
Y966826D01*
X711227D01*
Y967061D01*
X711696D01*
Y967296D01*
X712166D01*
Y967530D01*
X712636D01*
Y967765D01*
X713105D01*
Y968000D01*
X713575D01*
Y968235D01*
X713810D01*
Y968470D01*
Y968705D01*
Y968939D01*
Y969174D01*
Y969409D01*
Y969644D01*
Y969879D01*
Y970113D01*
Y970348D01*
Y970583D01*
Y970818D01*
Y971053D01*
Y971288D01*
Y971522D01*
Y971757D01*
Y971992D01*
Y972227D01*
Y972462D01*
Y972697D01*
Y972931D01*
Y973166D01*
Y973401D01*
Y973636D01*
Y973871D01*
Y974105D01*
Y974340D01*
Y974575D01*
Y974810D01*
Y975045D01*
Y975280D01*
Y975514D01*
Y975749D01*
Y975984D01*
Y976219D01*
Y976454D01*
Y976689D01*
Y976923D01*
Y977158D01*
Y977393D01*
Y977628D01*
Y977863D01*
Y978098D01*
Y978332D01*
Y978567D01*
Y978802D01*
Y979037D01*
Y979271D01*
Y979506D01*
Y979741D01*
Y979976D01*
Y980211D01*
Y980446D01*
Y980680D01*
Y980915D01*
Y981150D01*
Y981385D01*
Y981620D01*
Y981855D01*
Y982089D01*
Y982324D01*
Y982559D01*
Y982794D01*
Y983029D01*
Y983264D01*
Y983498D01*
Y983733D01*
Y983968D01*
Y984203D01*
Y984438D01*
Y984672D01*
Y984907D01*
Y985142D01*
Y985377D01*
Y985612D01*
Y985847D01*
Y986081D01*
Y986316D01*
Y986551D01*
Y986786D01*
Y987021D01*
Y987256D01*
Y987490D01*
Y987725D01*
Y987960D01*
Y988195D01*
X713575D01*
Y988430D01*
Y988665D01*
Y988899D01*
Y989134D01*
Y989369D01*
X713340D01*
Y989604D01*
Y989839D01*
Y990073D01*
Y990308D01*
X713105D01*
Y990543D01*
Y990778D01*
Y991013D01*
X712870D01*
Y991248D01*
Y991482D01*
X712636D01*
Y991717D01*
Y991952D01*
X712401D01*
Y992187D01*
Y992422D01*
X712166D01*
Y992657D01*
Y992891D01*
X711931D01*
Y993126D01*
X711696D01*
Y993361D01*
Y993596D01*
X711461D01*
Y993831D01*
X711227D01*
Y994065D01*
X710992D01*
Y994300D01*
X710757D01*
Y994535D01*
X710522D01*
Y994770D01*
X710287D01*
Y995005D01*
X710053D01*
Y995240D01*
X709583D01*
Y995474D01*
X709348D01*
Y995709D01*
X708878D01*
Y995944D01*
X708409D01*
Y996179D01*
X707939D01*
Y996414D01*
X707469D01*
Y996649D01*
X706765D01*
Y996883D01*
X705826D01*
Y997118D01*
X704652D01*
Y997353D01*
X696668D01*
Y997588D01*
Y997823D01*
X696902D01*
Y998057D01*
X697137D01*
Y998292D01*
X697372D01*
Y998527D01*
Y998762D01*
X697607D01*
Y998997D01*
X697842D01*
Y999232D01*
X698076D01*
Y999466D01*
Y999701D01*
X698311D01*
Y999936D01*
X698546D01*
Y1000171D01*
X698781D01*
Y1000406D01*
Y1000641D01*
X699016D01*
Y1000875D01*
X699251D01*
Y1001110D01*
X699485D01*
Y1001345D01*
Y1001580D01*
X699720D01*
Y1001815D01*
X699955D01*
Y1002050D01*
X700190D01*
Y1002284D01*
Y1002519D01*
X700425D01*
Y1002754D01*
X700660D01*
Y1002989D01*
X700894D01*
Y1003224D01*
Y1003458D01*
X701129D01*
Y1003693D01*
X701364D01*
Y1003928D01*
X701599D01*
Y1004163D01*
X701834D01*
Y1004398D01*
Y1004633D01*
X702068D01*
Y1004867D01*
X702303D01*
Y1005102D01*
X702538D01*
Y1005337D01*
Y1005572D01*
X702773D01*
Y1005807D01*
X703008D01*
Y1006042D01*
X703243D01*
Y1006276D01*
Y1006511D01*
X703477D01*
Y1006746D01*
X703712D01*
Y1006981D01*
X703947D01*
Y1007216D01*
Y1007450D01*
X704182D01*
Y1007685D01*
X704417D01*
Y1007920D01*
X704652D01*
Y1008155D01*
Y1008390D01*
X704886D01*
Y1008625D01*
X705121D01*
Y1008859D01*
X705356D01*
Y1009094D01*
Y1009329D01*
X705591D01*
Y1009564D01*
X705826D01*
Y1009799D01*
X706061D01*
Y1010034D01*
Y1010268D01*
X706295D01*
Y1010503D01*
X706530D01*
Y1010738D01*
X706765D01*
Y1010973D01*
Y1011208D01*
X707000D01*
Y1011443D01*
X707235D01*
Y1011677D01*
X707469D01*
Y1011912D01*
Y1012147D01*
X707704D01*
Y1012382D01*
X707939D01*
Y1012617D01*
X708174D01*
Y1012851D01*
Y1013086D01*
X708409D01*
Y1013321D01*
X708644D01*
Y1013556D01*
X708878D01*
Y1013791D01*
Y1014026D01*
X709113D01*
Y1014260D01*
X709348D01*
Y1014495D01*
X709583D01*
Y1014730D01*
Y1014965D01*
X709818D01*
Y1015200D01*
X710053D01*
Y1015434D01*
X710287D01*
Y1015669D01*
Y1015904D01*
X710522D01*
Y1016139D01*
X710757D01*
Y1016374D01*
X710992D01*
Y1016609D01*
Y1016843D01*
X711227D01*
Y1017078D01*
X711461D01*
Y1017313D01*
X711696D01*
Y1017548D01*
X711931D01*
Y1017783D01*
Y1018018D01*
X712166D01*
Y1018252D01*
X711931D01*
Y1018487D01*
X711461D01*
Y1018722D01*
X710992D01*
Y1018957D01*
X710522D01*
Y1019192D01*
X709818D01*
Y1019427D01*
X709348D01*
Y1019661D01*
X708878D01*
Y1019896D01*
X708409D01*
Y1020131D01*
X707939D01*
Y1020366D01*
X707469D01*
Y1020601D01*
X707000D01*
Y1020835D01*
X706295D01*
Y1021070D01*
D02*
G37*
G36*
X741975Y1139018D02*
X741864D01*
X741715Y1138999D01*
X741549Y1138981D01*
X741364Y1138962D01*
X741160Y1138907D01*
X740956Y1138851D01*
X740753Y1138758D01*
X740734Y1138740D01*
X740678Y1138703D01*
X740586Y1138647D01*
X740456Y1138573D01*
X740327Y1138462D01*
X740197Y1138351D01*
X740049Y1138203D01*
X739919Y1138036D01*
X739901Y1138018D01*
X739864Y1137962D01*
X739808Y1137851D01*
X739753Y1137721D01*
X739660Y1137573D01*
X739586Y1137388D01*
X739512Y1137166D01*
X739456Y1136944D01*
Y1136925D01*
X739438Y1136833D01*
X739419Y1136722D01*
X739401Y1136555D01*
X739364Y1136351D01*
X739345Y1136129D01*
X739327Y1135888D01*
Y1135629D01*
Y1135611D01*
Y1135555D01*
Y1135481D01*
X739345Y1135370D01*
Y1135222D01*
X739364Y1135074D01*
X739419Y1134703D01*
X739530Y1134296D01*
X739660Y1133889D01*
X739864Y1133481D01*
X739975Y1133278D01*
X740123Y1133111D01*
X740142D01*
X740160Y1133074D01*
X740271Y1132981D01*
X740438Y1132833D01*
X740697Y1132685D01*
X740993Y1132518D01*
X741364Y1132370D01*
X741771Y1132278D01*
X742012Y1132259D01*
X742252Y1132241D01*
X742660D01*
X742826Y1132259D01*
X743012D01*
X743215Y1132278D01*
X743382Y1132296D01*
X743400D01*
X743456Y1132315D01*
X743549D01*
X743641Y1132333D01*
X743882Y1132370D01*
X743993Y1132407D01*
X744104Y1132426D01*
Y1138296D01*
X744086Y1138314D01*
X744048Y1138333D01*
X743975Y1138388D01*
X743882Y1138444D01*
X743752Y1138518D01*
X743604Y1138592D01*
X743419Y1138684D01*
X743215Y1138777D01*
X743197Y1138795D01*
X743123Y1138814D01*
X743012Y1138851D01*
X742845Y1138907D01*
X742660Y1138944D01*
X742456Y1138981D01*
X742234Y1138999D01*
X741975Y1139018D01*
D02*
G37*
G36*
X605878Y1141962D02*
X604989D01*
X604711Y1141943D01*
X604433D01*
X604174Y1141925D01*
X603933Y1141906D01*
Y1137055D01*
X605544D01*
X605767Y1137073D01*
X606007D01*
X606285Y1137111D01*
X606822Y1137166D01*
X606859D01*
X606952Y1137185D01*
X607081Y1137222D01*
X607248Y1137259D01*
X607433Y1137314D01*
X607637Y1137370D01*
X607840Y1137462D01*
X608044Y1137555D01*
X608063Y1137573D01*
X608118Y1137610D01*
X608211Y1137666D01*
X608322Y1137759D01*
X608451Y1137870D01*
X608581Y1137999D01*
X608692Y1138147D01*
X608803Y1138314D01*
X608822Y1138333D01*
X608840Y1138407D01*
X608896Y1138499D01*
X608951Y1138647D01*
X608988Y1138832D01*
X609044Y1139036D01*
X609062Y1139277D01*
X609081Y1139536D01*
Y1139573D01*
Y1139666D01*
X609062Y1139795D01*
X609044Y1139962D01*
X609007Y1140147D01*
X608970Y1140332D01*
X608896Y1140536D01*
X608803Y1140721D01*
X608785Y1140740D01*
X608748Y1140795D01*
X608692Y1140888D01*
X608600Y1140980D01*
X608489Y1141110D01*
X608359Y1141221D01*
X608211Y1141351D01*
X608044Y1141462D01*
X608026Y1141480D01*
X607952Y1141499D01*
X607859Y1141554D01*
X607729Y1141610D01*
X607563Y1141684D01*
X607378Y1141740D01*
X607155Y1141795D01*
X606933Y1141851D01*
X606915D01*
X606822Y1141869D01*
X606711Y1141888D01*
X606544Y1141906D01*
X606341Y1141925D01*
X606118Y1141943D01*
X605878Y1141962D01*
D02*
G37*
G36*
X756510Y1139018D02*
X756399D01*
X756270Y1138999D01*
X756103Y1138981D01*
X755899Y1138962D01*
X755695Y1138925D01*
X755473Y1138851D01*
X755251Y1138777D01*
X755233Y1138758D01*
X755158Y1138740D01*
X755066Y1138684D01*
X754936Y1138629D01*
X754659Y1138481D01*
X754529Y1138388D01*
X754399Y1138296D01*
Y1132426D01*
X754418D01*
X754436Y1132407D01*
X754492D01*
X754585Y1132389D01*
X754677Y1132370D01*
X754788Y1132333D01*
X754936Y1132315D01*
X755084Y1132296D01*
X755177D01*
X755270Y1132278D01*
X755399D01*
X755566Y1132259D01*
X755770D01*
X755992Y1132241D01*
X756362D01*
X756455Y1132259D01*
X756566D01*
X756695Y1132296D01*
X756992Y1132352D01*
X757343Y1132463D01*
X757695Y1132611D01*
X758047Y1132833D01*
X758214Y1132963D01*
X758362Y1133111D01*
X758380Y1133129D01*
X758399Y1133148D01*
X758436Y1133204D01*
X758492Y1133278D01*
X758547Y1133370D01*
X758621Y1133481D01*
X758695Y1133611D01*
X758769Y1133759D01*
X758843Y1133926D01*
X758917Y1134111D01*
X758991Y1134314D01*
X759047Y1134555D01*
X759140Y1135055D01*
X759177Y1135333D01*
Y1135629D01*
Y1135666D01*
Y1135740D01*
Y1135888D01*
X759158Y1136055D01*
X759140Y1136259D01*
X759121Y1136481D01*
X759028Y1136944D01*
Y1136981D01*
X759010Y1137055D01*
X758973Y1137166D01*
X758917Y1137314D01*
X758843Y1137481D01*
X758769Y1137666D01*
X758547Y1138036D01*
X758529Y1138055D01*
X758492Y1138110D01*
X758417Y1138203D01*
X758325Y1138296D01*
X758214Y1138425D01*
X758066Y1138536D01*
X757917Y1138647D01*
X757732Y1138758D01*
X757714Y1138777D01*
X757640Y1138795D01*
X757529Y1138832D01*
X757399Y1138888D01*
X757214Y1138944D01*
X757010Y1138981D01*
X756769Y1138999D01*
X756510Y1139018D01*
D02*
G37*
G36*
X731846Y1139092D02*
X731753D01*
X731642Y1139073D01*
X731513Y1139055D01*
X731346Y1139036D01*
X731180Y1138999D01*
X730994Y1138925D01*
X730828Y1138851D01*
X730809Y1138832D01*
X730754Y1138814D01*
X730679Y1138758D01*
X730568Y1138703D01*
X730328Y1138518D01*
X730087Y1138277D01*
X730069Y1138259D01*
X730032Y1138222D01*
X729976Y1138147D01*
X729920Y1138036D01*
X729846Y1137925D01*
X729754Y1137777D01*
X729606Y1137462D01*
Y1137444D01*
X729587Y1137388D01*
X729550Y1137296D01*
X729513Y1137166D01*
X729476Y1137036D01*
X729457Y1136870D01*
X729402Y1136518D01*
X734013D01*
Y1136536D01*
Y1136573D01*
Y1136629D01*
Y1136703D01*
X733976Y1136907D01*
X733939Y1137166D01*
X733864Y1137462D01*
X733772Y1137759D01*
X733624Y1138073D01*
X733438Y1138351D01*
X733420Y1138388D01*
X733327Y1138462D01*
X733198Y1138592D01*
X733031Y1138721D01*
X732790Y1138851D01*
X732531Y1138981D01*
X732216Y1139055D01*
X731846Y1139092D01*
D02*
G37*
G36*
X696590Y1138981D02*
X696165D01*
X695961Y1138962D01*
X695776D01*
X695572Y1138944D01*
X695405Y1138925D01*
X695331D01*
X695257Y1138907D01*
X695165Y1138888D01*
X694961Y1138851D01*
X694757Y1138795D01*
Y1132944D01*
X694776Y1132926D01*
X694813Y1132907D01*
X694887Y1132852D01*
X694979Y1132796D01*
X695091Y1132722D01*
X695239Y1132648D01*
X695405Y1132555D01*
X695609Y1132463D01*
X695628D01*
X695702Y1132426D01*
X695831Y1132389D01*
X695979Y1132352D01*
X696165Y1132315D01*
X696387Y1132278D01*
X696609Y1132259D01*
X696868Y1132241D01*
X696998D01*
X697128Y1132259D01*
X697294Y1132278D01*
X697479Y1132296D01*
X697683Y1132352D01*
X697887Y1132407D01*
X698090Y1132481D01*
X698109Y1132500D01*
X698183Y1132537D01*
X698257Y1132592D01*
X698387Y1132666D01*
X698516Y1132778D01*
X698646Y1132889D01*
X698775Y1133037D01*
X698905Y1133204D01*
X698924Y1133222D01*
X698961Y1133278D01*
X699016Y1133389D01*
X699090Y1133518D01*
X699164Y1133666D01*
X699257Y1133852D01*
X699331Y1134055D01*
X699387Y1134277D01*
Y1134314D01*
X699405Y1134389D01*
X699442Y1134518D01*
X699461Y1134666D01*
X699498Y1134870D01*
X699516Y1135092D01*
X699535Y1135351D01*
Y1135611D01*
Y1135629D01*
Y1135685D01*
Y1135759D01*
X699516Y1135870D01*
Y1136018D01*
X699498Y1136166D01*
X699442Y1136518D01*
X699331Y1136925D01*
X699183Y1137333D01*
X698998Y1137740D01*
X698868Y1137925D01*
X698720Y1138092D01*
Y1138110D01*
X698683Y1138129D01*
X698572Y1138240D01*
X698405Y1138370D01*
X698164Y1138536D01*
X697850Y1138703D01*
X697479Y1138851D01*
X697072Y1138944D01*
X696831Y1138962D01*
X696590Y1138981D01*
D02*
G37*
G36*
X686092D02*
X685666D01*
X685462Y1138962D01*
X685277D01*
X685073Y1138944D01*
X684906Y1138925D01*
X684832D01*
X684758Y1138907D01*
X684666Y1138888D01*
X684462Y1138851D01*
X684258Y1138795D01*
Y1132944D01*
X684277Y1132926D01*
X684314Y1132907D01*
X684388Y1132852D01*
X684481Y1132796D01*
X684592Y1132722D01*
X684740Y1132648D01*
X684906Y1132555D01*
X685110Y1132463D01*
X685129D01*
X685203Y1132426D01*
X685332Y1132389D01*
X685480Y1132352D01*
X685666Y1132315D01*
X685888Y1132278D01*
X686110Y1132259D01*
X686369Y1132241D01*
X686499D01*
X686628Y1132259D01*
X686795Y1132278D01*
X686980Y1132296D01*
X687184Y1132352D01*
X687388Y1132407D01*
X687591Y1132481D01*
X687610Y1132500D01*
X687684Y1132537D01*
X687758Y1132592D01*
X687888Y1132666D01*
X688017Y1132778D01*
X688147Y1132889D01*
X688277Y1133037D01*
X688406Y1133204D01*
X688425Y1133222D01*
X688462Y1133278D01*
X688517Y1133389D01*
X688591Y1133518D01*
X688665Y1133666D01*
X688758Y1133852D01*
X688832Y1134055D01*
X688888Y1134277D01*
Y1134314D01*
X688906Y1134389D01*
X688943Y1134518D01*
X688962Y1134666D01*
X688999Y1134870D01*
X689017Y1135092D01*
X689036Y1135351D01*
Y1135611D01*
Y1135629D01*
Y1135685D01*
Y1135759D01*
X689017Y1135870D01*
Y1136018D01*
X688999Y1136166D01*
X688943Y1136518D01*
X688832Y1136925D01*
X688684Y1137333D01*
X688499Y1137740D01*
X688369Y1137925D01*
X688221Y1138092D01*
Y1138110D01*
X688184Y1138129D01*
X688073Y1138240D01*
X687906Y1138370D01*
X687665Y1138536D01*
X687351Y1138703D01*
X686980Y1138851D01*
X686573Y1138944D01*
X686332Y1138962D01*
X686092Y1138981D01*
D02*
G37*
G36*
X638559Y1139092D02*
X638467D01*
X638356Y1139073D01*
X638226Y1139055D01*
X638060Y1139036D01*
X637893Y1138999D01*
X637708Y1138925D01*
X637541Y1138851D01*
X637523Y1138832D01*
X637467Y1138814D01*
X637393Y1138758D01*
X637282Y1138703D01*
X637041Y1138518D01*
X636800Y1138277D01*
X636782Y1138259D01*
X636745Y1138222D01*
X636689Y1138147D01*
X636634Y1138036D01*
X636560Y1137925D01*
X636467Y1137777D01*
X636319Y1137462D01*
Y1137444D01*
X636300Y1137388D01*
X636263Y1137296D01*
X636226Y1137166D01*
X636189Y1137036D01*
X636171Y1136870D01*
X636115Y1136518D01*
X640726D01*
Y1136536D01*
Y1136573D01*
Y1136629D01*
Y1136703D01*
X640689Y1136907D01*
X640652Y1137166D01*
X640578Y1137462D01*
X640485Y1137759D01*
X640337Y1138073D01*
X640152Y1138351D01*
X640133Y1138388D01*
X640041Y1138462D01*
X639911Y1138592D01*
X639744Y1138721D01*
X639504Y1138851D01*
X639245Y1138981D01*
X638930Y1139055D01*
X638559Y1139092D01*
D02*
G37*
G36*
X707423Y1139036D02*
X707312D01*
X707219Y1139018D01*
X706997Y1138981D01*
X706719Y1138925D01*
X706423Y1138814D01*
X706089Y1138647D01*
X705941Y1138536D01*
X705775Y1138425D01*
X705627Y1138277D01*
X705497Y1138110D01*
Y1138092D01*
X705460Y1138073D01*
X705441Y1138018D01*
X705386Y1137944D01*
X705330Y1137851D01*
X705275Y1137740D01*
X705219Y1137610D01*
X705145Y1137462D01*
X705015Y1137092D01*
X704904Y1136666D01*
X704830Y1136185D01*
X704793Y1135629D01*
Y1135611D01*
Y1135555D01*
Y1135481D01*
X704812Y1135370D01*
Y1135240D01*
X704830Y1135092D01*
X704886Y1134722D01*
X704960Y1134333D01*
X705090Y1133907D01*
X705256Y1133500D01*
X705497Y1133129D01*
Y1133111D01*
X705534Y1133092D01*
X705627Y1132981D01*
X705793Y1132852D01*
X705997Y1132685D01*
X706275Y1132518D01*
X706608Y1132370D01*
X706997Y1132259D01*
X707200Y1132241D01*
X707423Y1132222D01*
X707534D01*
X707626Y1132241D01*
X707849Y1132278D01*
X708108Y1132333D01*
X708423Y1132444D01*
X708737Y1132611D01*
X708885Y1132703D01*
X709052Y1132833D01*
X709200Y1132963D01*
X709330Y1133129D01*
Y1133148D01*
X709367Y1133166D01*
X709404Y1133222D01*
X709441Y1133296D01*
X709497Y1133389D01*
X709552Y1133500D01*
X709626Y1133629D01*
X709700Y1133796D01*
X709830Y1134148D01*
X709941Y1134574D01*
X710015Y1135074D01*
X710052Y1135629D01*
Y1135648D01*
Y1135703D01*
Y1135777D01*
X710033Y1135888D01*
Y1136018D01*
X710015Y1136166D01*
X709959Y1136518D01*
X709885Y1136925D01*
X709756Y1137333D01*
X709571Y1137740D01*
X709330Y1138110D01*
Y1138129D01*
X709293Y1138147D01*
X709200Y1138259D01*
X709052Y1138407D01*
X708830Y1138573D01*
X708552Y1138740D01*
X708237Y1138888D01*
X707849Y1138999D01*
X707645Y1139018D01*
X707423Y1139036D01*
D02*
G37*
G36*
X623672D02*
X623561D01*
X623468Y1139018D01*
X623246Y1138981D01*
X622968Y1138925D01*
X622672Y1138814D01*
X622339Y1138647D01*
X622191Y1138536D01*
X622024Y1138425D01*
X621876Y1138277D01*
X621746Y1138110D01*
Y1138092D01*
X621709Y1138073D01*
X621691Y1138018D01*
X621635Y1137944D01*
X621580Y1137851D01*
X621524Y1137740D01*
X621469Y1137610D01*
X621395Y1137462D01*
X621265Y1137092D01*
X621154Y1136666D01*
X621080Y1136185D01*
X621043Y1135629D01*
Y1135611D01*
Y1135555D01*
Y1135481D01*
X621061Y1135370D01*
Y1135240D01*
X621080Y1135092D01*
X621135Y1134722D01*
X621209Y1134333D01*
X621339Y1133907D01*
X621506Y1133500D01*
X621746Y1133129D01*
Y1133111D01*
X621783Y1133092D01*
X621876Y1132981D01*
X622043Y1132852D01*
X622246Y1132685D01*
X622524Y1132518D01*
X622857Y1132370D01*
X623246Y1132259D01*
X623450Y1132241D01*
X623672Y1132222D01*
X623783D01*
X623876Y1132241D01*
X624098Y1132278D01*
X624357Y1132333D01*
X624672Y1132444D01*
X624987Y1132611D01*
X625135Y1132703D01*
X625302Y1132833D01*
X625450Y1132963D01*
X625579Y1133129D01*
Y1133148D01*
X625616Y1133166D01*
X625653Y1133222D01*
X625690Y1133296D01*
X625746Y1133389D01*
X625802Y1133500D01*
X625876Y1133629D01*
X625950Y1133796D01*
X626079Y1134148D01*
X626190Y1134574D01*
X626264Y1135074D01*
X626301Y1135629D01*
Y1135648D01*
Y1135703D01*
Y1135777D01*
X626283Y1135888D01*
Y1136018D01*
X626264Y1136166D01*
X626209Y1136518D01*
X626135Y1136925D01*
X626005Y1137333D01*
X625820Y1137740D01*
X625579Y1138110D01*
Y1138129D01*
X625542Y1138147D01*
X625450Y1138259D01*
X625302Y1138407D01*
X625079Y1138573D01*
X624802Y1138740D01*
X624487Y1138888D01*
X624098Y1138999D01*
X623894Y1139018D01*
X623672Y1139036D01*
D02*
G37*
%LPD*%
D10*
X1038612Y674000D02*
G03*
X1038612Y674000I-22500J0D01*
G01*
X563000Y723000D02*
G03*
X563000Y723000I-35000J0D01*
G01*
X558000D02*
G03*
X558000Y723000I-30000J0D01*
G01*
X892000D02*
G03*
X892000Y723000I-30000J0D01*
G01*
X897000D02*
G03*
X897000Y723000I-35000J0D01*
G01*
Y995000D02*
G03*
X897000Y995000I-35000J0D01*
G01*
X892000D02*
G03*
X892000Y995000I-30000J0D01*
G01*
X558000Y994000D02*
G03*
X558000Y994000I-30000J0D01*
G01*
X563000D02*
G03*
X563000Y994000I-35000J0D01*
G01*
X879920Y375000D02*
G03*
X879920Y375000I-18000J0D01*
G01*
X435000D02*
G03*
X435000Y375000I-18000J0D01*
G01*
X546230D02*
G03*
X546230Y375000I-18000J0D01*
G01*
X657460D02*
G03*
X657460Y375000I-18000J0D01*
G01*
X768690D02*
G03*
X768690Y375000I-18000J0D01*
G01*
X991150D02*
G03*
X991150Y375000I-18000J0D01*
G01*
X1024500Y1062000D02*
G03*
X1024500Y1062000I-7500J0D01*
G01*
X944409Y439327D02*
G03*
X944409Y439327I-7500J0D01*
G01*
X1037500Y564000D02*
G03*
X1037500Y564000I-7500J0D01*
G01*
X665581Y1331000D02*
G03*
X665581Y1331000I-7500J0D01*
G01*
X744500Y1264000D02*
G03*
X744500Y1264000I-7500J0D01*
G01*
X1029290Y729000D02*
G03*
X1029290Y729000I-7500J0D01*
G01*
X688910Y1278000D02*
G03*
X688910Y1278000I-7500J0D01*
G01*
X830598Y437000D02*
G03*
X830598Y437000I-7500J0D01*
G01*
X973500Y1049991D02*
G03*
X973500Y1049991I-7500J0D01*
G01*
X928585Y830585D02*
G03*
X928585Y830585I-7500J0D01*
G01*
X954500Y882399D02*
G03*
X954500Y882399I-7500J0D01*
G01*
X969500Y1066000D02*
G03*
X969500Y1066000I-7500J0D01*
G01*
X606323Y436000D02*
G03*
X606323Y436000I-7500J0D01*
G01*
X844319Y760000D02*
G03*
X844319Y760000I-7500J0D01*
G01*
X719500Y864350D02*
G03*
X719500Y864350I-7500J0D01*
G01*
X713167Y773902D02*
G03*
X713167Y773902I-7500J0D01*
G01*
X1036073Y856000D02*
G03*
X1036073Y856000I-7500J0D01*
G01*
X575756Y668000D02*
G03*
X575756Y668000I-7500J0D01*
G01*
X727500Y695500D02*
G03*
X727500Y695500I-7500J0D01*
G01*
X765500Y651072D02*
G03*
X765500Y651072I-7500J0D01*
G01*
X607500Y610000D02*
G03*
X607500Y610000I-7500J0D01*
G01*
X922174Y894144D02*
G03*
X922174Y894144I-7500J0D01*
G01*
X469500Y922000D02*
G03*
X469500Y922000I-7500J0D01*
G01*
X476500Y938473D02*
G03*
X476500Y938473I-7500J0D01*
G01*
X961788Y1053238D02*
G03*
X961788Y1053238I-7500J0D01*
G01*
X960673Y1042000D02*
G03*
X960673Y1042000I-7500J0D01*
G01*
X1021500Y777364D02*
G03*
X1021500Y777364I-7500J0D01*
G01*
X508500Y439000D02*
G03*
X508500Y439000I-7500J0D01*
G01*
X494175Y968000D02*
G03*
X494175Y968000I-7500J0D01*
G01*
X587500Y574000D02*
G03*
X587500Y574000I-7500J0D01*
G01*
X726500Y435722D02*
G03*
X726500Y435722I-7500J0D01*
G01*
X719500Y1322645D02*
G03*
X719500Y1322645I-22500J0D01*
G01*
X680500Y1285000D02*
G03*
X680500Y1285000I-22500J0D01*
G01*
X897000Y1155000D02*
G03*
X897000Y1155000I-35000J0D01*
G01*
X892000D02*
G03*
X892000Y1155000I-30000J0D01*
G01*
X1016500Y1095178D02*
G03*
X1016500Y1095178I-22500J0D01*
G01*
X1038500Y815000D02*
G03*
X1038500Y815000I-22500J0D01*
G01*
X1004148Y881128D02*
G03*
X1004148Y881128I-22500J0D01*
G01*
X851655Y807152D02*
G03*
X851655Y807152I-22500J0D01*
G01*
X984000Y822500D02*
G03*
X984000Y822500I-22500J0D01*
G01*
X480500Y658000D02*
X575500D01*
X480500D02*
Y771000D01*
X528000D01*
X575500D01*
Y658000D02*
Y723000D01*
Y771000D01*
X528000Y733000D02*
X550500D01*
Y713000D02*
Y733000D01*
X528000Y713000D02*
X550500D01*
X505500Y733000D02*
X528000D01*
X505500Y713000D02*
Y733000D01*
Y713000D02*
X528000D01*
X839500D02*
X862000D01*
X839500D02*
Y733000D01*
X862000D01*
Y713000D02*
X884500D01*
Y733000D01*
X862000D02*
X884500D01*
X909500Y723000D02*
Y771000D01*
Y658000D02*
Y723000D01*
X862000Y771000D02*
X909500D01*
X814500D02*
X862000D01*
X814500Y658000D02*
Y771000D01*
Y658000D02*
X909500D01*
X814500Y930000D02*
X909500D01*
X814500D02*
Y1043000D01*
X862000D01*
X909500D01*
Y930000D02*
Y995000D01*
Y1043000D01*
X862000Y1005000D02*
X884500D01*
Y985000D02*
Y1005000D01*
X862000Y985000D02*
X884500D01*
X839500Y1005000D02*
X862000D01*
X839500Y985000D02*
Y1005000D01*
Y985000D02*
X862000D01*
X505500Y984000D02*
X528000D01*
X505500D02*
Y1004000D01*
X528000D01*
Y984000D02*
X550500D01*
Y1004000D01*
X528000D02*
X550500D01*
X575500Y994000D02*
Y1042000D01*
Y929000D02*
Y994000D01*
X528000Y1042000D02*
X575500D01*
X480500D02*
X528000D01*
X480500Y929000D02*
Y1042000D01*
Y929000D02*
X575500D01*
X913420Y320400D02*
Y434600D01*
X810420Y320400D02*
X913420D01*
X810420D02*
Y434600D01*
X913420D01*
X468500Y320400D02*
Y434600D01*
X365500Y320400D02*
X468500D01*
X365500D02*
Y434600D01*
X468500D01*
X579730Y320400D02*
Y434600D01*
X476730Y320400D02*
X579730D01*
X476730D02*
Y434600D01*
X579730D01*
X690960Y320400D02*
Y434600D01*
X587960Y320400D02*
X690960D01*
X587960D02*
Y434600D01*
X690960D01*
X802190Y320400D02*
Y434600D01*
X699190Y320400D02*
X802190D01*
X699190D02*
Y434600D01*
X802190D01*
X1024650Y320400D02*
Y434600D01*
X921650Y320400D02*
X1024650D01*
X921650D02*
Y434600D01*
X1024650D01*
X576000Y1199347D02*
Y1191016D01*
X577666Y1189350D01*
X580998D01*
X582664Y1191016D01*
Y1199347D01*
X585997Y1189350D02*
Y1199347D01*
X589329Y1196015D01*
X592661Y1199347D01*
Y1189350D01*
X595994D02*
X599326D01*
X597660D01*
Y1199347D01*
X595994Y1197681D01*
X853157Y1248696D02*
X850618Y1251235D01*
X845539D01*
X843000Y1248696D01*
Y1246157D01*
X845539Y1243617D01*
X850618D01*
X853157Y1241078D01*
Y1238539D01*
X850618Y1236000D01*
X845539D01*
X843000Y1238539D01*
X858235Y1236000D02*
Y1251235D01*
X863313Y1246157D01*
X868392Y1251235D01*
Y1236000D01*
X883627D02*
X873470D01*
X883627Y1246157D01*
Y1248696D01*
X881088Y1251235D01*
X876009D01*
X873470Y1248696D01*
X602003Y705000D02*
X610334D01*
X612000Y706666D01*
Y709998D01*
X610334Y711664D01*
X602003D01*
Y714997D02*
Y718329D01*
Y716663D01*
X612000D01*
Y714997D01*
Y718329D01*
X603669Y729992D02*
X602003Y728326D01*
Y724993D01*
X603669Y723327D01*
X605336D01*
X607002Y724993D01*
Y728326D01*
X608668Y729992D01*
X610334D01*
X612000Y728326D01*
Y724993D01*
X610334Y723327D01*
X612000Y733324D02*
Y736656D01*
Y734990D01*
X602003D01*
X603669Y733324D01*
X607664Y925331D02*
X605998Y926997D01*
X602666D01*
X601000Y925331D01*
Y918666D01*
X602666Y917000D01*
X605998D01*
X607664Y918666D01*
X610997Y926997D02*
X614329D01*
X612663D01*
Y917000D01*
X610997D01*
X614329D01*
X625992Y925331D02*
X624326Y926997D01*
X620994D01*
X619327Y925331D01*
Y923664D01*
X620994Y921998D01*
X624326D01*
X625992Y920332D01*
Y918666D01*
X624326Y917000D01*
X620994D01*
X619327Y918666D01*
X629324Y925331D02*
X630990Y926997D01*
X634323D01*
X635989Y925331D01*
Y923664D01*
X634323Y921998D01*
X632656D01*
X634323D01*
X635989Y920332D01*
Y918666D01*
X634323Y917000D01*
X630990D01*
X629324Y918666D01*
X645985Y926997D02*
X639321D01*
Y921998D01*
X642653Y923664D01*
X644319D01*
X645985Y921998D01*
Y918666D01*
X644319Y917000D01*
X640987D01*
X639321Y918666D01*
X567169Y790665D02*
X565503Y788998D01*
Y785666D01*
X567169Y784000D01*
X573834D01*
X575500Y785666D01*
Y788998D01*
X573834Y790665D01*
X565503Y793997D02*
Y797329D01*
Y795663D01*
X575500D01*
Y793997D01*
Y797329D01*
X567169Y808992D02*
X565503Y807326D01*
Y803994D01*
X567169Y802327D01*
X568835D01*
X570502Y803994D01*
Y807326D01*
X572168Y808992D01*
X573834D01*
X575500Y807326D01*
Y803994D01*
X573834Y802327D01*
X567169Y812324D02*
X565503Y813990D01*
Y817323D01*
X567169Y818989D01*
X568835D01*
X570502Y817323D01*
Y815657D01*
Y817323D01*
X572168Y818989D01*
X573834D01*
X575500Y817323D01*
Y813990D01*
X573834Y812324D01*
X575500Y827319D02*
X565503D01*
X570502Y822321D01*
Y828986D01*
X973000Y1036000D02*
Y1045997D01*
X977998D01*
X979665Y1044331D01*
Y1040998D01*
X977998Y1039332D01*
X973000D01*
X976332D02*
X979665Y1036000D01*
X982997Y1045997D02*
Y1036000D01*
X987995D01*
X989661Y1037666D01*
Y1044331D01*
X987995Y1045997D01*
X982997D01*
X992994Y1036000D02*
Y1042664D01*
X996326Y1045997D01*
X999658Y1042664D01*
Y1036000D01*
Y1040998D01*
X992994D01*
X1009655Y1044331D02*
X1007989Y1045997D01*
X1004657D01*
X1002990Y1044331D01*
Y1037666D01*
X1004657Y1036000D01*
X1007989D01*
X1009655Y1037666D01*
X1012987Y1036000D02*
X1016319D01*
X1014653D01*
Y1045997D01*
X1012987Y1044331D01*
X1021318Y1042664D02*
X1022984D01*
Y1040998D01*
X1021318D01*
Y1042664D01*
Y1037666D02*
X1022984D01*
Y1036000D01*
X1021318D01*
Y1037666D01*
X1034647Y1036000D02*
Y1045997D01*
X1029648Y1040998D01*
X1036313D01*
X993000Y743997D02*
Y735666D01*
X994666Y734000D01*
X997998D01*
X999665Y735666D01*
Y743997D01*
X1007995D02*
X1004663D01*
X1002997Y742331D01*
Y735666D01*
X1004663Y734000D01*
X1007995D01*
X1009661Y735666D01*
Y742331D01*
X1007995Y743997D01*
X1019658Y742331D02*
X1017992Y743997D01*
X1014660D01*
X1012994Y742331D01*
Y740665D01*
X1014660Y738998D01*
X1017992D01*
X1019658Y737332D01*
Y735666D01*
X1017992Y734000D01*
X1014660D01*
X1012994Y735666D01*
X1029655Y734000D02*
X1022990D01*
X1029655Y740665D01*
Y742331D01*
X1027989Y743997D01*
X1024657D01*
X1022990Y742331D01*
X766000Y911997D02*
Y903666D01*
X767666Y902000D01*
X770998D01*
X772664Y903666D01*
Y911997D01*
X780995D02*
X777663D01*
X775997Y910331D01*
Y903666D01*
X777663Y902000D01*
X780995D01*
X782661Y903666D01*
Y910331D01*
X780995Y911997D01*
X792658Y910331D02*
X790992Y911997D01*
X787660D01*
X785994Y910331D01*
Y908664D01*
X787660Y906998D01*
X790992D01*
X792658Y905332D01*
Y903666D01*
X790992Y902000D01*
X787660D01*
X785994Y903666D01*
X795990Y902000D02*
X799323D01*
X797656D01*
Y911997D01*
X795990Y910331D01*
X464312Y1302603D02*
Y1292606D01*
X469310D01*
X470976Y1294272D01*
Y1300937D01*
X469310Y1302603D01*
X464312D01*
X474309Y1292606D02*
Y1302603D01*
X479307D01*
X480973Y1300937D01*
Y1297604D01*
X479307Y1295938D01*
X474309D01*
X490970Y1292606D02*
X484306D01*
X490970Y1299270D01*
Y1300937D01*
X489304Y1302603D01*
X485972D01*
X484306Y1300937D01*
X464312Y1369659D02*
Y1359662D01*
X469310D01*
X470976Y1361328D01*
Y1367993D01*
X469310Y1369659D01*
X464312D01*
X474309Y1359662D02*
Y1369659D01*
X479307D01*
X480973Y1367993D01*
Y1364660D01*
X479307Y1362994D01*
X474309D01*
X484306Y1359662D02*
X487638D01*
X485972D01*
Y1369659D01*
X484306Y1367993D01*
X354000Y1187997D02*
X360664Y1178000D01*
Y1187997D02*
X354000Y1178000D01*
X363997D02*
Y1187997D01*
X367329Y1184665D01*
X370661Y1187997D01*
Y1178000D01*
X373994D02*
X377326D01*
X375660D01*
Y1187997D01*
X373994Y1186331D01*
X950997Y1323000D02*
X942666D01*
X941000Y1321334D01*
Y1318002D01*
X942666Y1316335D01*
X950997D01*
X941000Y1313003D02*
X950997D01*
Y1308005D01*
X949331Y1306339D01*
X945998D01*
X944332Y1308005D01*
Y1313003D01*
X941000Y1296342D02*
Y1303006D01*
X947664Y1296342D01*
X949331D01*
X950997Y1298008D01*
Y1301340D01*
X949331Y1303006D01*
X832285Y1322645D02*
X823955D01*
X822288Y1320979D01*
Y1317647D01*
X823955Y1315981D01*
X832285D01*
X822288Y1312648D02*
X832285D01*
Y1307650D01*
X830619Y1305984D01*
X827287D01*
X825621Y1307650D01*
Y1312648D01*
X822288Y1302652D02*
Y1299319D01*
Y1300985D01*
X832285D01*
X830619Y1302652D01*
X1017503Y963000D02*
X1025834D01*
X1027500Y964666D01*
Y967998D01*
X1025834Y969665D01*
X1017503D01*
Y972997D02*
X1027500D01*
Y977995D01*
X1025834Y979661D01*
X1019169D01*
X1017503Y977995D01*
Y972997D01*
X1027500Y982994D02*
X1020835D01*
X1017503Y986326D01*
X1020835Y989658D01*
X1027500D01*
X1022501D01*
Y982994D01*
X1019169Y999655D02*
X1017503Y997989D01*
Y994657D01*
X1019169Y992990D01*
X1025834D01*
X1027500Y994657D01*
Y997989D01*
X1025834Y999655D01*
X1027500Y1002987D02*
Y1006319D01*
Y1004653D01*
X1017503D01*
X1019169Y1002987D01*
X445003Y937000D02*
X453334D01*
X455000Y938666D01*
Y941998D01*
X453334Y943664D01*
X445003D01*
X455000Y946997D02*
X448335D01*
X445003Y950329D01*
X448335Y953661D01*
X455000D01*
X450002D01*
Y946997D01*
X445003Y956994D02*
X455000D01*
Y961992D01*
X453334Y963658D01*
X446669D01*
X445003Y961992D01*
Y956994D01*
X446669Y973655D02*
X445003Y971989D01*
Y968656D01*
X446669Y966990D01*
X453334D01*
X455000Y968656D01*
Y971989D01*
X453334Y973655D01*
X455000Y983652D02*
Y976987D01*
X448335Y983652D01*
X446669D01*
X445003Y981985D01*
Y978653D01*
X446669Y976987D01*
X379941Y810997D02*
Y802666D01*
X381607Y801000D01*
X384939D01*
X386605Y802666D01*
Y810997D01*
X389938Y801000D02*
Y807664D01*
X393270Y810997D01*
X396602Y807664D01*
Y801000D01*
Y805998D01*
X389938D01*
X399935Y810997D02*
Y801000D01*
X404933D01*
X406599Y802666D01*
Y809331D01*
X404933Y810997D01*
X399935D01*
X416596Y809331D02*
X414930Y810997D01*
X411598D01*
X409931Y809331D01*
Y802666D01*
X411598Y801000D01*
X414930D01*
X416596Y802666D01*
X419928Y801000D02*
X423260D01*
X421594D01*
Y810997D01*
X419928Y809331D01*
X980000Y557500D02*
Y567497D01*
X984998D01*
X986665Y565831D01*
Y562498D01*
X984998Y560832D01*
X980000D01*
X983332D02*
X986665Y557500D01*
X994995Y567497D02*
X991663D01*
X989997Y565831D01*
Y559166D01*
X991663Y557500D01*
X994995D01*
X996661Y559166D01*
Y565831D01*
X994995Y567497D01*
X1006658Y565831D02*
X1004992Y567497D01*
X1001660D01*
X999994Y565831D01*
Y564165D01*
X1001660Y562498D01*
X1004992D01*
X1006658Y560832D01*
Y559166D01*
X1004992Y557500D01*
X1001660D01*
X999994Y559166D01*
X1016655Y557500D02*
X1009990D01*
X1016655Y564165D01*
Y565831D01*
X1014989Y567497D01*
X1011656D01*
X1009990Y565831D01*
X1019987Y567497D02*
X1026652D01*
Y565831D01*
X1019987Y559166D01*
Y557500D01*
X928000Y573000D02*
X918003D01*
Y577998D01*
X919669Y579664D01*
X923002D01*
X924668Y577998D01*
Y573000D01*
Y576332D02*
X928000Y579664D01*
X918003Y587995D02*
Y584663D01*
X919669Y582997D01*
X926334D01*
X928000Y584663D01*
Y587995D01*
X926334Y589661D01*
X919669D01*
X918003Y587995D01*
X919669Y599658D02*
X918003Y597992D01*
Y594660D01*
X919669Y592994D01*
X921336D01*
X923002Y594660D01*
Y597992D01*
X924668Y599658D01*
X926334D01*
X928000Y597992D01*
Y594660D01*
X926334Y592994D01*
X928000Y609655D02*
Y602990D01*
X921336Y609655D01*
X919669D01*
X918003Y607989D01*
Y604656D01*
X919669Y602990D01*
X918003Y619652D02*
X919669Y616319D01*
X923002Y612987D01*
X926334D01*
X928000Y614653D01*
Y617985D01*
X926334Y619652D01*
X924668D01*
X923002Y617985D01*
Y612987D01*
X1012500Y576839D02*
X1002503D01*
Y581838D01*
X1004169Y583504D01*
X1007502D01*
X1009168Y581838D01*
Y576839D01*
Y580172D02*
X1012500Y583504D01*
X1002503Y591835D02*
Y588502D01*
X1004169Y586836D01*
X1010834D01*
X1012500Y588502D01*
Y591835D01*
X1010834Y593501D01*
X1004169D01*
X1002503Y591835D01*
X1004169Y603498D02*
X1002503Y601831D01*
Y598499D01*
X1004169Y596833D01*
X1005835D01*
X1007502Y598499D01*
Y601831D01*
X1009168Y603498D01*
X1010834D01*
X1012500Y601831D01*
Y598499D01*
X1010834Y596833D01*
X1012500Y613494D02*
Y606830D01*
X1005835Y613494D01*
X1004169D01*
X1002503Y611828D01*
Y608496D01*
X1004169Y606830D01*
X1012500Y621825D02*
X1002503D01*
X1007502Y616827D01*
Y623491D01*
X969000Y783741D02*
Y793738D01*
X973998D01*
X975665Y792072D01*
Y788739D01*
X973998Y787073D01*
X969000D01*
X972332D02*
X975665Y783741D01*
X983995Y793738D02*
X980663D01*
X978997Y792072D01*
Y785407D01*
X980663Y783741D01*
X983995D01*
X985661Y785407D01*
Y792072D01*
X983995Y793738D01*
X995658Y792072D02*
X993992Y793738D01*
X990660D01*
X988994Y792072D01*
Y790405D01*
X990660Y788739D01*
X993992D01*
X995658Y787073D01*
Y785407D01*
X993992Y783741D01*
X990660D01*
X988994Y785407D01*
X1005655Y783741D02*
X998990D01*
X1005655Y790405D01*
Y792072D01*
X1003989Y793738D01*
X1000657D01*
X998990Y792072D01*
X1008987D02*
X1010653Y793738D01*
X1013986D01*
X1015652Y792072D01*
Y790405D01*
X1013986Y788739D01*
X1012319D01*
X1013986D01*
X1015652Y787073D01*
Y785407D01*
X1013986Y783741D01*
X1010653D01*
X1008987Y785407D01*
X894000Y690000D02*
Y699997D01*
X898998D01*
X900665Y698330D01*
Y694998D01*
X898998Y693332D01*
X894000D01*
X897332D02*
X900665Y690000D01*
X908995Y699997D02*
X905663D01*
X903997Y698330D01*
Y691666D01*
X905663Y690000D01*
X908995D01*
X910661Y691666D01*
Y698330D01*
X908995Y699997D01*
X920658Y698330D02*
X918992Y699997D01*
X915660D01*
X913994Y698330D01*
Y696664D01*
X915660Y694998D01*
X918992D01*
X920658Y693332D01*
Y691666D01*
X918992Y690000D01*
X915660D01*
X913994Y691666D01*
X930655Y690000D02*
X923990D01*
X930655Y696664D01*
Y698330D01*
X928989Y699997D01*
X925657D01*
X923990Y698330D01*
X940652Y690000D02*
X933987D01*
X940652Y696664D01*
Y698330D01*
X938986Y699997D01*
X935653D01*
X933987Y698330D01*
X917000Y784000D02*
Y793997D01*
X921998D01*
X923664Y792331D01*
Y788998D01*
X921998Y787332D01*
X917000D01*
X920332D02*
X923664Y784000D01*
X931995Y793997D02*
X928663D01*
X926997Y792331D01*
Y785666D01*
X928663Y784000D01*
X931995D01*
X933661Y785666D01*
Y792331D01*
X931995Y793997D01*
X943658Y792331D02*
X941992Y793997D01*
X938660D01*
X936994Y792331D01*
Y790665D01*
X938660Y788998D01*
X941992D01*
X943658Y787332D01*
Y785666D01*
X941992Y784000D01*
X938660D01*
X936994Y785666D01*
X953655Y784000D02*
X946990D01*
X953655Y790665D01*
Y792331D01*
X951989Y793997D01*
X948656D01*
X946990Y792331D01*
X956987Y784000D02*
X960319D01*
X958653D01*
Y793997D01*
X956987Y792331D01*
X746000Y745000D02*
X736003D01*
Y749998D01*
X737669Y751665D01*
X741002D01*
X742668Y749998D01*
Y745000D01*
Y748332D02*
X746000Y751665D01*
X736003Y759995D02*
Y756663D01*
X737669Y754997D01*
X744334D01*
X746000Y756663D01*
Y759995D01*
X744334Y761661D01*
X737669D01*
X736003Y759995D01*
X737669Y771658D02*
X736003Y769992D01*
Y766660D01*
X737669Y764994D01*
X739335D01*
X741002Y766660D01*
Y769992D01*
X742668Y771658D01*
X744334D01*
X746000Y769992D01*
Y766660D01*
X744334Y764994D01*
X746000Y774990D02*
Y778323D01*
Y776656D01*
X736003D01*
X737669Y774990D01*
X736003Y783321D02*
Y789986D01*
X737669D01*
X744334Y783321D01*
X746000D01*
X744000Y835000D02*
X734003D01*
Y839998D01*
X735669Y841665D01*
X739002D01*
X740668Y839998D01*
Y835000D01*
Y838332D02*
X744000Y841665D01*
X734003Y849995D02*
Y846663D01*
X735669Y844997D01*
X742334D01*
X744000Y846663D01*
Y849995D01*
X742334Y851661D01*
X735669D01*
X734003Y849995D01*
X735669Y861658D02*
X734003Y859992D01*
Y856660D01*
X735669Y854994D01*
X737336D01*
X739002Y856660D01*
Y859992D01*
X740668Y861658D01*
X742334D01*
X744000Y859992D01*
Y856660D01*
X742334Y854994D01*
X744000Y864990D02*
Y868323D01*
Y866656D01*
X734003D01*
X735669Y864990D01*
X734003Y879986D02*
X735669Y876653D01*
X739002Y873321D01*
X742334D01*
X744000Y874987D01*
Y878319D01*
X742334Y879986D01*
X740668D01*
X739002Y878319D01*
Y873321D01*
X770000Y727000D02*
X760003D01*
Y731998D01*
X761669Y733664D01*
X765002D01*
X766668Y731998D01*
Y727000D01*
Y730332D02*
X770000Y733664D01*
X760003Y741995D02*
Y738663D01*
X761669Y736997D01*
X768334D01*
X770000Y738663D01*
Y741995D01*
X768334Y743661D01*
X761669D01*
X760003Y741995D01*
X761669Y753658D02*
X760003Y751992D01*
Y748660D01*
X761669Y746994D01*
X763335D01*
X765002Y748660D01*
Y751992D01*
X766668Y753658D01*
X768334D01*
X770000Y751992D01*
Y748660D01*
X768334Y746994D01*
X770000Y756990D02*
Y760323D01*
Y758656D01*
X760003D01*
X761669Y756990D01*
X770000Y770319D02*
X760003D01*
X765002Y765321D01*
Y771985D01*
X944409Y879000D02*
X934412D01*
Y883998D01*
X936078Y885665D01*
X939410D01*
X941076Y883998D01*
Y879000D01*
Y882332D02*
X944409Y885665D01*
X934412Y893995D02*
Y890663D01*
X936078Y888997D01*
X942742D01*
X944409Y890663D01*
Y893995D01*
X942742Y895661D01*
X936078D01*
X934412Y893995D01*
X936078Y905658D02*
X934412Y903992D01*
Y900660D01*
X936078Y898994D01*
X937744D01*
X939410Y900660D01*
Y903992D01*
X941076Y905658D01*
X942742D01*
X944409Y903992D01*
Y900660D01*
X942742Y898994D01*
X944409Y908990D02*
Y912323D01*
Y910657D01*
X934412D01*
X936078Y908990D01*
Y917321D02*
X934412Y918987D01*
Y922319D01*
X936078Y923986D01*
X937744D01*
X939410Y922319D01*
Y920653D01*
Y922319D01*
X941076Y923986D01*
X942742D01*
X944409Y922319D01*
Y918987D01*
X942742Y917321D01*
X926000Y879000D02*
X916003D01*
Y883998D01*
X917669Y885665D01*
X921002D01*
X922668Y883998D01*
Y879000D01*
Y882332D02*
X926000Y885665D01*
X916003Y893995D02*
Y890663D01*
X917669Y888997D01*
X924334D01*
X926000Y890663D01*
Y893995D01*
X924334Y895661D01*
X917669D01*
X916003Y893995D01*
X917669Y905658D02*
X916003Y903992D01*
Y900660D01*
X917669Y898994D01*
X919335D01*
X921002Y900660D01*
Y903992D01*
X922668Y905658D01*
X924334D01*
X926000Y903992D01*
Y900660D01*
X924334Y898994D01*
X926000Y908990D02*
Y912323D01*
Y910657D01*
X916003D01*
X917669Y908990D01*
X926000Y923986D02*
Y917321D01*
X919335Y923986D01*
X917669D01*
X916003Y922319D01*
Y918987D01*
X917669Y917321D01*
X946000Y934000D02*
X936003D01*
Y938998D01*
X937669Y940665D01*
X941002D01*
X942668Y938998D01*
Y934000D01*
Y937332D02*
X946000Y940665D01*
X936003Y948995D02*
Y945663D01*
X937669Y943997D01*
X944334D01*
X946000Y945663D01*
Y948995D01*
X944334Y950661D01*
X937669D01*
X936003Y948995D01*
X937669Y960658D02*
X936003Y958992D01*
Y955660D01*
X937669Y953994D01*
X939335D01*
X941002Y955660D01*
Y958992D01*
X942668Y960658D01*
X944334D01*
X946000Y958992D01*
Y955660D01*
X944334Y953994D01*
X946000Y963990D02*
Y967323D01*
Y965657D01*
X936003D01*
X937669Y963990D01*
X946000Y972321D02*
Y975653D01*
Y973987D01*
X936003D01*
X937669Y972321D01*
X520688Y1217970D02*
Y1227967D01*
X525686D01*
X527352Y1226301D01*
Y1222968D01*
X525686Y1221302D01*
X520688D01*
X524020D02*
X527352Y1217970D01*
X530684D02*
Y1227967D01*
X534017Y1224634D01*
X537349Y1227967D01*
Y1217970D01*
X540681D02*
X544013D01*
X542347D01*
Y1227967D01*
X540681Y1226301D01*
X554010Y1217970D02*
Y1227967D01*
X549012Y1222968D01*
X555676D01*
X450000Y1204000D02*
Y1213997D01*
X454998D01*
X456665Y1212331D01*
Y1208998D01*
X454998Y1207332D01*
X450000D01*
X453332D02*
X456665Y1204000D01*
X459997D02*
Y1213997D01*
X463329Y1210665D01*
X466661Y1213997D01*
Y1204000D01*
X469994D02*
X473326D01*
X471660D01*
Y1213997D01*
X469994Y1212331D01*
X478324D02*
X479990Y1213997D01*
X483323D01*
X484989Y1212331D01*
Y1210665D01*
X483323Y1208998D01*
X481656D01*
X483323D01*
X484989Y1207332D01*
Y1205666D01*
X483323Y1204000D01*
X479990D01*
X478324Y1205666D01*
X949000Y510000D02*
X939003D01*
Y514998D01*
X940669Y516665D01*
X944002D01*
X945668Y514998D01*
Y510000D01*
Y513332D02*
X949000Y516665D01*
Y519997D02*
X939003D01*
X942336Y523329D01*
X939003Y526661D01*
X949000D01*
Y529994D02*
Y533326D01*
Y531660D01*
X939003D01*
X940669Y529994D01*
X949000Y544989D02*
Y538324D01*
X942336Y544989D01*
X940669D01*
X939003Y543323D01*
Y539990D01*
X940669Y538324D01*
X842000Y552000D02*
Y561997D01*
X846998D01*
X848664Y560331D01*
Y556998D01*
X846998Y555332D01*
X842000D01*
X845332D02*
X848664Y552000D01*
X851997D02*
Y561997D01*
X855329Y558665D01*
X858661Y561997D01*
Y552000D01*
X861994D02*
X865326D01*
X863660D01*
Y561997D01*
X861994Y560331D01*
X870324Y552000D02*
X873656D01*
X871990D01*
Y561997D01*
X870324Y560331D01*
X714310Y540000D02*
Y549997D01*
X719308D01*
X720975Y548331D01*
Y544998D01*
X719308Y543332D01*
X714310D01*
X717642D02*
X720975Y540000D01*
X724307D02*
Y549997D01*
X727639Y546665D01*
X730971Y549997D01*
Y540000D01*
X734304D02*
X737636D01*
X735970D01*
Y549997D01*
X734304Y548331D01*
X742634D02*
X744300Y549997D01*
X747633D01*
X749299Y548331D01*
Y541666D01*
X747633Y540000D01*
X744300D01*
X742634Y541666D01*
Y548331D01*
X615000Y516500D02*
X605003D01*
Y521498D01*
X606669Y523164D01*
X610002D01*
X611668Y521498D01*
Y516500D01*
Y519832D02*
X615000Y523164D01*
Y526497D02*
X605003D01*
X608335Y529829D01*
X605003Y533161D01*
X615000D01*
X613334Y536493D02*
X615000Y538160D01*
Y541492D01*
X613334Y543158D01*
X606669D01*
X605003Y541492D01*
Y538160D01*
X606669Y536493D01*
X608335D01*
X610002Y538160D01*
Y543158D01*
X511000Y548000D02*
Y557997D01*
X515998D01*
X517664Y556331D01*
Y552998D01*
X515998Y551332D01*
X511000D01*
X514332D02*
X517664Y548000D01*
X520997D02*
Y557997D01*
X524329Y554664D01*
X527661Y557997D01*
Y548000D01*
X530994Y556331D02*
X532660Y557997D01*
X535992D01*
X537658Y556331D01*
Y554664D01*
X535992Y552998D01*
X537658Y551332D01*
Y549666D01*
X535992Y548000D01*
X532660D01*
X530994Y549666D01*
Y551332D01*
X532660Y552998D01*
X530994Y554664D01*
Y556331D01*
X532660Y552998D02*
X535992D01*
X385000Y534000D02*
Y543997D01*
X389998D01*
X391665Y542331D01*
Y538998D01*
X389998Y537332D01*
X385000D01*
X388332D02*
X391665Y534000D01*
X394997D02*
Y543997D01*
X398329Y540664D01*
X401661Y543997D01*
Y534000D01*
X404994Y543997D02*
X411658D01*
Y542331D01*
X404994Y535666D01*
Y534000D01*
X440000Y1156000D02*
X430003D01*
Y1160998D01*
X431669Y1162664D01*
X435002D01*
X436668Y1160998D01*
Y1156000D01*
Y1159332D02*
X440000Y1162664D01*
Y1165997D02*
X430003D01*
X433335Y1169329D01*
X430003Y1172661D01*
X440000D01*
Y1182658D02*
Y1175994D01*
X433335Y1182658D01*
X431669D01*
X430003Y1180992D01*
Y1177660D01*
X431669Y1175994D01*
X470000Y607000D02*
X460003D01*
Y611998D01*
X461669Y613665D01*
X465002D01*
X466668Y611998D01*
Y607000D01*
Y610332D02*
X470000Y613665D01*
X460003Y616997D02*
Y620329D01*
Y618663D01*
X470000D01*
Y616997D01*
Y620329D01*
X461669Y631992D02*
X460003Y630326D01*
Y626994D01*
X461669Y625327D01*
X463335D01*
X465002Y626994D01*
Y630326D01*
X466668Y631992D01*
X468334D01*
X470000Y630326D01*
Y626994D01*
X468334Y625327D01*
X470000Y640323D02*
X460003D01*
X465002Y635324D01*
Y641989D01*
X461669Y645321D02*
X460003Y646987D01*
Y650319D01*
X461669Y651985D01*
X463335D01*
X465002Y650319D01*
Y648653D01*
Y650319D01*
X466668Y651985D01*
X468334D01*
X470000Y650319D01*
Y646987D01*
X468334Y645321D01*
X448500Y607000D02*
X438503D01*
Y611998D01*
X440169Y613665D01*
X443502D01*
X445168Y611998D01*
Y607000D01*
Y610332D02*
X448500Y613665D01*
X438503Y616997D02*
Y620329D01*
Y618663D01*
X448500D01*
Y616997D01*
Y620329D01*
X440169Y631992D02*
X438503Y630326D01*
Y626994D01*
X440169Y625327D01*
X441836D01*
X443502Y626994D01*
Y630326D01*
X445168Y631992D01*
X446834D01*
X448500Y630326D01*
Y626994D01*
X446834Y625327D01*
X448500Y640323D02*
X438503D01*
X443502Y635324D01*
Y641989D01*
X448500Y651985D02*
Y645321D01*
X441836Y651985D01*
X440169D01*
X438503Y650319D01*
Y646987D01*
X440169Y645321D01*
X431000Y549000D02*
X421003D01*
Y553998D01*
X422669Y555664D01*
X426002D01*
X427668Y553998D01*
Y549000D01*
Y552332D02*
X431000Y555664D01*
X421003Y558997D02*
Y562329D01*
Y560663D01*
X431000D01*
Y558997D01*
Y562329D01*
X422669Y573992D02*
X421003Y572326D01*
Y568994D01*
X422669Y567327D01*
X424336D01*
X426002Y568994D01*
Y572326D01*
X427668Y573992D01*
X429334D01*
X431000Y572326D01*
Y568994D01*
X429334Y567327D01*
X431000Y582323D02*
X421003D01*
X426002Y577324D01*
Y583989D01*
X431000Y587321D02*
Y590653D01*
Y588987D01*
X421003D01*
X422669Y587321D01*
X582000Y556000D02*
Y565997D01*
X586998D01*
X588665Y564331D01*
Y560998D01*
X586998Y559332D01*
X582000D01*
X585332D02*
X588665Y556000D01*
X591997Y565997D02*
X595329D01*
X593663D01*
Y556000D01*
X591997D01*
X595329D01*
X606992Y564331D02*
X605326Y565997D01*
X601994D01*
X600327Y564331D01*
Y562664D01*
X601994Y560998D01*
X605326D01*
X606992Y559332D01*
Y557666D01*
X605326Y556000D01*
X601994D01*
X600327Y557666D01*
X610324Y564331D02*
X611990Y565997D01*
X615323D01*
X616989Y564331D01*
Y562664D01*
X615323Y560998D01*
X613657D01*
X615323D01*
X616989Y559332D01*
Y557666D01*
X615323Y556000D01*
X611990D01*
X610324Y557666D01*
X626986Y565997D02*
X623653Y564331D01*
X620321Y560998D01*
Y557666D01*
X621987Y556000D01*
X625319D01*
X626986Y557666D01*
Y559332D01*
X625319Y560998D01*
X620321D01*
X722000Y688000D02*
X712003D01*
Y692998D01*
X713669Y694665D01*
X717002D01*
X718668Y692998D01*
Y688000D01*
Y691332D02*
X722000Y694665D01*
X712003Y697997D02*
Y701329D01*
Y699663D01*
X722000D01*
Y697997D01*
Y701329D01*
X713669Y712992D02*
X712003Y711326D01*
Y707994D01*
X713669Y706327D01*
X715335D01*
X717002Y707994D01*
Y711326D01*
X718668Y712992D01*
X720334D01*
X722000Y711326D01*
Y707994D01*
X720334Y706327D01*
X713669Y716324D02*
X712003Y717990D01*
Y721323D01*
X713669Y722989D01*
X715335D01*
X717002Y721323D01*
Y719656D01*
Y721323D01*
X718668Y722989D01*
X720334D01*
X722000Y721323D01*
Y717990D01*
X720334Y716324D01*
X722000Y731319D02*
X712003D01*
X717002Y726321D01*
Y732986D01*
X732500Y630000D02*
Y639997D01*
X737498D01*
X739165Y638331D01*
Y634998D01*
X737498Y633332D01*
X732500D01*
X735832D02*
X739165Y630000D01*
X742497Y639997D02*
X745829D01*
X744163D01*
Y630000D01*
X742497D01*
X745829D01*
X757492Y638331D02*
X755826Y639997D01*
X752494D01*
X750827Y638331D01*
Y636665D01*
X752494Y634998D01*
X755826D01*
X757492Y633332D01*
Y631666D01*
X755826Y630000D01*
X752494D01*
X750827Y631666D01*
X760824Y638331D02*
X762490Y639997D01*
X765823D01*
X767489Y638331D01*
Y636665D01*
X765823Y634998D01*
X764156D01*
X765823D01*
X767489Y633332D01*
Y631666D01*
X765823Y630000D01*
X762490D01*
X760824Y631666D01*
X770821Y638331D02*
X772487Y639997D01*
X775819D01*
X777486Y638331D01*
Y636665D01*
X775819Y634998D01*
X774153D01*
X775819D01*
X777486Y633332D01*
Y631666D01*
X775819Y630000D01*
X772487D01*
X770821Y631666D01*
X710000Y597000D02*
Y606997D01*
X714998D01*
X716665Y605331D01*
Y601998D01*
X714998Y600332D01*
X710000D01*
X713332D02*
X716665Y597000D01*
X719997Y606997D02*
X723329D01*
X721663D01*
Y597000D01*
X719997D01*
X723329D01*
X734992Y605331D02*
X733326Y606997D01*
X729994D01*
X728327Y605331D01*
Y603665D01*
X729994Y601998D01*
X733326D01*
X734992Y600332D01*
Y598666D01*
X733326Y597000D01*
X729994D01*
X728327Y598666D01*
X738324Y605331D02*
X739990Y606997D01*
X743323D01*
X744989Y605331D01*
Y603665D01*
X743323Y601998D01*
X741656D01*
X743323D01*
X744989Y600332D01*
Y598666D01*
X743323Y597000D01*
X739990D01*
X738324Y598666D01*
X754986Y597000D02*
X748321D01*
X754986Y603665D01*
Y605331D01*
X753319Y606997D01*
X749987D01*
X748321Y605331D01*
X683000Y556000D02*
Y565997D01*
X687998D01*
X689665Y564331D01*
Y560998D01*
X687998Y559332D01*
X683000D01*
X686332D02*
X689665Y556000D01*
X692997Y565997D02*
X696329D01*
X694663D01*
Y556000D01*
X692997D01*
X696329D01*
X707992Y564331D02*
X706326Y565997D01*
X702994D01*
X701327Y564331D01*
Y562664D01*
X702994Y560998D01*
X706326D01*
X707992Y559332D01*
Y557666D01*
X706326Y556000D01*
X702994D01*
X701327Y557666D01*
X711324Y564331D02*
X712990Y565997D01*
X716323D01*
X717989Y564331D01*
Y562664D01*
X716323Y560998D01*
X714657D01*
X716323D01*
X717989Y559332D01*
Y557666D01*
X716323Y556000D01*
X712990D01*
X711324Y557666D01*
X721321Y556000D02*
X724653D01*
X722987D01*
Y565997D01*
X721321Y564331D01*
X564000Y589000D02*
X554003D01*
Y593998D01*
X555669Y595664D01*
X559001D01*
X560668Y593998D01*
Y589000D01*
Y592332D02*
X564000Y595664D01*
X554003Y598997D02*
Y602329D01*
Y600663D01*
X564000D01*
Y598997D01*
Y602329D01*
X555669Y613992D02*
X554003Y612326D01*
Y608993D01*
X555669Y607327D01*
X557335D01*
X559001Y608993D01*
Y612326D01*
X560668Y613992D01*
X562334D01*
X564000Y612326D01*
Y608993D01*
X562334Y607327D01*
X564000Y623988D02*
Y617324D01*
X557335Y623988D01*
X555669D01*
X554003Y622322D01*
Y618990D01*
X555669Y617324D01*
X564000Y632319D02*
X554003D01*
X559001Y627321D01*
Y633985D01*
X579000Y589000D02*
X569003D01*
Y593998D01*
X570669Y595664D01*
X574001D01*
X575668Y593998D01*
Y589000D01*
Y592332D02*
X579000Y595664D01*
X569003Y598997D02*
Y602329D01*
Y600663D01*
X579000D01*
Y598997D01*
Y602329D01*
X570669Y613992D02*
X569003Y612326D01*
Y608993D01*
X570669Y607327D01*
X572335D01*
X574001Y608993D01*
Y612326D01*
X575668Y613992D01*
X577334D01*
X579000Y612326D01*
Y608993D01*
X577334Y607327D01*
X579000Y623988D02*
Y617324D01*
X572335Y623988D01*
X570669D01*
X569003Y622322D01*
Y618990D01*
X570669Y617324D01*
Y627321D02*
X569003Y628987D01*
Y632319D01*
X570669Y633985D01*
X572335D01*
X574001Y632319D01*
Y630653D01*
Y632319D01*
X575668Y633985D01*
X577334D01*
X579000Y632319D01*
Y628987D01*
X577334Y627321D01*
X604000Y575000D02*
X594003D01*
Y579998D01*
X595669Y581665D01*
X599002D01*
X600668Y579998D01*
Y575000D01*
Y578332D02*
X604000Y581665D01*
X594003Y584997D02*
Y588329D01*
Y586663D01*
X604000D01*
Y584997D01*
Y588329D01*
X595669Y599992D02*
X594003Y598326D01*
Y594994D01*
X595669Y593327D01*
X597336D01*
X599002Y594994D01*
Y598326D01*
X600668Y599992D01*
X602334D01*
X604000Y598326D01*
Y594994D01*
X602334Y593327D01*
X604000Y609989D02*
Y603324D01*
X597336Y609989D01*
X595669D01*
X594003Y608323D01*
Y604990D01*
X595669Y603324D01*
X604000Y619986D02*
Y613321D01*
X597336Y619986D01*
X595669D01*
X594003Y618319D01*
Y614987D01*
X595669Y613321D01*
X514000Y572000D02*
Y581997D01*
X518998D01*
X520664Y580331D01*
Y576998D01*
X518998Y575332D01*
X514000D01*
X517332D02*
X520664Y572000D01*
X523997Y581997D02*
X527329D01*
X525663D01*
Y572000D01*
X523997D01*
X527329D01*
X538992Y580331D02*
X537326Y581997D01*
X533993D01*
X532327Y580331D01*
Y578665D01*
X533993Y576998D01*
X537326D01*
X538992Y575332D01*
Y573666D01*
X537326Y572000D01*
X533993D01*
X532327Y573666D01*
X548989Y572000D02*
X542324D01*
X548989Y578665D01*
Y580331D01*
X547323Y581997D01*
X543990D01*
X542324Y580331D01*
X552321Y572000D02*
X555653D01*
X553987D01*
Y581997D01*
X552321Y580331D01*
X689409Y861000D02*
X679412D01*
Y865998D01*
X681078Y867664D01*
X684410D01*
X686077Y865998D01*
Y861000D01*
Y864332D02*
X689409Y867664D01*
X679412Y870997D02*
Y874329D01*
Y872663D01*
X689409D01*
Y870997D01*
Y874329D01*
X681078Y885992D02*
X679412Y884326D01*
Y880994D01*
X681078Y879327D01*
X682744D01*
X684410Y880994D01*
Y884326D01*
X686077Y885992D01*
X687743D01*
X689409Y884326D01*
Y880994D01*
X687743Y879327D01*
X689409Y889324D02*
Y892656D01*
Y890990D01*
X679412D01*
X681078Y889324D01*
X689409Y902653D02*
X679412D01*
X684410Y897655D01*
Y904319D01*
X711000Y774000D02*
X701003D01*
Y778998D01*
X702669Y780665D01*
X706002D01*
X707668Y778998D01*
Y774000D01*
Y777332D02*
X711000Y780665D01*
X701003Y783997D02*
Y787329D01*
Y785663D01*
X711000D01*
Y783997D01*
Y787329D01*
X702669Y798992D02*
X701003Y797326D01*
Y793994D01*
X702669Y792327D01*
X704335D01*
X706002Y793994D01*
Y797326D01*
X707668Y798992D01*
X709334D01*
X711000Y797326D01*
Y793994D01*
X709334Y792327D01*
X711000Y802324D02*
Y805657D01*
Y803990D01*
X701003D01*
X702669Y802324D01*
Y810655D02*
X701003Y812321D01*
Y815653D01*
X702669Y817319D01*
X704335D01*
X706002Y815653D01*
Y813987D01*
Y815653D01*
X707668Y817319D01*
X709334D01*
X711000Y815653D01*
Y812321D01*
X709334Y810655D01*
X680000Y758000D02*
Y767997D01*
X684998D01*
X686665Y766331D01*
Y762998D01*
X684998Y761332D01*
X680000D01*
X683332D02*
X686665Y758000D01*
X689997Y767997D02*
X693329D01*
X691663D01*
Y758000D01*
X689997D01*
X693329D01*
X704992Y766331D02*
X703326Y767997D01*
X699994D01*
X698327Y766331D01*
Y764665D01*
X699994Y762998D01*
X703326D01*
X704992Y761332D01*
Y759666D01*
X703326Y758000D01*
X699994D01*
X698327Y759666D01*
X708324Y758000D02*
X711656D01*
X709990D01*
Y767997D01*
X708324Y766331D01*
X723319Y758000D02*
X716655D01*
X723319Y764665D01*
Y766331D01*
X721653Y767997D01*
X718321D01*
X716655Y766331D01*
X771310Y576839D02*
Y586836D01*
X776308D01*
X777974Y585170D01*
Y581838D01*
X776308Y580172D01*
X771310D01*
X774642D02*
X777974Y576839D01*
X781306Y586836D02*
X784639D01*
X782973D01*
Y576839D01*
X781306D01*
X784639D01*
X796302Y585170D02*
X794635Y586836D01*
X791303D01*
X789637Y585170D01*
Y583504D01*
X791303Y581838D01*
X794635D01*
X796302Y580172D01*
Y578506D01*
X794635Y576839D01*
X791303D01*
X789637Y578506D01*
X799634Y576839D02*
X802966D01*
X801300D01*
Y586836D01*
X799634Y585170D01*
X807964Y576839D02*
X811297D01*
X809631D01*
Y586836D01*
X807964Y585170D01*
X385000Y401000D02*
Y410997D01*
X389998D01*
X391665Y409331D01*
Y405998D01*
X389998Y404332D01*
X385000D01*
X388332D02*
X391665Y401000D01*
X394997Y410997D02*
Y401000D01*
X399995D01*
X401661Y402666D01*
Y409331D01*
X399995Y410997D01*
X394997D01*
X411658D02*
X408326Y409331D01*
X404994Y405998D01*
Y402666D01*
X406660Y401000D01*
X409992D01*
X411658Y402666D01*
Y404332D01*
X409992Y405998D01*
X404994D01*
X414990Y409331D02*
X416656Y410997D01*
X419989D01*
X421655Y409331D01*
Y407664D01*
X419989Y405998D01*
X418323D01*
X419989D01*
X421655Y404332D01*
Y402666D01*
X419989Y401000D01*
X416656D01*
X414990Y402666D01*
X498000Y337000D02*
X488003D01*
Y341998D01*
X489669Y343665D01*
X493002D01*
X494668Y341998D01*
Y337000D01*
Y340332D02*
X498000Y343665D01*
X488003Y346997D02*
X498000D01*
Y351995D01*
X496334Y353661D01*
X489669D01*
X488003Y351995D01*
Y346997D01*
Y363658D02*
X489669Y360326D01*
X493002Y356994D01*
X496334D01*
X498000Y358660D01*
Y361992D01*
X496334Y363658D01*
X494668D01*
X493002Y361992D01*
Y356994D01*
X498000Y373655D02*
Y366990D01*
X491335Y373655D01*
X489669D01*
X488003Y371989D01*
Y368657D01*
X489669Y366990D01*
X442000Y533500D02*
Y543497D01*
X446998D01*
X448665Y541831D01*
Y538498D01*
X446998Y536832D01*
X442000D01*
X445332D02*
X448665Y533500D01*
X451997Y543497D02*
Y533500D01*
X456995D01*
X458661Y535166D01*
Y541831D01*
X456995Y543497D01*
X451997D01*
X468658D02*
X465326Y541831D01*
X461994Y538498D01*
Y535166D01*
X463660Y533500D01*
X466992D01*
X468658Y535166D01*
Y536832D01*
X466992Y538498D01*
X461994D01*
X471990Y533500D02*
X475323D01*
X473657D01*
Y543497D01*
X471990Y541831D01*
X502000Y401000D02*
Y410997D01*
X506998D01*
X508665Y409331D01*
Y405998D01*
X506998Y404332D01*
X502000D01*
X505332D02*
X508665Y401000D01*
X511997Y410997D02*
Y401000D01*
X516995D01*
X518661Y402666D01*
Y409331D01*
X516995Y410997D01*
X511997D01*
X528658D02*
X521994D01*
Y405998D01*
X525326Y407664D01*
X526992D01*
X528658Y405998D01*
Y402666D01*
X526992Y401000D01*
X523660D01*
X521994Y402666D01*
X531990Y409331D02*
X533657Y410997D01*
X536989D01*
X538655Y409331D01*
Y407664D01*
X536989Y405998D01*
X535323D01*
X536989D01*
X538655Y404332D01*
Y402666D01*
X536989Y401000D01*
X533657D01*
X531990Y402666D01*
X608000Y336000D02*
X598003D01*
Y340998D01*
X599669Y342664D01*
X603002D01*
X604668Y340998D01*
Y336000D01*
Y339332D02*
X608000Y342664D01*
X598003Y345997D02*
X608000D01*
Y350995D01*
X606334Y352661D01*
X599669D01*
X598003Y350995D01*
Y345997D01*
Y362658D02*
Y355993D01*
X603002D01*
X601335Y359326D01*
Y360992D01*
X603002Y362658D01*
X606334D01*
X608000Y360992D01*
Y357660D01*
X606334Y355993D01*
X608000Y372655D02*
Y365990D01*
X601335Y372655D01*
X599669D01*
X598003Y370989D01*
Y367657D01*
X599669Y365990D01*
X591000Y514000D02*
X581003D01*
Y518998D01*
X582669Y520664D01*
X586002D01*
X587668Y518998D01*
Y514000D01*
Y517332D02*
X591000Y520664D01*
X581003Y523997D02*
X591000D01*
Y528995D01*
X589334Y530661D01*
X582669D01*
X581003Y528995D01*
Y523997D01*
Y540658D02*
Y533993D01*
X586002D01*
X584336Y537326D01*
Y538992D01*
X586002Y540658D01*
X589334D01*
X591000Y538992D01*
Y535660D01*
X589334Y533993D01*
X591000Y543990D02*
Y547323D01*
Y545657D01*
X581003D01*
X582669Y543990D01*
X612000Y400000D02*
Y409997D01*
X616998D01*
X618665Y408331D01*
Y404998D01*
X616998Y403332D01*
X612000D01*
X615332D02*
X618665Y400000D01*
X621997Y409997D02*
Y400000D01*
X626995D01*
X628661Y401666D01*
Y408331D01*
X626995Y409997D01*
X621997D01*
X636992Y400000D02*
Y409997D01*
X631994Y404998D01*
X638658D01*
X641990Y408331D02*
X643656Y409997D01*
X646989D01*
X648655Y408331D01*
Y406665D01*
X646989Y404998D01*
X645323D01*
X646989D01*
X648655Y403332D01*
Y401666D01*
X646989Y400000D01*
X643656D01*
X641990Y401666D01*
X718000Y336000D02*
X708003D01*
Y340998D01*
X709669Y342664D01*
X713002D01*
X714668Y340998D01*
Y336000D01*
Y339332D02*
X718000Y342664D01*
X708003Y345997D02*
X718000D01*
Y350995D01*
X716334Y352661D01*
X709669D01*
X708003Y350995D01*
Y345997D01*
X718000Y360992D02*
X708003D01*
X713002Y355993D01*
Y362658D01*
X718000Y372655D02*
Y365990D01*
X711336Y372655D01*
X709669D01*
X708003Y370989D01*
Y367657D01*
X709669Y365990D01*
X700000Y501000D02*
X690003D01*
Y505998D01*
X691669Y507664D01*
X695002D01*
X696668Y505998D01*
Y501000D01*
Y504332D02*
X700000Y507664D01*
X690003Y510997D02*
X700000D01*
Y515995D01*
X698334Y517661D01*
X691669D01*
X690003Y515995D01*
Y510997D01*
X700000Y525992D02*
X690003D01*
X695002Y520993D01*
Y527658D01*
X700000Y530990D02*
Y534323D01*
Y532657D01*
X690003D01*
X691669Y530990D01*
X725000Y400000D02*
Y409997D01*
X729998D01*
X731665Y408331D01*
Y404998D01*
X729998Y403332D01*
X725000D01*
X728332D02*
X731665Y400000D01*
X734997Y409997D02*
Y400000D01*
X739995D01*
X741661Y401666D01*
Y408331D01*
X739995Y409997D01*
X734997D01*
X744994Y408331D02*
X746660Y409997D01*
X749992D01*
X751658Y408331D01*
Y406665D01*
X749992Y404998D01*
X748326D01*
X749992D01*
X751658Y403332D01*
Y401666D01*
X749992Y400000D01*
X746660D01*
X744994Y401666D01*
X754990Y408331D02*
X756656Y409997D01*
X759989D01*
X761655Y408331D01*
Y406665D01*
X759989Y404998D01*
X758323D01*
X759989D01*
X761655Y403332D01*
Y401666D01*
X759989Y400000D01*
X756656D01*
X754990Y401666D01*
X829000Y337000D02*
X819003D01*
Y341998D01*
X820669Y343665D01*
X824002D01*
X825668Y341998D01*
Y337000D01*
Y340332D02*
X829000Y343665D01*
X819003Y346997D02*
X829000D01*
Y351995D01*
X827334Y353661D01*
X820669D01*
X819003Y351995D01*
Y346997D01*
X820669Y356994D02*
X819003Y358660D01*
Y361992D01*
X820669Y363658D01*
X822336D01*
X824002Y361992D01*
Y360326D01*
Y361992D01*
X825668Y363658D01*
X827334D01*
X829000Y361992D01*
Y358660D01*
X827334Y356994D01*
X829000Y373655D02*
Y366990D01*
X822336Y373655D01*
X820669D01*
X819003Y371989D01*
Y368657D01*
X820669Y366990D01*
X801909Y524000D02*
Y533997D01*
X806907D01*
X808573Y532331D01*
Y528998D01*
X806907Y527332D01*
X801909D01*
X805241D02*
X808573Y524000D01*
X811905Y533997D02*
Y524000D01*
X816904D01*
X818570Y525666D01*
Y532331D01*
X816904Y533997D01*
X811905D01*
X821902Y532331D02*
X823568Y533997D01*
X826901D01*
X828567Y532331D01*
Y530664D01*
X826901Y528998D01*
X825235D01*
X826901D01*
X828567Y527332D01*
Y525666D01*
X826901Y524000D01*
X823568D01*
X821902Y525666D01*
X831899Y524000D02*
X835231D01*
X833565D01*
Y533997D01*
X831899Y532331D01*
X951000Y405000D02*
Y414997D01*
X955998D01*
X957664Y413331D01*
Y409998D01*
X955998Y408332D01*
X951000D01*
X954332D02*
X957664Y405000D01*
X960997Y414997D02*
Y405000D01*
X965995D01*
X967661Y406666D01*
Y413331D01*
X965995Y414997D01*
X960997D01*
X977658Y405000D02*
X970994D01*
X977658Y411665D01*
Y413331D01*
X975992Y414997D01*
X972660D01*
X970994Y413331D01*
X980990D02*
X982656Y414997D01*
X985989D01*
X987655Y413331D01*
Y411665D01*
X985989Y409998D01*
X984323D01*
X985989D01*
X987655Y408332D01*
Y406666D01*
X985989Y405000D01*
X982656D01*
X980990Y406666D01*
X1036000Y368000D02*
X1026003D01*
Y372998D01*
X1027669Y374664D01*
X1031002D01*
X1032668Y372998D01*
Y368000D01*
Y371332D02*
X1036000Y374664D01*
X1026003Y377997D02*
X1036000D01*
Y382995D01*
X1034334Y384661D01*
X1027669D01*
X1026003Y382995D01*
Y377997D01*
X1036000Y394658D02*
Y387994D01*
X1029335Y394658D01*
X1027669D01*
X1026003Y392992D01*
Y389660D01*
X1027669Y387994D01*
X1036000Y404655D02*
Y397990D01*
X1029335Y404655D01*
X1027669D01*
X1026003Y402989D01*
Y399656D01*
X1027669Y397990D01*
X997000Y509000D02*
Y518997D01*
X1001998D01*
X1003664Y517331D01*
Y513998D01*
X1001998Y512332D01*
X997000D01*
X1000332D02*
X1003664Y509000D01*
X1006997Y518997D02*
Y509000D01*
X1011995D01*
X1013661Y510666D01*
Y517331D01*
X1011995Y518997D01*
X1006997D01*
X1023658Y509000D02*
X1016994D01*
X1023658Y515664D01*
Y517331D01*
X1021992Y518997D01*
X1018660D01*
X1016994Y517331D01*
X1026990Y509000D02*
X1030323D01*
X1028656D01*
Y518997D01*
X1026990Y517331D01*
X839000Y402000D02*
Y411997D01*
X843998D01*
X845665Y410331D01*
Y406998D01*
X843998Y405332D01*
X839000D01*
X842332D02*
X845665Y402000D01*
X848997Y411997D02*
Y402000D01*
X853995D01*
X855661Y403666D01*
Y410331D01*
X853995Y411997D01*
X848997D01*
X858994Y402000D02*
X862326D01*
X860660D01*
Y411997D01*
X858994Y410331D01*
X867324D02*
X868990Y411997D01*
X872323D01*
X873989Y410331D01*
Y408665D01*
X872323Y406998D01*
X870657D01*
X872323D01*
X873989Y405332D01*
Y403666D01*
X872323Y402000D01*
X868990D01*
X867324Y403666D01*
X942000Y336000D02*
X932003D01*
Y340998D01*
X933669Y342664D01*
X937002D01*
X938668Y340998D01*
Y336000D01*
Y339332D02*
X942000Y342664D01*
X932003Y345997D02*
X942000D01*
Y350995D01*
X940334Y352661D01*
X933669D01*
X932003Y350995D01*
Y345997D01*
X942000Y355993D02*
Y359326D01*
Y357660D01*
X932003D01*
X933669Y355993D01*
X942000Y370989D02*
Y364324D01*
X935335Y370989D01*
X933669D01*
X932003Y369323D01*
Y365990D01*
X933669Y364324D01*
X901000Y545000D02*
Y554997D01*
X905998D01*
X907664Y553331D01*
Y549998D01*
X905998Y548332D01*
X901000D01*
X904332D02*
X907664Y545000D01*
X910997Y554997D02*
Y545000D01*
X915995D01*
X917661Y546666D01*
Y553331D01*
X915995Y554997D01*
X910997D01*
X920994Y545000D02*
X924326D01*
X922660D01*
Y554997D01*
X920994Y553331D01*
X929324Y545000D02*
X932656D01*
X930990D01*
Y554997D01*
X929324Y553331D01*
X993000Y1211000D02*
X983003D01*
X993000Y1217664D01*
X983003D01*
Y1220997D02*
Y1227661D01*
Y1224329D01*
X993000D01*
Y1230994D02*
Y1234326D01*
Y1232660D01*
X983003D01*
X984669Y1230994D01*
X822004Y456275D02*
X818672D01*
X820338D01*
Y447944D01*
X818672Y446278D01*
X817006D01*
X815340Y447944D01*
X830335Y456275D02*
X827003D01*
X825337Y454609D01*
Y447944D01*
X827003Y446278D01*
X830335D01*
X832001Y447944D01*
Y454609D01*
X830335Y456275D01*
X835334Y446278D02*
X838666D01*
X837000D01*
Y456275D01*
X835334Y454609D01*
X375914Y456997D02*
X372582D01*
X374248D01*
Y448666D01*
X372582Y447000D01*
X370916D01*
X369250Y448666D01*
X379247Y456997D02*
X382579D01*
X380913D01*
Y447000D01*
X379247D01*
X382579D01*
X392576D02*
Y456997D01*
X387577Y451998D01*
X394242D01*
X488503Y456275D02*
X485170D01*
X486836D01*
Y447944D01*
X485170Y446278D01*
X483504D01*
X481838Y447944D01*
X491835Y456275D02*
X495167D01*
X493501D01*
Y446278D01*
X491835D01*
X495167D01*
X500165Y454609D02*
X501832Y456275D01*
X505164D01*
X506830Y454609D01*
Y452943D01*
X505164Y451276D01*
X503498D01*
X505164D01*
X506830Y449610D01*
Y447944D01*
X505164Y446278D01*
X501832D01*
X500165Y447944D01*
X599754Y456275D02*
X596422D01*
X598088D01*
Y447944D01*
X596422Y446278D01*
X594756D01*
X593090Y447944D01*
X603087Y456275D02*
X606419D01*
X604753D01*
Y446278D01*
X603087D01*
X606419D01*
X618082D02*
X611417D01*
X618082Y452943D01*
Y454609D01*
X616416Y456275D01*
X613084D01*
X611417Y454609D01*
X710752Y456275D02*
X707420D01*
X709086D01*
Y447944D01*
X707420Y446278D01*
X705754D01*
X704088Y447944D01*
X714085Y456275D02*
X717417D01*
X715751D01*
Y446278D01*
X714085D01*
X717417D01*
X722415D02*
X725748D01*
X724082D01*
Y456275D01*
X722415Y454609D01*
X933257Y456275D02*
X929924D01*
X931590D01*
Y447944D01*
X929924Y446278D01*
X928258D01*
X926592Y447944D01*
X936589Y454609D02*
X938255Y456275D01*
X941587D01*
X943253Y454609D01*
Y447944D01*
X941587Y446278D01*
X938255D01*
X936589Y447944D01*
Y454609D01*
X953250Y446278D02*
X946586D01*
X953250Y452943D01*
Y454609D01*
X951584Y456275D01*
X948252D01*
X946586Y454609D01*
X1001003Y467000D02*
X1011000D01*
Y471998D01*
X1009334Y473665D01*
X1002669D01*
X1001003Y471998D01*
Y467000D01*
X1011000Y476997D02*
X1001003D01*
X1004335Y480329D01*
X1001003Y483661D01*
X1011000D01*
X1001003Y493658D02*
X1002669Y490326D01*
X1006002Y486994D01*
X1009334D01*
X1011000Y488660D01*
Y491992D01*
X1009334Y493658D01*
X1007668D01*
X1006002Y491992D01*
Y486994D01*
X890003Y469000D02*
X900000D01*
Y473998D01*
X898334Y475664D01*
X891669D01*
X890003Y473998D01*
Y469000D01*
X900000Y478997D02*
X890003D01*
X893335Y482329D01*
X890003Y485661D01*
X900000D01*
X890003Y495658D02*
Y488994D01*
X895002D01*
X893335Y492326D01*
Y493992D01*
X895002Y495658D01*
X898334D01*
X900000Y493992D01*
Y490660D01*
X898334Y488994D01*
X779003Y466000D02*
X789000D01*
Y470998D01*
X787334Y472664D01*
X780669D01*
X779003Y470998D01*
Y466000D01*
X789000Y475997D02*
X779003D01*
X782336Y479329D01*
X779003Y482661D01*
X789000D01*
Y490992D02*
X779003D01*
X784002Y485994D01*
Y492658D01*
X668003Y467000D02*
X678000D01*
Y471998D01*
X676334Y473665D01*
X669669D01*
X668003Y471998D01*
Y467000D01*
X678000Y476997D02*
X668003D01*
X671336Y480329D01*
X668003Y483661D01*
X678000D01*
X669669Y486994D02*
X668003Y488660D01*
Y491992D01*
X669669Y493658D01*
X671336D01*
X673002Y491992D01*
Y490326D01*
Y491992D01*
X674668Y493658D01*
X676334D01*
X678000Y491992D01*
Y488660D01*
X676334Y486994D01*
X557003Y466000D02*
X567000D01*
Y470998D01*
X565334Y472664D01*
X558669D01*
X557003Y470998D01*
Y466000D01*
X567000Y475997D02*
X557003D01*
X560336Y479329D01*
X557003Y482661D01*
X567000D01*
Y492658D02*
Y485994D01*
X560336Y492658D01*
X558669D01*
X557003Y490992D01*
Y487660D01*
X558669Y485994D01*
X446794Y468000D02*
X456791D01*
Y472998D01*
X455125Y474664D01*
X448460D01*
X446794Y472998D01*
Y468000D01*
X456791Y477997D02*
X446794D01*
X450126Y481329D01*
X446794Y484661D01*
X456791D01*
Y487994D02*
Y491326D01*
Y489660D01*
X446794D01*
X448460Y487994D01*
X951665Y1233890D02*
X949998Y1235556D01*
X946666D01*
X945000Y1233890D01*
Y1227225D01*
X946666Y1225559D01*
X949998D01*
X951665Y1227225D01*
X954997Y1225559D02*
Y1235556D01*
X959995D01*
X961661Y1233890D01*
Y1230557D01*
X959995Y1228891D01*
X954997D01*
X971658Y1235556D02*
X968326Y1233890D01*
X964994Y1230557D01*
Y1227225D01*
X966660Y1225559D01*
X969992D01*
X971658Y1227225D01*
Y1228891D01*
X969992Y1230557D01*
X964994D01*
X951073Y1250331D02*
X949407Y1251997D01*
X946075D01*
X944409Y1250331D01*
Y1243666D01*
X946075Y1242000D01*
X949407D01*
X951073Y1243666D01*
X954405Y1242000D02*
Y1251997D01*
X959404D01*
X961070Y1250331D01*
Y1246998D01*
X959404Y1245332D01*
X954405D01*
X971067Y1251997D02*
X964402D01*
Y1246998D01*
X967734Y1248664D01*
X969401D01*
X971067Y1246998D01*
Y1243666D01*
X969401Y1242000D01*
X966068D01*
X964402Y1243666D01*
X762664Y1229331D02*
X760998Y1230997D01*
X757666D01*
X756000Y1229331D01*
Y1222666D01*
X757666Y1221000D01*
X760998D01*
X762664Y1222666D01*
X765997Y1221000D02*
Y1230997D01*
X770995D01*
X772661Y1229331D01*
Y1225998D01*
X770995Y1224332D01*
X765997D01*
X780992Y1221000D02*
Y1230997D01*
X775994Y1225998D01*
X782658D01*
X762664Y1246331D02*
X760998Y1247997D01*
X757666D01*
X756000Y1246331D01*
Y1239666D01*
X757666Y1238000D01*
X760998D01*
X762664Y1239666D01*
X765997Y1238000D02*
Y1247997D01*
X770995D01*
X772661Y1246331D01*
Y1242998D01*
X770995Y1241332D01*
X765997D01*
X775994Y1246331D02*
X777660Y1247997D01*
X780992D01*
X782658Y1246331D01*
Y1244665D01*
X780992Y1242998D01*
X779326D01*
X780992D01*
X782658Y1241332D01*
Y1239666D01*
X780992Y1238000D01*
X777660D01*
X775994Y1239666D01*
X678664Y1359331D02*
X676998Y1360997D01*
X673666D01*
X672000Y1359331D01*
Y1352666D01*
X673666Y1351000D01*
X676998D01*
X678664Y1352666D01*
X681997Y1351000D02*
Y1360997D01*
X686995D01*
X688661Y1359331D01*
Y1355998D01*
X686995Y1354332D01*
X681997D01*
X698658Y1351000D02*
X691994D01*
X698658Y1357664D01*
Y1359331D01*
X696992Y1360997D01*
X693660D01*
X691994Y1359331D01*
X642664Y1318331D02*
X640998Y1319997D01*
X637666D01*
X636000Y1318331D01*
Y1311666D01*
X637666Y1310000D01*
X640998D01*
X642664Y1311666D01*
X645997Y1310000D02*
Y1319997D01*
X650995D01*
X652661Y1318331D01*
Y1314998D01*
X650995Y1313332D01*
X645997D01*
X655994Y1310000D02*
X659326D01*
X657660D01*
Y1319997D01*
X655994Y1318331D01*
X850665Y830331D02*
X848998Y831997D01*
X845666D01*
X844000Y830331D01*
Y823666D01*
X845666Y822000D01*
X848998D01*
X850665Y823666D01*
X858995Y831997D02*
X855663D01*
X853997Y830331D01*
Y823666D01*
X855663Y822000D01*
X858995D01*
X860661Y823666D01*
Y830331D01*
X858995Y831997D01*
X870658Y830331D02*
X868992Y831997D01*
X865660D01*
X863994Y830331D01*
Y828664D01*
X865660Y826998D01*
X868992D01*
X870658Y825332D01*
Y823666D01*
X868992Y822000D01*
X865660D01*
X863994Y823666D01*
X880655Y822000D02*
X873990D01*
X880655Y828664D01*
Y830331D01*
X878989Y831997D01*
X875657D01*
X873990Y830331D01*
X890652Y831997D02*
X883987D01*
Y826998D01*
X887319Y828664D01*
X888986D01*
X890652Y826998D01*
Y823666D01*
X888986Y822000D01*
X885653D01*
X883987Y823666D01*
X988669Y591664D02*
X987003Y589998D01*
Y586666D01*
X988669Y585000D01*
X995334D01*
X997000Y586666D01*
Y589998D01*
X995334Y591664D01*
X987003Y599995D02*
Y596663D01*
X988669Y594997D01*
X995334D01*
X997000Y596663D01*
Y599995D01*
X995334Y601661D01*
X988669D01*
X987003Y599995D01*
X988669Y611658D02*
X987003Y609992D01*
Y606660D01*
X988669Y604993D01*
X990335D01*
X992002Y606660D01*
Y609992D01*
X993668Y611658D01*
X995334D01*
X997000Y609992D01*
Y606660D01*
X995334Y604993D01*
X997000Y621655D02*
Y614990D01*
X990335Y621655D01*
X988669D01*
X987003Y619989D01*
Y616656D01*
X988669Y614990D01*
X997000Y629985D02*
X987003D01*
X992002Y624987D01*
Y631651D01*
X998664Y715831D02*
X996998Y717497D01*
X993666D01*
X992000Y715831D01*
Y709166D01*
X993666Y707500D01*
X996998D01*
X998664Y709166D01*
X1006995Y717497D02*
X1003663D01*
X1001997Y715831D01*
Y709166D01*
X1003663Y707500D01*
X1006995D01*
X1008661Y709166D01*
Y715831D01*
X1006995Y717497D01*
X1018658Y715831D02*
X1016992Y717497D01*
X1013660D01*
X1011994Y715831D01*
Y714165D01*
X1013660Y712498D01*
X1016992D01*
X1018658Y710832D01*
Y709166D01*
X1016992Y707500D01*
X1013660D01*
X1011994Y709166D01*
X1028655Y707500D02*
X1021990D01*
X1028655Y714165D01*
Y715831D01*
X1026989Y717497D01*
X1023656D01*
X1021990Y715831D01*
X1031987D02*
X1033653Y717497D01*
X1036985D01*
X1038652Y715831D01*
Y714165D01*
X1036985Y712498D01*
X1035319D01*
X1036985D01*
X1038652Y710832D01*
Y709166D01*
X1036985Y707500D01*
X1033653D01*
X1031987Y709166D01*
X1000665Y759331D02*
X998998Y760997D01*
X995666D01*
X994000Y759331D01*
Y752666D01*
X995666Y751000D01*
X998998D01*
X1000665Y752666D01*
X1008995Y760997D02*
X1005663D01*
X1003997Y759331D01*
Y752666D01*
X1005663Y751000D01*
X1008995D01*
X1010661Y752666D01*
Y759331D01*
X1008995Y760997D01*
X1020658Y759331D02*
X1018992Y760997D01*
X1015660D01*
X1013994Y759331D01*
Y757664D01*
X1015660Y755998D01*
X1018992D01*
X1020658Y754332D01*
Y752666D01*
X1018992Y751000D01*
X1015660D01*
X1013994Y752666D01*
X1030655Y751000D02*
X1023990D01*
X1030655Y757664D01*
Y759331D01*
X1028989Y760997D01*
X1025657D01*
X1023990Y759331D01*
X1040652Y751000D02*
X1033987D01*
X1040652Y757664D01*
Y759331D01*
X1038986Y760997D01*
X1035653D01*
X1033987Y759331D01*
X897664Y754331D02*
X895998Y755997D01*
X892666D01*
X891000Y754331D01*
Y747666D01*
X892666Y746000D01*
X895998D01*
X897664Y747666D01*
X905995Y755997D02*
X902663D01*
X900997Y754331D01*
Y747666D01*
X902663Y746000D01*
X905995D01*
X907661Y747666D01*
Y754331D01*
X905995Y755997D01*
X917658Y754331D02*
X915992Y755997D01*
X912660D01*
X910994Y754331D01*
Y752664D01*
X912660Y750998D01*
X915992D01*
X917658Y749332D01*
Y747666D01*
X915992Y746000D01*
X912660D01*
X910994Y747666D01*
X927655Y746000D02*
X920990D01*
X927655Y752664D01*
Y754331D01*
X925989Y755997D01*
X922656D01*
X920990Y754331D01*
X930987Y746000D02*
X934319D01*
X932653D01*
Y755997D01*
X930987Y754331D01*
X771665Y929331D02*
X769998Y930997D01*
X766666D01*
X765000Y929331D01*
Y922666D01*
X766666Y921000D01*
X769998D01*
X771665Y922666D01*
X779995Y930997D02*
X776663D01*
X774997Y929331D01*
Y922666D01*
X776663Y921000D01*
X779995D01*
X781661Y922666D01*
Y929331D01*
X779995Y930997D01*
X791658Y929331D02*
X789992Y930997D01*
X786660D01*
X784994Y929331D01*
Y927664D01*
X786660Y925998D01*
X789992D01*
X791658Y924332D01*
Y922666D01*
X789992Y921000D01*
X786660D01*
X784994Y922666D01*
X794990Y921000D02*
X798323D01*
X796656D01*
Y930997D01*
X794990Y929331D01*
X809986Y930997D02*
X806653Y929331D01*
X803321Y925998D01*
Y922666D01*
X804987Y921000D01*
X808319D01*
X809986Y922666D01*
Y924332D01*
X808319Y925998D01*
X803321D01*
X902669Y608665D02*
X901003Y606998D01*
Y603666D01*
X902669Y602000D01*
X909334D01*
X911000Y603666D01*
Y606998D01*
X909334Y608665D01*
X901003Y616995D02*
Y613663D01*
X902669Y611997D01*
X909334D01*
X911000Y613663D01*
Y616995D01*
X909334Y618661D01*
X902669D01*
X901003Y616995D01*
X902669Y628658D02*
X901003Y626992D01*
Y623660D01*
X902669Y621993D01*
X904335D01*
X906002Y623660D01*
Y626992D01*
X907668Y628658D01*
X909334D01*
X911000Y626992D01*
Y623660D01*
X909334Y621993D01*
X911000Y631990D02*
Y635323D01*
Y633657D01*
X901003D01*
X902669Y631990D01*
X901003Y646985D02*
Y640321D01*
X906002D01*
X904335Y643653D01*
Y645319D01*
X906002Y646985D01*
X909334D01*
X911000Y645319D01*
Y641987D01*
X909334Y640321D01*
X759669Y852664D02*
X758003Y850998D01*
Y847666D01*
X759669Y846000D01*
X766334D01*
X768000Y847666D01*
Y850998D01*
X766334Y852664D01*
X758003Y860995D02*
Y857663D01*
X759669Y855997D01*
X766334D01*
X768000Y857663D01*
Y860995D01*
X766334Y862661D01*
X759669D01*
X758003Y860995D01*
X759669Y872658D02*
X758003Y870992D01*
Y867660D01*
X759669Y865994D01*
X761336D01*
X763002Y867660D01*
Y870992D01*
X764668Y872658D01*
X766334D01*
X768000Y870992D01*
Y867660D01*
X766334Y865994D01*
X768000Y875990D02*
Y879323D01*
Y877656D01*
X758003D01*
X759669Y875990D01*
X768000Y889319D02*
X758003D01*
X763002Y884321D01*
Y890985D01*
X866665Y787331D02*
X864998Y788997D01*
X861666D01*
X860000Y787331D01*
Y780666D01*
X861666Y779000D01*
X864998D01*
X866665Y780666D01*
X874995Y788997D02*
X871663D01*
X869997Y787331D01*
Y780666D01*
X871663Y779000D01*
X874995D01*
X876661Y780666D01*
Y787331D01*
X874995Y788997D01*
X886658Y787331D02*
X884992Y788997D01*
X881660D01*
X879994Y787331D01*
Y785665D01*
X881660Y783998D01*
X884992D01*
X886658Y782332D01*
Y780666D01*
X884992Y779000D01*
X881660D01*
X879994Y780666D01*
X889990Y779000D02*
X893323D01*
X891656D01*
Y788997D01*
X889990Y787331D01*
X898321D02*
X899987Y788997D01*
X903319D01*
X904986Y787331D01*
Y785665D01*
X903319Y783998D01*
X901653D01*
X903319D01*
X904986Y782332D01*
Y780666D01*
X903319Y779000D01*
X899987D01*
X898321Y780666D01*
X871665Y809331D02*
X869998Y810997D01*
X866666D01*
X865000Y809331D01*
Y802666D01*
X866666Y801000D01*
X869998D01*
X871665Y802666D01*
X879995Y810997D02*
X876663D01*
X874997Y809331D01*
Y802666D01*
X876663Y801000D01*
X879995D01*
X881661Y802666D01*
Y809331D01*
X879995Y810997D01*
X891658Y809331D02*
X889992Y810997D01*
X886660D01*
X884994Y809331D01*
Y807664D01*
X886660Y805998D01*
X889992D01*
X891658Y804332D01*
Y802666D01*
X889992Y801000D01*
X886660D01*
X884994Y802666D01*
X894990Y801000D02*
X898323D01*
X896656D01*
Y810997D01*
X894990Y809331D01*
X909986Y801000D02*
X903321D01*
X909986Y807664D01*
Y809331D01*
X908319Y810997D01*
X904987D01*
X903321Y809331D01*
X917669Y940665D02*
X916003Y938998D01*
Y935666D01*
X917669Y934000D01*
X924334D01*
X926000Y935666D01*
Y938998D01*
X924334Y940665D01*
X916003Y948995D02*
Y945663D01*
X917669Y943997D01*
X924334D01*
X926000Y945663D01*
Y948995D01*
X924334Y950661D01*
X917669D01*
X916003Y948995D01*
X917669Y960658D02*
X916003Y958992D01*
Y955660D01*
X917669Y953994D01*
X919335D01*
X921002Y955660D01*
Y958992D01*
X922668Y960658D01*
X924334D01*
X926000Y958992D01*
Y955660D01*
X924334Y953994D01*
X926000Y963990D02*
Y967323D01*
Y965657D01*
X916003D01*
X917669Y963990D01*
X926000Y972321D02*
Y975653D01*
Y973987D01*
X916003D01*
X917669Y972321D01*
X393665Y1043331D02*
X391998Y1044997D01*
X388666D01*
X387000Y1043331D01*
Y1036666D01*
X388666Y1035000D01*
X391998D01*
X393665Y1036666D01*
X396997Y1035000D02*
Y1044997D01*
X400329Y1041665D01*
X403661Y1044997D01*
Y1035000D01*
X413658Y1044997D02*
X406993D01*
Y1039998D01*
X410326Y1041665D01*
X411992D01*
X413658Y1039998D01*
Y1036666D01*
X411992Y1035000D01*
X408660D01*
X406993Y1036666D01*
X392664Y1058331D02*
X390998Y1059997D01*
X387666D01*
X386000Y1058331D01*
Y1051666D01*
X387666Y1050000D01*
X390998D01*
X392664Y1051666D01*
X395997Y1050000D02*
Y1059997D01*
X399329Y1056665D01*
X402661Y1059997D01*
Y1050000D01*
X410992D02*
Y1059997D01*
X405993Y1054998D01*
X412658D01*
X356669Y1063664D02*
X355003Y1061998D01*
Y1058666D01*
X356669Y1057000D01*
X363334D01*
X365000Y1058666D01*
Y1061998D01*
X363334Y1063664D01*
X365000Y1066997D02*
X355003D01*
X358335Y1070329D01*
X355003Y1073661D01*
X365000D01*
X356669Y1076994D02*
X355003Y1078660D01*
Y1081992D01*
X356669Y1083658D01*
X358335D01*
X360002Y1081992D01*
Y1080326D01*
Y1081992D01*
X361668Y1083658D01*
X363334D01*
X365000Y1081992D01*
Y1078660D01*
X363334Y1076994D01*
X401669Y1197664D02*
X400003Y1195998D01*
Y1192666D01*
X401669Y1191000D01*
X408334D01*
X410000Y1192666D01*
Y1195998D01*
X408334Y1197664D01*
X410000Y1200997D02*
X400003D01*
X403335Y1204329D01*
X400003Y1207661D01*
X410000D01*
Y1217658D02*
Y1210994D01*
X403335Y1217658D01*
X401669D01*
X400003Y1215992D01*
Y1212660D01*
X401669Y1210994D01*
X665665Y746331D02*
X663998Y747997D01*
X660666D01*
X659000Y746331D01*
Y739666D01*
X660666Y738000D01*
X663998D01*
X665665Y739666D01*
X668997Y747997D02*
X672329D01*
X670663D01*
Y738000D01*
X668997D01*
X672329D01*
X683992Y746331D02*
X682326Y747997D01*
X678994D01*
X677327Y746331D01*
Y744665D01*
X678994Y742998D01*
X682326D01*
X683992Y741332D01*
Y739666D01*
X682326Y738000D01*
X678994D01*
X677327Y739666D01*
X687324Y746331D02*
X688990Y747997D01*
X692323D01*
X693989Y746331D01*
Y744665D01*
X692323Y742998D01*
X690657D01*
X692323D01*
X693989Y741332D01*
Y739666D01*
X692323Y738000D01*
X688990D01*
X687324Y739666D01*
X697321Y746331D02*
X698987Y747997D01*
X702319D01*
X703986Y746331D01*
Y744665D01*
X702319Y742998D01*
X700653D01*
X702319D01*
X703986Y741332D01*
Y739666D01*
X702319Y738000D01*
X698987D01*
X697321Y739666D01*
X676665Y580831D02*
X674998Y582497D01*
X671666D01*
X670000Y580831D01*
Y574166D01*
X671666Y572500D01*
X674998D01*
X676665Y574166D01*
X679997Y582497D02*
X683329D01*
X681663D01*
Y572500D01*
X679997D01*
X683329D01*
X694992Y580831D02*
X693326Y582497D01*
X689994D01*
X688327Y580831D01*
Y579165D01*
X689994Y577498D01*
X693326D01*
X694992Y575832D01*
Y574166D01*
X693326Y572500D01*
X689994D01*
X688327Y574166D01*
X698324Y580831D02*
X699990Y582497D01*
X703323D01*
X704989Y580831D01*
Y579165D01*
X703323Y577498D01*
X701656D01*
X703323D01*
X704989Y575832D01*
Y574166D01*
X703323Y572500D01*
X699990D01*
X698324Y574166D01*
X714986Y572500D02*
X708321D01*
X714986Y579165D01*
Y580831D01*
X713319Y582497D01*
X709987D01*
X708321Y580831D01*
X732669Y695665D02*
X731003Y693998D01*
Y690666D01*
X732669Y689000D01*
X739334D01*
X741000Y690666D01*
Y693998D01*
X739334Y695665D01*
X731003Y698997D02*
Y702329D01*
Y700663D01*
X741000D01*
Y698997D01*
Y702329D01*
X732669Y713992D02*
X731003Y712326D01*
Y708994D01*
X732669Y707327D01*
X734335D01*
X736002Y708994D01*
Y712326D01*
X737668Y713992D01*
X739334D01*
X741000Y712326D01*
Y708994D01*
X739334Y707327D01*
X732669Y717324D02*
X731003Y718990D01*
Y722323D01*
X732669Y723989D01*
X734335D01*
X736002Y722323D01*
Y720656D01*
Y722323D01*
X737668Y723989D01*
X739334D01*
X741000Y722323D01*
Y718990D01*
X739334Y717324D01*
X741000Y727321D02*
Y730653D01*
Y728987D01*
X731003D01*
X732669Y727321D01*
X540669Y595664D02*
X539003Y593998D01*
Y590666D01*
X540669Y589000D01*
X547334D01*
X549000Y590666D01*
Y593998D01*
X547334Y595664D01*
X539003Y598997D02*
Y602329D01*
Y600663D01*
X549000D01*
Y598997D01*
Y602329D01*
X540669Y613992D02*
X539003Y612326D01*
Y608993D01*
X540669Y607327D01*
X542335D01*
X544002Y608993D01*
Y612326D01*
X545668Y613992D01*
X547334D01*
X549000Y612326D01*
Y608993D01*
X547334Y607327D01*
X549000Y623988D02*
Y617324D01*
X542335Y623988D01*
X540669D01*
X539003Y622322D01*
Y618990D01*
X540669Y617324D01*
X549000Y627321D02*
Y630653D01*
Y628987D01*
X539003D01*
X540669Y627321D01*
X702669Y886665D02*
X701003Y884998D01*
Y881666D01*
X702669Y880000D01*
X709334D01*
X711000Y881666D01*
Y884998D01*
X709334Y886665D01*
X701003Y889997D02*
Y893329D01*
Y891663D01*
X711000D01*
Y889997D01*
Y893329D01*
X702669Y904992D02*
X701003Y903326D01*
Y899994D01*
X702669Y898327D01*
X704335D01*
X706002Y899994D01*
Y903326D01*
X707668Y904992D01*
X709334D01*
X711000Y903326D01*
Y899994D01*
X709334Y898327D01*
X711000Y908324D02*
Y911656D01*
Y909990D01*
X701003D01*
X702669Y908324D01*
X711000Y916655D02*
Y919987D01*
Y918321D01*
X701003D01*
X702669Y916655D01*
X955669Y1083664D02*
X954003Y1081998D01*
Y1078666D01*
X955669Y1077000D01*
X962334D01*
X964000Y1078666D01*
Y1081998D01*
X962334Y1083664D01*
X954003Y1086997D02*
X964000D01*
Y1091995D01*
X962334Y1093661D01*
X955669D01*
X954003Y1091995D01*
Y1086997D01*
X964000Y1096994D02*
X957336D01*
X954003Y1100326D01*
X957336Y1103658D01*
X964000D01*
X959002D01*
Y1096994D01*
X955669Y1113655D02*
X954003Y1111989D01*
Y1108656D01*
X955669Y1106990D01*
X962334D01*
X964000Y1108656D01*
Y1111989D01*
X962334Y1113655D01*
X954003Y1123652D02*
Y1116987D01*
X959002D01*
X957336Y1120319D01*
Y1121985D01*
X959002Y1123652D01*
X962334D01*
X964000Y1121985D01*
Y1118653D01*
X962334Y1116987D01*
X1027669Y878664D02*
X1026003Y876998D01*
Y873666D01*
X1027669Y872000D01*
X1034334D01*
X1036000Y873666D01*
Y876998D01*
X1034334Y878664D01*
X1026003Y881997D02*
X1036000D01*
Y886995D01*
X1034334Y888661D01*
X1027669D01*
X1026003Y886995D01*
Y881997D01*
X1036000Y891994D02*
X1029335D01*
X1026003Y895326D01*
X1029335Y898658D01*
X1036000D01*
X1031002D01*
Y891994D01*
X1027669Y908655D02*
X1026003Y906989D01*
Y903656D01*
X1027669Y901990D01*
X1034334D01*
X1036000Y903656D01*
Y906989D01*
X1034334Y908655D01*
X1036000Y916985D02*
X1026003D01*
X1031002Y911987D01*
Y918652D01*
X1011669Y877664D02*
X1010003Y875998D01*
Y872666D01*
X1011669Y871000D01*
X1018334D01*
X1020000Y872666D01*
Y875998D01*
X1018334Y877664D01*
X1010003Y880997D02*
X1020000D01*
Y885995D01*
X1018334Y887661D01*
X1011669D01*
X1010003Y885995D01*
Y880997D01*
X1020000Y890994D02*
X1013335D01*
X1010003Y894326D01*
X1013335Y897658D01*
X1020000D01*
X1015002D01*
Y890994D01*
X1011669Y907655D02*
X1010003Y905989D01*
Y902656D01*
X1011669Y900990D01*
X1018334D01*
X1020000Y902656D01*
Y905989D01*
X1018334Y907655D01*
X1011669Y910987D02*
X1010003Y912653D01*
Y915985D01*
X1011669Y917652D01*
X1013335D01*
X1015002Y915985D01*
Y914319D01*
Y915985D01*
X1016668Y917652D01*
X1018334D01*
X1020000Y915985D01*
Y912653D01*
X1018334Y910987D01*
X996664Y855831D02*
X994998Y857497D01*
X991666D01*
X990000Y855831D01*
Y849166D01*
X991666Y847500D01*
X994998D01*
X996664Y849166D01*
X999996Y857497D02*
Y847500D01*
X1004995D01*
X1006661Y849166D01*
Y855831D01*
X1004995Y857497D01*
X999996D01*
X1009993Y847500D02*
Y854165D01*
X1013326Y857497D01*
X1016658Y854165D01*
Y847500D01*
Y852498D01*
X1009993D01*
X1026655Y855831D02*
X1024988Y857497D01*
X1021656D01*
X1019990Y855831D01*
Y849166D01*
X1021656Y847500D01*
X1024988D01*
X1026655Y849166D01*
X1036651Y847500D02*
X1029987D01*
X1036651Y854165D01*
Y855831D01*
X1034985Y857497D01*
X1031653D01*
X1029987Y855831D01*
X943664D02*
X941998Y857497D01*
X938666D01*
X937000Y855831D01*
Y849166D01*
X938666Y847500D01*
X941998D01*
X943664Y849166D01*
X946997Y857497D02*
Y847500D01*
X951995D01*
X953661Y849166D01*
Y855831D01*
X951995Y857497D01*
X946997D01*
X956994Y847500D02*
Y854165D01*
X960326Y857497D01*
X963658Y854165D01*
Y847500D01*
Y852498D01*
X956994D01*
X973655Y855831D02*
X971989Y857497D01*
X968656D01*
X966990Y855831D01*
Y849166D01*
X968656Y847500D01*
X971989D01*
X973655Y849166D01*
X976987Y847500D02*
X980319D01*
X978653D01*
Y857497D01*
X976987Y855831D01*
X442169Y403665D02*
X440503Y401998D01*
Y398666D01*
X442169Y397000D01*
X448834D01*
X450500Y398666D01*
Y401998D01*
X448834Y403665D01*
X440503Y406997D02*
X450500D01*
Y411995D01*
X448834Y413661D01*
X442169D01*
X440503Y411995D01*
Y406997D01*
Y423658D02*
X442169Y420326D01*
X445502Y416994D01*
X448834D01*
X450500Y418660D01*
Y421992D01*
X448834Y423658D01*
X447168D01*
X445502Y421992D01*
Y416994D01*
X450500Y426990D02*
Y430323D01*
Y428657D01*
X440503D01*
X442169Y426990D01*
X554669Y402664D02*
X553003Y400998D01*
Y397666D01*
X554669Y396000D01*
X561334D01*
X563000Y397666D01*
Y400998D01*
X561334Y402664D01*
X553003Y405997D02*
X563000D01*
Y410995D01*
X561334Y412661D01*
X554669D01*
X553003Y410995D01*
Y405997D01*
Y422658D02*
Y415994D01*
X558002D01*
X556335Y419326D01*
Y420992D01*
X558002Y422658D01*
X561334D01*
X563000Y420992D01*
Y417660D01*
X561334Y415994D01*
X563000Y425990D02*
Y429323D01*
Y427657D01*
X553003D01*
X554669Y425990D01*
X665669Y401665D02*
X664003Y399998D01*
Y396666D01*
X665669Y395000D01*
X672334D01*
X674000Y396666D01*
Y399998D01*
X672334Y401665D01*
X664003Y404997D02*
X674000D01*
Y409995D01*
X672334Y411661D01*
X665669D01*
X664003Y409995D01*
Y404997D01*
X674000Y419992D02*
X664003D01*
X669002Y414994D01*
Y421658D01*
X674000Y424990D02*
Y428323D01*
Y426656D01*
X664003D01*
X665669Y424990D01*
X775669Y402664D02*
X774003Y400998D01*
Y397666D01*
X775669Y396000D01*
X782334D01*
X784000Y397666D01*
Y400998D01*
X782334Y402664D01*
X774003Y405997D02*
X784000D01*
Y410995D01*
X782334Y412661D01*
X775669D01*
X774003Y410995D01*
Y405997D01*
X775669Y415994D02*
X774003Y417660D01*
Y420992D01*
X775669Y422658D01*
X777336D01*
X779002Y420992D01*
Y419326D01*
Y420992D01*
X780668Y422658D01*
X782334D01*
X784000Y420992D01*
Y417660D01*
X782334Y415994D01*
X784000Y425990D02*
Y429323D01*
Y427657D01*
X774003D01*
X775669Y425990D01*
X996669Y400664D02*
X995003Y398998D01*
Y395666D01*
X996669Y394000D01*
X1003334D01*
X1005000Y395666D01*
Y398998D01*
X1003334Y400664D01*
X995003Y403997D02*
X1005000D01*
Y408995D01*
X1003334Y410661D01*
X996669D01*
X995003Y408995D01*
Y403997D01*
X1005000Y420658D02*
Y413994D01*
X998335Y420658D01*
X996669D01*
X995003Y418992D01*
Y415660D01*
X996669Y413994D01*
X1005000Y423990D02*
Y427323D01*
Y425657D01*
X995003D01*
X996669Y423990D01*
X887669Y402664D02*
X886003Y400998D01*
Y397666D01*
X887669Y396000D01*
X894334D01*
X896000Y397666D01*
Y400998D01*
X894334Y402664D01*
X886003Y405997D02*
X896000D01*
Y410995D01*
X894334Y412661D01*
X887669D01*
X886003Y410995D01*
Y405997D01*
X896000Y415994D02*
Y419326D01*
Y417660D01*
X886003D01*
X887669Y415994D01*
X896000Y424324D02*
Y427656D01*
Y425990D01*
X886003D01*
X887669Y424324D01*
X510331Y890335D02*
X511997Y892002D01*
Y895334D01*
X510331Y897000D01*
X503666D01*
X502000Y895334D01*
Y892002D01*
X503666Y890335D01*
X502000Y887003D02*
X508665D01*
X511997Y883671D01*
X508665Y880339D01*
X502000D01*
X506998D01*
Y887003D01*
X511997Y877007D02*
X502000D01*
Y872008D01*
X503666Y870342D01*
X510331D01*
X511997Y872008D01*
Y877007D01*
X510331Y860345D02*
X511997Y862011D01*
Y865343D01*
X510331Y867010D01*
X503666D01*
X502000Y865343D01*
Y862011D01*
X503666Y860345D01*
X502000Y852014D02*
X511997D01*
X506998Y857013D01*
Y850348D01*
X408665Y1001331D02*
X406998Y1002997D01*
X403666D01*
X402000Y1001331D01*
Y994666D01*
X403666Y993000D01*
X406998D01*
X408665Y994666D01*
X411997Y993000D02*
Y999665D01*
X415329Y1002997D01*
X418661Y999665D01*
Y993000D01*
Y997998D01*
X411997D01*
X421994Y1002997D02*
Y993000D01*
X426992D01*
X428658Y994666D01*
Y1001331D01*
X426992Y1002997D01*
X421994D01*
X438655Y1001331D02*
X436989Y1002997D01*
X433657D01*
X431990Y1001331D01*
Y994666D01*
X433657Y993000D01*
X436989D01*
X438655Y994666D01*
X441987Y1001331D02*
X443653Y1002997D01*
X446986D01*
X448652Y1001331D01*
Y999665D01*
X446986Y997998D01*
X445319D01*
X446986D01*
X448652Y996332D01*
Y994666D01*
X446986Y993000D01*
X443653D01*
X441987Y994666D01*
X369669Y956665D02*
X368003Y954998D01*
Y951666D01*
X369669Y950000D01*
X376334D01*
X378000Y951666D01*
Y954998D01*
X376334Y956665D01*
X378000Y959997D02*
X371335D01*
X368003Y963329D01*
X371335Y966661D01*
X378000D01*
X373002D01*
Y959997D01*
X368003Y969994D02*
X378000D01*
Y974992D01*
X376334Y976658D01*
X369669D01*
X368003Y974992D01*
Y969994D01*
X369669Y986655D02*
X368003Y984989D01*
Y981656D01*
X369669Y979990D01*
X376334D01*
X378000Y981656D01*
Y984989D01*
X376334Y986655D01*
X378000Y996652D02*
Y989987D01*
X371335Y996652D01*
X369669D01*
X368003Y994986D01*
Y991653D01*
X369669Y989987D01*
X365669Y868664D02*
X364003Y866998D01*
Y863666D01*
X365669Y862000D01*
X372334D01*
X374000Y863666D01*
Y866998D01*
X372334Y868664D01*
X374000Y871997D02*
X367336D01*
X364003Y875329D01*
X367336Y878661D01*
X374000D01*
X369002D01*
Y871997D01*
X364003Y881994D02*
X374000D01*
Y886992D01*
X372334Y888658D01*
X365669D01*
X364003Y886992D01*
Y881994D01*
X365669Y898655D02*
X364003Y896989D01*
Y893656D01*
X365669Y891990D01*
X372334D01*
X374000Y893656D01*
Y896989D01*
X372334Y898655D01*
X374000Y901987D02*
Y905319D01*
Y903653D01*
X364003D01*
X365669Y901987D01*
X563003Y860000D02*
X571334D01*
X573000Y861666D01*
Y864998D01*
X571334Y866665D01*
X563003D01*
Y869997D02*
Y873329D01*
Y871663D01*
X573000D01*
Y869997D01*
Y873329D01*
X564669Y884992D02*
X563003Y883326D01*
Y879994D01*
X564669Y878327D01*
X566335D01*
X568002Y879994D01*
Y883326D01*
X569668Y884992D01*
X571334D01*
X573000Y883326D01*
Y879994D01*
X571334Y878327D01*
X573000Y894989D02*
Y888324D01*
X566335Y894989D01*
X564669D01*
X563003Y893323D01*
Y889990D01*
X564669Y888324D01*
D11*
X960650Y987650D02*
G03*
X960650Y987650I-1000J0D01*
G01*
X453000Y1160000D02*
G03*
X453000Y1160000I-1000J0D01*
G01*
X942210Y678098D02*
X992210D01*
X942210Y658098D02*
X992210D01*
Y678098D01*
X942210Y658098D02*
Y678098D01*
X838000Y835000D02*
Y885000D01*
X818000Y835000D02*
Y885000D01*
Y835000D02*
X838000D01*
X818000Y885000D02*
X838000D01*
X409000Y938500D02*
Y939000D01*
X427000Y938500D02*
Y939000D01*
X409000Y969000D02*
Y969500D01*
X427000Y969000D02*
Y969500D01*
X409000D02*
X427000D01*
X409000Y938500D02*
X427000D01*
X498500Y1323000D02*
Y1351000D01*
X551500D01*
X498500Y1323000D02*
X551500D01*
Y1256000D02*
Y1284000D01*
X498500Y1256000D02*
X551500D01*
X498500Y1284000D02*
X551500D01*
D12*
X1008892Y951048D02*
G03*
X1008892Y944952I0J-3048D01*
G01*
X959108Y932506D02*
Y963494D01*
X1008892Y932506D02*
Y944952D01*
Y951048D01*
Y963494D01*
X969734Y753500D02*
X977234D01*
X969734D02*
Y770500D01*
X977234D01*
X987234D02*
X994734D01*
Y753500D02*
Y770500D01*
X987234Y753500D02*
X994734D01*
X950734D02*
Y761000D01*
Y753500D02*
X967734D01*
Y761000D01*
Y771000D02*
Y778500D01*
X950734D02*
X967734D01*
X950734Y771000D02*
Y778500D01*
X953424Y731500D02*
X960924D01*
X953424D02*
Y748500D01*
X960924D01*
X970924D02*
X978424D01*
Y731500D02*
Y748500D01*
X970924Y731500D02*
X978424D01*
X426958Y1140637D02*
Y1148137D01*
X443958D01*
Y1140637D02*
Y1148137D01*
Y1123137D02*
Y1130637D01*
X426958Y1123137D02*
X443958D01*
X426958D02*
Y1130637D01*
X466000Y1196500D02*
X473500D01*
Y1179500D02*
Y1196500D01*
X466000Y1179500D02*
X473500D01*
X448500D02*
X456000D01*
X448500D02*
Y1196500D01*
X456000D01*
X1000441Y1192500D02*
Y1200000D01*
Y1192500D02*
X1017441D01*
Y1200000D01*
Y1210000D02*
Y1217500D01*
X1000441D02*
X1017441D01*
X1000441Y1210000D02*
Y1217500D01*
X914500Y866500D02*
Y874000D01*
X931500D01*
Y866500D02*
Y874000D01*
Y849000D02*
Y856500D01*
X914500Y849000D02*
X931500D01*
X914500D02*
Y856500D01*
X892500Y866500D02*
Y874000D01*
X909500D01*
Y866500D02*
Y874000D01*
Y849000D02*
Y856500D01*
X892500Y849000D02*
X909500D01*
X892500D02*
Y856500D01*
Y896500D02*
Y904000D01*
X909500D01*
Y896500D02*
Y904000D01*
Y879000D02*
Y886500D01*
X892500Y879000D02*
X909500D01*
X892500D02*
Y886500D01*
X785288Y804689D02*
Y812189D01*
X802289D01*
Y804689D02*
Y812189D01*
Y787189D02*
Y794689D01*
X785288Y787189D02*
X802289D01*
X785288D02*
Y794689D01*
X755006Y804741D02*
Y812241D01*
X772006D01*
Y804741D02*
Y812241D01*
Y787241D02*
Y794741D01*
X755006Y787241D02*
X772006D01*
X755006D02*
Y794741D01*
X731336Y819741D02*
Y827241D01*
X748336D01*
Y819741D02*
Y827241D01*
Y802241D02*
Y809741D01*
X731336Y802241D02*
X748336D01*
X731336D02*
Y809741D01*
X694387Y822500D02*
Y830000D01*
X677387Y822500D02*
X694387D01*
X677387D02*
Y830000D01*
Y840000D02*
Y847500D01*
X694387D01*
Y840000D02*
Y847500D01*
X694500Y791500D02*
Y799000D01*
X677500Y791500D02*
X694500D01*
X677500D02*
Y799000D01*
Y809000D02*
Y816500D01*
X694500D01*
Y809000D02*
Y816500D01*
X649500Y757500D02*
X657000D01*
X649500D02*
Y774500D01*
X657000D01*
X667000D02*
X674500D01*
Y757500D02*
Y774500D01*
X667000Y757500D02*
X674500D01*
X999190Y626500D02*
X1006690D01*
X999190D02*
Y643500D01*
X1006690D01*
X1016690D02*
X1024190D01*
Y626500D02*
Y643500D01*
X1016690Y626500D02*
X1024190D01*
X956360Y575000D02*
Y582500D01*
X973360D01*
Y575000D02*
Y582500D01*
Y557500D02*
Y565000D01*
X956360Y557500D02*
X973360D01*
X956360D02*
Y565000D01*
X933360Y590000D02*
Y597500D01*
X950360D01*
Y590000D02*
Y597500D01*
Y572500D02*
Y580000D01*
X933360Y572500D02*
X950360D01*
X933360D02*
Y580000D01*
X1012000Y541048D02*
X1019500D01*
Y524048D02*
Y541048D01*
X1012000Y524048D02*
X1019500D01*
X994500D02*
X1002000D01*
X994500D02*
Y541048D01*
X1002000D01*
X902000Y537500D02*
X909500D01*
Y520500D02*
Y537500D01*
X902000Y520500D02*
X909500D01*
X884500D02*
X892000D01*
X884500D02*
Y537500D01*
X892000D01*
X790000Y537270D02*
X797500D01*
Y520270D02*
Y537270D01*
X790000Y520270D02*
X797500D01*
X772500D02*
X780000D01*
X772500D02*
Y537270D01*
X780000D01*
X611500Y658500D02*
Y666000D01*
X594500Y658500D02*
X611500D01*
X594500D02*
Y666000D01*
Y676000D02*
Y683500D01*
X611500D01*
Y676000D02*
Y683500D01*
X726250Y658500D02*
Y666000D01*
X709250Y658500D02*
X726250D01*
X709250D02*
Y666000D01*
Y676000D02*
Y683500D01*
X726250D01*
Y676000D02*
Y683500D01*
Y628500D02*
Y636000D01*
X709250Y628500D02*
X726250D01*
X709250D02*
Y636000D01*
Y646000D02*
Y653500D01*
X726250D01*
Y646000D02*
Y653500D01*
X610500Y628000D02*
Y635500D01*
X593500Y628000D02*
X610500D01*
X593500D02*
Y635500D01*
Y645500D02*
Y653000D01*
X610500D01*
Y645500D02*
Y653000D01*
X633050Y610500D02*
X640550D01*
Y593500D02*
Y610500D01*
X633050Y593500D02*
X640550D01*
X615550D02*
X623050D01*
X615550D02*
Y610500D01*
X623050D01*
X679500Y592500D02*
X687000D01*
X679500D02*
Y609500D01*
X687000D01*
X697000D02*
X704500D01*
Y592500D02*
Y609500D01*
X697000Y592500D02*
X704500D01*
X631320Y553500D02*
X638820D01*
X631320D02*
Y570500D01*
X638820D01*
X648820D02*
X656320D01*
Y553500D02*
Y570500D01*
X648820Y553500D02*
X656320D01*
X675710Y542500D02*
Y550000D01*
X658710Y542500D02*
X675710D01*
X658710D02*
Y550000D01*
Y560000D02*
Y567500D01*
X675710D01*
Y560000D02*
Y567500D01*
X678000Y533262D02*
X685500D01*
Y516262D02*
Y533262D01*
X678000Y516262D02*
X685500D01*
X660500D02*
X668000D01*
X660500D02*
Y533262D01*
X668000D01*
X568000Y529198D02*
X575500D01*
Y512198D02*
Y529198D01*
X568000Y512198D02*
X575500D01*
X550500D02*
X558000D01*
X550500D02*
Y529198D01*
X558000D01*
X565000Y542500D02*
Y550000D01*
X548000Y542500D02*
X565000D01*
X548000D02*
Y550000D01*
Y560000D02*
Y567500D01*
X565000D01*
Y560000D02*
Y567500D01*
X473791Y577500D02*
Y585000D01*
X456791Y577500D02*
X473791D01*
X456791D02*
Y585000D01*
Y595000D02*
Y602500D01*
X473791D01*
Y595000D02*
Y602500D01*
X436500Y595000D02*
Y602500D01*
X453500D01*
Y595000D02*
Y602500D01*
Y577500D02*
Y585000D01*
X436500Y577500D02*
X453500D01*
X436500D02*
Y585000D01*
X453500Y547500D02*
Y555000D01*
X436500Y547500D02*
X453500D01*
X436500D02*
Y555000D01*
Y565000D02*
Y572500D01*
X453500D01*
Y565000D02*
Y572500D01*
X458500Y529500D02*
X466000D01*
Y512500D02*
Y529500D01*
X458500Y512500D02*
X466000D01*
X441000D02*
X448500D01*
X441000D02*
Y529500D01*
X448500D01*
X812500Y335500D02*
Y343000D01*
X795500Y335500D02*
X812500D01*
X795500D02*
Y343000D01*
Y353000D02*
Y360500D01*
X812500D01*
Y353000D02*
Y360500D01*
X787500Y335500D02*
Y343000D01*
X770500Y335500D02*
X787500D01*
X770500D02*
Y343000D01*
Y353000D02*
Y360500D01*
X787500D01*
Y353000D02*
Y360500D01*
X702500Y334500D02*
Y342000D01*
X685500Y334500D02*
X702500D01*
X685500D02*
Y342000D01*
Y352000D02*
Y359500D01*
X702500D01*
Y352000D02*
Y359500D01*
X677500Y334500D02*
Y342000D01*
X660500Y334500D02*
X677500D01*
X660500D02*
Y342000D01*
Y352000D02*
Y359500D01*
X677500D01*
Y352000D02*
Y359500D01*
X593500Y335500D02*
Y343000D01*
X576500Y335500D02*
X593500D01*
X576500D02*
Y343000D01*
Y353000D02*
Y360500D01*
X593500D01*
Y353000D02*
Y360500D01*
X566500Y335500D02*
Y343000D01*
X549500Y335500D02*
X566500D01*
X549500D02*
Y343000D01*
Y353000D02*
Y360500D01*
X566500D01*
Y353000D02*
Y360500D01*
X481500Y335500D02*
Y343000D01*
X464500Y335500D02*
X481500D01*
X464500D02*
Y343000D01*
Y353000D02*
Y360500D01*
X481500D01*
Y353000D02*
Y360500D01*
X454500Y335500D02*
Y343000D01*
X437500Y335500D02*
X454500D01*
X437500D02*
Y343000D01*
Y353000D02*
Y360500D01*
X454500D01*
Y353000D02*
Y360500D01*
X899500Y353000D02*
Y360500D01*
X882500D02*
X899500D01*
X882500Y353000D02*
Y360500D01*
Y335500D02*
Y343000D01*
Y335500D02*
X899500D01*
Y343000D01*
X925255Y353000D02*
Y360500D01*
X908254D02*
X925255D01*
X908254Y353000D02*
Y360500D01*
Y335500D02*
Y343000D01*
Y335500D02*
X925255D01*
Y343000D01*
X1009500Y352000D02*
Y359500D01*
X992500D02*
X1009500D01*
X992500Y352000D02*
Y359500D01*
Y334500D02*
Y342000D01*
Y334500D02*
X1009500D01*
Y342000D01*
X1038239Y352246D02*
Y359746D01*
X1021239D02*
X1038239D01*
X1021239Y352246D02*
Y359746D01*
Y334746D02*
Y342246D01*
Y334746D02*
X1038239D01*
Y342246D01*
X954500Y541500D02*
X962000D01*
X954500Y524500D02*
Y541500D01*
Y524500D02*
X962000D01*
X972000D02*
X979500D01*
Y541500D01*
X972000D02*
X979500D01*
X843500Y537500D02*
X851000D01*
X843500Y520500D02*
Y537500D01*
Y520500D02*
X851000D01*
X861000D02*
X868500D01*
Y537500D01*
X861000D02*
X868500D01*
X732500D02*
X740000D01*
X732500Y520500D02*
Y537500D01*
Y520500D02*
X740000D01*
X750000D02*
X757500D01*
Y537500D01*
X750000D02*
X757500D01*
X620500Y533500D02*
X628000D01*
X620500Y516500D02*
Y533500D01*
Y516500D02*
X628000D01*
X638000D02*
X645500D01*
Y533500D01*
X638000D02*
X645500D01*
X509500Y529500D02*
X517000D01*
X509500Y512500D02*
Y529500D01*
Y512500D02*
X517000D01*
X527000D02*
X534500D01*
Y529500D01*
X527000D02*
X534500D01*
X398500D02*
X406000D01*
X398500Y512500D02*
Y529500D01*
Y512500D02*
X406000D01*
X416000D02*
X423500D01*
Y529500D01*
X416000D02*
X423500D01*
X518940Y1209500D02*
X526440D01*
X518940Y1192500D02*
Y1209500D01*
Y1192500D02*
X526440D01*
X536440D02*
X543940D01*
Y1209500D01*
X536440D02*
X543940D01*
X786500Y561000D02*
Y568500D01*
X769500D02*
X786500D01*
X769500Y561000D02*
Y568500D01*
Y543500D02*
Y551000D01*
Y543500D02*
X786500D01*
Y551000D01*
D13*
X996010Y691598D02*
G03*
X996010Y691598I-1250J0D01*
G01*
X852750Y832450D02*
G03*
X852750Y832450I-1250J0D01*
G01*
X584700Y800500D02*
G03*
X584700Y800500I-1250J0D01*
G01*
X381191Y842500D02*
G03*
X381191Y842500I-1250J0D01*
G01*
X615137Y636500D02*
G03*
X615137Y636500I-1250J0D01*
G01*
D14*
X405500Y969250D02*
G03*
X405500Y969250I-500J0D01*
G01*
D15*
X436042Y499058D02*
G03*
X436042Y460942I-17772J-19058D01*
G01*
X547272Y499058D02*
G03*
X547272Y460942I-17772J-19058D01*
G01*
X658502Y499058D02*
G03*
X658502Y460942I-17772J-19058D01*
G01*
X769732Y499058D02*
G03*
X769732Y460942I-17772J-19058D01*
G01*
X880962Y499058D02*
G03*
X880962Y460942I-17772J-19058D01*
G01*
X992192Y499058D02*
G03*
X992192Y460942I-17772J-19058D01*
G01*
X849000Y796000D02*
X851500Y793000D01*
X893000Y820000D02*
Y835000D01*
X843000D02*
X893000D01*
X843000Y833000D02*
Y835000D01*
X811000Y831000D02*
X843000Y833000D01*
X516290Y886000D02*
Y901000D01*
X497000D02*
X516290D01*
X476000Y914000D02*
X497000Y901000D01*
X714000Y910000D02*
X723000Y901000D01*
X713920Y923000D02*
X714000Y910000D01*
X700000Y923000D02*
X713920D01*
X955000Y1016000D02*
Y1022000D01*
X964000Y1031000D01*
X1038000D01*
X1014000Y696000D02*
X1015000Y702000D01*
X1037000D01*
X978424Y748500D02*
X989000Y748000D01*
X970564Y748500D02*
X978424D01*
Y743500D02*
Y748500D01*
X1025612Y681500D02*
X1031612D01*
X1028612Y678500D02*
Y684500D01*
Y698500D02*
Y704500D01*
X1025612Y701500D02*
X1031612D01*
X987234Y779000D02*
X994734Y770500D01*
X966000Y782000D02*
X987234Y779000D01*
X966000Y782000D02*
Y795000D01*
X949000Y781000D02*
X950734Y778500D01*
X913500Y781000D02*
X949000D01*
X913500D02*
Y793000D01*
X987000Y1000000D02*
Y1016000D01*
X955000Y1000000D02*
Y1016000D01*
X366234Y1136031D02*
X376000Y1175000D01*
X352000D02*
X376000D01*
X352000D02*
Y1191195D01*
X380866Y1115134D02*
X393927Y1113915D01*
X382323Y1113054D02*
X390307Y1112443D01*
X383780Y1110973D02*
X388726Y1110273D01*
X938070Y706173D02*
X952851Y730673D01*
X890661Y706173D02*
X938070D01*
X890661Y688173D02*
Y706173D01*
X989000Y748000D02*
X1038000D01*
X924000Y762750D02*
X929000D01*
X924000D02*
Y769250D01*
X915500Y759750D02*
X924000Y762750D01*
X885000Y759750D02*
X915500D01*
X885000D02*
X885436Y742750D01*
X983860Y678000D02*
X986410Y727000D01*
X1033000Y728000D01*
Y744000D01*
X776000Y762000D02*
X785288Y787189D01*
X775000Y723000D02*
X776000Y762000D01*
X757500Y723000D02*
X775000D01*
X816909Y903000D02*
Y906000D01*
X821000D01*
X816909D02*
X821000D01*
X809409Y918000D02*
X816909Y906000D01*
X760000Y918000D02*
X809409D01*
X760000D02*
Y936000D01*
X802000Y899000D02*
X818000Y885000D01*
X759000Y899000D02*
X802000D01*
X759000D02*
Y915000D01*
X431000Y1036000D02*
X434114Y1035000D01*
X430000Y1041000D02*
X431000Y1036000D01*
X430000Y1041000D02*
X431000Y1036000D01*
X419000Y1032000D02*
X431000Y1036000D01*
X382000Y1032000D02*
X419000D01*
X382000D02*
Y1045000D01*
X431000Y1056000D02*
Y1060000D01*
X435163D01*
X431000D02*
X435163D01*
X427500Y1063000D02*
X431000Y1060000D01*
X382000Y1063000D02*
X427500D01*
X382000D02*
X382323Y1050000D01*
X376000Y1083000D02*
X381191D01*
X381000Y1089000D02*
X381191Y1083000D01*
X381000Y1089000D02*
X381191Y1083000D01*
X368000Y1069312D02*
X381191Y1083000D01*
X367742Y1053000D02*
X368000Y1069312D01*
X353000Y1053000D02*
X367742D01*
X443000Y1185400D02*
X443958Y1148137D01*
X426909Y1185400D02*
X443000D01*
X396000Y1181000D02*
Y1186000D01*
X390000D02*
X396000D01*
X390000D02*
X396000D01*
X415000Y1189350D01*
Y1222000D01*
X399000D02*
X415000D01*
X572000Y1170000D02*
X576909Y1187000D01*
X602000D01*
Y1201000D01*
X473500Y1196500D02*
X488000Y1204000D01*
Y1216000D01*
X472000Y1070000D02*
Y1077836D01*
Y1162164D02*
Y1170000D01*
X564164D02*
X572000D01*
Y1070000D02*
Y1077836D01*
X472000Y1070000D02*
X479836D01*
X564164D02*
X572000D01*
Y1162164D02*
Y1170000D01*
X472000D02*
X479836D01*
X543940Y1209500D02*
X560000Y1215600D01*
Y1232000D01*
X518000D02*
X560000D01*
X494409Y1306000D02*
X500000Y1284000D01*
X463000Y1307000D02*
X494409Y1306000D01*
X488000Y1374000D02*
X498500Y1351000D01*
X461000Y1374000D02*
X488000D01*
X633000Y1307000D02*
X641000Y1299000D01*
X633000Y1307000D02*
Y1322000D01*
X668000Y1348000D02*
X683000Y1342000D01*
X668000Y1348000D02*
Y1364000D01*
X706500Y1350145D02*
X712500D01*
X709500Y1347145D02*
Y1353145D01*
Y1327145D02*
Y1333145D01*
X706500Y1330145D02*
X712500D01*
X667500Y1292500D02*
X673500D01*
X670500Y1289500D02*
Y1295500D01*
Y1309500D02*
Y1315500D01*
X667500Y1312500D02*
X673500D01*
X934000Y1225000D02*
X940000D01*
Y1230000D01*
X934409Y1242000D02*
X939000D01*
Y1247000D01*
X789000Y1217000D02*
X793000D01*
X789000D02*
Y1219000D01*
Y1224000D01*
Y1219000D02*
Y1224000D01*
X750000Y1219000D02*
X789000D01*
X750000D02*
Y1232000D01*
X789000Y1236000D02*
X793000D01*
X789000D02*
Y1241000D01*
Y1236000D02*
Y1241000D01*
X750000Y1235600D02*
X789000Y1236000D01*
X750000Y1235600D02*
Y1250000D01*
X805000Y1270000D02*
X836000Y1300000D01*
Y1326000D01*
X822000D02*
X836000D01*
X803000Y1094400D02*
Y1215600D01*
X921000D01*
X803000Y1094400D02*
X921000D01*
Y1215600D01*
X997500Y1223000D02*
X1000441Y1217500D01*
X997500Y1223000D02*
Y1238000D01*
X981000D02*
X997500D01*
X940000Y1225000D02*
X945000Y1223000D01*
X975000D01*
Y1236000D01*
X939000Y1242000D02*
X944000Y1239000D01*
X974148D01*
X974000Y1256000D02*
X974148Y1239000D01*
X933000Y1262000D02*
X954000Y1294000D01*
Y1327145D01*
X939000D02*
X954000D01*
X968000Y1113000D02*
X973000Y1105000D01*
X968000Y1113000D02*
Y1127000D01*
X953000Y1127000D02*
X968000Y1127000D01*
X978500Y1067677D02*
X984500D01*
X981500Y1064677D02*
Y1070677D01*
Y1084678D02*
Y1090677D01*
X978500Y1087678D02*
X984500D01*
X1038000Y1031000D02*
Y1051000D01*
X1009000Y954000D02*
X1031000Y961000D01*
Y1009000D01*
X1016500D02*
X1031000D01*
X1025000Y926000D02*
X1031000D01*
X1030190Y932506D02*
X1031000Y926000D01*
X1030190Y932506D02*
X1031000Y926000D01*
X1038500Y920000D01*
X1039000Y866000D01*
X1026000D02*
X1039000D01*
X997000Y864000D02*
X1008000Y868000D01*
X1023000D01*
Y920000D01*
X1002000Y845000D02*
X1007000Y836000D01*
X987000Y845000D02*
X1002000D01*
X987000D02*
Y855000D01*
X1025500Y842500D02*
X1031500D01*
X1028500Y839500D02*
Y845500D01*
Y819500D02*
Y825500D01*
X1025500Y822500D02*
X1031500D01*
X974148Y890629D02*
Y896628D01*
X971148Y893628D02*
X977148D01*
X951148D02*
X957148D01*
X954148Y890629D02*
Y896628D01*
X946000Y917000D02*
X947000Y895000D01*
X930000D02*
Y918000D01*
X909500Y904000D02*
X914500Y927000D01*
X931000D01*
X935000Y931000D01*
X950000D01*
Y978000D01*
X874618Y885000D02*
Y888000D01*
X879000D01*
X874618D02*
X879000D01*
X874618D02*
X888000Y903000D01*
X904000Y922000D01*
X914000Y931000D01*
X929409D01*
Y944000D01*
X931500Y874000D02*
X936000Y876000D01*
X947000D01*
Y895000D01*
X909500Y874000D02*
X913000Y877000D01*
X930000D01*
Y895000D01*
X934409Y845500D02*
X943362Y836000D01*
X934409Y845500D02*
Y860000D01*
X897000Y834000D02*
X906000D01*
Y840500D01*
Y834000D02*
Y840500D01*
Y834000D02*
X913000Y813000D01*
Y798000D02*
Y813000D01*
X868000Y798000D02*
X913000D01*
X851500Y793000D02*
X911000D01*
Y776000D02*
Y793000D01*
X811000Y825000D02*
Y831000D01*
X805000D02*
X811000D01*
X805000D02*
X811000D01*
X836655Y791652D02*
Y797652D01*
X833655Y794652D02*
X839655D01*
X853655D02*
X859655D01*
X856655Y791652D02*
Y797652D01*
X769000Y835000D02*
Y840000D01*
X764409D02*
X769000D01*
X764409D02*
X769000D01*
X773000Y844000D01*
X773049Y895000D01*
X756000D02*
X773049D01*
X748336Y827241D02*
Y832450D01*
Y885000D01*
X732427Y885000D02*
X748336Y885000D01*
X750000Y779780D02*
X755006Y787241D01*
X750000Y779780D02*
X750000Y741000D01*
X734000D02*
X750000D01*
X381909Y822000D02*
X388000D01*
X381909D02*
Y828000D01*
Y822000D02*
Y828000D01*
X375000Y811000D02*
X381909Y822000D01*
X375000Y797000D02*
Y811000D01*
Y797000D02*
X423000Y796000D01*
X577500Y865000D02*
X585000Y840000D01*
X577300Y899000D02*
X577500Y865000D01*
X561000Y899000D02*
X577300D01*
X417000Y917000D02*
X423000D01*
Y923000D01*
Y917000D02*
X429698Y914000D01*
X478000D01*
X427000Y938500D02*
X443000Y933000D01*
X459000D01*
Y936000D01*
Y952000D01*
X428000Y984000D02*
Y988000D01*
X423000D02*
X428000D01*
X423000D02*
X428000D01*
X431000Y990000D01*
X453000D01*
X452637Y1005000D02*
X453000Y990000D01*
X368000Y944000D02*
X374000D01*
X367742Y938500D02*
X368000Y944000D01*
X367742Y938500D02*
X368000Y944000D01*
X382000Y948000D01*
X381909Y1000000D02*
X382000Y948000D01*
X366909Y1000000D02*
X381909D01*
X368000Y912000D02*
X374600D01*
X368000D02*
Y918000D01*
Y912000D02*
Y918000D01*
Y912000D02*
X378000Y909000D01*
Y859000D02*
Y909000D01*
X361000Y859000D02*
X378000D01*
X603000Y889000D02*
Y893000D01*
X607500D01*
X603000D02*
X607500D01*
X599409Y911000D02*
X603000Y893000D01*
X599409Y911000D02*
X649000D01*
Y927000D01*
X693000Y859000D02*
X694387Y847500D01*
X693000Y859000D02*
Y907000D01*
X677500D02*
X693000D01*
X712500Y844000D02*
Y849000D01*
X707000D02*
X712500D01*
X707000D02*
X712500D01*
X723000Y858000D01*
Y901000D01*
X674500Y757500D02*
X681000Y755000D01*
X726000Y754000D01*
Y770000D01*
X716000Y772000D02*
Y819000D01*
X697500Y772115D02*
X716000Y772000D01*
X694500Y791500D02*
X697500Y772115D01*
X562000Y835000D02*
X579000D01*
Y772115D02*
Y835000D01*
Y772115D02*
X583450D01*
X579000D02*
X583450D01*
X579000Y766000D02*
Y772115D01*
Y766000D02*
Y772000D01*
X648000Y726000D02*
Y730000D01*
X643000D02*
X648000D01*
X643000D02*
X648000D01*
X658000Y736000D01*
X707000D01*
Y749000D01*
X617000Y710000D02*
X618000Y683000D01*
X617000Y710000D02*
Y740000D01*
X600000D02*
X617000D01*
X1038000Y410000D02*
X1038239Y359746D01*
X1027500Y410000D02*
X1038000D01*
X1010000Y385000D02*
Y389000D01*
X1006690D02*
X1010000D01*
X1006690D02*
X1010000D01*
X1011000Y393000D01*
Y431000D01*
X996000D02*
X1011000D01*
X990000Y396000D02*
X995500Y359500D01*
X987000Y403000D02*
X990000Y396000D01*
X950000Y403000D02*
X987000D01*
X950000D02*
Y417000D01*
X925255Y360500D02*
X929000Y374000D01*
X948000D01*
Y367000D02*
Y374000D01*
X902000Y389000D02*
Y393000D01*
X899000D02*
X902000D01*
X899000D02*
X902000D01*
Y431000D01*
X888000D02*
X902000D01*
X880000Y394000D02*
X885500Y360500D01*
X877436Y399000D02*
X880000Y394000D01*
X839000Y399000D02*
X877436D01*
X839000D02*
Y414000D01*
X812500Y360500D02*
X816000Y378000D01*
X834000D01*
Y372000D02*
Y378000D01*
X789000Y387000D02*
Y391000D01*
X785000D02*
X789000D01*
X790500Y392000D01*
Y432000D01*
X775000D02*
X790500D01*
X769500Y385000D02*
X774000Y360500D01*
X766960Y397000D02*
X769500Y385000D01*
X724000Y397000D02*
X766960D01*
X724000D02*
Y412000D01*
X702500Y359500D02*
X705000Y376000D01*
X721000D01*
Y369000D02*
Y376000D01*
X678000Y388000D02*
X678000Y391000D01*
X675000D02*
X678000D01*
X675000D02*
X678000D01*
X679000Y394000D01*
Y430000D01*
X665000D02*
X679000D01*
X658000Y389000D02*
X663500Y359500D01*
X653000Y397000D02*
X658000Y389000D01*
X609000Y397000D02*
X653000D01*
X609000D02*
Y412000D01*
X610500Y372000D02*
Y377000D01*
X595000D02*
X610500D01*
X593500Y360500D02*
X595000Y377000D01*
X568000Y387000D02*
Y391000D01*
X564000D02*
X568000D01*
X564000D02*
X568000D01*
X570000Y394000D01*
Y432000D01*
X554409D02*
X570000D01*
X549000Y390000D02*
X552500Y360500D01*
X543000Y397000D02*
X549000Y390000D01*
X501000Y397000D02*
X543000D01*
X501000D02*
Y413000D01*
Y374000D02*
Y379000D01*
X484500D02*
X501000D01*
X481500Y360500D02*
X484500Y379000D01*
X443000Y434000D02*
X457000D01*
Y426000D02*
Y434000D01*
X455000Y386000D02*
Y391000D01*
X452000D02*
X455000D01*
X452000D02*
X455000D01*
X457000Y394000D01*
Y426000D01*
X434409Y390000D02*
X440500Y360500D01*
X426000Y399000D02*
X434409Y390000D01*
X383000Y399000D02*
X426000D01*
X383000D02*
Y413000D01*
X709000Y735000D02*
X709250Y683500D01*
X709000Y735000D02*
X722000Y735000D01*
X744000Y681000D02*
Y684000D01*
X740000D02*
X744000D01*
X745000Y689000D01*
X744000Y734000D02*
X745000Y689000D01*
X726250Y734000D02*
X744000D01*
X780000Y642000D02*
X780000Y628000D01*
X726250Y628500D02*
X780000Y628000D01*
X704500Y592500D02*
X758000Y593500D01*
Y608000D01*
X711000Y537500D02*
X732500Y520500D01*
X711000Y537500D02*
Y551000D01*
X868500Y537500D02*
X876000Y549000D01*
Y563000D01*
X786500Y568500D02*
X788000Y573000D01*
X815000D01*
Y587000D01*
X797500Y520270D02*
X837000Y519706D01*
Y535000D01*
X884500Y537500D02*
X898000Y542500D01*
Y555000D01*
X951909Y507000D02*
X954500Y524500D01*
X938000Y507000D02*
X951909D01*
X994500D02*
X1032000D01*
X994500D02*
Y524048D01*
X1016000Y622000D02*
X1024190Y626500D01*
X1016000Y574000D02*
Y622000D01*
X1002000Y574000D02*
X1016000D01*
X971000Y590000D02*
X971000Y594000D01*
X966000Y590000D02*
X971000Y590000D01*
X983860Y583000D01*
X998000Y582500D01*
X973360Y557500D02*
X980000Y555000D01*
X1030190Y555000D01*
X1030000Y566000D02*
X1030190Y555000D01*
X931000Y570000D02*
X933360Y572500D01*
X915000Y570000D02*
X931000D01*
X915000Y641000D02*
X920000D01*
X915000D02*
Y645000D01*
X914000Y638000D02*
X915000Y641000D01*
X914000Y600000D02*
Y638000D01*
X898000Y600000D02*
X914000D01*
X652500Y573000D02*
X658000D01*
Y579000D01*
Y573000D02*
X667500Y570000D01*
X718000Y570000D01*
Y582000D01*
X675710Y542500D02*
X681909Y553000D01*
X727500D01*
Y565000D01*
X685500Y498000D02*
X701000D01*
X685500D02*
Y516262D01*
X617000Y514000D02*
X620500Y516500D01*
X602000Y514000D02*
X617000D01*
X451000Y603000D02*
X453000Y656000D01*
X437000D02*
X453000D01*
X473791Y602500D02*
Y655000D01*
X460000D02*
X473791D01*
X433000Y546000D02*
X436500Y547500D01*
X418270Y546000D02*
X433000D01*
X394000Y531000D02*
X398500Y529500D01*
X381000Y531000D02*
X394000D01*
X381000D02*
Y545000D01*
X437000Y532000D02*
X441000Y529500D01*
X437000Y532000D02*
X475000D01*
X437000D02*
Y543000D01*
X575500Y512198D02*
X579000Y512000D01*
X595000D01*
Y528000D01*
X527000Y546000D02*
X534500Y529500D01*
X508000Y546000D02*
X527000D01*
X508000D02*
Y559000D01*
X543000Y570000D02*
X548000Y567500D01*
X511000Y570000D02*
X543000Y570000D01*
X511000Y570000D02*
Y582000D01*
X579000Y554000D02*
X631320Y553500D01*
X579000Y554000D02*
Y566000D01*
X606000Y590000D02*
X615550Y593500D01*
X606000Y572500D02*
Y590000D01*
X591909Y572500D02*
X606000D01*
X580000Y658000D02*
X583000D01*
X580000D02*
Y662000D01*
X550500Y634000D02*
X580000Y658000D01*
X550500Y588000D02*
Y634000D01*
X538000Y588000D02*
X550500D01*
X565000Y634000D02*
X594500Y658500D01*
X565000Y587000D02*
Y634000D01*
X553000Y587000D02*
X565000D01*
X581000D02*
X593500Y628000D01*
X568000Y587000D02*
X581000D01*
X971000Y830000D02*
X977000D01*
X974000Y827000D02*
Y833000D01*
Y847000D02*
Y853000D01*
X971000Y850000D02*
X977000D01*
X436042Y460942D02*
Y499058D01*
X401760Y495240D02*
X409380D01*
X405570Y491430D02*
Y499050D01*
X547272Y460942D02*
Y499058D01*
X512990Y495240D02*
X520610D01*
X516800Y491430D02*
Y499050D01*
X658502Y460942D02*
Y499058D01*
X624220Y495240D02*
X631840D01*
X628030Y491430D02*
Y499050D01*
X769732Y460942D02*
Y499058D01*
X735450Y495240D02*
X743070D01*
X739260Y491430D02*
Y499050D01*
X880962Y460942D02*
Y499058D01*
X846680Y495240D02*
X854300D01*
X850490Y491430D02*
Y499050D01*
X992192Y460942D02*
Y499058D01*
X957910Y495240D02*
X965530D01*
X961720Y491430D02*
Y499050D01*
D16*
X366234Y1136031D02*
X385736Y1108180D01*
X420140Y1132270D01*
X400639Y1160121D02*
X420140Y1132270D01*
X366234Y1136031D02*
X400639Y1160121D01*
D17*
X548500Y1336998D02*
D03*
X501500Y1270001D02*
D03*
M02*
