G04*
G04 #@! TF.GenerationSoftware,Altium Limited,Altium Designer,19.0.10 (269)*
G04*
G04 Layer_Color=16711935*
%FSLAX44Y44*%
%MOMM*%
G71*
G01*
G75*
%ADD10C,0.2540*%
%ADD15C,0.1270*%
D10*
X575500Y723000D02*
Y771000D01*
X528000D02*
X575500D01*
Y658000D02*
Y723000D01*
X480500Y771000D02*
X528000D01*
X480500Y723000D02*
Y771000D01*
Y658000D02*
X575500D01*
X480500D02*
Y723000D01*
Y658000D02*
Y723000D01*
X503000Y648000D02*
X553000D01*
X471500Y723000D02*
X528000D01*
Y648000D02*
Y723000D01*
X584500D01*
X528000Y648000D02*
X553000D01*
X862000D02*
X887000D01*
X862000Y723000D02*
X918500D01*
X862000Y648000D02*
Y723000D01*
X805500D02*
X862000D01*
X837000Y648000D02*
X887000D01*
X814500Y658000D02*
Y723000D01*
Y658000D02*
Y723000D01*
Y658000D02*
X909500D01*
X814500Y723000D02*
Y771000D01*
X862000D01*
X909500Y658000D02*
Y723000D01*
X862000Y771000D02*
X909500D01*
Y723000D02*
Y771000D01*
Y995000D02*
Y1043000D01*
X862000D02*
X909500D01*
Y930000D02*
Y995000D01*
X814500Y1043000D02*
X862000D01*
X814500Y995000D02*
Y1043000D01*
Y930000D02*
X909500D01*
X814500D02*
Y995000D01*
Y930000D02*
Y995000D01*
X837000Y920000D02*
X887000D01*
X805500Y995000D02*
X862000D01*
Y920000D02*
Y995000D01*
X918500D01*
X862000Y920000D02*
X887000D01*
X528000Y919000D02*
X553000D01*
X528000Y994000D02*
X584500D01*
X528000Y919000D02*
Y994000D01*
X471500D02*
X528000D01*
X503000Y919000D02*
X553000D01*
X480500Y929000D02*
Y994000D01*
Y929000D02*
Y994000D01*
Y929000D02*
X575500D01*
X480500Y994000D02*
Y1042000D01*
X528000D01*
X575500Y929000D02*
Y994000D01*
X528000Y1042000D02*
X575500D01*
Y994000D02*
Y1042000D01*
X812920Y323100D02*
Y432000D01*
Y323000D02*
X910820D01*
Y432000D01*
X812620Y432000D02*
X910720D01*
X368000Y323100D02*
Y432000D01*
Y323000D02*
X465900D01*
Y432000D01*
X367700Y432000D02*
X465800D01*
X479230Y323100D02*
Y432000D01*
Y323000D02*
X577130D01*
Y432000D01*
X478930Y432000D02*
X577030D01*
X590460Y323100D02*
Y432000D01*
Y323000D02*
X688360D01*
Y432000D01*
X590160Y432000D02*
X688260D01*
X701690Y323100D02*
Y432000D01*
Y323000D02*
X799590D01*
Y432000D01*
X701390Y432000D02*
X799490D01*
X924150Y323100D02*
Y432000D01*
Y323000D02*
X1022050D01*
Y432000D01*
X923850Y432000D02*
X1021950D01*
X350000Y275000D02*
X1040000D01*
Y275000D02*
Y1375000D01*
X350000D02*
X1040000D01*
X350000Y275000D02*
Y1375000D01*
D15*
X861920Y375000D02*
X908920D01*
X814920D02*
X861920D01*
Y342000D02*
Y375000D01*
Y424000D01*
X417000Y375000D02*
X464000D01*
X370000D02*
X417000D01*
Y342000D02*
Y375000D01*
Y424000D01*
X528230Y375000D02*
X575230D01*
X481230D02*
X528230D01*
Y342000D02*
Y375000D01*
Y424000D01*
X639460Y375000D02*
X686460D01*
X592460D02*
X639460D01*
Y342000D02*
Y375000D01*
Y424000D01*
X750690Y375000D02*
X797690D01*
X703690D02*
X750690D01*
Y342000D02*
Y375000D01*
Y424000D01*
X973150Y375000D02*
X1020150D01*
X926150D02*
X973150D01*
Y342000D02*
Y375000D01*
Y424000D01*
X810000Y1155000D02*
X862000D01*
X914000D01*
X862000Y1080000D02*
X887000D01*
X837000D02*
X862000D01*
Y1155000D01*
X837000Y1225000D02*
X862000D01*
X887000D01*
X862000Y1155000D02*
Y1225000D01*
X920400Y1215000D02*
X920500Y1155000D01*
X920600Y1095000D01*
X803400Y1215000D02*
X803500Y1155000D01*
X803600Y1095000D01*
X862100D01*
X920600D01*
X803400Y1215000D02*
X861900D01*
X920400D01*
X528000Y375000D02*
Y1001000D01*
X861690Y692000D02*
X861920Y375000D01*
X973150D02*
Y480000D01*
X861920Y375000D02*
Y480000D01*
X750690Y375000D02*
Y480000D01*
X639460Y375000D02*
Y480000D01*
X528230Y375000D02*
Y480000D01*
X417000Y375000D02*
Y480000D01*
Y275000D02*
Y375000D01*
X973150D02*
X1041150D01*
X349000D02*
X417000D01*
X861920D02*
X973150D01*
X750690D02*
X861920D01*
X639460D02*
X750690D01*
X528230D02*
X639460D01*
X417000D02*
X528230D01*
M02*
