G04*
G04 #@! TF.GenerationSoftware,Altium Limited,Altium Designer,19.0.10 (269)*
G04*
G04 Layer_Physical_Order=2*
G04 Layer_Color=16711680*
%FSLAX44Y44*%
%MOMM*%
G71*
G01*
G75*
%ADD13C,0.2500*%
%ADD22R,0.9000X0.8000*%
%ADD24R,0.9000X0.8000*%
%ADD67C,0.5000*%
%ADD68C,0.1520*%
%ADD70O,2.0000X1.2000*%
G04:AMPARAMS|DCode=71|XSize=2.65mm|YSize=3.5mm|CornerRadius=0.6625mm|HoleSize=0mm|Usage=FLASHONLY|Rotation=180.000|XOffset=0mm|YOffset=0mm|HoleType=Round|Shape=RoundedRectangle|*
%AMROUNDEDRECTD71*
21,1,2.6500,2.1750,0,0,180.0*
21,1,1.3250,3.5000,0,0,180.0*
1,1,1.3250,-0.6625,1.0875*
1,1,1.3250,0.6625,1.0875*
1,1,1.3250,0.6625,-1.0875*
1,1,1.3250,-0.6625,-1.0875*
%
%ADD71ROUNDEDRECTD71*%
G04:AMPARAMS|DCode=72|XSize=2.7mm|YSize=3.5mm|CornerRadius=0.675mm|HoleSize=0mm|Usage=FLASHONLY|Rotation=0.000|XOffset=0mm|YOffset=0mm|HoleType=Round|Shape=RoundedRectangle|*
%AMROUNDEDRECTD72*
21,1,2.7000,2.1500,0,0,0.0*
21,1,1.3500,3.5000,0,0,0.0*
1,1,1.3500,0.6750,-1.0750*
1,1,1.3500,-0.6750,-1.0750*
1,1,1.3500,-0.6750,1.0750*
1,1,1.3500,0.6750,1.0750*
%
%ADD72ROUNDEDRECTD72*%
%ADD73C,1.7000*%
G04:AMPARAMS|DCode=74|XSize=2mm|YSize=3.25mm|CornerRadius=0.5mm|HoleSize=0mm|Usage=FLASHONLY|Rotation=0.000|XOffset=0mm|YOffset=0mm|HoleType=Round|Shape=RoundedRectangle|*
%AMROUNDEDRECTD74*
21,1,2.0000,2.2500,0,0,0.0*
21,1,1.0000,3.2500,0,0,0.0*
1,1,1.0000,0.5000,-1.1250*
1,1,1.0000,-0.5000,-1.1250*
1,1,1.0000,-0.5000,1.1250*
1,1,1.0000,0.5000,1.1250*
%
%ADD74ROUNDEDRECTD74*%
G04:AMPARAMS|DCode=75|XSize=1.5mm|YSize=2mm|CornerRadius=0.375mm|HoleSize=0mm|Usage=FLASHONLY|Rotation=180.000|XOffset=0mm|YOffset=0mm|HoleType=Round|Shape=RoundedRectangle|*
%AMROUNDEDRECTD75*
21,1,1.5000,1.2500,0,0,180.0*
21,1,0.7500,2.0000,0,0,180.0*
1,1,0.7500,-0.3750,0.6250*
1,1,0.7500,0.3750,0.6250*
1,1,0.7500,0.3750,-0.6250*
1,1,0.7500,-0.3750,-0.6250*
%
%ADD75ROUNDEDRECTD75*%
G04:AMPARAMS|DCode=76|XSize=3.1mm|YSize=1.2mm|CornerRadius=0.3mm|HoleSize=0mm|Usage=FLASHONLY|Rotation=0.000|XOffset=0mm|YOffset=0mm|HoleType=Round|Shape=RoundedRectangle|*
%AMROUNDEDRECTD76*
21,1,3.1000,0.6000,0,0,0.0*
21,1,2.5000,1.2000,0,0,0.0*
1,1,0.6000,1.2500,-0.3000*
1,1,0.6000,-1.2500,-0.3000*
1,1,0.6000,-1.2500,0.3000*
1,1,0.6000,1.2500,0.3000*
%
%ADD76ROUNDEDRECTD76*%
%ADD77C,0.8000*%
%ADD78R,1.5000X1.5000*%
%ADD79C,1.5000*%
%ADD80R,1.5000X1.5000*%
%ADD81O,2.5000X3.0000*%
%ADD82C,2.0000*%
%ADD83O,1.2000X2.0000*%
%ADD84R,1.6510X1.6510*%
%ADD85C,1.6510*%
%ADD86R,2.0000X2.0000*%
%ADD87C,0.5000*%
%ADD88R,1.5000X1.6000*%
%ADD89R,1.2000X1.2000*%
%ADD90R,1.3500X1.3500*%
%ADD91R,0.8500X1.4000*%
%ADD92R,1.1684X1.6002*%
G36*
X936000Y1325609D02*
X936000Y1133913D01*
X935018Y1133108D01*
X935000Y1133111D01*
X933049Y1132723D01*
X931395Y1131618D01*
X930290Y1129964D01*
X929902Y1128013D01*
X930290Y1126062D01*
X931037Y1124945D01*
X931214Y1124115D01*
X930728Y1123327D01*
X929647Y1122605D01*
X928542Y1120951D01*
X928154Y1119000D01*
X928542Y1117049D01*
X929647Y1115395D01*
X931301Y1114290D01*
X933252Y1113902D01*
X933583Y1113968D01*
X935649Y1111902D01*
X935615Y1110989D01*
X934478Y1110084D01*
X934409Y1110098D01*
X932458Y1109710D01*
X930804Y1108605D01*
X929699Y1106951D01*
X929311Y1105000D01*
X929699Y1103049D01*
X930804Y1101395D01*
X931677Y1100812D01*
X932058Y1100241D01*
X932394Y1099905D01*
X932290Y1099563D01*
X931882Y1098621D01*
X930382Y1097618D01*
X929277Y1095964D01*
X928889Y1094013D01*
X929277Y1092062D01*
X930382Y1090408D01*
X932036Y1089303D01*
X933987Y1088915D01*
X934318Y1088981D01*
X935552Y1087748D01*
X934926Y1086577D01*
X934409Y1086680D01*
X932458Y1086292D01*
X930804Y1085187D01*
X929699Y1083533D01*
X929311Y1081582D01*
X929699Y1079631D01*
X930804Y1077977D01*
X931564Y1077469D01*
Y1075942D01*
X930804Y1075434D01*
X929699Y1073780D01*
X929311Y1071829D01*
X929699Y1069878D01*
X930804Y1068224D01*
X932296Y1067227D01*
X932325Y1066575D01*
X932162Y1065906D01*
X932049Y1065883D01*
X930395Y1064778D01*
X929290Y1063124D01*
X928902Y1061173D01*
X929290Y1059222D01*
X930395Y1057568D01*
X932049Y1056463D01*
X934000Y1056075D01*
X934331Y1056141D01*
X936000Y1054473D01*
Y1035000D01*
X948000Y1024857D01*
X948000Y889786D01*
X947045Y888949D01*
X947000Y888955D01*
X945303Y888731D01*
X943722Y888076D01*
X942364Y887034D01*
X941322Y885677D01*
X940667Y884095D01*
X940444Y882399D01*
X940667Y880702D01*
X941322Y879120D01*
X942364Y877763D01*
X943722Y876721D01*
X945303Y876066D01*
X947000Y875842D01*
X947045Y875848D01*
X948000Y875011D01*
X948000Y613000D01*
X948000D01*
Y583000D01*
X601000D01*
Y603576D01*
X601697Y603667D01*
X603278Y604322D01*
X604636Y605364D01*
X605677Y606722D01*
X606333Y608303D01*
X606556Y610000D01*
X606333Y611697D01*
X605677Y613278D01*
X604636Y614636D01*
X603278Y615678D01*
X601697Y616333D01*
X601000Y616424D01*
Y687005D01*
X602270Y688047D01*
X603000Y687902D01*
X604951Y688290D01*
X606605Y689395D01*
X607710Y691049D01*
X608098Y693000D01*
X607710Y694951D01*
X606605Y696605D01*
X604951Y697710D01*
X603000Y698098D01*
X602270Y697953D01*
X601000Y698995D01*
Y719008D01*
X601140Y719345D01*
X601621Y723000D01*
X601140Y726655D01*
X601000Y726992D01*
Y734000D01*
X600784Y734216D01*
X600515Y736257D01*
X599596Y738477D01*
X598133Y740383D01*
X596227Y741846D01*
X594007Y742765D01*
X593000Y742898D01*
Y777000D01*
X646000D01*
Y726147D01*
X645018Y725341D01*
X644950Y725355D01*
X642999Y724967D01*
X641345Y723862D01*
X640240Y722208D01*
X639852Y720257D01*
X640240Y718306D01*
X641345Y716652D01*
X642999Y715547D01*
X644950Y715159D01*
X645018Y715173D01*
X646000Y714367D01*
Y653013D01*
X645290Y651951D01*
X644902Y650000D01*
X645290Y648049D01*
X646000Y646987D01*
Y613000D01*
X676447D01*
X683293D01*
D01*
X889000Y613000D01*
Y637168D01*
X889872Y637283D01*
X892548Y638391D01*
X894845Y640155D01*
X896609Y642453D01*
X897717Y645128D01*
X898095Y648000D01*
X897717Y650872D01*
X896609Y653547D01*
X894845Y655845D01*
X892548Y657608D01*
X890823Y658323D01*
Y909677D01*
X892548Y910391D01*
X894845Y912155D01*
X896609Y914453D01*
X897717Y917128D01*
X898095Y920000D01*
X897717Y922872D01*
X896609Y925547D01*
X894845Y927845D01*
X892548Y929609D01*
X890823Y930322D01*
Y987722D01*
X891710Y989049D01*
X892098Y991000D01*
X891710Y992951D01*
X890605Y994605D01*
X889000Y995677D01*
X889000Y1067655D01*
X890263Y1067822D01*
X893304Y1069081D01*
X895915Y1071085D01*
X897919Y1073696D01*
X899178Y1076737D01*
X899608Y1080000D01*
X899178Y1083263D01*
X897919Y1086304D01*
X895915Y1088915D01*
X893304Y1090919D01*
X890263Y1092178D01*
X889000Y1092345D01*
Y1212655D01*
X890263Y1212822D01*
X893304Y1214081D01*
X895915Y1216085D01*
X897919Y1218696D01*
X899178Y1221737D01*
X899608Y1225000D01*
X899178Y1228263D01*
X897919Y1231304D01*
X895915Y1233915D01*
X893304Y1235919D01*
X890263Y1237178D01*
X889000Y1237345D01*
Y1324000D01*
X708650Y1324000D01*
X708024Y1325270D01*
X708460Y1325838D01*
X709320Y1327916D01*
X709446Y1328875D01*
X697000D01*
X684554D01*
X684680Y1327916D01*
X685540Y1325838D01*
X685976Y1325270D01*
X685350Y1324000D01*
X661590Y1324000D01*
X661337Y1325270D01*
X661379Y1325287D01*
X662745Y1326336D01*
X663793Y1327702D01*
X664453Y1329293D01*
X664510Y1329730D01*
X658081D01*
X651652D01*
X651709Y1329293D01*
X652368Y1327702D01*
X653417Y1326336D01*
X654783Y1325287D01*
X654825Y1325270D01*
X654572Y1324000D01*
X617730D01*
X617730Y1331460D01*
X619750D01*
Y1341000D01*
Y1350540D01*
X617730D01*
X617730Y1357000D01*
X730730Y1357000D01*
Y1357000D01*
X846359Y1357000D01*
X936000Y1357000D01*
X936000Y1325609D01*
D02*
G37*
G36*
X815160Y1282540D02*
X885119Y1282540D01*
Y1237360D01*
X883737Y1237178D01*
X880696Y1235919D01*
X878085Y1233915D01*
X876081Y1231304D01*
X874822Y1228263D01*
X874392Y1225000D01*
X874822Y1221737D01*
X875849Y1219256D01*
X859296Y1202704D01*
X858468Y1201463D01*
X858177Y1200000D01*
Y1091946D01*
X855696Y1090919D01*
X853085Y1088915D01*
X851081Y1086304D01*
X850187Y1084146D01*
X848813D01*
X847919Y1086304D01*
X845915Y1088915D01*
X843304Y1090919D01*
X840263Y1092178D01*
X837000Y1092608D01*
X833737Y1092178D01*
X830696Y1090919D01*
X828085Y1088915D01*
X826081Y1086304D01*
X824822Y1083263D01*
X824392Y1080000D01*
X824822Y1076737D01*
X826081Y1073696D01*
X828085Y1071085D01*
X830696Y1069081D01*
X833737Y1067822D01*
X835955Y1067530D01*
D01*
X837000Y1067392D01*
X840263Y1067822D01*
X843304Y1069081D01*
X845915Y1071085D01*
X847919Y1073696D01*
X848813Y1075854D01*
X850187D01*
X851081Y1073696D01*
X853085Y1071085D01*
X855696Y1069081D01*
X858737Y1067822D01*
X862000Y1067392D01*
X865263Y1067822D01*
X868304Y1069081D01*
X870915Y1071085D01*
X872919Y1073696D01*
X873813Y1075854D01*
D01*
D01*
X875187D01*
X876081Y1073696D01*
X878085Y1071085D01*
X880696Y1069081D01*
X883737Y1067822D01*
X885057Y1067648D01*
D01*
X885119Y1067640D01*
Y995724D01*
X885049Y995710D01*
X883395Y994605D01*
X882290Y992951D01*
X881902Y991000D01*
X882290Y989049D01*
X883177Y987722D01*
Y930322D01*
X881452Y929609D01*
X879155Y927845D01*
X877392Y925547D01*
X876283Y922872D01*
X875905Y920000D01*
X876283Y917128D01*
X877392Y914453D01*
X879155Y912155D01*
X881452Y910391D01*
X883177Y909677D01*
Y697540D01*
X879392D01*
Y691000D01*
X877392D01*
Y689000D01*
X870352D01*
Y686000D01*
Y686000D01*
X714000D01*
X695000Y705000D01*
X654000D01*
X649000Y710000D01*
Y734000D01*
X789701D01*
X789920Y733750D01*
Y731285D01*
X788575Y728768D01*
X787717Y725940D01*
X787428Y723000D01*
X787717Y720060D01*
X788575Y717232D01*
X789920Y714715D01*
Y712250D01*
X790238Y709835D01*
X791170Y707585D01*
X792653Y705653D01*
X794585Y704170D01*
X796835Y703238D01*
X799250Y702920D01*
X812750D01*
X815165Y703238D01*
X817415Y704170D01*
X819347Y705653D01*
X820830Y707585D01*
X821762Y709835D01*
X822080Y712250D01*
Y714715D01*
X823425Y717232D01*
X824283Y720060D01*
X824573Y723000D01*
X824283Y725940D01*
X823425Y728768D01*
X822080Y731285D01*
Y733750D01*
X822299Y734000D01*
X835000D01*
Y752402D01*
X836270Y753516D01*
X836819Y753444D01*
X838516Y753667D01*
X840097Y754322D01*
X841455Y755364D01*
X842497Y756722D01*
X843152Y758303D01*
X843375Y760000D01*
X843152Y761697D01*
X842497Y763278D01*
X841455Y764636D01*
X840097Y765678D01*
X838516Y766333D01*
X836819Y766556D01*
X836270Y766484D01*
X835000Y767598D01*
Y793345D01*
X836270Y794345D01*
X837289Y794143D01*
X851241D01*
X853192Y794531D01*
X854846Y795636D01*
X858605Y799395D01*
X859710Y801049D01*
X860098Y803000D01*
Y837633D01*
X860710Y838549D01*
X861098Y840500D01*
X860710Y842451D01*
X859605Y844105D01*
X857951Y845210D01*
X856000Y845598D01*
X854049Y845210D01*
X852395Y844105D01*
X851395Y843105D01*
X850290Y841451D01*
X849902Y839500D01*
Y805112D01*
X849129Y804339D01*
X845228D01*
Y811152D01*
X844936Y813371D01*
X844080Y815438D01*
X842717Y817214D01*
X840941Y818576D01*
X838874Y819433D01*
X836655Y819725D01*
X835955Y819633D01*
X835000Y820470D01*
Y870000D01*
X715314D01*
X715278Y870028D01*
X713697Y870683D01*
X712000Y870906D01*
X710303Y870683D01*
X708722Y870028D01*
X708686Y870000D01*
X617000D01*
Y896729D01*
X618171Y897994D01*
X835000Y897068D01*
X835000Y908205D01*
X835955Y909043D01*
X837000Y908905D01*
X839872Y909283D01*
X842548Y910391D01*
X844845Y912155D01*
X846609Y914453D01*
X847717Y917128D01*
X848095Y920000D01*
X847717Y922872D01*
X846609Y925547D01*
X844845Y927845D01*
X842548Y929609D01*
X839872Y930717D01*
X837000Y931095D01*
X835955Y930957D01*
X835000Y931795D01*
Y1035000D01*
X791137D01*
X785000Y1041137D01*
Y1078987D01*
X785710Y1080049D01*
X786098Y1082000D01*
X785710Y1083951D01*
X785000Y1085013D01*
Y1138575D01*
X804232D01*
X807059Y1137717D01*
X810000Y1137427D01*
X812941Y1137717D01*
X815768Y1138575D01*
X835000D01*
X835000Y1211692D01*
X835955Y1212530D01*
X837000Y1212392D01*
X840263Y1212822D01*
X843304Y1214081D01*
X845915Y1216085D01*
X847919Y1218696D01*
X849178Y1221737D01*
X849608Y1225000D01*
X849178Y1228263D01*
X847919Y1231304D01*
X845915Y1233915D01*
X843304Y1235919D01*
X840263Y1237178D01*
X837000Y1237608D01*
X835955Y1237470D01*
X835000Y1238308D01*
Y1249000D01*
X828009Y1249000D01*
X827605Y1249605D01*
X825951Y1250710D01*
X824000Y1251098D01*
X822049Y1250710D01*
X820722Y1249823D01*
X796419D01*
X794956Y1249532D01*
X794017Y1248905D01*
X633160Y1248905D01*
X617000D01*
Y1256460D01*
X619750D01*
Y1266000D01*
Y1275540D01*
X617000D01*
Y1283000D01*
X646020D01*
X646582Y1281861D01*
X646540Y1281807D01*
X645680Y1279729D01*
X645554Y1278770D01*
X658000D01*
X670446D01*
X670320Y1279729D01*
X669460Y1281807D01*
X669418Y1281861D01*
X669980Y1283000D01*
X675402D01*
X676029Y1281730D01*
X675697Y1281298D01*
X675038Y1279707D01*
X674981Y1279270D01*
X681410D01*
X687839D01*
X687782Y1279707D01*
X687123Y1281298D01*
X686792Y1281730D01*
X687418Y1283000D01*
X815160D01*
Y1282540D01*
D02*
G37*
G36*
X832451Y1246451D02*
Y1238308D01*
X832467Y1238225D01*
X832457Y1238141D01*
X832564Y1237740D01*
X832645Y1237332D01*
X831865Y1236403D01*
X830696Y1235919D01*
X828085Y1233915D01*
X826081Y1231304D01*
X825127Y1229000D01*
X786486D01*
X786000Y1230173D01*
X798003Y1242177D01*
X820722D01*
X822049Y1241290D01*
X824000Y1240902D01*
X825951Y1241290D01*
X827605Y1242395D01*
X828710Y1244049D01*
X829098Y1246000D01*
X829468Y1246451D01*
X832451Y1246451D01*
D02*
G37*
G36*
X1040000Y1374000D02*
Y1229000D01*
X938549D01*
Y1324000D01*
X938549Y1357000D01*
X938355Y1357975D01*
X937802Y1358802D01*
X936975Y1359355D01*
X936000Y1359549D01*
X846359Y1359549D01*
X730730Y1359549D01*
X730730Y1359549D01*
X617730Y1359549D01*
X616754Y1359355D01*
X615928Y1358802D01*
X615375Y1357975D01*
X615181Y1357000D01*
X615181Y1350540D01*
X615148Y1350500D01*
X615000D01*
Y1331500D01*
X615000D01*
X615181Y1330230D01*
X615181Y1324000D01*
X615375Y1323024D01*
X615928Y1322198D01*
X616754Y1321645D01*
X617730Y1321451D01*
X654572D01*
X654818Y1321500D01*
X655069D01*
X655301Y1321596D01*
X655547Y1321645D01*
X655756Y1321785D01*
X655988Y1321881D01*
X656165Y1322058D01*
X656374Y1322198D01*
X656514Y1322406D01*
X656691Y1322584D01*
X656787Y1322816D01*
X656927Y1323024D01*
X656976Y1323271D01*
X657072Y1323503D01*
X657280Y1324549D01*
X658081Y1324444D01*
X658882Y1324549D01*
X659090Y1323503D01*
X659186Y1323271D01*
X659235Y1323024D01*
X659374Y1322816D01*
X659470Y1322584D01*
X659648Y1322406D01*
X659787Y1322198D01*
X659996Y1322058D01*
X660174Y1321881D01*
X660406Y1321785D01*
X660614Y1321645D01*
X660861Y1321596D01*
X661093Y1321500D01*
X661344D01*
X661590Y1321451D01*
X685350Y1321451D01*
X685496Y1321480D01*
X685960Y1320971D01*
X686198Y1320309D01*
X685540Y1319452D01*
X684680Y1317374D01*
X684554Y1316415D01*
X697000D01*
X709446D01*
X709320Y1317374D01*
X708460Y1319452D01*
X707802Y1320309D01*
X708041Y1320972D01*
X708504Y1321480D01*
X708650Y1321451D01*
X886451Y1321451D01*
Y1286068D01*
X885181Y1285077D01*
X885119Y1285089D01*
X816533Y1285089D01*
X816135Y1285355D01*
X815160Y1285549D01*
X687418D01*
X687010Y1285468D01*
X686598Y1285414D01*
X686525Y1285371D01*
X686442Y1285355D01*
X686097Y1285124D01*
X685737Y1284916D01*
X685686Y1284849D01*
X685615Y1284802D01*
X685511Y1284647D01*
X684688Y1283678D01*
X683107Y1284333D01*
X681410Y1284556D01*
X679713Y1284333D01*
X678132Y1283678D01*
X677309Y1284647D01*
X677205Y1284802D01*
X677134Y1284849D01*
X677083Y1284916D01*
X676723Y1285124D01*
X676378Y1285355D01*
X676295Y1285371D01*
X676222Y1285414D01*
X675810Y1285468D01*
X675402Y1285549D01*
X669980D01*
X669572Y1285468D01*
X669161Y1285414D01*
X669087Y1285371D01*
X669005Y1285355D01*
X668999Y1285351D01*
X668327Y1285532D01*
X668184Y1286062D01*
X668155Y1286493D01*
X669460Y1288193D01*
X670320Y1290271D01*
X670446Y1291230D01*
X658000D01*
X645554D01*
X645680Y1290271D01*
X646540Y1288193D01*
X647845Y1286493D01*
X647816Y1286062D01*
X647673Y1285532D01*
X647001Y1285351D01*
X646996Y1285355D01*
X646913Y1285371D01*
X646839Y1285414D01*
X646428Y1285468D01*
X646020Y1285549D01*
X617000D01*
X616025Y1285355D01*
X615198Y1284802D01*
X614645Y1283975D01*
X614451Y1283000D01*
Y1275540D01*
X614645Y1274565D01*
X615000Y1274033D01*
Y1257967D01*
X614645Y1257436D01*
X614451Y1256460D01*
Y1248905D01*
X614645Y1247930D01*
X615198Y1247103D01*
X616025Y1246550D01*
X617000Y1246356D01*
X633160D01*
X789708Y1246356D01*
X790194Y1245183D01*
X776924Y1231912D01*
X776095Y1230671D01*
X775804Y1229208D01*
Y1229000D01*
X530040D01*
Y1232500D01*
X523000D01*
X515960D01*
Y1229000D01*
X408976D01*
X408414Y1230139D01*
X408735Y1230557D01*
X409743Y1232990D01*
X410086Y1235600D01*
X409743Y1238211D01*
X408735Y1240643D01*
X407132Y1242732D01*
X405043Y1244335D01*
X402611Y1245343D01*
X400000Y1245686D01*
X397389Y1245343D01*
X394957Y1244335D01*
X392868Y1242732D01*
X391265Y1240643D01*
X390257Y1238211D01*
X389914Y1235600D01*
X390257Y1232990D01*
X391265Y1230557D01*
X391586Y1230139D01*
X391024Y1229000D01*
X383576D01*
X383014Y1230139D01*
X383335Y1230557D01*
X384343Y1232990D01*
X384686Y1235600D01*
X384343Y1238211D01*
X383335Y1240643D01*
X381732Y1242732D01*
X379643Y1244335D01*
X377211Y1245343D01*
X374600Y1245686D01*
X371990Y1245343D01*
X369557Y1244335D01*
X367468Y1242732D01*
X365865Y1240643D01*
X364857Y1238211D01*
X364514Y1235600D01*
X364857Y1232990D01*
X365865Y1230557D01*
X366186Y1230139D01*
X365624Y1229000D01*
X350000D01*
Y1375000D01*
X1039000D01*
X1040000Y1374000D01*
D02*
G37*
G36*
X801626Y1224827D02*
X784558Y1207759D01*
X783838Y1206681D01*
X783585Y1205409D01*
Y1182762D01*
X783838Y1181490D01*
X783955Y1181314D01*
Y1180985D01*
X780601Y1177630D01*
X779880Y1176552D01*
X779627Y1175280D01*
Y1149397D01*
X779346Y1149210D01*
X778241Y1147556D01*
X777853Y1145605D01*
X778241Y1143654D01*
X779346Y1142000D01*
X781000Y1140895D01*
X781897Y1140716D01*
X782409Y1139919D01*
X782592Y1139283D01*
X782451Y1138575D01*
Y1123909D01*
X781278Y1123423D01*
X774032Y1130669D01*
X774098Y1131000D01*
X773710Y1132951D01*
X772605Y1134605D01*
X770951Y1135710D01*
X769000Y1136098D01*
X767049Y1135710D01*
X765395Y1134605D01*
X764290Y1132951D01*
X763902Y1131000D01*
X764290Y1129049D01*
X765162Y1127745D01*
X765047Y1126751D01*
X764789Y1126273D01*
X763355Y1125315D01*
X762250Y1123661D01*
X761862Y1121710D01*
X762250Y1119759D01*
X763355Y1118105D01*
X765009Y1117000D01*
X766960Y1116612D01*
X767526Y1116724D01*
X768974Y1115276D01*
X768933Y1115165D01*
X767951Y1114294D01*
X766000Y1114682D01*
X764049Y1114294D01*
X762395Y1113188D01*
X761290Y1111535D01*
X760902Y1109584D01*
X761290Y1107633D01*
X762177Y1106306D01*
Y1054730D01*
X762468Y1053267D01*
X763296Y1052026D01*
X780150Y1035173D01*
X779663Y1034000D01*
X593422Y1034000D01*
X592951Y1034315D01*
X591000Y1034703D01*
X590883Y1034679D01*
X590257Y1035850D01*
X601704Y1047296D01*
X602532Y1048537D01*
X602823Y1050000D01*
Y1081110D01*
X603997Y1081596D01*
X613846Y1071746D01*
X615087Y1070918D01*
X616550Y1070627D01*
X631550D01*
Y1064450D01*
X651550D01*
Y1084450D01*
X631550D01*
Y1078273D01*
X618134D01*
X602823Y1093584D01*
Y1108000D01*
Y1115416D01*
X615584Y1128177D01*
X681000D01*
X682463Y1128468D01*
X683704Y1129296D01*
X692584Y1138177D01*
X701722D01*
X703049Y1137290D01*
X705000Y1136902D01*
X706951Y1137290D01*
X708605Y1138395D01*
X709710Y1140049D01*
X710098Y1142000D01*
X709710Y1143951D01*
X708605Y1145605D01*
X706951Y1146710D01*
X705000Y1147098D01*
X703049Y1146710D01*
X701722Y1145823D01*
X693532D01*
X693344Y1146105D01*
X691690Y1147210D01*
X689740Y1147598D01*
X687789Y1147210D01*
X686135Y1146105D01*
X685030Y1144451D01*
X684641Y1142500D01*
X684882Y1141290D01*
X679416Y1135823D01*
X614000D01*
X612537Y1135532D01*
X611296Y1134704D01*
X597416Y1120823D01*
X545084D01*
X539521Y1126386D01*
X539210Y1127951D01*
X538105Y1129605D01*
X536451Y1130710D01*
X536388Y1130722D01*
X535817Y1132131D01*
X536080Y1132524D01*
X536333Y1133796D01*
Y1135208D01*
X536614Y1135395D01*
X537719Y1137049D01*
X538107Y1139000D01*
X537719Y1140951D01*
X536614Y1142605D01*
X534960Y1143710D01*
X533658Y1143969D01*
X533472Y1145301D01*
X533614Y1145395D01*
X534719Y1147049D01*
X535107Y1149000D01*
X534719Y1150951D01*
X533614Y1152605D01*
X531960Y1153710D01*
X530009Y1154098D01*
X528058Y1153710D01*
X526404Y1152605D01*
X525939Y1151908D01*
X524614Y1151605D01*
X522960Y1152710D01*
X521009Y1153098D01*
X519058Y1152710D01*
X517404Y1151605D01*
X517144Y1151215D01*
X515874D01*
X515614Y1151605D01*
X513960Y1152710D01*
X512009Y1153098D01*
X510058Y1152710D01*
X508404Y1151605D01*
X508144Y1151215D01*
X506874D01*
X506614Y1151605D01*
X504960Y1152710D01*
X503009Y1153098D01*
X501058Y1152710D01*
X499594Y1151731D01*
X498324Y1152100D01*
Y1158202D01*
X498614Y1158395D01*
X499719Y1160049D01*
X500107Y1162000D01*
X499719Y1163951D01*
X498614Y1165605D01*
X496960Y1166710D01*
X495009Y1167098D01*
X493058Y1166710D01*
X491404Y1165605D01*
X490299Y1163951D01*
X489911Y1162000D01*
X490299Y1160049D01*
X491404Y1158395D01*
X491676Y1158214D01*
Y1119377D01*
X489623Y1117324D01*
X382000D01*
X380728Y1117071D01*
X379650Y1116350D01*
X362650Y1099350D01*
X361929Y1098272D01*
X361676Y1097000D01*
Y1034000D01*
X350000D01*
X350000Y1226000D01*
X371645D01*
X371990Y1225857D01*
X374600Y1225514D01*
X377211Y1225857D01*
X377555Y1226000D01*
X397045D01*
X397389Y1225857D01*
X400000Y1225514D01*
X402611Y1225857D01*
X402955Y1226000D01*
X466381D01*
Y1206499D01*
X472177D01*
Y1197264D01*
X471299Y1195951D01*
X470911Y1194000D01*
X471299Y1192049D01*
X472404Y1190395D01*
X474058Y1189290D01*
X476009Y1188902D01*
X477960Y1189290D01*
X479614Y1190395D01*
X480719Y1192049D01*
X481107Y1194000D01*
X480719Y1195951D01*
X479823Y1197291D01*
Y1206499D01*
X485305D01*
X485468Y1205682D01*
X486296Y1204442D01*
X499426Y1191313D01*
X499402Y1191195D01*
X499790Y1189244D01*
X500895Y1187590D01*
X502549Y1186485D01*
X504500Y1186097D01*
X506451Y1186485D01*
X508105Y1187590D01*
X509210Y1189244D01*
X509598Y1191195D01*
X509210Y1193146D01*
X508105Y1194799D01*
X506451Y1195904D01*
X505449Y1196104D01*
X496267Y1205286D01*
X496753Y1206459D01*
X500663D01*
Y1217000D01*
X502663D01*
Y1219000D01*
X511045D01*
Y1226000D01*
X515960D01*
Y1223500D01*
X523000D01*
X530040D01*
Y1226000D01*
X801140D01*
X801626Y1224827D01*
D02*
G37*
G36*
X826081Y1218696D02*
X828085Y1216085D01*
X830696Y1214081D01*
X831865Y1213597D01*
X832645Y1212668D01*
X832564Y1212260D01*
X832457Y1211859D01*
X832467Y1211775D01*
X832451Y1211692D01*
X832451Y1141124D01*
X821711D01*
X821111Y1142394D01*
X822532Y1144126D01*
X823925Y1146732D01*
X824783Y1149559D01*
X824915Y1150903D01*
X825153Y1151476D01*
X825617Y1155000D01*
X825153Y1158524D01*
X824915Y1159097D01*
X824783Y1160441D01*
X823925Y1163268D01*
X822532Y1165874D01*
X820658Y1168158D01*
X818374Y1170032D01*
X815768Y1171425D01*
X812941Y1172283D01*
X810000Y1172573D01*
X807059Y1172283D01*
X804232Y1171425D01*
X801626Y1170032D01*
X799342Y1168158D01*
X797468Y1165874D01*
X796075Y1163268D01*
X795217Y1160441D01*
X795085Y1159097D01*
X794847Y1158524D01*
X794383Y1155000D01*
X794847Y1151476D01*
X795085Y1150903D01*
X795217Y1149559D01*
X796075Y1146732D01*
X797468Y1144126D01*
X798889Y1142394D01*
X798289Y1141124D01*
X787356D01*
X786819Y1142394D01*
X787661Y1143654D01*
X788049Y1145605D01*
X787661Y1147556D01*
X786556Y1149210D01*
X786275Y1149397D01*
Y1173903D01*
X789629Y1177258D01*
X790350Y1178336D01*
X790603Y1179608D01*
Y1182392D01*
X790350Y1183664D01*
X790232Y1183840D01*
Y1204032D01*
X807877Y1221676D01*
X824847D01*
X826081Y1218696D01*
D02*
G37*
G36*
X883737Y1212822D02*
X885119Y1212640D01*
Y1137531D01*
X885178Y1137480D01*
X885119Y1103403D01*
Y1092360D01*
X885100Y1092358D01*
D01*
X883737Y1092178D01*
X880696Y1090919D01*
X878085Y1088915D01*
X876081Y1086304D01*
X875187Y1084146D01*
X873813D01*
X872919Y1086304D01*
X870915Y1088915D01*
X868304Y1090919D01*
X865823Y1091946D01*
Y1198416D01*
X881256Y1213849D01*
X883737Y1212822D01*
D02*
G37*
G36*
X1040000Y1202500D02*
Y1006000D01*
Y547000D01*
Y275000D01*
X350000D01*
Y329000D01*
X998000D01*
Y349177D01*
X1012722D01*
X1014049Y348290D01*
X1016000Y347902D01*
X1017951Y348290D01*
X1019605Y349395D01*
X1020710Y351049D01*
X1021098Y353000D01*
X1020710Y354951D01*
X1019605Y356605D01*
X1017951Y357710D01*
X1016000Y358098D01*
X1014049Y357710D01*
X1012722Y356823D01*
X1010087D01*
X1009962Y358093D01*
X1010951Y358290D01*
X1012605Y359395D01*
X1013710Y361049D01*
X1014059Y362803D01*
X1016400Y362337D01*
X1018880D01*
Y375000D01*
Y387663D01*
X1016400D01*
X1013946Y387175D01*
X1011865Y385785D01*
X1010475Y383704D01*
X1009987Y381250D01*
X1008719Y381255D01*
Y389267D01*
X1008466Y390539D01*
X1007746Y391618D01*
X998000Y401363D01*
Y414451D01*
X998975Y414645D01*
X999802Y415198D01*
X1000355Y416025D01*
X1000549Y417000D01*
Y541000D01*
X1000355Y541975D01*
X999802Y542802D01*
X998975Y543355D01*
X998000Y543549D01*
Y547000D01*
X978248D01*
X977860Y548951D01*
X976755Y550605D01*
X975101Y551710D01*
X973150Y552098D01*
X972819Y552032D01*
X969500Y555350D01*
X968422Y556071D01*
X967150Y556324D01*
X790377D01*
X783350Y563350D01*
X782272Y564071D01*
X781000Y564324D01*
X591015D01*
X590932Y565594D01*
X591697Y565695D01*
X593278Y566349D01*
X594636Y567391D01*
X595678Y568749D01*
X596333Y570330D01*
X596556Y572027D01*
X596333Y573724D01*
X595678Y575305D01*
X594636Y576663D01*
X593278Y577705D01*
X591697Y578360D01*
X590000Y578583D01*
X588303Y578360D01*
X587612Y578073D01*
X469500D01*
Y587500D01*
X452500D01*
Y570500D01*
X465381D01*
X465750Y570427D01*
X583655D01*
X583667Y570330D01*
X584322Y568749D01*
X585364Y567391D01*
X586722Y566349D01*
X588303Y565695D01*
X589068Y565594D01*
X588985Y564324D01*
X426011D01*
X425921Y577599D01*
X426816Y578500D01*
X440000D01*
Y599500D01*
X432521D01*
X430552Y601470D01*
X430240Y603035D01*
X429135Y604688D01*
X427481Y605793D01*
X425726Y606143D01*
X425616Y622315D01*
X426788Y622805D01*
X439979Y609614D01*
X440290Y608049D01*
X441395Y606395D01*
X443049Y605290D01*
X445000Y604902D01*
X446951Y605290D01*
X448605Y606395D01*
X449710Y608049D01*
X450098Y610000D01*
X449710Y611951D01*
X448605Y613605D01*
X446951Y614710D01*
X445386Y615021D01*
X427473Y632934D01*
Y768576D01*
X428535Y770164D01*
X428923Y772115D01*
X428535Y774066D01*
X427430Y775720D01*
X425776Y776825D01*
X424561Y777067D01*
X423006Y1005099D01*
X423901Y1006000D01*
X455122D01*
X455959Y1005045D01*
X455920Y1004750D01*
Y1002285D01*
X454575Y999768D01*
X453717Y996941D01*
X453428Y994000D01*
X453717Y991059D01*
X454575Y988232D01*
X455920Y985715D01*
Y983250D01*
X456238Y980835D01*
X457170Y978585D01*
X458653Y976653D01*
X460585Y975170D01*
X462835Y974238D01*
X465250Y973920D01*
X478750D01*
X481165Y974238D01*
X483415Y975170D01*
X485347Y976653D01*
X486830Y978585D01*
X487762Y980835D01*
X488080Y983250D01*
Y985715D01*
X489425Y988232D01*
X490283Y991059D01*
X490573Y994000D01*
X490283Y996941D01*
X489425Y999768D01*
X488080Y1002285D01*
Y1004750D01*
X488041Y1005045D01*
X488878Y1006000D01*
X568356D01*
X569194Y1005045D01*
X569171Y1004875D01*
Y998405D01*
X568860Y997655D01*
X568379Y994000D01*
X568860Y990345D01*
X569171Y989595D01*
Y983125D01*
X569485Y980743D01*
X570404Y978523D01*
X571867Y976617D01*
X573773Y975154D01*
X575993Y974235D01*
X578375Y973921D01*
X591625D01*
X594007Y974235D01*
X596227Y975154D01*
X598133Y976617D01*
X599596Y978523D01*
X600515Y980743D01*
X600829Y983125D01*
Y989595D01*
X601140Y990345D01*
X601621Y994000D01*
X601140Y997655D01*
X600829Y998405D01*
Y1004875D01*
X600806Y1005045D01*
X601644Y1006000D01*
X789701D01*
X789920Y1005750D01*
Y1003285D01*
X788575Y1000768D01*
X787717Y997941D01*
X787428Y995000D01*
X787717Y992059D01*
X788575Y989232D01*
X789920Y986715D01*
Y984250D01*
X790238Y981835D01*
X791170Y979585D01*
X792653Y977653D01*
X794585Y976170D01*
X796835Y975238D01*
X799250Y974920D01*
X812750D01*
X815165Y975238D01*
X817415Y976170D01*
X819347Y977653D01*
X820830Y979585D01*
X821762Y981835D01*
X822080Y984250D01*
Y986715D01*
X823425Y989232D01*
X824283Y992059D01*
X824573Y995000D01*
X824283Y997941D01*
X823425Y1000768D01*
X822080Y1003285D01*
Y1005750D01*
X822299Y1006000D01*
X832451D01*
Y931795D01*
X832467Y931712D01*
X832457Y931628D01*
X832564Y931227D01*
X832645Y930819D01*
X832168Y930116D01*
X831812Y929757D01*
X831452Y929609D01*
X829155Y927845D01*
X827392Y925547D01*
X827205Y925098D01*
X803112D01*
X780605Y947605D01*
X778951Y948710D01*
X777000Y949098D01*
X517644D01*
X508098Y958644D01*
Y985889D01*
X507710Y987840D01*
X506605Y989494D01*
X502494Y993605D01*
X500840Y994710D01*
X498889Y995098D01*
X496938Y994710D01*
X495284Y993605D01*
X494179Y991951D01*
X493791Y990000D01*
X494179Y988049D01*
X495284Y986395D01*
X497902Y983777D01*
Y956532D01*
Y928795D01*
X497453Y928608D01*
X495155Y926845D01*
X493391Y924548D01*
X492283Y921872D01*
X491905Y919000D01*
X492283Y916128D01*
X493391Y913453D01*
X495155Y911155D01*
X497453Y909391D01*
X497902Y909205D01*
Y902112D01*
X488422Y892632D01*
X487317Y890978D01*
X486929Y889027D01*
Y888000D01*
X487317Y886049D01*
X488422Y884395D01*
X490076Y883290D01*
X492027Y882902D01*
X493978Y883290D01*
X495632Y884395D01*
X495954Y884877D01*
X497642Y885117D01*
X497902Y884899D01*
Y816112D01*
X488395Y806605D01*
X487290Y804951D01*
X486902Y803000D01*
Y740407D01*
X485632Y739976D01*
X485347Y740347D01*
X483415Y741830D01*
X481165Y742762D01*
X478750Y743080D01*
X465250D01*
X462835Y742762D01*
X460585Y741830D01*
X458653Y740347D01*
X457170Y738415D01*
X456238Y736165D01*
X455920Y733750D01*
Y731285D01*
X454575Y728768D01*
X453717Y725940D01*
X453428Y723000D01*
X453717Y720060D01*
X454575Y717232D01*
X455920Y714715D01*
Y712250D01*
X456238Y709835D01*
X457170Y707585D01*
X458653Y705653D01*
X460585Y704170D01*
X462835Y703238D01*
X465250Y702920D01*
X478750D01*
X481165Y703238D01*
X483415Y704170D01*
X485347Y705653D01*
X485632Y706024D01*
X486902Y705593D01*
Y685000D01*
X487290Y683049D01*
X488395Y681395D01*
X496902Y672888D01*
Y657186D01*
X495155Y655845D01*
X493391Y653547D01*
X492283Y650872D01*
X491905Y648000D01*
X492283Y645128D01*
X493391Y642453D01*
X495155Y640155D01*
X497453Y638391D01*
X500128Y637283D01*
X503000Y636905D01*
X505872Y637283D01*
X508548Y638391D01*
X510845Y640155D01*
X512608Y642453D01*
X513717Y645128D01*
X514095Y648000D01*
X513717Y650872D01*
X512608Y653547D01*
X510845Y655845D01*
X508548Y657608D01*
X507098Y658209D01*
Y675000D01*
X506710Y676951D01*
X505605Y678605D01*
X497098Y687112D01*
Y800888D01*
X504000Y807790D01*
X508902Y802888D01*
Y795000D01*
X509290Y793049D01*
X510395Y791395D01*
X515395Y786395D01*
X517049Y785290D01*
X519000Y784902D01*
X660888D01*
X707971Y737819D01*
X707445Y736549D01*
X649000D01*
X648549Y736919D01*
Y777000D01*
X648355Y777975D01*
X647802Y778802D01*
X646975Y779355D01*
X646000Y779549D01*
X593000D01*
X592025Y779355D01*
X591198Y778802D01*
X590645Y777975D01*
X590451Y777000D01*
Y743079D01*
X578375D01*
X575993Y742765D01*
X573773Y741846D01*
X571867Y740383D01*
X570404Y738477D01*
X569485Y736257D01*
X569171Y733875D01*
Y727405D01*
X568860Y726655D01*
X568379Y723000D01*
X568860Y719345D01*
X569171Y718595D01*
Y712125D01*
X569485Y709743D01*
X570404Y707523D01*
X571867Y705617D01*
X573773Y704154D01*
X575993Y703235D01*
X578375Y702921D01*
X591625D01*
X594007Y703235D01*
X596227Y704154D01*
X597181Y704886D01*
X598451Y704260D01*
Y698995D01*
X598476Y698871D01*
X598463Y698745D01*
X598572Y698387D01*
X598630Y698093D01*
X598632Y697980D01*
X598482Y697543D01*
X598351Y697334D01*
X597905Y696823D01*
X563874D01*
X521311Y739386D01*
X521000Y740951D01*
X519895Y742605D01*
X518241Y743710D01*
X516290Y744098D01*
X514339Y743710D01*
X512685Y742605D01*
X511580Y740951D01*
X511192Y739000D01*
X511580Y737049D01*
X512685Y735395D01*
X514339Y734290D01*
X515904Y733979D01*
X559586Y690296D01*
X560827Y689468D01*
X562290Y689177D01*
X597905D01*
X598351Y688666D01*
X598482Y688457D01*
X598632Y688020D01*
X598630Y687907D01*
X598572Y687613D01*
X598463Y687255D01*
X598476Y687129D01*
X598451Y687005D01*
Y616424D01*
X598394Y616345D01*
X598303Y616333D01*
X596722Y615678D01*
X595364Y614636D01*
X594322Y613278D01*
X593667Y611697D01*
X593444Y610000D01*
X593667Y608303D01*
X594322Y606722D01*
X595364Y605364D01*
X596722Y604322D01*
X598303Y603667D01*
X598394Y603655D01*
X598451Y603576D01*
Y583000D01*
X598645Y582025D01*
X599198Y581198D01*
X600025Y580645D01*
X601000Y580451D01*
X948000D01*
X948975Y580645D01*
X949802Y581198D01*
X950355Y582025D01*
X950549Y583000D01*
Y613000D01*
X950549Y613000D01*
X950549Y808130D01*
X951819Y808645D01*
X953213Y807575D01*
X955281Y806719D01*
X957500Y806427D01*
X965500D01*
X967719Y806719D01*
X969787Y807575D01*
X971562Y808938D01*
X972925Y810713D01*
X973781Y812781D01*
X974073Y815000D01*
X973781Y817219D01*
X972925Y819287D01*
X971562Y821062D01*
X970732Y821700D01*
Y823300D01*
X971562Y823938D01*
X972925Y825713D01*
X973781Y827781D01*
X974073Y830000D01*
X973781Y832219D01*
X972925Y834287D01*
X971562Y836062D01*
X969787Y837425D01*
X967719Y838281D01*
X965500Y838573D01*
X957500D01*
X955281Y838281D01*
X953213Y837425D01*
X951819Y836355D01*
X950549Y836870D01*
Y875011D01*
X950533Y875094D01*
X950544Y875178D01*
X950436Y875579D01*
X950355Y875986D01*
X950278Y876721D01*
X951636Y877763D01*
X952678Y879120D01*
X953333Y880702D01*
X953556Y882399D01*
X953333Y884095D01*
X952678Y885677D01*
X951636Y887034D01*
X950278Y888076D01*
X950355Y888811D01*
X950436Y889218D01*
X950544Y889619D01*
X950533Y889703D01*
X950549Y889786D01*
X950549Y1006000D01*
D01*
Y1034848D01*
X951819Y1035622D01*
X953173Y1035444D01*
X954870Y1035667D01*
X956451Y1036322D01*
X957809Y1037364D01*
X958851Y1038722D01*
X959506Y1040303D01*
X959729Y1042000D01*
X959506Y1043697D01*
X958851Y1045278D01*
X958099Y1046258D01*
X958346Y1047533D01*
X958700Y1047712D01*
X960131Y1047174D01*
X960322Y1046713D01*
X961364Y1045355D01*
X962722Y1044313D01*
X964303Y1043658D01*
X966000Y1043435D01*
X967697Y1043658D01*
X969278Y1044313D01*
X970636Y1045355D01*
X971678Y1046713D01*
X972333Y1048294D01*
X972556Y1049991D01*
X972333Y1051688D01*
X971678Y1053269D01*
X970636Y1054627D01*
X969278Y1055668D01*
X967697Y1056323D01*
X966000Y1056547D01*
X964360Y1056331D01*
X962467Y1058224D01*
X962922Y1059565D01*
X963697Y1059667D01*
X965278Y1060322D01*
X966636Y1061364D01*
X967678Y1062722D01*
X967797Y1063009D01*
X969042Y1063257D01*
X988676Y1043623D01*
Y1037433D01*
X988395Y1037245D01*
X987290Y1035591D01*
X986902Y1033640D01*
X987290Y1031689D01*
X988395Y1030035D01*
X990049Y1028930D01*
X992000Y1028542D01*
X993951Y1028930D01*
X995262Y1029806D01*
X995692Y1030030D01*
X997071Y1029944D01*
X998049Y1029290D01*
X1000000Y1028902D01*
X1001951Y1029290D01*
X1003605Y1030395D01*
X1003865Y1030785D01*
X1005135D01*
X1005395Y1030395D01*
X1007049Y1029290D01*
X1009000Y1028902D01*
X1010951Y1029290D01*
X1012605Y1030395D01*
X1013710Y1032049D01*
X1014098Y1034000D01*
X1013710Y1035951D01*
X1012605Y1037605D01*
X1012324Y1037793D01*
Y1051833D01*
X1012071Y1053105D01*
X1011350Y1054183D01*
X987311Y1078223D01*
X987628Y1079015D01*
X987956Y1079373D01*
X990000Y1079104D01*
X998000D01*
X1000219Y1079396D01*
X1002287Y1080253D01*
X1004062Y1081615D01*
X1005425Y1083391D01*
X1006281Y1085459D01*
X1006573Y1087678D01*
X1006281Y1089896D01*
X1005425Y1091964D01*
X1004062Y1093740D01*
X1003264Y1094352D01*
Y1095953D01*
X1004091Y1096587D01*
X1005460Y1098371D01*
X1006320Y1100448D01*
X1006447Y1101408D01*
X994000D01*
Y1102678D01*
X992730D01*
Y1111291D01*
X990000D01*
X987771Y1110998D01*
X985693Y1110137D01*
X983909Y1108768D01*
X982540Y1106984D01*
X981752Y1105081D01*
X980506Y1104530D01*
X950549Y1134487D01*
Y1203000D01*
X1039500D01*
X1040000Y1202500D01*
D02*
G37*
G36*
X529750Y1124252D02*
X529790Y1124049D01*
X530895Y1122395D01*
X532549Y1121290D01*
X534114Y1120979D01*
X540796Y1114296D01*
X542037Y1113468D01*
X543500Y1113177D01*
X595177D01*
Y1109584D01*
X589416Y1103823D01*
X529781D01*
X528318Y1103532D01*
X527077Y1102704D01*
X520326Y1095953D01*
X519498Y1094712D01*
X519207Y1093249D01*
Y1091999D01*
X514688D01*
Y1070997D01*
X542588D01*
Y1070957D01*
X548970D01*
Y1081498D01*
Y1092039D01*
X542588D01*
Y1091999D01*
X528847D01*
X528360Y1093172D01*
X531365Y1096177D01*
X591000D01*
X592463Y1096468D01*
X593704Y1097296D01*
X594003Y1097596D01*
X595177Y1097110D01*
Y1092000D01*
Y1051584D01*
X592416Y1048823D01*
X569446D01*
X568120Y1049710D01*
X566169Y1050098D01*
X564218Y1049710D01*
X562564Y1048605D01*
X561459Y1046951D01*
X561071Y1045000D01*
X561459Y1043049D01*
X562564Y1041395D01*
X564218Y1040290D01*
X566169Y1039902D01*
X568120Y1040290D01*
X569446Y1041177D01*
X583110D01*
X583596Y1040003D01*
X577593Y1034000D01*
X501068D01*
X497615Y1037454D01*
Y1045834D01*
X498510Y1047174D01*
X498898Y1049125D01*
X498510Y1051076D01*
X497405Y1052730D01*
X495751Y1053835D01*
X493800Y1054223D01*
X491849Y1053835D01*
X490195Y1052730D01*
X489090Y1051076D01*
X488702Y1049125D01*
X489090Y1047174D01*
X489968Y1045861D01*
Y1035870D01*
X490087Y1035270D01*
X489119Y1034000D01*
X441117Y1034000D01*
X438987Y1036130D01*
X438824Y1036951D01*
X437719Y1038605D01*
X436065Y1039710D01*
X434114Y1040098D01*
X432163Y1039710D01*
X430509Y1038605D01*
X429404Y1036951D01*
X429016Y1035000D01*
X429020Y1034982D01*
X428214Y1034000D01*
X425530D01*
Y1020938D01*
X423614Y1019021D01*
X422049Y1018710D01*
X420395Y1017605D01*
X419290Y1015951D01*
X418902Y1014000D01*
X419290Y1012049D01*
X420395Y1010395D01*
X422049Y1009290D01*
X422317Y1008580D01*
X422310Y1007943D01*
X422099Y1007802D01*
X422096Y1007799D01*
X422093Y1007796D01*
X421198Y1006895D01*
X421195Y1006891D01*
X421191Y1006889D01*
X420920Y1006477D01*
X420648Y1006066D01*
X420647Y1006062D01*
X420645Y1006058D01*
X420551Y1005569D01*
X420457Y1005090D01*
X420458Y1005086D01*
X420457Y1005081D01*
X422012Y777049D01*
X422015Y777037D01*
X421874Y776825D01*
X420220Y775720D01*
X419115Y774066D01*
X418727Y772115D01*
X419115Y770164D01*
X419826Y769100D01*
Y631350D01*
X420117Y629887D01*
X420946Y628647D01*
X423892Y625701D01*
X423998Y625274D01*
X423808Y624112D01*
X423801Y624105D01*
X423530Y623694D01*
X423258Y623283D01*
X423257Y623278D01*
X423255Y623274D01*
X423161Y622785D01*
X423067Y622306D01*
X423068Y622302D01*
X423067Y622298D01*
X423177Y606125D01*
X423226Y605888D01*
Y605645D01*
X423255Y605577D01*
X421926Y604688D01*
X420821Y603035D01*
X420432Y601084D01*
X420602Y600233D01*
X420000Y599500D01*
X420000D01*
Y578500D01*
X422343D01*
X423339Y577620D01*
X423372Y577581D01*
X423456Y565225D01*
X422561Y564324D01*
X409377D01*
X406324Y567377D01*
Y597838D01*
X411350Y602864D01*
X412071Y603942D01*
X412324Y605214D01*
Y606000D01*
X412324Y1035562D01*
D01*
Y1047623D01*
X444377Y1079676D01*
X446377D01*
X446565Y1079395D01*
X448219Y1078290D01*
X450170Y1077902D01*
X452121Y1078290D01*
X453774Y1079395D01*
X454879Y1081049D01*
X455267Y1083000D01*
X454879Y1084951D01*
X453774Y1086605D01*
X452121Y1087710D01*
X450170Y1088098D01*
X449485Y1087962D01*
X448397Y1089000D01*
X448246Y1089759D01*
X449288Y1091029D01*
X505352D01*
X506624Y1091282D01*
X507703Y1092002D01*
X526350Y1110650D01*
X527071Y1111728D01*
X527324Y1113000D01*
Y1123411D01*
X528534Y1124621D01*
X529750Y1124252D01*
D02*
G37*
G36*
X779223Y1077255D02*
X781000Y1076902D01*
X781469Y1076995D01*
X782451Y1076190D01*
Y1045346D01*
X781278Y1044859D01*
X769823Y1056314D01*
Y1072656D01*
X770944Y1073255D01*
X771098Y1073151D01*
X773049Y1072763D01*
X775000Y1073151D01*
X776654Y1074257D01*
X777759Y1075910D01*
X777884Y1076541D01*
X779049Y1077290D01*
X779223Y1077255D01*
D02*
G37*
G36*
X996676Y1050875D02*
Y1039038D01*
X996594Y1038932D01*
X995929Y1039075D01*
X995324Y1039590D01*
Y1045000D01*
X995071Y1046272D01*
X994350Y1047350D01*
X950549Y1091152D01*
Y1095343D01*
X951722Y1095829D01*
X996676Y1050875D01*
D02*
G37*
G36*
X511927Y940395D02*
X513581Y939290D01*
X515532Y938902D01*
X774888D01*
X797395Y916395D01*
X799049Y915290D01*
X801000Y914902D01*
X827205D01*
X827392Y914453D01*
X829155Y912155D01*
X831452Y910391D01*
X831812Y910243D01*
X832168Y909883D01*
X832645Y909181D01*
X832564Y908773D01*
X832457Y908372D01*
X832467Y908288D01*
X832451Y908205D01*
Y900528D01*
X831551Y899632D01*
X618182Y900543D01*
X618127Y900532D01*
X618072Y900541D01*
X617641Y900438D01*
X617206Y900353D01*
X617159Y900322D01*
X617105Y900310D01*
X616746Y900049D01*
X616376Y899804D01*
X616345Y899758D01*
X616300Y899725D01*
X615129Y898460D01*
X614894Y898077D01*
X614645Y897704D01*
X614635Y897655D01*
X614609Y897613D01*
X614539Y897169D01*
X614451Y896729D01*
Y870000D01*
X614645Y869025D01*
X615198Y868198D01*
X616025Y867645D01*
X617000Y867451D01*
X705106D01*
X705812Y866395D01*
X705667Y866047D01*
X705444Y864350D01*
X705667Y862653D01*
X706322Y861072D01*
X707364Y859714D01*
X708722Y858672D01*
X710303Y858017D01*
X712000Y857794D01*
X713697Y858017D01*
X715278Y858672D01*
X716636Y859714D01*
X717678Y861072D01*
X718333Y862653D01*
X718556Y864350D01*
X718333Y866047D01*
X718188Y866395D01*
X718894Y867451D01*
X832451D01*
X832451Y820470D01*
X832468Y820387D01*
X832457Y820303D01*
X832564Y819902D01*
X832645Y819495D01*
X832513Y819057D01*
X831948Y818254D01*
X830592Y817214D01*
X829955Y816383D01*
X828354D01*
X827717Y817214D01*
X825941Y818576D01*
X823874Y819433D01*
X821655Y819725D01*
X819436Y819433D01*
X817368Y818576D01*
X815592Y817214D01*
X814230Y815438D01*
X813373Y813371D01*
X813081Y811152D01*
Y803152D01*
X813373Y800933D01*
X814230Y798865D01*
X815592Y797089D01*
X817368Y795727D01*
X819436Y794870D01*
X821655Y794578D01*
X823874Y794870D01*
X825941Y795727D01*
X827717Y797089D01*
X828354Y797920D01*
X829955D01*
X830592Y797089D01*
X832271Y795801D01*
X832528Y795234D01*
X832645Y794321D01*
X832577Y793978D01*
X832469Y793646D01*
X832481Y793495D01*
X832451Y793345D01*
Y767598D01*
X832468Y767515D01*
X832457Y767431D01*
X832564Y767030D01*
X832645Y766622D01*
X832692Y766552D01*
X832714Y766470D01*
X832637Y765086D01*
X832433Y764828D01*
X832183Y764636D01*
X831141Y763278D01*
X830486Y761697D01*
X830263Y760000D01*
X830486Y758303D01*
X831141Y756722D01*
X832183Y755364D01*
X832433Y755172D01*
X832637Y754914D01*
X832714Y753530D01*
X832692Y753448D01*
X832645Y753378D01*
X832564Y752970D01*
X832457Y752569D01*
X832468Y752485D01*
X832451Y752402D01*
Y736549D01*
X822299D01*
X822216Y736533D01*
X822132Y736544D01*
X821731Y736436D01*
X821656Y736421D01*
X820830Y738415D01*
X819347Y740347D01*
X817415Y741830D01*
X815165Y742762D01*
X812750Y743080D01*
X799250D01*
X796835Y742762D01*
X794585Y741830D01*
X792653Y740347D01*
X791170Y738415D01*
X790344Y736421D01*
X790269Y736436D01*
X789868Y736544D01*
X789784Y736533D01*
X789701Y736549D01*
X785901D01*
X785222Y737819D01*
X785710Y738549D01*
X786098Y740500D01*
X785710Y742451D01*
X784605Y744105D01*
X782951Y745210D01*
X781000Y745598D01*
X773500D01*
Y761500D01*
X756500D01*
Y745598D01*
X714612D01*
X666605Y793605D01*
X664951Y794710D01*
X663000Y795098D01*
X521112D01*
X519098Y797112D01*
Y805000D01*
X518710Y806951D01*
X517605Y808605D01*
X508098Y818112D01*
Y831792D01*
X509368Y832177D01*
X509395Y832136D01*
X511049Y831031D01*
X513000Y830643D01*
X514951Y831031D01*
X516605Y832136D01*
X517710Y833790D01*
X518098Y835741D01*
X517710Y837692D01*
X516823Y839018D01*
Y874416D01*
X542584Y900177D01*
X560268D01*
X561595Y899290D01*
X563546Y898902D01*
X565497Y899290D01*
X567151Y900395D01*
X568256Y902049D01*
X568644Y904000D01*
X568256Y905951D01*
X567151Y907605D01*
X565497Y908710D01*
X563546Y909098D01*
X561595Y908710D01*
X560268Y907823D01*
X558080D01*
X557828Y909093D01*
X558548Y909391D01*
X560845Y911155D01*
X562608Y913453D01*
X563717Y916128D01*
X564095Y919000D01*
X563717Y921872D01*
X562608Y924548D01*
X560845Y926845D01*
X558548Y928608D01*
X555872Y929717D01*
X553000Y930095D01*
X550128Y929717D01*
X547453Y928608D01*
X545155Y926845D01*
X543391Y924548D01*
X542283Y921872D01*
X541905Y919000D01*
X542283Y916128D01*
X543391Y913453D01*
X545155Y911155D01*
X547453Y909391D01*
X548172Y909093D01*
X547920Y907823D01*
X541000D01*
X539537Y907532D01*
X538296Y906704D01*
X510296Y878704D01*
X509468Y877463D01*
X509368Y876962D01*
X508098Y877087D01*
Y900000D01*
Y909205D01*
X508548Y909391D01*
X510845Y911155D01*
X512608Y913453D01*
X513717Y916128D01*
X514095Y919000D01*
X513717Y921872D01*
X512608Y924548D01*
X510845Y926845D01*
X508548Y928608D01*
X508098Y928795D01*
Y942565D01*
X509271Y943051D01*
X511927Y940395D01*
D02*
G37*
G36*
X652198Y703198D02*
X653025Y702645D01*
X654000Y702451D01*
X693944D01*
X712198Y684197D01*
X713025Y683645D01*
X714000Y683451D01*
X870352D01*
Y679000D01*
X877392D01*
Y677000D01*
X879392D01*
Y670460D01*
X883177D01*
Y658323D01*
X881452Y657608D01*
X879155Y655845D01*
X877392Y653547D01*
X876283Y650872D01*
X875905Y648000D01*
X876283Y645128D01*
X877392Y642453D01*
X879155Y640155D01*
X881452Y638391D01*
X884128Y637283D01*
X886451Y636977D01*
Y615549D01*
X683293Y615549D01*
X675376D01*
X648549D01*
Y646987D01*
X648500Y647233D01*
Y647484D01*
X648404Y647716D01*
X648355Y647962D01*
X648215Y648171D01*
X648119Y648403D01*
X647691Y649044D01*
X647501Y650000D01*
X647691Y650956D01*
X648119Y651597D01*
X648215Y651829D01*
X648355Y652038D01*
X648404Y652284D01*
X648500Y652516D01*
Y652767D01*
X648549Y653013D01*
Y705187D01*
X649722Y705673D01*
X652198Y703198D01*
D02*
G37*
G36*
X967179Y548270D02*
X966653Y547000D01*
X861013D01*
X859951Y547710D01*
X858374Y548024D01*
X858082Y548406D01*
X858694Y549643D01*
X858744Y549676D01*
X965773D01*
X967179Y548270D01*
D02*
G37*
G36*
X780126Y548173D02*
X779640Y547000D01*
X747868D01*
X747189Y548270D01*
X747710Y549049D01*
X748098Y551000D01*
X747818Y552406D01*
X748636Y553676D01*
X774623D01*
X780126Y548173D01*
D02*
G37*
G36*
X738290Y549049D02*
X738811Y548270D01*
X738132Y547000D01*
X635677D01*
X634738Y548406D01*
X635113Y549676D01*
X738165D01*
X738290Y549049D01*
D02*
G37*
G36*
X998000Y417000D02*
X991120D01*
X990441Y418270D01*
X990831Y418854D01*
X991258Y421000D01*
Y427000D01*
X990831Y429146D01*
X989615Y430965D01*
X987796Y432181D01*
X985650Y432608D01*
X960650D01*
X958504Y432181D01*
X956685Y430965D01*
X955469Y429146D01*
X955042Y427000D01*
Y421000D01*
X955469Y418854D01*
X955743Y418444D01*
X955145Y417324D01*
X879926D01*
X879327Y418444D01*
X879601Y418854D01*
X880028Y421000D01*
Y427000D01*
X879601Y429146D01*
X878385Y430965D01*
X876566Y432181D01*
X874420Y432608D01*
X849420D01*
X847274Y432181D01*
X845455Y430965D01*
X844239Y429146D01*
X843812Y427000D01*
Y421000D01*
X844239Y418854D01*
X844513Y418444D01*
X843914Y417324D01*
X768696D01*
X768097Y418444D01*
X768371Y418854D01*
X768798Y421000D01*
Y427000D01*
X768371Y429146D01*
X767155Y430965D01*
X765336Y432181D01*
X763190Y432608D01*
X738190D01*
X736044Y432181D01*
X734225Y430965D01*
X733009Y429146D01*
X732582Y427000D01*
Y421000D01*
X733009Y418854D01*
X733283Y418444D01*
X732684Y417324D01*
X657466D01*
X656867Y418444D01*
X657141Y418854D01*
X657568Y421000D01*
Y427000D01*
X657141Y429146D01*
X655925Y430965D01*
X654106Y432181D01*
X651960Y432608D01*
X626960D01*
X624814Y432181D01*
X622995Y430965D01*
X621779Y429146D01*
X621352Y427000D01*
Y421000D01*
X621779Y418854D01*
X622053Y418444D01*
X621455Y417324D01*
X546236D01*
X545637Y418444D01*
X545911Y418854D01*
X546338Y421000D01*
Y427000D01*
X545911Y429146D01*
X544695Y430965D01*
X542876Y432181D01*
X540730Y432608D01*
X515730D01*
X513584Y432181D01*
X511765Y430965D01*
X510549Y429146D01*
X510122Y427000D01*
Y421000D01*
X510549Y418854D01*
X510823Y418444D01*
X510224Y417324D01*
X435005D01*
X434407Y418444D01*
X434681Y418854D01*
X435108Y421000D01*
Y427000D01*
X434681Y429146D01*
X433465Y430965D01*
X431646Y432181D01*
X429500Y432608D01*
X404500D01*
X402354Y432181D01*
X400535Y430965D01*
X399319Y429146D01*
X398892Y427000D01*
Y421000D01*
X399319Y418854D01*
X399593Y418444D01*
X398994Y417324D01*
X393000D01*
Y468202D01*
X393547Y469245D01*
X394270Y469245D01*
X415057D01*
Y490755D01*
X394270D01*
X393547Y490755D01*
X393000Y491798D01*
Y537000D01*
X394000Y538000D01*
X393652Y538899D01*
X394493Y540244D01*
X395011Y540288D01*
X396650Y538650D01*
X397728Y537929D01*
X399000Y537676D01*
X409623D01*
X411968Y535331D01*
X411902Y535000D01*
X412290Y533049D01*
X413395Y531395D01*
X415049Y530290D01*
X417000Y529902D01*
X418951Y530290D01*
X420605Y531395D01*
X421710Y533049D01*
X422098Y535000D01*
X421710Y536951D01*
X420605Y538605D01*
X418951Y539710D01*
X418850Y539730D01*
X418975Y541000D01*
X513299D01*
X516052Y538248D01*
X516290Y537049D01*
X517395Y535395D01*
X519049Y534290D01*
X521000Y533902D01*
X522951Y534290D01*
X524605Y535395D01*
X525710Y537049D01*
X526098Y539000D01*
X525953Y539730D01*
X526995Y541000D01*
X627987D01*
X629049Y540290D01*
X631000Y539902D01*
X632951Y540290D01*
X634013Y541000D01*
X853323D01*
X854395Y539395D01*
X856049Y538290D01*
X858000Y537902D01*
X859951Y538290D01*
X861605Y539395D01*
X862677Y541000D01*
X998000D01*
Y417000D01*
D02*
G37*
%LPC*%
G36*
X628540Y1350540D02*
X623750D01*
Y1343000D01*
X628540D01*
Y1350540D01*
D02*
G37*
G36*
X659351Y1337429D02*
Y1332270D01*
X664510D01*
X664453Y1332707D01*
X663793Y1334298D01*
X662745Y1335664D01*
X661379Y1336713D01*
X659788Y1337372D01*
X659351Y1337429D01*
D02*
G37*
G36*
X656811Y1337429D02*
X656374Y1337372D01*
X654783Y1336713D01*
X653417Y1335664D01*
X652368Y1334298D01*
X651709Y1332707D01*
X651652Y1332270D01*
X656811D01*
Y1337429D01*
D02*
G37*
G36*
X628540Y1339000D02*
X623750D01*
Y1331460D01*
X628540D01*
Y1339000D01*
D02*
G37*
G36*
X701000Y1338759D02*
X698270D01*
Y1331415D01*
X709446D01*
X709320Y1332374D01*
X708460Y1334452D01*
X707091Y1336236D01*
X705307Y1337605D01*
X703229Y1338465D01*
X701000Y1338759D01*
D02*
G37*
G36*
X695730D02*
X693000D01*
X690771Y1338465D01*
X688693Y1337605D01*
X686909Y1336236D01*
X685540Y1334452D01*
X684680Y1332374D01*
X684554Y1331415D01*
X695730D01*
Y1338759D01*
D02*
G37*
G36*
X914000Y1172573D02*
X911059Y1172283D01*
X908232Y1171425D01*
X905626Y1170032D01*
X903342Y1168158D01*
X901468Y1165874D01*
X900075Y1163268D01*
X899217Y1160441D01*
X899085Y1159097D01*
X898848Y1158524D01*
X898383Y1155000D01*
X898848Y1151476D01*
X899085Y1150903D01*
X899217Y1149559D01*
X900075Y1146732D01*
X901468Y1144126D01*
X903342Y1141842D01*
X905626Y1139968D01*
X908232Y1138575D01*
X911059Y1137717D01*
X914000Y1137427D01*
X916941Y1137717D01*
X919768Y1138575D01*
X922374Y1139968D01*
X924658Y1141842D01*
X926532Y1144126D01*
X927925Y1146732D01*
X928783Y1149559D01*
X928915Y1150903D01*
X929153Y1151476D01*
X929616Y1155000D01*
X929153Y1158524D01*
X928915Y1159097D01*
X928783Y1160441D01*
X927925Y1163268D01*
X926532Y1165874D01*
X924658Y1168158D01*
X922374Y1170032D01*
X919768Y1171425D01*
X916941Y1172283D01*
X914000Y1172573D01*
D02*
G37*
G36*
X925625Y1015079D02*
X912375D01*
X909993Y1014765D01*
X907773Y1013846D01*
X905867Y1012383D01*
X904404Y1010477D01*
X903485Y1008257D01*
X903171Y1005875D01*
Y999405D01*
X902860Y998655D01*
X902379Y995000D01*
X902860Y991345D01*
X903171Y990595D01*
Y984125D01*
X903485Y981743D01*
X904404Y979523D01*
X905867Y977617D01*
X907773Y976154D01*
X909993Y975235D01*
X912375Y974921D01*
X925625D01*
X928007Y975235D01*
X930227Y976154D01*
X932133Y977617D01*
X933596Y979523D01*
X934515Y981743D01*
X934829Y984125D01*
Y990595D01*
X935140Y991345D01*
X935621Y995000D01*
X935140Y998655D01*
X934829Y999405D01*
Y1005875D01*
X934515Y1008257D01*
X933596Y1010477D01*
X932133Y1012383D01*
X930227Y1013846D01*
X928007Y1014765D01*
X925625Y1015079D01*
D02*
G37*
G36*
X914674Y900700D02*
X912977Y900477D01*
X911395Y899822D01*
X910038Y898780D01*
X908996Y897422D01*
X908341Y895841D01*
X908118Y894144D01*
X908341Y892448D01*
X908996Y890866D01*
X910038Y889509D01*
X911395Y888467D01*
X912977Y887812D01*
X914674Y887588D01*
X916370Y887812D01*
X917952Y888467D01*
X919309Y889509D01*
X920351Y890866D01*
X921006Y892448D01*
X921230Y894144D01*
X921006Y895841D01*
X920351Y897422D01*
X919309Y898780D01*
X917952Y899822D01*
X916370Y900477D01*
X914674Y900700D01*
D02*
G37*
G36*
X921085Y837141D02*
X919388Y836918D01*
X917807Y836263D01*
X916449Y835221D01*
X915407Y833863D01*
X914752Y832282D01*
X914529Y830585D01*
X914752Y828888D01*
X915407Y827307D01*
X916449Y825949D01*
X917807Y824907D01*
X919388Y824252D01*
X921085Y824029D01*
X922782Y824252D01*
X924363Y824907D01*
X925721Y825949D01*
X926763Y827307D01*
X927418Y828888D01*
X927641Y830585D01*
X927418Y832282D01*
X926763Y833863D01*
X925721Y835221D01*
X924363Y836263D01*
X922782Y836918D01*
X921085Y837141D01*
D02*
G37*
G36*
X925625Y743079D02*
X912375D01*
X909993Y742765D01*
X907773Y741846D01*
X905867Y740383D01*
X904404Y738477D01*
X903485Y736257D01*
X903171Y733875D01*
Y727405D01*
X902860Y726655D01*
X902379Y723000D01*
X902860Y719345D01*
X903171Y718595D01*
Y712125D01*
X903485Y709743D01*
X904404Y707523D01*
X905867Y705617D01*
X907773Y704154D01*
X909993Y703235D01*
X912375Y702921D01*
X925625D01*
X928007Y703235D01*
X930227Y704154D01*
X932133Y705617D01*
X933596Y707523D01*
X934515Y709743D01*
X934829Y712125D01*
Y718595D01*
X935140Y719345D01*
X935621Y723000D01*
X935140Y726655D01*
X934829Y727405D01*
Y733875D01*
X934515Y736257D01*
X933596Y738477D01*
X932133Y740383D01*
X930227Y741846D01*
X928007Y742765D01*
X925625Y743079D01*
D02*
G37*
G36*
X718098Y606895D02*
X716401Y606671D01*
X714820Y606016D01*
X713462Y604974D01*
X712420Y603617D01*
X711765Y602035D01*
X711542Y600339D01*
X711765Y598642D01*
X712420Y597061D01*
X713462Y595703D01*
X714820Y594661D01*
X716401Y594006D01*
X718098Y593783D01*
X719795Y594006D01*
X721376Y594661D01*
X722734Y595703D01*
X723776Y597061D01*
X724431Y598642D01*
X724654Y600339D01*
X724431Y602035D01*
X723776Y603617D01*
X722734Y604974D01*
X721376Y606016D01*
X719795Y606671D01*
X718098Y606895D01*
D02*
G37*
G36*
X680140Y1276730D02*
X674981D01*
X675038Y1276293D01*
X675697Y1274702D01*
X676746Y1273336D01*
X678112Y1272287D01*
X679703Y1271628D01*
X680140Y1271571D01*
Y1276730D01*
D02*
G37*
G36*
X687839D02*
X682680D01*
Y1271571D01*
X683117Y1271628D01*
X684708Y1272287D01*
X686074Y1273336D01*
X687123Y1274702D01*
X687782Y1276293D01*
X687839Y1276730D01*
D02*
G37*
G36*
X670446Y1276230D02*
X659270D01*
Y1268886D01*
X662000D01*
X664229Y1269180D01*
X666307Y1270040D01*
X668091Y1271409D01*
X669460Y1273193D01*
X670320Y1275271D01*
X670446Y1276230D01*
D02*
G37*
G36*
X656730D02*
X645554D01*
X645680Y1275271D01*
X646540Y1273193D01*
X647909Y1271409D01*
X649693Y1270040D01*
X651771Y1269180D01*
X654000Y1268886D01*
X656730D01*
Y1276230D01*
D02*
G37*
G36*
X628540Y1275540D02*
X623750D01*
Y1268000D01*
X628540D01*
Y1275540D01*
D02*
G37*
G36*
X737000Y1270556D02*
X735303Y1270333D01*
X733722Y1269678D01*
X732364Y1268636D01*
X731322Y1267278D01*
X730667Y1265697D01*
X730444Y1264000D01*
X730667Y1262303D01*
X731322Y1260722D01*
X732364Y1259364D01*
X733722Y1258322D01*
X735303Y1257667D01*
X737000Y1257444D01*
X738697Y1257667D01*
X740278Y1258322D01*
X741636Y1259364D01*
X742678Y1260722D01*
X743333Y1262303D01*
X743556Y1264000D01*
X743333Y1265697D01*
X742678Y1267278D01*
X741636Y1268636D01*
X740278Y1269678D01*
X738697Y1270333D01*
X737000Y1270556D01*
D02*
G37*
G36*
X628540Y1264000D02*
X623750D01*
Y1256460D01*
X628540D01*
Y1264000D01*
D02*
G37*
G36*
X862000Y931095D02*
X859128Y930717D01*
X856452Y929609D01*
X854155Y927845D01*
X852392Y925547D01*
X851283Y922872D01*
X850905Y920000D01*
X851283Y917128D01*
X852392Y914453D01*
X854155Y912155D01*
X856452Y910391D01*
X859128Y909283D01*
X862000Y908905D01*
X864872Y909283D01*
X867548Y910391D01*
X869845Y912155D01*
X871609Y914453D01*
X872717Y917128D01*
X873095Y920000D01*
X872717Y922872D01*
X871609Y925547D01*
X869845Y927845D01*
X867548Y929609D01*
X864872Y930717D01*
X862000Y931095D01*
D02*
G37*
G36*
X705747Y720270D02*
X688000D01*
X686049Y719883D01*
X684395Y718777D01*
X683290Y717123D01*
X682902Y715173D01*
X683290Y713222D01*
X684395Y711568D01*
X686049Y710463D01*
X688000Y710075D01*
X703635D01*
X710315Y703395D01*
X711969Y702290D01*
X713920Y701902D01*
X715871Y702290D01*
X717524Y703395D01*
X718630Y705049D01*
X719018Y707000D01*
X718630Y708951D01*
X717524Y710605D01*
X709352Y718777D01*
X707698Y719883D01*
X705747Y720270D01*
D02*
G37*
G36*
X875392Y697540D02*
X870352D01*
Y693000D01*
X875392D01*
Y697540D01*
D02*
G37*
G36*
X720000Y702056D02*
X718303Y701833D01*
X716722Y701178D01*
X715364Y700136D01*
X714322Y698778D01*
X713667Y697197D01*
X713444Y695500D01*
X713667Y693803D01*
X714322Y692222D01*
X715364Y690864D01*
X716722Y689822D01*
X718303Y689167D01*
X720000Y688944D01*
X721697Y689167D01*
X723278Y689822D01*
X724636Y690864D01*
X725678Y692222D01*
X726333Y693803D01*
X726556Y695500D01*
X726333Y697197D01*
X725678Y698778D01*
X724636Y700136D01*
X723278Y701178D01*
X721697Y701833D01*
X720000Y702056D01*
D02*
G37*
%LPD*%
G36*
X706703Y717481D02*
X707727Y716797D01*
X715545Y708980D01*
X716228Y707956D01*
X716419Y707000D01*
X716228Y706044D01*
X715687Y705233D01*
X714876Y704691D01*
X713920Y704501D01*
X712963Y704691D01*
X711940Y705375D01*
X705438Y711877D01*
X704611Y712430D01*
X703635Y712624D01*
X688251D01*
X687044Y712864D01*
X686233Y713406D01*
X685691Y714216D01*
X685501Y715173D01*
X685691Y716129D01*
X686233Y716940D01*
X687044Y717481D01*
X688251Y717722D01*
X705496D01*
X706703Y717481D01*
D02*
G37*
%LPC*%
G36*
X410000Y1347200D02*
X390000D01*
Y1327200D01*
X410000D01*
Y1347200D01*
D02*
G37*
G36*
X374600Y1347286D02*
X371990Y1346943D01*
X369557Y1345935D01*
X367468Y1344332D01*
X365865Y1342243D01*
X364857Y1339810D01*
X364514Y1337200D01*
X364857Y1334590D01*
X365865Y1332157D01*
X367468Y1330068D01*
X369557Y1328465D01*
X371990Y1327457D01*
X374600Y1327114D01*
X377211Y1327457D01*
X379643Y1328465D01*
X381732Y1330068D01*
X383335Y1332157D01*
X384343Y1334590D01*
X384686Y1337200D01*
X384343Y1339810D01*
X383335Y1342243D01*
X381732Y1344332D01*
X379643Y1345935D01*
X377211Y1346943D01*
X374600Y1347286D01*
D02*
G37*
G36*
X472700Y1349608D02*
X469437Y1349178D01*
X466396Y1347919D01*
X463785Y1345915D01*
X461781Y1343304D01*
X460522Y1340263D01*
X460092Y1337000D01*
X460522Y1333737D01*
X461781Y1330696D01*
X463785Y1328085D01*
X466396Y1326081D01*
X469437Y1324822D01*
X472700Y1324392D01*
X475963Y1324822D01*
X479004Y1326081D01*
X481615Y1328085D01*
X483619Y1330696D01*
X484878Y1333737D01*
X485308Y1337000D01*
X484878Y1340263D01*
X483619Y1343304D01*
X481615Y1345915D01*
X479004Y1347919D01*
X475963Y1349178D01*
X472700Y1349608D01*
D02*
G37*
G36*
X598000Y1359549D02*
X557160Y1359549D01*
X556185Y1359355D01*
X555358Y1358802D01*
X554805Y1357975D01*
X554611Y1357000D01*
X554611Y1324000D01*
X554805Y1323025D01*
X555358Y1322198D01*
X556185Y1321645D01*
X557160Y1321451D01*
X563680D01*
X563783Y1321471D01*
X563886Y1321459D01*
X564267Y1321568D01*
X564656Y1321645D01*
X564743Y1321703D01*
X564843Y1321732D01*
X565154Y1321978D01*
X565483Y1322198D01*
X565541Y1322284D01*
X565623Y1322349D01*
X566702Y1323619D01*
X566895Y1323965D01*
X567115Y1324295D01*
X567135Y1324397D01*
X567186Y1324488D01*
X567187Y1324500D01*
X587291D01*
Y1324460D01*
X587386Y1323983D01*
X587475Y1323508D01*
X587482Y1323497D01*
X587485Y1323484D01*
X587754Y1323082D01*
X588019Y1322676D01*
X588030Y1322669D01*
X588038Y1322658D01*
X588440Y1322389D01*
X588841Y1322115D01*
X589920Y1321655D01*
X589933Y1321652D01*
X589944Y1321645D01*
X590419Y1321550D01*
X590894Y1321451D01*
X590906Y1321454D01*
X590919Y1321451D01*
X610000Y1321451D01*
X610975Y1321645D01*
X611802Y1322198D01*
X612355Y1323024D01*
X612549Y1324000D01*
Y1331460D01*
X612355Y1332435D01*
X611802Y1333262D01*
X611000Y1333799D01*
Y1348201D01*
X611802Y1348738D01*
X612355Y1349565D01*
X612549Y1350540D01*
Y1357000D01*
X612355Y1357975D01*
X611802Y1358802D01*
X610975Y1359355D01*
X610000Y1359549D01*
X598000Y1359549D01*
D02*
G37*
G36*
X401270Y1321759D02*
Y1313070D01*
X409959D01*
X409782Y1314421D01*
X408770Y1316863D01*
X407161Y1318961D01*
X405063Y1320570D01*
X402621Y1321582D01*
X401270Y1321759D01*
D02*
G37*
G36*
X375870D02*
Y1313070D01*
X384559D01*
X384382Y1314421D01*
X383370Y1316863D01*
X381761Y1318961D01*
X379663Y1320570D01*
X377221Y1321582D01*
X375870Y1321759D01*
D02*
G37*
G36*
X398730D02*
X397379Y1321582D01*
X394937Y1320570D01*
X392839Y1318961D01*
X391230Y1316863D01*
X390218Y1314421D01*
X390041Y1313070D01*
X398730D01*
Y1321759D01*
D02*
G37*
G36*
X373330D02*
X371979Y1321582D01*
X369537Y1320570D01*
X367439Y1318961D01*
X365830Y1316863D01*
X364818Y1314421D01*
X364641Y1313070D01*
X373330D01*
Y1321759D01*
D02*
G37*
G36*
X709446Y1313875D02*
X698270D01*
Y1306531D01*
X701000D01*
X703229Y1306825D01*
X705307Y1307685D01*
X707091Y1309054D01*
X708460Y1310838D01*
X709320Y1312916D01*
X709446Y1313875D01*
D02*
G37*
G36*
X695730D02*
X684554D01*
X684680Y1312916D01*
X685540Y1310838D01*
X686909Y1309054D01*
X688693Y1307685D01*
X690771Y1306825D01*
X693000Y1306531D01*
X695730D01*
Y1313875D01*
D02*
G37*
G36*
X409959Y1310530D02*
X401270D01*
Y1301841D01*
X402621Y1302018D01*
X405063Y1303030D01*
X407161Y1304639D01*
X408770Y1306737D01*
X409782Y1309179D01*
X409959Y1310530D01*
D02*
G37*
G36*
X384559D02*
X375870D01*
Y1301841D01*
X377221Y1302018D01*
X379663Y1303030D01*
X381761Y1304639D01*
X383370Y1306737D01*
X384382Y1309179D01*
X384559Y1310530D01*
D02*
G37*
G36*
X398730D02*
X390041D01*
X390218Y1309179D01*
X391230Y1306737D01*
X392839Y1304639D01*
X394937Y1303030D01*
X397379Y1302018D01*
X398730Y1301841D01*
Y1310530D01*
D02*
G37*
G36*
X373330D02*
X364641D01*
X364818Y1309179D01*
X365830Y1306737D01*
X367439Y1304639D01*
X369537Y1303030D01*
X371979Y1302018D01*
X373330Y1301841D01*
Y1310530D01*
D02*
G37*
G36*
X662000Y1301114D02*
X659270D01*
Y1293770D01*
X670446D01*
X670320Y1294729D01*
X669460Y1296807D01*
X668091Y1298591D01*
X666307Y1299960D01*
X664229Y1300820D01*
X662000Y1301114D01*
D02*
G37*
G36*
X656730D02*
X654000D01*
X651771Y1300820D01*
X649693Y1299960D01*
X647909Y1298591D01*
X646540Y1296807D01*
X645680Y1294729D01*
X645554Y1293770D01*
X656730D01*
Y1301114D01*
D02*
G37*
G36*
X401270Y1296359D02*
Y1287670D01*
X409959D01*
X409782Y1289021D01*
X408770Y1291463D01*
X407161Y1293561D01*
X405063Y1295170D01*
X402621Y1296182D01*
X401270Y1296359D01*
D02*
G37*
G36*
X375870D02*
Y1287670D01*
X384559D01*
X384382Y1289021D01*
X383370Y1291463D01*
X381761Y1293561D01*
X379663Y1295170D01*
X377221Y1296182D01*
X375870Y1296359D01*
D02*
G37*
G36*
X398730D02*
X397379Y1296182D01*
X394937Y1295170D01*
X392839Y1293561D01*
X391230Y1291463D01*
X390218Y1289021D01*
X390041Y1287670D01*
X398730D01*
Y1296359D01*
D02*
G37*
G36*
X373330D02*
X371979Y1296182D01*
X369537Y1295170D01*
X367439Y1293561D01*
X365830Y1291463D01*
X364818Y1289021D01*
X364641Y1287670D01*
X373330D01*
Y1296359D01*
D02*
G37*
G36*
X409959Y1285130D02*
X401270D01*
Y1276441D01*
X402621Y1276618D01*
X405063Y1277630D01*
X407161Y1279239D01*
X408770Y1281337D01*
X409782Y1283779D01*
X409959Y1285130D01*
D02*
G37*
G36*
X384559D02*
X375870D01*
Y1276441D01*
X377221Y1276618D01*
X379663Y1277630D01*
X381761Y1279239D01*
X383370Y1281337D01*
X384382Y1283779D01*
X384559Y1285130D01*
D02*
G37*
G36*
X398730D02*
X390041D01*
X390218Y1283779D01*
X391230Y1281337D01*
X392839Y1279239D01*
X394937Y1277630D01*
X397379Y1276618D01*
X398730Y1276441D01*
Y1285130D01*
D02*
G37*
G36*
X373330D02*
X364641D01*
X364818Y1283779D01*
X365830Y1281337D01*
X367439Y1279239D01*
X369537Y1277630D01*
X371979Y1276618D01*
X373330Y1276441D01*
Y1285130D01*
D02*
G37*
G36*
X401270Y1270959D02*
Y1262270D01*
X409959D01*
X409782Y1263621D01*
X408770Y1266063D01*
X407161Y1268161D01*
X405063Y1269770D01*
X402621Y1270782D01*
X401270Y1270959D01*
D02*
G37*
G36*
X375870D02*
Y1262270D01*
X384559D01*
X384382Y1263621D01*
X383370Y1266063D01*
X381761Y1268161D01*
X379663Y1269770D01*
X377221Y1270782D01*
X375870Y1270959D01*
D02*
G37*
G36*
X398730D02*
X397379Y1270782D01*
X394937Y1269770D01*
X392839Y1268161D01*
X391230Y1266063D01*
X390218Y1263621D01*
X390041Y1262270D01*
X398730D01*
Y1270959D01*
D02*
G37*
G36*
X373330D02*
X371979Y1270782D01*
X369537Y1269770D01*
X367439Y1268161D01*
X365830Y1266063D01*
X364818Y1263621D01*
X364641Y1262270D01*
X373330D01*
Y1270959D01*
D02*
G37*
G36*
X485200Y1282500D02*
X460200D01*
Y1257500D01*
X485200D01*
Y1282500D01*
D02*
G37*
G36*
X409959Y1259730D02*
X401270D01*
Y1251041D01*
X402621Y1251218D01*
X405063Y1252230D01*
X407161Y1253839D01*
X408770Y1255937D01*
X409782Y1258379D01*
X409959Y1259730D01*
D02*
G37*
G36*
X384559D02*
X375870D01*
Y1251041D01*
X377221Y1251218D01*
X379663Y1252230D01*
X381761Y1253839D01*
X383370Y1255937D01*
X384382Y1258379D01*
X384559Y1259730D01*
D02*
G37*
G36*
X398730D02*
X390041D01*
X390218Y1258379D01*
X391230Y1255937D01*
X392839Y1253839D01*
X394937Y1252230D01*
X397379Y1251218D01*
X398730Y1251041D01*
Y1259730D01*
D02*
G37*
G36*
X373330D02*
X364641D01*
X364818Y1258379D01*
X365830Y1255937D01*
X367439Y1253839D01*
X369537Y1252230D01*
X371979Y1251218D01*
X373330Y1251041D01*
Y1259730D01*
D02*
G37*
G36*
X557160Y1285549D02*
X556185Y1285355D01*
X555358Y1284802D01*
X554805Y1283975D01*
X554611Y1283000D01*
X554611Y1248905D01*
X554805Y1247930D01*
X555358Y1247103D01*
X556185Y1246550D01*
X557160Y1246356D01*
X594160D01*
X609500Y1246356D01*
X610475Y1246550D01*
X611302Y1247103D01*
X611855Y1247930D01*
X612049Y1248905D01*
Y1256460D01*
X611855Y1257436D01*
X611302Y1258262D01*
X611000Y1258465D01*
Y1273536D01*
X611302Y1273738D01*
X611855Y1274565D01*
X612049Y1275540D01*
Y1283000D01*
X611855Y1283975D01*
X611302Y1284802D01*
X610475Y1285355D01*
X609500Y1285549D01*
X582002Y1285549D01*
X581756Y1285500D01*
X581505D01*
X581273Y1285404D01*
X581027Y1285355D01*
X580818Y1285215D01*
X580586Y1285119D01*
X580409Y1284942D01*
X580200Y1284802D01*
X580061Y1284594D01*
X579883Y1284416D01*
X579787Y1284184D01*
X579648Y1283975D01*
X579599Y1283729D01*
X579502Y1283497D01*
X579274Y1282348D01*
X577300Y1282608D01*
X575326Y1282348D01*
X575098Y1283497D01*
X575001Y1283729D01*
X574952Y1283975D01*
X574813Y1284184D01*
X574717Y1284416D01*
X574539Y1284594D01*
X574400Y1284802D01*
X574191Y1284942D01*
X574014Y1285119D01*
X573782Y1285215D01*
X573573Y1285355D01*
X573327Y1285404D01*
X573095Y1285500D01*
X572844D01*
X572598Y1285549D01*
X557160Y1285549D01*
D02*
G37*
G36*
X530040Y1241040D02*
X525000D01*
Y1236500D01*
X530040D01*
Y1241040D01*
D02*
G37*
G36*
X521000D02*
X515960D01*
Y1236500D01*
X521000D01*
Y1241040D01*
D02*
G37*
%LPD*%
G36*
X610000Y1357000D02*
Y1350540D01*
X606250D01*
Y1341000D01*
Y1331460D01*
X610000D01*
Y1324000D01*
X590919Y1324000D01*
X589840Y1324460D01*
X589840Y1325270D01*
Y1335730D01*
X564760D01*
Y1325270D01*
X563680Y1324000D01*
X557160D01*
X557160Y1357000D01*
X598000Y1357000D01*
X610000Y1357000D01*
D02*
G37*
%LPC*%
G36*
X602250Y1350540D02*
X597460D01*
Y1343000D01*
X602250D01*
Y1350540D01*
D02*
G37*
G36*
X589840Y1349540D02*
X578570D01*
Y1338270D01*
X589840D01*
Y1349540D01*
D02*
G37*
G36*
X576030D02*
X564760D01*
Y1338270D01*
X576030D01*
Y1349540D01*
D02*
G37*
G36*
X602250Y1339000D02*
X597460D01*
Y1331460D01*
X602250D01*
Y1339000D01*
D02*
G37*
%LPD*%
G36*
X572598Y1283000D02*
X572850Y1281730D01*
X570976Y1280954D01*
X568356Y1278944D01*
X566346Y1276324D01*
X565083Y1273274D01*
X564819Y1271270D01*
X577300D01*
Y1270000D01*
D01*
Y1271270D01*
X589781D01*
X589517Y1273274D01*
X588254Y1276324D01*
X586244Y1278944D01*
X583624Y1280954D01*
X581750Y1281730D01*
X582002Y1283000D01*
X609500Y1283000D01*
Y1275540D01*
X606250D01*
Y1266000D01*
Y1256460D01*
X609500D01*
Y1248905D01*
X594160Y1248905D01*
X557160D01*
X557160Y1283000D01*
X572598Y1283000D01*
D02*
G37*
%LPC*%
G36*
X602250Y1275540D02*
X597460D01*
Y1268000D01*
X602250D01*
Y1275540D01*
D02*
G37*
G36*
X589781Y1268730D02*
X578570D01*
Y1257519D01*
X580574Y1257783D01*
X583624Y1259046D01*
X586244Y1261056D01*
X588254Y1263676D01*
X589517Y1266726D01*
X589781Y1268730D01*
D02*
G37*
G36*
X576030D02*
X564819D01*
X565083Y1266726D01*
X566346Y1263676D01*
X568356Y1261056D01*
X570976Y1259046D01*
X574026Y1257783D01*
X576030Y1257519D01*
Y1268730D01*
D02*
G37*
G36*
X602250Y1264000D02*
X597460D01*
Y1256460D01*
X602250D01*
Y1264000D01*
D02*
G37*
G36*
X530040Y1219500D02*
X525000D01*
Y1214960D01*
X530040D01*
Y1219500D01*
D02*
G37*
G36*
X521000D02*
X515960D01*
Y1214960D01*
X521000D01*
Y1219500D01*
D02*
G37*
G36*
X511045Y1215000D02*
X504663D01*
Y1206459D01*
X511045D01*
Y1215000D01*
D02*
G37*
G36*
X379290Y1197290D02*
X372000D01*
Y1190000D01*
X379290D01*
Y1197290D01*
D02*
G37*
G36*
X368000D02*
X360710D01*
Y1190000D01*
X368000D01*
Y1197290D01*
D02*
G37*
G36*
X379290Y1186000D02*
X372000D01*
Y1178710D01*
X379290D01*
Y1186000D01*
D02*
G37*
G36*
X368000D02*
X360710D01*
Y1178710D01*
X368000D01*
Y1186000D01*
D02*
G37*
G36*
X742169Y1195486D02*
X739559Y1195143D01*
X737126Y1194135D01*
X735037Y1192532D01*
X733435Y1190443D01*
X732427Y1188010D01*
X732083Y1185400D01*
X732427Y1182790D01*
X733435Y1180357D01*
X735037Y1178268D01*
X737126Y1176665D01*
X739559Y1175657D01*
X742169Y1175314D01*
X744780Y1175657D01*
X747213Y1176665D01*
X749302Y1178268D01*
X750904Y1180357D01*
X751912Y1182790D01*
X752256Y1185400D01*
X751912Y1188010D01*
X750904Y1190443D01*
X749302Y1192532D01*
X747213Y1194135D01*
X744780Y1195143D01*
X742169Y1195486D01*
D02*
G37*
G36*
X716769D02*
X714159Y1195143D01*
X711726Y1194135D01*
X709637Y1192532D01*
X708035Y1190443D01*
X707027Y1188010D01*
X706683Y1185400D01*
X707027Y1182790D01*
X708035Y1180357D01*
X709637Y1178268D01*
X711726Y1176665D01*
X714159Y1175657D01*
X716769Y1175314D01*
X719380Y1175657D01*
X721813Y1176665D01*
X723902Y1178268D01*
X725504Y1180357D01*
X726512Y1182790D01*
X726856Y1185400D01*
X726512Y1188010D01*
X725504Y1190443D01*
X723902Y1192532D01*
X721813Y1194135D01*
X719380Y1195143D01*
X716769Y1195486D01*
D02*
G37*
G36*
X691369D02*
X688759Y1195143D01*
X686326Y1194135D01*
X684237Y1192532D01*
X682635Y1190443D01*
X681627Y1188010D01*
X681283Y1185400D01*
X681627Y1182790D01*
X682635Y1180357D01*
X684237Y1178268D01*
X686326Y1176665D01*
X688759Y1175657D01*
X691369Y1175314D01*
X693980Y1175657D01*
X696413Y1176665D01*
X698502Y1178268D01*
X700104Y1180357D01*
X701112Y1182790D01*
X701456Y1185400D01*
X701112Y1188010D01*
X700104Y1190443D01*
X698502Y1192532D01*
X696413Y1194135D01*
X693980Y1195143D01*
X691369Y1195486D01*
D02*
G37*
G36*
X665969D02*
X663359Y1195143D01*
X660926Y1194135D01*
X658837Y1192532D01*
X657234Y1190443D01*
X656227Y1188010D01*
X655883Y1185400D01*
X656227Y1182790D01*
X657234Y1180357D01*
X658837Y1178268D01*
X660926Y1176665D01*
X663359Y1175657D01*
X665969Y1175314D01*
X668580Y1175657D01*
X671013Y1176665D01*
X673102Y1178268D01*
X674704Y1180357D01*
X675712Y1182790D01*
X676056Y1185400D01*
X675712Y1188010D01*
X674704Y1190443D01*
X673102Y1192532D01*
X671013Y1194135D01*
X668580Y1195143D01*
X665969Y1195486D01*
D02*
G37*
G36*
X640570D02*
X637959Y1195143D01*
X635526Y1194135D01*
X633437Y1192532D01*
X631834Y1190443D01*
X630827Y1188010D01*
X630483Y1185400D01*
X630827Y1182790D01*
X631834Y1180357D01*
X633437Y1178268D01*
X635526Y1176665D01*
X637959Y1175657D01*
X640570Y1175314D01*
X643180Y1175657D01*
X645613Y1176665D01*
X647701Y1178268D01*
X649304Y1180357D01*
X650312Y1182790D01*
X650656Y1185400D01*
X650312Y1188010D01*
X649304Y1190443D01*
X647701Y1192532D01*
X645613Y1194135D01*
X643180Y1195143D01*
X640570Y1195486D01*
D02*
G37*
G36*
X692639Y1169959D02*
Y1161270D01*
X701329D01*
X701151Y1162621D01*
X700139Y1165063D01*
X698530Y1167161D01*
X696433Y1168770D01*
X693990Y1169782D01*
X692639Y1169959D01*
D02*
G37*
G36*
X641840D02*
Y1161270D01*
X650529D01*
X650351Y1162621D01*
X649339Y1165063D01*
X647730Y1167161D01*
X645633Y1168770D01*
X643191Y1169782D01*
X641840Y1169959D01*
D02*
G37*
G36*
X718039D02*
Y1161270D01*
X726729D01*
X726551Y1162621D01*
X725539Y1165063D01*
X723930Y1167161D01*
X721833Y1168770D01*
X719390Y1169782D01*
X718039Y1169959D01*
D02*
G37*
G36*
X690099Y1169959D02*
X688748Y1169782D01*
X686306Y1168770D01*
X684209Y1167161D01*
X682600Y1165063D01*
X681588Y1162621D01*
X681410Y1161270D01*
X690099D01*
Y1169959D01*
D02*
G37*
G36*
X639300D02*
X637948Y1169782D01*
X635506Y1168770D01*
X633409Y1167161D01*
X631800Y1165063D01*
X630788Y1162621D01*
X630610Y1161270D01*
X639300D01*
Y1169959D01*
D02*
G37*
G36*
X715499D02*
X714148Y1169782D01*
X711706Y1168770D01*
X709609Y1167161D01*
X708000Y1165063D01*
X706988Y1162621D01*
X706810Y1161270D01*
X715499D01*
Y1169959D01*
D02*
G37*
G36*
X726729Y1158730D02*
X718039D01*
Y1150041D01*
X719390Y1150218D01*
X721833Y1151230D01*
X723930Y1152839D01*
X725539Y1154937D01*
X726551Y1157379D01*
X726729Y1158730D01*
D02*
G37*
G36*
X701329D02*
X692639D01*
Y1150041D01*
X693990Y1150218D01*
X696433Y1151230D01*
X698530Y1152839D01*
X700139Y1154937D01*
X701151Y1157379D01*
X701329Y1158730D01*
D02*
G37*
G36*
X650529D02*
X641840D01*
Y1150041D01*
X643191Y1150218D01*
X645633Y1151230D01*
X647730Y1152839D01*
X649339Y1154937D01*
X650351Y1157379D01*
X650529Y1158730D01*
D02*
G37*
G36*
X715499D02*
X706810D01*
X706988Y1157379D01*
X708000Y1154937D01*
X709609Y1152839D01*
X711706Y1151230D01*
X714148Y1150218D01*
X715499Y1150041D01*
Y1158730D01*
D02*
G37*
G36*
X690099D02*
X681410D01*
X681588Y1157379D01*
X682600Y1154937D01*
X684209Y1152839D01*
X686306Y1151230D01*
X688748Y1150218D01*
X690099Y1150041D01*
Y1158730D01*
D02*
G37*
G36*
X639300D02*
X630610D01*
X630788Y1157379D01*
X631800Y1154937D01*
X633409Y1152839D01*
X635506Y1151230D01*
X637948Y1150218D01*
X639300Y1150041D01*
Y1158730D01*
D02*
G37*
G36*
X752169Y1170000D02*
X732169D01*
Y1150000D01*
X752169D01*
Y1170000D01*
D02*
G37*
G36*
X665969Y1170086D02*
X663359Y1169743D01*
X660926Y1168735D01*
X658837Y1167132D01*
X657234Y1165043D01*
X656227Y1162610D01*
X655883Y1160000D01*
X656227Y1157390D01*
X657234Y1154957D01*
X658837Y1152868D01*
X660926Y1151265D01*
X663359Y1150257D01*
X665969Y1149914D01*
X668580Y1150257D01*
X671013Y1151265D01*
X673102Y1152868D01*
X674704Y1154957D01*
X675712Y1157390D01*
X676056Y1160000D01*
X675712Y1162610D01*
X674704Y1165043D01*
X673102Y1167132D01*
X671013Y1168735D01*
X668580Y1169743D01*
X665969Y1170086D01*
D02*
G37*
G36*
X424040Y1145000D02*
X419000D01*
Y1140460D01*
X424040D01*
Y1145000D01*
D02*
G37*
G36*
X415000D02*
X409960D01*
Y1140460D01*
X415000D01*
Y1145000D01*
D02*
G37*
G36*
X426250Y1197250D02*
X407750D01*
Y1178750D01*
X413676D01*
Y1178000D01*
X413676Y1178000D01*
Y1167500D01*
X410000D01*
Y1154793D01*
X409960Y1153540D01*
X409960Y1153247D01*
Y1149000D01*
X424040D01*
Y1153247D01*
X424040Y1153540D01*
X424000Y1154793D01*
Y1157176D01*
X428000D01*
Y1155270D01*
X428000Y1154000D01*
X428000D01*
Y1154000D01*
X428000D01*
Y1141000D01*
X442000D01*
Y1143677D01*
X446000D01*
X447463Y1143968D01*
X448704Y1144796D01*
X450713Y1146805D01*
X451541Y1148046D01*
X451832Y1149509D01*
Y1153222D01*
X452719Y1154549D01*
X453107Y1156500D01*
X453662Y1157176D01*
X469123D01*
X477676Y1148623D01*
Y1130787D01*
X477404Y1130605D01*
X476299Y1128951D01*
X475911Y1127000D01*
X476299Y1125049D01*
X477404Y1123395D01*
X479058Y1122290D01*
X481009Y1121902D01*
X482960Y1122290D01*
X484614Y1123395D01*
X485719Y1125049D01*
X486107Y1127000D01*
X485719Y1128951D01*
X484614Y1130605D01*
X484324Y1130798D01*
Y1150000D01*
X484071Y1151272D01*
X483350Y1152350D01*
X472850Y1162850D01*
X468350Y1167350D01*
X467272Y1168071D01*
X466000Y1168324D01*
X457377D01*
X443324Y1182377D01*
Y1185208D01*
X443605Y1185395D01*
X444710Y1187049D01*
X445098Y1189000D01*
X444710Y1190951D01*
X443605Y1192605D01*
X441951Y1193710D01*
X440000Y1194098D01*
X438049Y1193710D01*
X436395Y1192605D01*
X435290Y1190951D01*
X434902Y1189000D01*
X435290Y1187049D01*
X436395Y1185395D01*
X436676Y1185208D01*
Y1181000D01*
X436929Y1179728D01*
X437650Y1178650D01*
X451302Y1164997D01*
X450816Y1163824D01*
X442000D01*
Y1167000D01*
X428000D01*
Y1163824D01*
X424000D01*
Y1167500D01*
X420324D01*
Y1178750D01*
X426250D01*
Y1197250D01*
D02*
G37*
G36*
X719020Y1084409D02*
Y1075720D01*
X727709D01*
X727532Y1077071D01*
X726520Y1079513D01*
X724911Y1081611D01*
X722813Y1083220D01*
X720371Y1084232D01*
X719020Y1084409D01*
D02*
G37*
G36*
X716480D02*
X715129Y1084232D01*
X712687Y1083220D01*
X710589Y1081611D01*
X708980Y1079513D01*
X707968Y1077071D01*
X707791Y1075720D01*
X716480D01*
Y1084409D01*
D02*
G37*
G36*
X727709Y1073180D02*
X719020D01*
Y1064491D01*
X720371Y1064669D01*
X722813Y1065680D01*
X724911Y1067289D01*
X726520Y1069387D01*
X727532Y1071829D01*
X727709Y1073180D01*
D02*
G37*
G36*
X716480D02*
X707791D01*
X707968Y1071829D01*
X708980Y1069387D01*
X710589Y1067289D01*
X712687Y1065680D01*
X715129Y1064669D01*
X716480Y1064491D01*
Y1073180D01*
D02*
G37*
G36*
X692350Y1084536D02*
X689740Y1084193D01*
X687307Y1083185D01*
X685218Y1081582D01*
X683615Y1079493D01*
X682607Y1077060D01*
X682264Y1074450D01*
X682607Y1071840D01*
X683615Y1069407D01*
X685218Y1067318D01*
X687307Y1065715D01*
X689740Y1064707D01*
X692350Y1064364D01*
X694960Y1064707D01*
X697393Y1065715D01*
X699482Y1067318D01*
X701085Y1069407D01*
X702093Y1071840D01*
X702436Y1074450D01*
X702093Y1077060D01*
X701085Y1079493D01*
X699482Y1081582D01*
X697393Y1083185D01*
X694960Y1084193D01*
X692350Y1084536D01*
D02*
G37*
G36*
X666950D02*
X664340Y1084193D01*
X661907Y1083185D01*
X659818Y1081582D01*
X658215Y1079493D01*
X657207Y1077060D01*
X656864Y1074450D01*
X657207Y1071840D01*
X658215Y1069407D01*
X659818Y1067318D01*
X661907Y1065715D01*
X664340Y1064707D01*
X666950Y1064364D01*
X669560Y1064707D01*
X671993Y1065715D01*
X674082Y1067318D01*
X675685Y1069407D01*
X676693Y1071840D01*
X677036Y1074450D01*
X676693Y1077060D01*
X675685Y1079493D01*
X674082Y1081582D01*
X671993Y1083185D01*
X669560Y1084193D01*
X666950Y1084536D01*
D02*
G37*
G36*
X998000Y1111291D02*
X995270D01*
Y1103948D01*
X1006447D01*
X1006320Y1104907D01*
X1005460Y1106984D01*
X1004091Y1108768D01*
X1002307Y1110137D01*
X1000229Y1110998D01*
X998000Y1111291D01*
D02*
G37*
G36*
X1017000Y1068556D02*
X1015303Y1068333D01*
X1013722Y1067678D01*
X1012364Y1066636D01*
X1011322Y1065278D01*
X1010667Y1063697D01*
X1010444Y1062000D01*
X1010667Y1060303D01*
X1011322Y1058722D01*
X1012364Y1057364D01*
X1013722Y1056322D01*
X1015303Y1055667D01*
X1017000Y1055444D01*
X1018697Y1055667D01*
X1020278Y1056322D01*
X1021636Y1057364D01*
X1022678Y1058722D01*
X1023333Y1060303D01*
X1023556Y1062000D01*
X1023333Y1063697D01*
X1022678Y1065278D01*
X1021636Y1066636D01*
X1020278Y1067678D01*
X1018697Y1068333D01*
X1017000Y1068556D01*
D02*
G37*
G36*
X486675Y974556D02*
X484978Y974333D01*
X483397Y973678D01*
X482039Y972636D01*
X480998Y971278D01*
X480343Y969697D01*
X480119Y968000D01*
X480343Y966303D01*
X480998Y964722D01*
X482039Y963364D01*
X483397Y962322D01*
X484978Y961667D01*
X486675Y961444D01*
X488372Y961667D01*
X489953Y962322D01*
X491311Y963364D01*
X492353Y964722D01*
X493008Y966303D01*
X493231Y968000D01*
X493008Y969697D01*
X492353Y971278D01*
X491311Y972636D01*
X489953Y973678D01*
X488372Y974333D01*
X486675Y974556D01*
D02*
G37*
G36*
X469000Y945029D02*
X467303Y944806D01*
X465722Y944151D01*
X464364Y943109D01*
X463322Y941751D01*
X462667Y940170D01*
X462444Y938473D01*
X462667Y936776D01*
X463322Y935195D01*
X464364Y933838D01*
X465722Y932796D01*
X467303Y932141D01*
X469000Y931917D01*
X470697Y932141D01*
X472278Y932796D01*
X473636Y933838D01*
X474678Y935195D01*
X475333Y936776D01*
X475556Y938473D01*
X475333Y940170D01*
X474678Y941751D01*
X473636Y943109D01*
X472278Y944151D01*
X470697Y944806D01*
X469000Y945029D01*
D02*
G37*
G36*
X462000Y928556D02*
X460303Y928333D01*
X458722Y927678D01*
X457364Y926636D01*
X456322Y925278D01*
X455667Y923697D01*
X455444Y922000D01*
X455667Y920303D01*
X456322Y918722D01*
X457364Y917364D01*
X458722Y916322D01*
X460303Y915667D01*
X462000Y915444D01*
X463697Y915667D01*
X465278Y916322D01*
X466636Y917364D01*
X467678Y918722D01*
X468333Y920303D01*
X468556Y922000D01*
X468333Y923697D01*
X467678Y925278D01*
X466636Y926636D01*
X465278Y927678D01*
X463697Y928333D01*
X462000Y928556D01*
D02*
G37*
G36*
X989148Y893702D02*
X986929Y893410D01*
X984861Y892553D01*
X983086Y891191D01*
X982474Y890393D01*
X980873D01*
X980239Y891219D01*
X978455Y892588D01*
X976377Y893449D01*
X975418Y893575D01*
Y881128D01*
Y868682D01*
X976377Y868808D01*
X978455Y869669D01*
X980239Y871038D01*
X980873Y871864D01*
X982474D01*
X983086Y871066D01*
X984861Y869704D01*
X986929Y868847D01*
X989148Y868555D01*
X991367Y868847D01*
X993435Y869704D01*
X995210Y871066D01*
X996573Y872842D01*
X997429Y874910D01*
X997721Y877129D01*
Y885128D01*
X997429Y887347D01*
X996573Y889415D01*
X995210Y891191D01*
X993435Y892553D01*
X991367Y893410D01*
X989148Y893702D01*
D02*
G37*
G36*
X972878Y893575D02*
X971919Y893449D01*
X969841Y892588D01*
X968057Y891219D01*
X966688Y889435D01*
X965828Y887358D01*
X965534Y885128D01*
Y882399D01*
X972878D01*
Y893575D01*
D02*
G37*
G36*
Y879858D02*
X965534D01*
Y877129D01*
X965828Y874899D01*
X966688Y872822D01*
X968057Y871038D01*
X969841Y869669D01*
X971919Y868808D01*
X972878Y868682D01*
Y879858D01*
D02*
G37*
G36*
X1028573Y862556D02*
X1026877Y862333D01*
X1025295Y861678D01*
X1023938Y860636D01*
X1022896Y859278D01*
X1022241Y857697D01*
X1022017Y856000D01*
X1022241Y854303D01*
X1022896Y852722D01*
X1023938Y851364D01*
X1025295Y850322D01*
X1026877Y849667D01*
X1028573Y849444D01*
X1030270Y849667D01*
X1031851Y850322D01*
X1033209Y851364D01*
X1034251Y852722D01*
X1034906Y854303D01*
X1035129Y856000D01*
X1034906Y857697D01*
X1034251Y859278D01*
X1033209Y860636D01*
X1031851Y861678D01*
X1030270Y862333D01*
X1028573Y862556D01*
D02*
G37*
G36*
X1020000Y831073D02*
X1012000D01*
X1009781Y830781D01*
X1007713Y829925D01*
X1005938Y828562D01*
X1004575Y826787D01*
X1003719Y824719D01*
X1003427Y822500D01*
X1003719Y820281D01*
X1004575Y818213D01*
X1005938Y816438D01*
X1006768Y815800D01*
Y814200D01*
X1005938Y813562D01*
X1004575Y811787D01*
X1003719Y809719D01*
X1003427Y807500D01*
X1003719Y805281D01*
X1004575Y803213D01*
X1005938Y801438D01*
X1007713Y800075D01*
X1009781Y799219D01*
X1012000Y798927D01*
X1020000D01*
X1022219Y799219D01*
X1024287Y800075D01*
X1026062Y801438D01*
X1027425Y803213D01*
X1028281Y805281D01*
X1028573Y807500D01*
X1028281Y809719D01*
X1027425Y811787D01*
X1026062Y813562D01*
X1025232Y814200D01*
Y815800D01*
X1026062Y816438D01*
X1027425Y818213D01*
X1028281Y820281D01*
X1028573Y822500D01*
X1028281Y824719D01*
X1027425Y826787D01*
X1026062Y828562D01*
X1024287Y829925D01*
X1022219Y830781D01*
X1020000Y831073D01*
D02*
G37*
G36*
X1014000Y783920D02*
X1012303Y783697D01*
X1010722Y783042D01*
X1009364Y782000D01*
X1008322Y780642D01*
X1007667Y779061D01*
X1007444Y777364D01*
X1007667Y775667D01*
X1008322Y774086D01*
X1009364Y772728D01*
X1010722Y771686D01*
X1012303Y771031D01*
X1014000Y770808D01*
X1015697Y771031D01*
X1017278Y771686D01*
X1018636Y772728D01*
X1019678Y774086D01*
X1020333Y775667D01*
X1020556Y777364D01*
X1020333Y779061D01*
X1019678Y780642D01*
X1018636Y782000D01*
X1017278Y783042D01*
X1015697Y783697D01*
X1014000Y783920D01*
D02*
G37*
G36*
X517395Y782098D02*
X515444Y781710D01*
X513790Y780605D01*
X512685Y778951D01*
X512297Y777000D01*
X512685Y775049D01*
X513790Y773395D01*
X515444Y772290D01*
X517395Y771902D01*
X519346Y772290D01*
X520673Y773177D01*
X551962D01*
X558525Y766614D01*
X558836Y765049D01*
X559941Y763395D01*
X561595Y762290D01*
X563546Y761902D01*
X565497Y762290D01*
X567151Y763395D01*
X568256Y765049D01*
X568644Y767000D01*
X568256Y768951D01*
X567151Y770605D01*
X565497Y771710D01*
X563932Y772021D01*
X556250Y779704D01*
X555009Y780532D01*
X553546Y780823D01*
X520673D01*
X519346Y781710D01*
X517395Y782098D01*
D02*
G37*
G36*
X1021790Y735556D02*
X1020093Y735333D01*
X1018512Y734678D01*
X1017154Y733636D01*
X1016112Y732278D01*
X1015457Y730697D01*
X1015234Y729000D01*
X1015457Y727303D01*
X1016112Y725722D01*
X1017154Y724364D01*
X1018512Y723322D01*
X1020093Y722667D01*
X1021790Y722444D01*
X1023487Y722667D01*
X1025068Y723322D01*
X1026426Y724364D01*
X1027468Y725722D01*
X1028123Y727303D01*
X1028346Y729000D01*
X1028123Y730697D01*
X1027468Y732278D01*
X1026426Y733636D01*
X1025068Y734678D01*
X1023487Y735333D01*
X1021790Y735556D01*
D02*
G37*
G36*
X568256Y674556D02*
X566559Y674333D01*
X564978Y673678D01*
X563620Y672636D01*
X562578Y671278D01*
X561923Y669697D01*
X561700Y668000D01*
X561923Y666303D01*
X562578Y664722D01*
X563620Y663364D01*
X564978Y662322D01*
X566559Y661667D01*
X568256Y661444D01*
X569953Y661667D01*
X571534Y662322D01*
X572892Y663364D01*
X573934Y664722D01*
X574589Y666303D01*
X574812Y668000D01*
X574589Y669697D01*
X573934Y671278D01*
X572892Y672636D01*
X571534Y673678D01*
X569953Y674333D01*
X568256Y674556D01*
D02*
G37*
G36*
X1020112Y690073D02*
X1012112D01*
X1009893Y689781D01*
X1007826Y688925D01*
X1006050Y687562D01*
X1004688Y685787D01*
X1003831Y683719D01*
X1003539Y681500D01*
X1003831Y679281D01*
X1004688Y677213D01*
X1006050Y675438D01*
X1006881Y674800D01*
Y673200D01*
X1006050Y672562D01*
X1004688Y670787D01*
X1003831Y668719D01*
X1003539Y666500D01*
X1003831Y664281D01*
X1004688Y662213D01*
X1006050Y660438D01*
X1007826Y659075D01*
X1009893Y658219D01*
X1012112Y657927D01*
X1020112D01*
X1022331Y658219D01*
X1024399Y659075D01*
X1026174Y660438D01*
X1027537Y662213D01*
X1028393Y664281D01*
X1028686Y666500D01*
X1028393Y668719D01*
X1027537Y670787D01*
X1026174Y672562D01*
X1025344Y673200D01*
Y674800D01*
X1026174Y675438D01*
X1027537Y677213D01*
X1028393Y679281D01*
X1028686Y681500D01*
X1028393Y683719D01*
X1027537Y685787D01*
X1026174Y687562D01*
X1024399Y688925D01*
X1022331Y689781D01*
X1020112Y690073D01*
D02*
G37*
G36*
X553000Y659095D02*
X550128Y658717D01*
X547453Y657608D01*
X545155Y655845D01*
X543391Y653547D01*
X542283Y650872D01*
X541905Y648000D01*
X542283Y645128D01*
X543391Y642453D01*
X545155Y640155D01*
X547453Y638391D01*
X550128Y637283D01*
X553000Y636905D01*
X555872Y637283D01*
X558548Y638391D01*
X560845Y640155D01*
X562608Y642453D01*
X563717Y645128D01*
X564095Y648000D01*
X563717Y650872D01*
X562608Y653547D01*
X560845Y655845D01*
X558548Y657608D01*
X555872Y658717D01*
X553000Y659095D01*
D02*
G37*
G36*
X528000D02*
X525128Y658717D01*
X522453Y657608D01*
X520155Y655845D01*
X518391Y653547D01*
X517283Y650872D01*
X516905Y648000D01*
X517283Y645128D01*
X518391Y642453D01*
X520155Y640155D01*
X522453Y638391D01*
X525128Y637283D01*
X528000Y636905D01*
X530872Y637283D01*
X533548Y638391D01*
X535845Y640155D01*
X537608Y642453D01*
X538717Y645128D01*
X539095Y648000D01*
X538717Y650872D01*
X537608Y653547D01*
X535845Y655845D01*
X533548Y657608D01*
X530872Y658717D01*
X528000Y659095D01*
D02*
G37*
G36*
X1001500Y620500D02*
X984500D01*
Y619098D01*
X981000D01*
X979049Y618710D01*
X977395Y617605D01*
X972888Y613098D01*
X966000D01*
X964049Y612710D01*
X962395Y611605D01*
X961290Y609951D01*
X960902Y608000D01*
X961290Y606049D01*
X962395Y604395D01*
X964049Y603290D01*
X966000Y602902D01*
X975000D01*
X976951Y603290D01*
X978605Y604395D01*
X983112Y608902D01*
X984500D01*
Y603500D01*
X1001500D01*
Y620500D01*
D02*
G37*
G36*
X469540Y607540D02*
X463000D01*
Y601000D01*
X469540D01*
Y607540D01*
D02*
G37*
G36*
X459000D02*
X452460D01*
Y601000D01*
X459000D01*
Y607540D01*
D02*
G37*
G36*
X1034000Y612500D02*
X1014000D01*
Y591500D01*
X1034000D01*
Y612500D01*
D02*
G37*
G36*
X469540Y597000D02*
X463000D01*
Y590460D01*
X469540D01*
Y597000D01*
D02*
G37*
G36*
X459000D02*
X452460D01*
Y590460D01*
X459000D01*
Y597000D01*
D02*
G37*
G36*
X1001500Y600500D02*
X984500D01*
Y583500D01*
X1001500D01*
Y600500D01*
D02*
G37*
G36*
X1030000Y570556D02*
X1028303Y570333D01*
X1026722Y569678D01*
X1025364Y568636D01*
X1024322Y567278D01*
X1023667Y565697D01*
X1023444Y564000D01*
X1023667Y562303D01*
X1024322Y560722D01*
X1025364Y559364D01*
X1026722Y558322D01*
X1028303Y557667D01*
X1030000Y557444D01*
X1031697Y557667D01*
X1033278Y558322D01*
X1034636Y559364D01*
X1035678Y560722D01*
X1036333Y562303D01*
X1036556Y564000D01*
X1036333Y565697D01*
X1035678Y567278D01*
X1034636Y568636D01*
X1033278Y569678D01*
X1031697Y570333D01*
X1030000Y570556D01*
D02*
G37*
G36*
X1023900Y387663D02*
X1021420D01*
Y376270D01*
X1030313D01*
Y381250D01*
X1029825Y383704D01*
X1028435Y385785D01*
X1026354Y387175D01*
X1023900Y387663D01*
D02*
G37*
G36*
X1030313Y373730D02*
X1021420D01*
Y362337D01*
X1023900D01*
X1026354Y362825D01*
X1028435Y364215D01*
X1029825Y366296D01*
X1030313Y368750D01*
Y373730D01*
D02*
G37*
G36*
X559352Y1092039D02*
X552970D01*
Y1083498D01*
X559352D01*
Y1092039D01*
D02*
G37*
G36*
Y1079498D02*
X552970D01*
Y1070957D01*
X559352D01*
Y1079498D01*
D02*
G37*
G36*
X528000Y930095D02*
X525128Y929717D01*
X522453Y928608D01*
X520155Y926845D01*
X518391Y924548D01*
X517283Y921872D01*
X516905Y919000D01*
X517283Y916128D01*
X518391Y913453D01*
X520155Y911155D01*
X522453Y909391D01*
X525128Y908283D01*
X528000Y907905D01*
X530872Y908283D01*
X533548Y909391D01*
X535845Y911155D01*
X537608Y913453D01*
X538717Y916128D01*
X539095Y919000D01*
X538717Y921872D01*
X537608Y924548D01*
X535845Y926845D01*
X533548Y928608D01*
X530872Y929717D01*
X528000Y930095D01*
D02*
G37*
G36*
X705667Y780458D02*
X703970Y780235D01*
X702389Y779580D01*
X701031Y778538D01*
X699990Y777180D01*
X699335Y775599D01*
X699111Y773902D01*
X699335Y772205D01*
X699990Y770624D01*
X701031Y769266D01*
X702389Y768224D01*
X703970Y767569D01*
X705667Y767346D01*
X707364Y767569D01*
X708945Y768224D01*
X710303Y769266D01*
X711345Y770624D01*
X712000Y772205D01*
X712223Y773902D01*
X712000Y775599D01*
X711345Y777180D01*
X710303Y778538D01*
X708945Y779580D01*
X707364Y780235D01*
X705667Y780458D01*
D02*
G37*
G36*
X762976Y840839D02*
X761025Y840451D01*
X759371Y839346D01*
X758266Y837692D01*
X757878Y835741D01*
Y781500D01*
X756500D01*
Y764500D01*
X773500D01*
Y781500D01*
X768074D01*
Y835741D01*
X767686Y837692D01*
X766581Y839346D01*
X764927Y840451D01*
X762976Y840839D01*
D02*
G37*
G36*
X796000Y784098D02*
X794049Y783710D01*
X792395Y782605D01*
Y782605D01*
X791290Y780951D01*
X790902Y779000D01*
Y773500D01*
X786000D01*
Y752500D01*
X806000D01*
Y773500D01*
X801098D01*
Y779000D01*
X801098Y779000D01*
X800710Y780951D01*
X799605Y782605D01*
X797951Y783710D01*
X796000Y784098D01*
D02*
G37*
G36*
X875392Y675000D02*
X870352D01*
Y670460D01*
X875392D01*
Y675000D01*
D02*
G37*
G36*
X862000Y659095D02*
X859128Y658717D01*
X856452Y657608D01*
X854155Y655845D01*
X852392Y653547D01*
X851283Y650872D01*
X850905Y648000D01*
X851283Y645128D01*
X852392Y642453D01*
X854155Y640155D01*
X856452Y638391D01*
X859128Y637283D01*
X862000Y636905D01*
X864872Y637283D01*
X867548Y638391D01*
X869845Y640155D01*
X871609Y642453D01*
X872717Y645128D01*
X873095Y648000D01*
X872717Y650872D01*
X871609Y653547D01*
X869845Y655845D01*
X867548Y657608D01*
X864872Y658717D01*
X862000Y659095D01*
D02*
G37*
G36*
X802000Y668098D02*
X800049Y667710D01*
X798395Y666605D01*
X797290Y664951D01*
X796902Y663000D01*
X797290Y661049D01*
X798395Y659395D01*
X800049Y658290D01*
X802000Y657902D01*
X803951Y658290D01*
X805605Y659395D01*
X805771Y659644D01*
X833047D01*
X833300Y658374D01*
X831452Y657608D01*
X829155Y655845D01*
X827392Y653547D01*
X826283Y650872D01*
X825905Y648000D01*
X826283Y645128D01*
X827392Y642453D01*
X829155Y640155D01*
X831452Y638391D01*
X834128Y637283D01*
X837000Y636905D01*
X839872Y637283D01*
X842548Y638391D01*
X844845Y640155D01*
X846609Y642453D01*
X847717Y645128D01*
X848095Y648000D01*
X847717Y650872D01*
X846609Y653547D01*
X844845Y655845D01*
X843855Y656605D01*
X843932Y657140D01*
X844273Y657885D01*
X845983Y658225D01*
X847637Y659330D01*
X848742Y660984D01*
X849130Y662935D01*
X848742Y664886D01*
X847637Y666540D01*
X845983Y667645D01*
X844032Y668033D01*
X842081Y667645D01*
X840427Y666540D01*
X840261Y666291D01*
X805814D01*
X805605Y666605D01*
X803951Y667710D01*
X802000Y668098D01*
D02*
G37*
G36*
X987118Y490721D02*
Y481270D01*
X996569D01*
X996365Y482818D01*
X995277Y485444D01*
X993547Y487699D01*
X991292Y489429D01*
X988666Y490517D01*
X987118Y490721D01*
D02*
G37*
G36*
X984578D02*
X983030Y490517D01*
X980404Y489429D01*
X978149Y487699D01*
X976419Y485444D01*
X975331Y482818D01*
X975127Y481270D01*
X984578D01*
Y490721D01*
D02*
G37*
G36*
X875888D02*
Y481270D01*
X885339D01*
X885135Y482818D01*
X884047Y485444D01*
X882317Y487699D01*
X880062Y489429D01*
X877436Y490517D01*
X875888Y490721D01*
D02*
G37*
G36*
X873348D02*
X871800Y490517D01*
X869174Y489429D01*
X866919Y487699D01*
X865189Y485444D01*
X864101Y482818D01*
X863897Y481270D01*
X873348D01*
Y490721D01*
D02*
G37*
G36*
X764658D02*
Y481270D01*
X774109D01*
X773905Y482818D01*
X772817Y485444D01*
X771087Y487699D01*
X768832Y489429D01*
X766206Y490517D01*
X764658Y490721D01*
D02*
G37*
G36*
X762118D02*
X760570Y490517D01*
X757944Y489429D01*
X755689Y487699D01*
X753959Y485444D01*
X752871Y482818D01*
X752667Y481270D01*
X762118D01*
Y490721D01*
D02*
G37*
G36*
X653428D02*
Y481270D01*
X662879D01*
X662675Y482818D01*
X661587Y485444D01*
X659857Y487699D01*
X657602Y489429D01*
X654976Y490517D01*
X653428Y490721D01*
D02*
G37*
G36*
X650888D02*
X649340Y490517D01*
X646714Y489429D01*
X644459Y487699D01*
X642729Y485444D01*
X641641Y482818D01*
X641437Y481270D01*
X650888D01*
Y490721D01*
D02*
G37*
G36*
X542198D02*
Y481270D01*
X551649D01*
X551445Y482818D01*
X550357Y485444D01*
X548627Y487699D01*
X546372Y489429D01*
X543746Y490517D01*
X542198Y490721D01*
D02*
G37*
G36*
X539658D02*
X538110Y490517D01*
X535484Y489429D01*
X533229Y487699D01*
X531499Y485444D01*
X530411Y482818D01*
X530207Y481270D01*
X539658D01*
Y490721D01*
D02*
G37*
G36*
X430968D02*
Y481270D01*
X440419D01*
X440215Y482818D01*
X439127Y485444D01*
X437397Y487699D01*
X435142Y489429D01*
X432516Y490517D01*
X430968Y490721D01*
D02*
G37*
G36*
X428428D02*
X426880Y490517D01*
X424254Y489429D01*
X421999Y487699D01*
X420269Y485444D01*
X419181Y482818D01*
X418977Y481270D01*
X428428D01*
Y490721D01*
D02*
G37*
G36*
X996569Y478730D02*
X987118D01*
Y469279D01*
X988666Y469483D01*
X991292Y470571D01*
X993547Y472301D01*
X995277Y474556D01*
X996365Y477182D01*
X996569Y478730D01*
D02*
G37*
G36*
X984578D02*
X975127D01*
X975331Y477182D01*
X976419Y474556D01*
X978149Y472301D01*
X980404Y470571D01*
X983030Y469483D01*
X984578Y469279D01*
Y478730D01*
D02*
G37*
G36*
X885339D02*
X875888D01*
Y469279D01*
X877436Y469483D01*
X880062Y470571D01*
X882317Y472301D01*
X884047Y474556D01*
X885135Y477182D01*
X885339Y478730D01*
D02*
G37*
G36*
X873348D02*
X863897D01*
X864101Y477182D01*
X865189Y474556D01*
X866919Y472301D01*
X869174Y470571D01*
X871800Y469483D01*
X873348Y469279D01*
Y478730D01*
D02*
G37*
G36*
X774109D02*
X764658D01*
Y469279D01*
X766206Y469483D01*
X768832Y470571D01*
X771087Y472301D01*
X772817Y474556D01*
X773905Y477182D01*
X774109Y478730D01*
D02*
G37*
G36*
X762118D02*
X752667D01*
X752871Y477182D01*
X753959Y474556D01*
X755689Y472301D01*
X757944Y470571D01*
X760570Y469483D01*
X762118Y469279D01*
Y478730D01*
D02*
G37*
G36*
X662879D02*
X653428D01*
Y469279D01*
X654976Y469483D01*
X657602Y470571D01*
X659857Y472301D01*
X661587Y474556D01*
X662675Y477182D01*
X662879Y478730D01*
D02*
G37*
G36*
X650888D02*
X641437D01*
X641641Y477182D01*
X642729Y474556D01*
X644459Y472301D01*
X646714Y470571D01*
X649340Y469483D01*
X650888Y469279D01*
Y478730D01*
D02*
G37*
G36*
X551649D02*
X542198D01*
Y469279D01*
X543746Y469483D01*
X546372Y470571D01*
X548627Y472301D01*
X550357Y474556D01*
X551445Y477182D01*
X551649Y478730D01*
D02*
G37*
G36*
X539658D02*
X530207D01*
X530411Y477182D01*
X531499Y474556D01*
X533229Y472301D01*
X535484Y470571D01*
X538110Y469483D01*
X539658Y469279D01*
Y478730D01*
D02*
G37*
G36*
X440419D02*
X430968D01*
Y469279D01*
X432516Y469483D01*
X435142Y470571D01*
X437397Y472301D01*
X439127Y474556D01*
X440215Y477182D01*
X440419Y478730D01*
D02*
G37*
G36*
X428428D02*
X418977D01*
X419181Y477182D01*
X420269Y474556D01*
X421999Y472301D01*
X424254Y470571D01*
X426880Y469483D01*
X428428Y469279D01*
Y478730D01*
D02*
G37*
G36*
X971207Y490755D02*
X949697D01*
Y469245D01*
X971207D01*
Y490755D01*
D02*
G37*
G36*
X859977D02*
X838467D01*
Y469245D01*
X859977D01*
Y490755D01*
D02*
G37*
G36*
X748747D02*
X727237D01*
Y469245D01*
X748747D01*
Y490755D01*
D02*
G37*
G36*
X637517D02*
X616007D01*
Y469245D01*
X637517D01*
Y490755D01*
D02*
G37*
G36*
X526287D02*
X504777D01*
Y469245D01*
X526287D01*
Y490755D01*
D02*
G37*
G36*
X936909Y445883D02*
X935212Y445659D01*
X933631Y445005D01*
X932273Y443963D01*
X931231Y442605D01*
X930576Y441024D01*
X930352Y439327D01*
X930576Y437630D01*
X931231Y436049D01*
X932273Y434691D01*
X933631Y433649D01*
X935212Y432994D01*
X936909Y432771D01*
X938605Y432994D01*
X940187Y433649D01*
X941544Y434691D01*
X942586Y436049D01*
X943241Y437630D01*
X943465Y439327D01*
X943241Y441024D01*
X942586Y442605D01*
X941544Y443963D01*
X940187Y445005D01*
X938605Y445659D01*
X936909Y445883D01*
D02*
G37*
G36*
X501000Y445556D02*
X499303Y445333D01*
X497722Y444678D01*
X496364Y443636D01*
X495322Y442278D01*
X494667Y440697D01*
X494444Y439000D01*
X494667Y437303D01*
X495322Y435722D01*
X496364Y434364D01*
X497722Y433322D01*
X499303Y432667D01*
X501000Y432444D01*
X502697Y432667D01*
X504278Y433322D01*
X505636Y434364D01*
X506678Y435722D01*
X507333Y437303D01*
X507556Y439000D01*
X507333Y440697D01*
X506678Y442278D01*
X505636Y443636D01*
X504278Y444678D01*
X502697Y445333D01*
X501000Y445556D01*
D02*
G37*
G36*
X823098Y443556D02*
X821401Y443333D01*
X819820Y442678D01*
X818462Y441636D01*
X817420Y440278D01*
X816765Y438697D01*
X816542Y437000D01*
X816765Y435303D01*
X817420Y433722D01*
X818462Y432364D01*
X819820Y431322D01*
X821401Y430667D01*
X823098Y430444D01*
X824795Y430667D01*
X826376Y431322D01*
X827734Y432364D01*
X828776Y433722D01*
X829431Y435303D01*
X829654Y437000D01*
X829431Y438697D01*
X828776Y440278D01*
X827734Y441636D01*
X826376Y442678D01*
X824795Y443333D01*
X823098Y443556D01*
D02*
G37*
G36*
X598823Y442556D02*
X597126Y442333D01*
X595545Y441678D01*
X594187Y440636D01*
X593145Y439278D01*
X592490Y437697D01*
X592267Y436000D01*
X592490Y434303D01*
X593145Y432722D01*
X594187Y431364D01*
X595545Y430322D01*
X597126Y429667D01*
X598823Y429444D01*
X600520Y429667D01*
X602101Y430322D01*
X603459Y431364D01*
X604501Y432722D01*
X605155Y434303D01*
X605379Y436000D01*
X605155Y437697D01*
X604501Y439278D01*
X603459Y440636D01*
X602101Y441678D01*
X600520Y442333D01*
X598823Y442556D01*
D02*
G37*
G36*
X719000Y442278D02*
X717303Y442055D01*
X715722Y441400D01*
X714364Y440358D01*
X713322Y439000D01*
X712667Y437419D01*
X712444Y435722D01*
X712667Y434025D01*
X713322Y432444D01*
X714364Y431086D01*
X715722Y430044D01*
X717303Y429389D01*
X719000Y429166D01*
X720697Y429389D01*
X722278Y430044D01*
X723636Y431086D01*
X724678Y432444D01*
X725333Y434025D01*
X725556Y435722D01*
X725333Y437419D01*
X724678Y439000D01*
X723636Y440358D01*
X722278Y441400D01*
X720697Y442055D01*
X719000Y442278D01*
D02*
G37*
%LPD*%
D13*
X801730Y1019000D02*
X828351D01*
X766000Y1054730D02*
X801730Y1019000D01*
X934754Y353000D02*
X1016000D01*
X826000D02*
X934754D01*
X604324D02*
X713462D01*
X826000D01*
X366770D02*
X492000D01*
X356890Y362880D02*
Y677096D01*
X360000Y680206D01*
Y995098D01*
X603324Y352000D02*
X604324Y353000D01*
X493000Y352000D02*
X603324D01*
X492000Y353000D02*
X493000Y352000D01*
X356890Y362880D02*
X366770Y353000D01*
X562290Y693000D02*
X603000D01*
X587777Y574250D02*
X590000Y572027D01*
X465750Y574250D02*
X587777D01*
X461000Y579000D02*
X465750Y574250D01*
X489000Y1207145D02*
X504491Y1191654D01*
X489000Y1207145D02*
Y1216693D01*
X566160Y1045000D02*
X594000D01*
X543500Y1117000D02*
X599000D01*
X534500Y1126000D02*
X543500Y1117000D01*
X435000Y1147500D02*
X446000D01*
X448009Y1149509D01*
Y1156500D01*
X488693Y1217000D02*
X489000Y1216693D01*
X474723Y1217000D02*
X476000Y1215723D01*
Y1194000D02*
Y1215723D01*
X779627Y1220000D02*
Y1229208D01*
X796419Y1246000D01*
X824000D01*
X862000Y1080000D02*
Y1200000D01*
X887000Y1225000D01*
X425530Y601084D02*
X430000Y596614D01*
X423650Y631350D02*
Y771940D01*
Y631350D02*
X445000Y610000D01*
X423650Y771940D02*
X423825Y772115D01*
X430000Y589000D02*
Y596614D01*
X887000Y920000D02*
Y991000D01*
X513000Y835741D02*
Y876000D01*
X541000Y904000D01*
X516290Y739000D02*
X562290Y693000D01*
X553546Y777000D02*
X563546Y767000D01*
X517395Y777000D02*
X553546D01*
X541000Y904000D02*
X563546D01*
X887000Y648000D02*
Y920000D01*
X578605Y1029605D02*
X591000D01*
X500056D02*
X578605D01*
X440105D02*
X500056D01*
X439605D02*
X440105D01*
X424000Y1014000D02*
X439605Y1029605D01*
X434114Y1035000D02*
X434710D01*
X440105Y1029605D01*
X493791Y1035870D02*
X500056Y1029605D01*
X493791Y1035870D02*
Y1049125D01*
X591000Y1100000D02*
X599000Y1108000D01*
X529781Y1100000D02*
X591000D01*
X523030Y1093249D02*
X529781Y1100000D01*
X523030Y1081498D02*
Y1093249D01*
X537000Y1081498D02*
X537710Y1080788D01*
X536290Y1082208D02*
X537000Y1081498D01*
X599000Y1108000D02*
Y1117000D01*
Y1092000D02*
Y1108000D01*
X766000Y1054730D02*
Y1109584D01*
X599000Y1050000D02*
Y1092000D01*
X616550Y1074450D02*
X641550D01*
X599000Y1092000D02*
X616550Y1074450D01*
X599000Y1117000D02*
X614000Y1132000D01*
X578605Y1029605D02*
X599000Y1050000D01*
X614000Y1132000D02*
X681000D01*
X691000Y1142000D02*
X705000D01*
X681000Y1132000D02*
X691000Y1142000D01*
D22*
X523000Y1234500D02*
D03*
Y1221500D02*
D03*
X435000Y1160500D02*
D03*
Y1147500D02*
D03*
D24*
X417000Y1161000D02*
D03*
Y1147000D02*
D03*
X877392Y677000D02*
D03*
Y691000D02*
D03*
D67*
X981000Y614000D02*
X991000D01*
X993000Y612000D01*
X975000Y608000D02*
X981000Y614000D01*
X966000Y608000D02*
X975000D01*
X945000Y1132827D02*
X990149Y1087678D01*
X994000D01*
X705747Y715173D02*
X713920Y707000D01*
X688000Y715173D02*
X705747D01*
X503000Y816000D02*
Y900000D01*
Y814000D02*
Y816000D01*
X514000Y795000D02*
Y805000D01*
X503000Y816000D02*
X514000Y805000D01*
Y795000D02*
X519000Y790000D01*
X663000D01*
X712500Y740500D01*
X781000D01*
X503000Y956532D02*
Y985889D01*
Y919000D02*
Y956532D01*
X801000Y920000D02*
X837000D01*
X777000Y944000D02*
X801000Y920000D01*
X515532Y944000D02*
X777000D01*
X503000Y956532D02*
X515532Y944000D01*
X503000Y900000D02*
Y919000D01*
X492027Y889027D02*
X503000Y900000D01*
X492027Y888000D02*
Y889027D01*
X502000Y649000D02*
Y675000D01*
Y649000D02*
X503000Y648000D01*
X492000Y685000D02*
X502000Y675000D01*
X492000Y685000D02*
Y803000D01*
X503000Y814000D01*
X498889Y990000D02*
X503000Y985889D01*
X855000Y803000D02*
Y839500D01*
X856000Y840500D01*
X851241Y799241D02*
X855000Y803000D01*
X837289Y799241D02*
X851241D01*
X796000Y779000D02*
X796000Y779000D01*
X796000Y763000D02*
Y779000D01*
X762976Y775024D02*
Y835741D01*
Y775024D02*
X765000Y773000D01*
X444261Y1022098D02*
X728525D01*
X435163Y1013000D02*
X444261Y1022098D01*
X728525D02*
X732427Y1026000D01*
D68*
X844000Y662968D02*
X844032Y662935D01*
X802032Y662968D02*
X844000D01*
X802000Y663000D02*
X802032Y662968D01*
X1009000Y1034000D02*
Y1051833D01*
X935000Y1125833D02*
X1009000Y1051833D01*
X935000Y1125833D02*
Y1128013D01*
X1005395Y366605D02*
X1009000Y363000D01*
X1005395Y366605D02*
Y389267D01*
X980663Y414000D02*
X1005395Y389267D01*
X384000Y414000D02*
X980663D01*
X885000Y373782D02*
X897000Y361782D01*
X885000Y373782D02*
Y397317D01*
X872317Y410000D02*
X885000Y397317D01*
X380000Y410000D02*
X872317D01*
X772750Y374522D02*
X784761Y362511D01*
X772750Y374522D02*
Y393250D01*
X760000Y406000D02*
X772750Y393250D01*
X378000Y406000D02*
X760000D01*
X664000Y373250D02*
X675000Y362250D01*
X664000Y373250D02*
Y390879D01*
X652879Y402000D02*
X664000Y390879D01*
X375000Y402000D02*
X652879D01*
X553000Y371000D02*
Y386000D01*
X541000Y398000D02*
X553000Y386000D01*
X372000Y398000D02*
X541000D01*
X564000Y360000D02*
X567000D01*
X553000Y371000D02*
X564000Y360000D01*
X455170D02*
X460000D01*
X445000Y370170D02*
X455170Y360000D01*
X445000Y370170D02*
Y384000D01*
X435000Y394000D02*
X445000Y384000D01*
X370000Y394000D02*
X435000D01*
X567000Y360000D02*
X568500Y358500D01*
X933987Y1094013D02*
X962000Y1066000D01*
X934409Y1081582D02*
X966000Y1049991D01*
X953000Y1053238D02*
X954288D01*
X934409Y1071829D02*
X953000Y1053238D01*
X934000Y1061173D02*
X953173Y1042000D01*
X408000Y561000D02*
X781000D01*
X789000Y553000D01*
X967150D01*
X403000Y566000D02*
X408000Y561000D01*
X967150Y553000D02*
X973150Y547000D01*
X403000Y566000D02*
Y599214D01*
X409000Y605214D01*
X524000Y1124788D02*
X533009Y1133796D01*
Y1139000D01*
X518000Y1127672D02*
X524328Y1134000D01*
X529781Y1144704D02*
Y1148772D01*
X530009Y1149000D01*
X524328Y1139250D02*
X529781Y1144704D01*
X524328Y1134000D02*
Y1139250D01*
X521000Y1137049D02*
Y1147991D01*
X521009Y1148000D01*
X512000Y1135532D02*
Y1147991D01*
X512009Y1148000D01*
X503000Y1147991D02*
X503009Y1148000D01*
X495000Y1118000D02*
Y1161991D01*
X495009Y1162000D01*
X481000Y1127000D02*
Y1150000D01*
X443000Y1083000D02*
X450161D01*
X409000Y1049000D02*
X443000Y1083000D01*
X440000Y1089000D02*
X443299D01*
X405000Y1054000D02*
X440000Y1089000D01*
X395053Y1094352D02*
X505352D01*
X392839Y1079000D02*
Y1084000D01*
X392839Y1069839D02*
X401270Y1078270D01*
Y1084000D01*
X397000Y1064000D02*
X411000Y1078000D01*
Y1084450D01*
X401040Y1058040D02*
X421000Y1078000D01*
Y1084000D01*
X385000Y1084299D02*
X395053Y1094352D01*
X385000Y615605D02*
Y1084299D01*
X782951Y1175280D02*
X787279Y1179608D01*
X782951Y1145605D02*
Y1175280D01*
X787279Y1179608D02*
Y1182392D01*
X786908Y1182762D02*
Y1205409D01*
Y1182762D02*
X787279Y1182392D01*
X786908Y1205409D02*
X806500Y1225000D01*
X769000Y1131000D02*
X781000Y1119000D01*
Y1082000D02*
Y1119000D01*
X773049Y1077861D02*
Y1115902D01*
X767241Y1121710D02*
X773049Y1115902D01*
X766960Y1121710D02*
X767241D01*
X806500Y1225000D02*
X837000D01*
X399000Y601000D02*
X405000Y607000D01*
X399000Y564000D02*
Y601000D01*
Y564000D02*
X406000Y557000D01*
X395011Y602971D02*
X401040Y609000D01*
X395011Y561988D02*
Y602971D01*
Y561988D02*
X404000Y553000D01*
X406000Y557000D02*
X776000D01*
X404000Y553000D02*
X741000D01*
X402000Y549000D02*
X627000D01*
X391000Y560000D02*
X402000Y549000D01*
X391000Y560000D02*
Y605000D01*
X409000Y1049000D02*
X409000Y606000D01*
Y605214D02*
Y606000D01*
X405000Y607000D02*
X405000Y1054000D01*
X401040Y609000D02*
X401040Y1058040D01*
X397000Y1064000D02*
X397000Y611000D01*
X391000Y605000D02*
X397000Y611000D01*
X392839Y1069839D02*
X392839Y613000D01*
X387000Y607161D02*
X392839Y613000D01*
X387000Y558000D02*
Y607161D01*
X383000Y609000D02*
X389000Y615000D01*
X383000Y557000D02*
Y609000D01*
Y557000D02*
X399000Y541000D01*
X389000Y1075161D02*
X389000Y615000D01*
X776000Y557000D02*
X785000Y548000D01*
X741000Y553000D02*
X743000Y551000D01*
X627000Y549000D02*
X631000Y545000D01*
X400000D02*
X514000D01*
X387000Y558000D02*
X400000Y545000D01*
X399000Y541000D02*
X411000D01*
X389000Y1075161D02*
X392839Y1079000D01*
X379000Y609605D02*
X385000Y615605D01*
X379000Y419000D02*
Y609605D01*
Y419000D02*
X384000Y414000D01*
X381000Y617605D02*
Y1086707D01*
X375000Y611605D02*
X381000Y617605D01*
X375000Y415000D02*
Y611605D01*
Y415000D02*
X380000Y410000D01*
X377000Y620000D02*
Y1089665D01*
X371000Y614000D02*
X377000Y620000D01*
X371000Y413000D02*
Y614000D01*
Y413000D02*
X378000Y406000D01*
X373000Y622000D02*
Y1092707D01*
X367000Y616000D02*
X373000Y622000D01*
X367000Y410000D02*
Y616000D01*
Y410000D02*
X375000Y402000D01*
X363000Y618000D02*
X369000Y624000D01*
X363000Y407000D02*
Y618000D01*
Y407000D02*
X372000Y398000D01*
X359000Y620000D02*
X365000Y626000D01*
X359000Y405000D02*
Y620000D01*
Y405000D02*
X370000Y394000D01*
X369000Y624000D02*
Y1095000D01*
X365000Y626000D02*
Y1097000D01*
X933252Y1119000D02*
X1000000Y1052252D01*
Y1034000D02*
Y1052252D01*
X992000Y1033640D02*
Y1045000D01*
X934409Y1102591D02*
X992000Y1045000D01*
X934409Y1102591D02*
Y1105000D01*
X785000Y548000D02*
X853000D01*
X858000Y543000D01*
X524000Y1113000D02*
Y1124788D01*
X505352Y1094352D02*
X524000Y1113000D01*
X391969Y1097676D02*
X501966D01*
X381000Y1086707D02*
X391969Y1097676D01*
X388335Y1101000D02*
X498000D01*
X377000Y1089665D02*
X388335Y1101000D01*
X386293Y1106000D02*
X494710D01*
X373000Y1092707D02*
X386293Y1106000D01*
X384000Y1110000D02*
X493000D01*
X369000Y1095000D02*
X384000Y1110000D01*
X382000Y1114000D02*
X491000D01*
X365000Y1097000D02*
X382000Y1114000D01*
X518000Y1113710D02*
Y1127672D01*
X501966Y1097676D02*
X518000Y1113710D01*
X513000Y1129049D02*
X521000Y1137049D01*
X513000Y1116000D02*
Y1129049D01*
X498000Y1101000D02*
X513000Y1116000D01*
X507000Y1130532D02*
X512000Y1135532D01*
X507000Y1118290D02*
Y1130532D01*
X494710Y1106000D02*
X507000Y1118290D01*
X503000Y1120000D02*
Y1147991D01*
X493000Y1110000D02*
X503000Y1120000D01*
X491000Y1114000D02*
X495000Y1118000D01*
X417000Y1178000D02*
X417000Y1178000D01*
Y1188000D01*
Y1161000D02*
Y1178000D01*
X417000Y1188000D02*
X417000Y1188000D01*
X417500Y1160500D02*
X435000D01*
X417000Y1161000D02*
X417500Y1160500D01*
X466000Y1165000D02*
X470500Y1160500D01*
X481000Y1150000D01*
X435000Y1160500D02*
X470500D01*
X417000Y1178000D02*
Y1188000D01*
X440000Y1181000D02*
Y1189000D01*
Y1181000D02*
X456000Y1165000D01*
X466000D01*
X520000Y539000D02*
X521000D01*
X514000Y545000D02*
X520000Y539000D01*
X411000Y541000D02*
X417000Y535000D01*
D70*
X1016112Y666500D02*
D03*
Y681500D02*
D03*
X697000Y1330145D02*
D03*
Y1315145D02*
D03*
X658000Y1277500D02*
D03*
Y1292500D02*
D03*
X994000Y1087678D02*
D03*
Y1102678D02*
D03*
X1016000Y822500D02*
D03*
Y807500D02*
D03*
X961500Y815000D02*
D03*
Y830000D02*
D03*
D71*
X585000Y723000D02*
D03*
X919000D02*
D03*
Y995000D02*
D03*
X585000Y994000D02*
D03*
D72*
X472000Y723000D02*
D03*
X806000D02*
D03*
Y995000D02*
D03*
X472000Y994000D02*
D03*
D73*
X553000Y648000D02*
D03*
X528000D02*
D03*
X503000D02*
D03*
X837000D02*
D03*
X862000D02*
D03*
X887000D02*
D03*
Y920000D02*
D03*
X862000D02*
D03*
X837000D02*
D03*
X503000Y919000D02*
D03*
X528000D02*
D03*
X553000D02*
D03*
D74*
X814920Y375000D02*
D03*
X370000D02*
D03*
X481230D02*
D03*
X592460D02*
D03*
X703690D02*
D03*
X926150D02*
D03*
D75*
X908920D02*
D03*
X464000D02*
D03*
X575230D02*
D03*
X686460D02*
D03*
X797690D02*
D03*
X1020150D02*
D03*
D76*
X861920Y342000D02*
D03*
Y424000D02*
D03*
X417000Y342000D02*
D03*
Y424000D02*
D03*
X528230Y342000D02*
D03*
Y424000D02*
D03*
X639460Y342000D02*
D03*
Y424000D02*
D03*
X750690Y342000D02*
D03*
Y424000D02*
D03*
X973150Y342000D02*
D03*
Y424000D02*
D03*
D77*
X1017000Y1062000D02*
D03*
X936909Y439327D02*
D03*
X1030000Y564000D02*
D03*
X658081Y1331000D02*
D03*
X737000Y1264000D02*
D03*
X1021790Y729000D02*
D03*
X681410Y1278000D02*
D03*
X823098Y437000D02*
D03*
X966000Y1049991D02*
D03*
X921085Y830585D02*
D03*
X947000Y882399D02*
D03*
X962000Y1066000D02*
D03*
X598823Y436000D02*
D03*
X836819Y760000D02*
D03*
X712000Y864350D02*
D03*
X705667Y773902D02*
D03*
X1028573Y856000D02*
D03*
X568256Y668000D02*
D03*
X720000Y695500D02*
D03*
X718098Y600339D02*
D03*
X600000Y610000D02*
D03*
X914674Y894144D02*
D03*
X462000Y922000D02*
D03*
X469000Y938473D02*
D03*
X954288Y1053238D02*
D03*
X953173Y1042000D02*
D03*
X1014000Y777364D02*
D03*
X501000Y439000D02*
D03*
X486675Y968000D02*
D03*
X590000Y572027D02*
D03*
X719000Y435722D02*
D03*
D78*
X742169Y1160000D02*
D03*
X641550Y1074450D02*
D03*
D79*
X742169Y1185400D02*
D03*
X716769Y1160000D02*
D03*
Y1185400D02*
D03*
X691369Y1160000D02*
D03*
Y1185400D02*
D03*
X665969Y1160000D02*
D03*
Y1185400D02*
D03*
X640570Y1160000D02*
D03*
Y1185400D02*
D03*
X374600Y1235600D02*
D03*
X400000D02*
D03*
X374600Y1261000D02*
D03*
X400000D02*
D03*
X374600Y1286400D02*
D03*
X400000D02*
D03*
X374600Y1311800D02*
D03*
X400000D02*
D03*
X374600Y1337200D02*
D03*
X717750Y1074450D02*
D03*
X692350D02*
D03*
X666950D02*
D03*
D80*
X400000Y1337200D02*
D03*
D81*
X914000Y1155000D02*
D03*
X810000D02*
D03*
D82*
X862000Y1080000D02*
D03*
X837000D02*
D03*
X887000D02*
D03*
Y1225000D02*
D03*
X837000D02*
D03*
X472700Y1337000D02*
D03*
X577300Y1270000D02*
D03*
D83*
X989148Y881128D02*
D03*
X974148D02*
D03*
X821655Y807152D02*
D03*
X836655D02*
D03*
D84*
X404302Y480000D02*
D03*
X515532D02*
D03*
X626762D02*
D03*
X737992D02*
D03*
X849222D02*
D03*
X960452D02*
D03*
D85*
X429698D02*
D03*
X540928D02*
D03*
X652158D02*
D03*
X763388D02*
D03*
X874618D02*
D03*
X985848D02*
D03*
D86*
X577300Y1337000D02*
D03*
X472700Y1270000D02*
D03*
D87*
X1012500Y1170000D02*
D03*
X1005000Y1155000D02*
D03*
X1012500Y1140000D02*
D03*
X1005000Y1125000D02*
D03*
X1012500Y1110000D02*
D03*
Y1080000D02*
D03*
Y1020000D02*
D03*
Y990000D02*
D03*
Y960000D02*
D03*
X1005000Y795000D02*
D03*
Y765000D02*
D03*
X1012500Y750000D02*
D03*
Y720000D02*
D03*
X1005000Y585000D02*
D03*
X1012500Y570000D02*
D03*
X1005000Y555000D02*
D03*
X997500Y1170000D02*
D03*
X990000Y1155000D02*
D03*
X997500Y1140000D02*
D03*
X990000Y1125000D02*
D03*
X997500Y960000D02*
D03*
X990000Y855000D02*
D03*
X997500Y840000D02*
D03*
Y810000D02*
D03*
X990000Y795000D02*
D03*
X997500Y660000D02*
D03*
Y570000D02*
D03*
X982500Y1170000D02*
D03*
X975000Y1155000D02*
D03*
X982500Y1140000D02*
D03*
X975000Y1125000D02*
D03*
X982500Y960000D02*
D03*
Y900000D02*
D03*
X975000Y855000D02*
D03*
X982500Y840000D02*
D03*
Y810000D02*
D03*
X975000Y795000D02*
D03*
X982500Y750000D02*
D03*
X975000Y555000D02*
D03*
X967500Y1170000D02*
D03*
X960000Y1155000D02*
D03*
X967500Y1140000D02*
D03*
Y960000D02*
D03*
X960000Y945000D02*
D03*
X967500Y900000D02*
D03*
X960000Y885000D02*
D03*
Y855000D02*
D03*
Y795000D02*
D03*
X967500Y750000D02*
D03*
X922500Y570000D02*
D03*
X907500D02*
D03*
X877500Y660000D02*
D03*
Y630000D02*
D03*
X855000Y675000D02*
D03*
X862500Y630000D02*
D03*
Y570000D02*
D03*
X840000Y675000D02*
D03*
X847500Y630000D02*
D03*
Y570000D02*
D03*
X825000Y975000D02*
D03*
Y945000D02*
D03*
Y855000D02*
D03*
Y765000D02*
D03*
X832500Y570000D02*
D03*
X817500Y960000D02*
D03*
X810000Y945000D02*
D03*
X817500Y930000D02*
D03*
X810000Y795000D02*
D03*
X817500Y780000D02*
D03*
X810000Y765000D02*
D03*
Y645000D02*
D03*
X817500Y570000D02*
D03*
X802500Y960000D02*
D03*
X795000Y945000D02*
D03*
X802500Y930000D02*
D03*
X795000Y915000D02*
D03*
Y645000D02*
D03*
X802500Y630000D02*
D03*
Y570000D02*
D03*
X780000Y975000D02*
D03*
X787500Y960000D02*
D03*
X780000Y915000D02*
D03*
Y795000D02*
D03*
Y765000D02*
D03*
Y675000D02*
D03*
X787500Y660000D02*
D03*
Y630000D02*
D03*
Y570000D02*
D03*
X765000Y975000D02*
D03*
X772500Y960000D02*
D03*
Y930000D02*
D03*
X765000Y915000D02*
D03*
Y645000D02*
D03*
X750000Y975000D02*
D03*
X757500Y960000D02*
D03*
Y930000D02*
D03*
X750000Y915000D02*
D03*
Y855000D02*
D03*
Y825000D02*
D03*
Y765000D02*
D03*
Y675000D02*
D03*
X757500Y660000D02*
D03*
X750000Y645000D02*
D03*
X757500Y630000D02*
D03*
Y570000D02*
D03*
X735000Y975000D02*
D03*
X742500Y960000D02*
D03*
Y930000D02*
D03*
X735000Y915000D02*
D03*
Y855000D02*
D03*
X742500Y780000D02*
D03*
X735000Y765000D02*
D03*
X742500Y750000D02*
D03*
X735000Y645000D02*
D03*
X742500Y630000D02*
D03*
Y570000D02*
D03*
X720000Y975000D02*
D03*
Y915000D02*
D03*
Y855000D02*
D03*
Y825000D02*
D03*
Y795000D02*
D03*
Y765000D02*
D03*
X727500Y630000D02*
D03*
Y570000D02*
D03*
X705000Y975000D02*
D03*
X712500Y960000D02*
D03*
Y930000D02*
D03*
X705000Y915000D02*
D03*
X712500Y810000D02*
D03*
X705000Y795000D02*
D03*
X712500Y780000D02*
D03*
Y570000D02*
D03*
X690000Y975000D02*
D03*
X697500Y960000D02*
D03*
Y930000D02*
D03*
X690000Y915000D02*
D03*
Y855000D02*
D03*
X697500Y810000D02*
D03*
Y570000D02*
D03*
X675000Y975000D02*
D03*
X682500Y960000D02*
D03*
Y930000D02*
D03*
X675000Y915000D02*
D03*
X682500Y660000D02*
D03*
X660000Y975000D02*
D03*
X667500Y960000D02*
D03*
Y930000D02*
D03*
X660000Y915000D02*
D03*
X645000Y975000D02*
D03*
X652500Y960000D02*
D03*
Y930000D02*
D03*
X645000Y915000D02*
D03*
X652500Y750000D02*
D03*
X630000Y975000D02*
D03*
X637500Y960000D02*
D03*
Y930000D02*
D03*
X630000Y915000D02*
D03*
Y825000D02*
D03*
X615000Y975000D02*
D03*
X622500Y960000D02*
D03*
Y930000D02*
D03*
X615000Y915000D02*
D03*
Y825000D02*
D03*
X607500Y960000D02*
D03*
Y930000D02*
D03*
X600000Y915000D02*
D03*
Y885000D02*
D03*
Y825000D02*
D03*
X592500Y960000D02*
D03*
Y930000D02*
D03*
X585000Y915000D02*
D03*
Y885000D02*
D03*
Y825000D02*
D03*
Y645000D02*
D03*
Y615000D02*
D03*
X592500Y600000D02*
D03*
X577500Y960000D02*
D03*
Y930000D02*
D03*
X570000Y915000D02*
D03*
Y885000D02*
D03*
X577500Y870000D02*
D03*
X570000Y855000D02*
D03*
X577500Y840000D02*
D03*
X570000Y825000D02*
D03*
X577500Y810000D02*
D03*
Y780000D02*
D03*
X570000Y645000D02*
D03*
X577500Y630000D02*
D03*
X570000Y615000D02*
D03*
X577500Y600000D02*
D03*
X562500Y960000D02*
D03*
Y930000D02*
D03*
Y870000D02*
D03*
Y840000D02*
D03*
Y810000D02*
D03*
Y780000D02*
D03*
Y720000D02*
D03*
Y660000D02*
D03*
Y630000D02*
D03*
X555000Y615000D02*
D03*
X562500Y600000D02*
D03*
X555000Y585000D02*
D03*
X540000Y975000D02*
D03*
Y885000D02*
D03*
Y855000D02*
D03*
Y825000D02*
D03*
Y765000D02*
D03*
Y735000D02*
D03*
Y705000D02*
D03*
Y675000D02*
D03*
X547500Y630000D02*
D03*
X540000Y615000D02*
D03*
X547500Y600000D02*
D03*
X540000Y585000D02*
D03*
X532500Y630000D02*
D03*
X525000Y615000D02*
D03*
X532500Y600000D02*
D03*
X525000Y585000D02*
D03*
X510000Y765000D02*
D03*
X517500Y750000D02*
D03*
Y720000D02*
D03*
X510000Y705000D02*
D03*
X517500Y690000D02*
D03*
X510000Y675000D02*
D03*
X517500Y660000D02*
D03*
Y630000D02*
D03*
X510000Y615000D02*
D03*
X517500Y600000D02*
D03*
X510000Y585000D02*
D03*
X495000Y855000D02*
D03*
X502500Y720000D02*
D03*
Y690000D02*
D03*
Y630000D02*
D03*
X495000Y615000D02*
D03*
X502500Y600000D02*
D03*
X495000Y585000D02*
D03*
X480000Y915000D02*
D03*
X487500Y900000D02*
D03*
X480000Y885000D02*
D03*
Y855000D02*
D03*
X487500Y840000D02*
D03*
X480000Y825000D02*
D03*
Y795000D02*
D03*
Y675000D02*
D03*
X487500Y660000D02*
D03*
X480000Y645000D02*
D03*
X487500Y630000D02*
D03*
X480000Y615000D02*
D03*
X487500Y600000D02*
D03*
X480000Y585000D02*
D03*
X472500Y960000D02*
D03*
X465000Y795000D02*
D03*
X472500Y750000D02*
D03*
Y690000D02*
D03*
X465000Y675000D02*
D03*
X472500Y660000D02*
D03*
X465000Y645000D02*
D03*
X472500Y630000D02*
D03*
X465000Y615000D02*
D03*
X450000Y975000D02*
D03*
X457500Y960000D02*
D03*
X450000Y945000D02*
D03*
X457500Y870000D02*
D03*
X450000Y855000D02*
D03*
Y795000D02*
D03*
X457500Y750000D02*
D03*
X450000Y735000D02*
D03*
Y705000D02*
D03*
X457500Y690000D02*
D03*
X450000Y675000D02*
D03*
X457500Y660000D02*
D03*
X450000Y645000D02*
D03*
X457500Y630000D02*
D03*
X435000Y975000D02*
D03*
X442500Y960000D02*
D03*
X435000Y945000D02*
D03*
X442500Y930000D02*
D03*
Y870000D02*
D03*
X435000Y855000D02*
D03*
X442500Y750000D02*
D03*
X435000Y735000D02*
D03*
X442500Y720000D02*
D03*
X435000Y705000D02*
D03*
X442500Y690000D02*
D03*
X435000Y675000D02*
D03*
X442500Y660000D02*
D03*
X435000Y645000D02*
D03*
X442500Y630000D02*
D03*
X427500Y930000D02*
D03*
Y870000D02*
D03*
X844032Y662935D02*
D03*
X828351Y1019000D02*
D03*
X1016000Y353000D02*
D03*
X934754D02*
D03*
X826000D02*
D03*
X605000D02*
D03*
X713462D02*
D03*
X492000Y352000D02*
D03*
X460000Y360000D02*
D03*
X988500Y534145D02*
D03*
Y504145D02*
D03*
Y444145D02*
D03*
X981000Y519145D02*
D03*
X973500Y504145D02*
D03*
X981000Y459145D02*
D03*
X973500Y444145D02*
D03*
X966000Y459145D02*
D03*
X958500Y444145D02*
D03*
X943500Y534145D02*
D03*
X951000Y519145D02*
D03*
X943500Y504145D02*
D03*
Y474145D02*
D03*
X951000Y459145D02*
D03*
X928500Y534145D02*
D03*
X936000Y519145D02*
D03*
X928500Y504145D02*
D03*
X936000Y489145D02*
D03*
X928500Y474145D02*
D03*
X936000Y459145D02*
D03*
X928500Y444145D02*
D03*
X936000Y429145D02*
D03*
X913500Y534145D02*
D03*
X921000Y519145D02*
D03*
X913500Y504145D02*
D03*
X921000Y489145D02*
D03*
X913500Y474145D02*
D03*
X921000Y459145D02*
D03*
X913500Y444145D02*
D03*
X921000Y429145D02*
D03*
X906000Y519145D02*
D03*
X898500Y504145D02*
D03*
X906000Y489145D02*
D03*
X898500Y474145D02*
D03*
X906000Y459145D02*
D03*
X898500Y444145D02*
D03*
X906000Y429145D02*
D03*
X876000Y519145D02*
D03*
X868500Y504145D02*
D03*
X876000Y459145D02*
D03*
X868500Y444145D02*
D03*
X861000Y519145D02*
D03*
Y459145D02*
D03*
X853500Y444145D02*
D03*
X838500Y534145D02*
D03*
Y504145D02*
D03*
X846000Y459145D02*
D03*
X823500Y534145D02*
D03*
X831000Y519145D02*
D03*
X823500Y504145D02*
D03*
X831000Y489145D02*
D03*
X823500Y474145D02*
D03*
X831000Y459145D02*
D03*
Y429145D02*
D03*
X808500Y534145D02*
D03*
X816000Y519145D02*
D03*
X808500Y504145D02*
D03*
X816000Y489145D02*
D03*
X808500Y474145D02*
D03*
X816000Y459145D02*
D03*
X808500Y444145D02*
D03*
X816000Y429145D02*
D03*
X801000Y519145D02*
D03*
X793500Y504145D02*
D03*
X801000Y489145D02*
D03*
X793500Y474145D02*
D03*
X801000Y459145D02*
D03*
X793500Y444145D02*
D03*
X801000Y429145D02*
D03*
X786000D02*
D03*
X771000Y1179145D02*
D03*
X763500Y1044145D02*
D03*
Y534145D02*
D03*
Y504145D02*
D03*
Y444145D02*
D03*
X756000Y1179145D02*
D03*
Y1149145D02*
D03*
X748500Y1074145D02*
D03*
X756000Y1059145D02*
D03*
X748500Y1044145D02*
D03*
X756000Y519145D02*
D03*
X748500Y504145D02*
D03*
X756000Y459145D02*
D03*
X748500Y444145D02*
D03*
X733500Y1074145D02*
D03*
X741000Y1059145D02*
D03*
X733500Y1044145D02*
D03*
X741000Y459145D02*
D03*
X733500Y444145D02*
D03*
X726000Y1149145D02*
D03*
Y1059145D02*
D03*
X718500Y1044145D02*
D03*
Y534145D02*
D03*
X726000Y519145D02*
D03*
X718500Y504145D02*
D03*
Y474145D02*
D03*
X726000Y459145D02*
D03*
X711000Y1059145D02*
D03*
X703500Y1044145D02*
D03*
Y534145D02*
D03*
X711000Y519145D02*
D03*
X703500Y504145D02*
D03*
X711000Y489145D02*
D03*
X703500Y474145D02*
D03*
X711000Y459145D02*
D03*
X703500Y444145D02*
D03*
X711000Y429145D02*
D03*
X696000Y1059145D02*
D03*
X688500Y1044145D02*
D03*
Y534145D02*
D03*
X696000Y519145D02*
D03*
X688500Y504145D02*
D03*
X696000Y489145D02*
D03*
X688500Y474145D02*
D03*
X696000Y459145D02*
D03*
X688500Y444145D02*
D03*
X696000Y429145D02*
D03*
X681000Y1149145D02*
D03*
X673500Y1044145D02*
D03*
X681000Y489145D02*
D03*
Y459145D02*
D03*
Y429145D02*
D03*
X658500Y1044145D02*
D03*
Y534145D02*
D03*
Y504145D02*
D03*
Y444145D02*
D03*
X651000Y1149145D02*
D03*
X643500Y1044145D02*
D03*
X651000Y519145D02*
D03*
X643500Y504145D02*
D03*
X651000Y459145D02*
D03*
X643500Y444145D02*
D03*
X628500Y1164145D02*
D03*
Y1044145D02*
D03*
X636000Y459145D02*
D03*
X628500Y444145D02*
D03*
X613500Y1164145D02*
D03*
Y1044145D02*
D03*
Y534145D02*
D03*
Y504145D02*
D03*
X621000Y459145D02*
D03*
X613500Y444145D02*
D03*
X606000Y1179145D02*
D03*
X598500Y1164145D02*
D03*
Y534145D02*
D03*
X606000Y519145D02*
D03*
X598500Y504145D02*
D03*
X606000Y489145D02*
D03*
X598500Y474145D02*
D03*
X606000Y459145D02*
D03*
X591000Y1179145D02*
D03*
X583500Y1164145D02*
D03*
Y1074145D02*
D03*
Y534145D02*
D03*
X591000Y519145D02*
D03*
X583500Y504145D02*
D03*
X591000Y489145D02*
D03*
X583500Y474145D02*
D03*
X591000Y459145D02*
D03*
X583500Y444145D02*
D03*
X591000Y429145D02*
D03*
X576000Y1179145D02*
D03*
X568500Y1164145D02*
D03*
Y534145D02*
D03*
Y504145D02*
D03*
X576000Y489145D02*
D03*
X568500Y474145D02*
D03*
X576000Y459145D02*
D03*
X568500Y444145D02*
D03*
X576000Y429145D02*
D03*
X553500Y1164145D02*
D03*
X561000Y1149145D02*
D03*
X553500Y1134145D02*
D03*
Y1044145D02*
D03*
X538500Y534145D02*
D03*
X546000Y519145D02*
D03*
X538500Y504145D02*
D03*
X546000Y459145D02*
D03*
X538500Y444145D02*
D03*
X531000Y1119145D02*
D03*
X523500Y1104145D02*
D03*
Y504145D02*
D03*
X531000Y489145D02*
D03*
Y459145D02*
D03*
X523500Y444145D02*
D03*
X508500Y534145D02*
D03*
X516000Y459145D02*
D03*
X508500Y444145D02*
D03*
X493500Y534145D02*
D03*
X501000Y519145D02*
D03*
X493500Y504145D02*
D03*
X501000Y489145D02*
D03*
X493500Y474145D02*
D03*
X501000Y459145D02*
D03*
X493500Y444145D02*
D03*
X478500Y1074145D02*
D03*
Y1044145D02*
D03*
Y534145D02*
D03*
X486000Y519145D02*
D03*
X478500Y504145D02*
D03*
X486000Y489145D02*
D03*
X478500Y474145D02*
D03*
X486000Y459145D02*
D03*
X478500Y444145D02*
D03*
X486000Y429145D02*
D03*
X463500Y1074145D02*
D03*
X471000Y1059145D02*
D03*
X463500Y1044145D02*
D03*
Y534145D02*
D03*
X471000Y519145D02*
D03*
X463500Y504145D02*
D03*
X471000Y489145D02*
D03*
X463500Y474145D02*
D03*
X471000Y459145D02*
D03*
X463500Y444145D02*
D03*
X471000Y429145D02*
D03*
X448500Y1074145D02*
D03*
X456000Y489145D02*
D03*
Y459145D02*
D03*
Y429145D02*
D03*
X433500Y534145D02*
D03*
Y504145D02*
D03*
Y444145D02*
D03*
X418500Y1044145D02*
D03*
Y504145D02*
D03*
X426000Y459145D02*
D03*
X418500Y444145D02*
D03*
X403500Y1164145D02*
D03*
Y534145D02*
D03*
X411000Y459145D02*
D03*
X403500Y444145D02*
D03*
X396000Y459145D02*
D03*
Y429145D02*
D03*
X373500Y1164145D02*
D03*
X381000Y1149145D02*
D03*
X358500Y1164145D02*
D03*
X366000Y1149145D02*
D03*
X358500Y1134145D02*
D03*
X366000Y1119145D02*
D03*
X358500Y1104145D02*
D03*
Y1074145D02*
D03*
Y1044145D02*
D03*
X897000Y361782D02*
D03*
X567000Y360000D02*
D03*
X962000Y1066000D02*
D03*
X590000Y572027D02*
D03*
X516000Y1190000D02*
D03*
X513000Y1195486D02*
D03*
X492300Y1189350D02*
D03*
X491975Y1195904D02*
D03*
X484500D02*
D03*
X689740Y1142500D02*
D03*
X766000Y1109584D02*
D03*
X443299Y1089000D02*
D03*
X450170Y1083000D02*
D03*
X421000Y1084000D02*
D03*
X411000Y1084450D02*
D03*
X401270Y1084000D02*
D03*
X392839D02*
D03*
X504500Y1191195D02*
D03*
X476009Y1194000D02*
D03*
X485133Y1189000D02*
D03*
X824000Y1246000D02*
D03*
X782951Y1145605D02*
D03*
X781000Y1082000D02*
D03*
X773049Y1077861D02*
D03*
X766960Y1121710D02*
D03*
X769000Y1131000D02*
D03*
X416000Y572000D02*
D03*
Y582000D02*
D03*
Y591000D02*
D03*
X410000Y586000D02*
D03*
Y595000D02*
D03*
Y568000D02*
D03*
Y577000D02*
D03*
X425530Y601084D02*
D03*
X423825Y772115D02*
D03*
X360000Y995098D02*
D03*
X655500Y845000D02*
D03*
X655450Y854130D02*
D03*
Y862902D02*
D03*
X670000Y650000D02*
D03*
X650000D02*
D03*
X660000D02*
D03*
Y660000D02*
D03*
Y670000D02*
D03*
X445000Y610000D02*
D03*
X887000Y991000D02*
D03*
X945000Y1132827D02*
D03*
X743000Y551000D02*
D03*
X713920Y707000D02*
D03*
X688000Y715173D02*
D03*
X644950Y720257D02*
D03*
X513000Y835741D02*
D03*
X781000Y740500D02*
D03*
X492027Y888000D02*
D03*
X498889Y990000D02*
D03*
X937000Y799000D02*
D03*
Y809000D02*
D03*
X897000Y799000D02*
D03*
X907000D02*
D03*
X917000D02*
D03*
X927000D02*
D03*
X897000Y809000D02*
D03*
X907000D02*
D03*
X917000D02*
D03*
X927000D02*
D03*
Y819000D02*
D03*
X917000D02*
D03*
X907000D02*
D03*
X897000D02*
D03*
X879000Y895000D02*
D03*
X869000D02*
D03*
X859000D02*
D03*
X849000D02*
D03*
X839000D02*
D03*
Y905000D02*
D03*
X849000D02*
D03*
X859000D02*
D03*
X869000D02*
D03*
X879000Y904745D02*
D03*
X675000Y710000D02*
D03*
Y720000D02*
D03*
Y730000D02*
D03*
X665000D02*
D03*
Y720000D02*
D03*
Y710000D02*
D03*
X655000D02*
D03*
Y730000D02*
D03*
X603000Y693000D02*
D03*
X611000Y749000D02*
D03*
X621000D02*
D03*
X631000D02*
D03*
X641000D02*
D03*
Y759000D02*
D03*
X631000D02*
D03*
X621000D02*
D03*
X611000D02*
D03*
X601000D02*
D03*
Y769000D02*
D03*
X612000D02*
D03*
X621000D02*
D03*
X631000D02*
D03*
X641000D02*
D03*
X563546Y767000D02*
D03*
X676755Y587000D02*
D03*
X667000D02*
D03*
X657000D02*
D03*
X647000D02*
D03*
X657000Y597000D02*
D03*
X667000D02*
D03*
X677000D02*
D03*
Y607000D02*
D03*
X667000D02*
D03*
X657000D02*
D03*
X661000Y884000D02*
D03*
Y874000D02*
D03*
X621000D02*
D03*
X631000D02*
D03*
X641000D02*
D03*
X651000D02*
D03*
Y884000D02*
D03*
X641000D02*
D03*
X631000D02*
D03*
X621000D02*
D03*
Y894000D02*
D03*
X631000D02*
D03*
X641000D02*
D03*
X651000D02*
D03*
X563546Y904000D02*
D03*
X516290Y739000D02*
D03*
X517395Y777000D02*
D03*
X856000Y840500D02*
D03*
X802000Y663000D02*
D03*
X796000Y779000D02*
D03*
X849500Y691500D02*
D03*
X840500D02*
D03*
X868000Y691500D02*
D03*
X859000D02*
D03*
X877436D02*
D03*
Y700000D02*
D03*
Y707500D02*
D03*
Y715500D02*
D03*
X859000D02*
D03*
X868000D02*
D03*
X859000Y707500D02*
D03*
X868000D02*
D03*
X859000Y700000D02*
D03*
X868000D02*
D03*
X840500Y715500D02*
D03*
X849500D02*
D03*
X840500Y707500D02*
D03*
X849500D02*
D03*
X840500Y700000D02*
D03*
X849500D02*
D03*
X896000Y677000D02*
D03*
X905000Y678000D02*
D03*
X896000Y670000D02*
D03*
X905000D02*
D03*
X896000Y662500D02*
D03*
X905000D02*
D03*
X934000Y1061173D02*
D03*
X934409Y1071829D02*
D03*
Y1081582D02*
D03*
X933987Y1094013D02*
D03*
X934409Y1105000D02*
D03*
X933252Y1119000D02*
D03*
X935000Y1128013D02*
D03*
X924000Y662000D02*
D03*
X915000D02*
D03*
X924000Y669500D02*
D03*
X915000D02*
D03*
X924000Y677500D02*
D03*
X915000D02*
D03*
X591000Y1029605D02*
D03*
X435163Y1013000D02*
D03*
X434114Y1035000D02*
D03*
X493800Y1049125D02*
D03*
X537719Y1079324D02*
D03*
X533009Y1139000D02*
D03*
X534500Y1126000D02*
D03*
X530009Y1149000D02*
D03*
X521009Y1148000D02*
D03*
X512009D02*
D03*
X503009D02*
D03*
X732427Y1026000D02*
D03*
X1009000Y1034000D02*
D03*
X1000000D02*
D03*
X992000Y1033640D02*
D03*
X495009Y1162000D02*
D03*
X1009000Y363000D02*
D03*
X785000Y362750D02*
D03*
X675000Y362250D02*
D03*
X424000Y1014000D02*
D03*
X566169Y1045000D02*
D03*
X448009Y1156500D02*
D03*
X705000Y1142000D02*
D03*
X440000Y1189000D02*
D03*
X481009Y1127000D02*
D03*
X973150Y547000D02*
D03*
X858000Y543000D02*
D03*
X631000Y545000D02*
D03*
X521000Y539000D02*
D03*
X417000Y535000D02*
D03*
X871500Y1332000D02*
D03*
Y1340040D02*
D03*
X871410Y1348000D02*
D03*
X754000Y1333000D02*
D03*
Y1341000D02*
D03*
Y1349000D02*
D03*
X729000Y1351000D02*
D03*
X735000D02*
D03*
X741009D02*
D03*
Y1344000D02*
D03*
X735000D02*
D03*
X729000D02*
D03*
X741009Y1337000D02*
D03*
X735000D02*
D03*
X729000D02*
D03*
X741009Y1330000D02*
D03*
X735000D02*
D03*
X729000D02*
D03*
X846000Y1330000D02*
D03*
X852000D02*
D03*
X858009D02*
D03*
X846000Y1337000D02*
D03*
X852000D02*
D03*
X858009D02*
D03*
X846000Y1344000D02*
D03*
X852000D02*
D03*
X858009D02*
D03*
Y1351000D02*
D03*
X852000D02*
D03*
X846000D02*
D03*
X762976Y835741D02*
D03*
X966000Y608000D02*
D03*
X1024000Y602000D02*
D03*
D88*
D03*
X430000Y589000D02*
D03*
X796000Y763000D02*
D03*
D89*
X993000Y612000D02*
D03*
Y592000D02*
D03*
X461000Y599000D02*
D03*
Y579000D02*
D03*
X765000Y773000D02*
D03*
Y753000D02*
D03*
D90*
X370000Y1188000D02*
D03*
X417000D02*
D03*
D91*
X621750Y1341000D02*
D03*
X604250D02*
D03*
X621750Y1266000D02*
D03*
X604250D02*
D03*
D92*
X550970Y1081498D02*
D03*
X523030D02*
D03*
X537000D02*
D03*
X502663Y1217000D02*
D03*
X474723D02*
D03*
X488693D02*
D03*
M02*
