G04*
G04 #@! TF.GenerationSoftware,Altium Limited,Altium Designer,19.0.10 (269)*
G04*
G04 Layer_Color=32896*
%FSLAX44Y44*%
%MOMM*%
G71*
G01*
G75*
%ADD10C,0.2540*%
%ADD11C,0.2000*%
%ADD12C,0.1524*%
%ADD13C,0.2500*%
%ADD15C,0.1270*%
%ADD16C,0.2032*%
%ADD68C,0.1520*%
D10*
X1024500Y1062000D02*
G03*
X1024500Y1062000I-7500J0D01*
G01*
X944409Y439327D02*
G03*
X944409Y439327I-7500J0D01*
G01*
X1037500Y564000D02*
G03*
X1037500Y564000I-7500J0D01*
G01*
X665581Y1331000D02*
G03*
X665581Y1331000I-7500J0D01*
G01*
X744500Y1264000D02*
G03*
X744500Y1264000I-7500J0D01*
G01*
X1029290Y729000D02*
G03*
X1029290Y729000I-7500J0D01*
G01*
X688910Y1278000D02*
G03*
X688910Y1278000I-7500J0D01*
G01*
X830598Y437000D02*
G03*
X830598Y437000I-7500J0D01*
G01*
X973500Y1049991D02*
G03*
X973500Y1049991I-7500J0D01*
G01*
X928585Y830585D02*
G03*
X928585Y830585I-7500J0D01*
G01*
X954500Y882399D02*
G03*
X954500Y882399I-7500J0D01*
G01*
X969500Y1066000D02*
G03*
X969500Y1066000I-7500J0D01*
G01*
X606323Y436000D02*
G03*
X606323Y436000I-7500J0D01*
G01*
X844319Y760000D02*
G03*
X844319Y760000I-7500J0D01*
G01*
X719500Y864350D02*
G03*
X719500Y864350I-7500J0D01*
G01*
X713167Y773902D02*
G03*
X713167Y773902I-7500J0D01*
G01*
X1036073Y856000D02*
G03*
X1036073Y856000I-7500J0D01*
G01*
X575756Y668000D02*
G03*
X575756Y668000I-7500J0D01*
G01*
X727500Y695500D02*
G03*
X727500Y695500I-7500J0D01*
G01*
X725598Y600339D02*
G03*
X725598Y600339I-7500J0D01*
G01*
X607500Y610000D02*
G03*
X607500Y610000I-7500J0D01*
G01*
X922174Y894144D02*
G03*
X922174Y894144I-7500J0D01*
G01*
X469500Y922000D02*
G03*
X469500Y922000I-7500J0D01*
G01*
X476500Y938473D02*
G03*
X476500Y938473I-7500J0D01*
G01*
X961788Y1053238D02*
G03*
X961788Y1053238I-7500J0D01*
G01*
X960673Y1042000D02*
G03*
X960673Y1042000I-7500J0D01*
G01*
X1021500Y777364D02*
G03*
X1021500Y777364I-7500J0D01*
G01*
X508500Y439000D02*
G03*
X508500Y439000I-7500J0D01*
G01*
X494175Y968000D02*
G03*
X494175Y968000I-7500J0D01*
G01*
X597500Y572027D02*
G03*
X597500Y572027I-7500J0D01*
G01*
X726500Y435722D02*
G03*
X726500Y435722I-7500J0D01*
G01*
X402500Y1188000D02*
G03*
X402500Y1188000I-9000J0D01*
G01*
X627000Y1293997D02*
Y1284000D01*
X620336D01*
X617003D02*
Y1293997D01*
X612005D01*
X610339Y1292331D01*
Y1288998D01*
X612005Y1287332D01*
X617003D01*
X600342Y1284000D02*
X607006D01*
X600342Y1290665D01*
Y1292331D01*
X602008Y1293997D01*
X605340D01*
X607006Y1292331D01*
X626000Y1366997D02*
Y1357000D01*
X619336D01*
X616003D02*
Y1366997D01*
X611005D01*
X609339Y1365331D01*
Y1361998D01*
X611005Y1360332D01*
X616003D01*
X606006Y1357000D02*
X602674D01*
X604340D01*
Y1366997D01*
X606006Y1365331D01*
X496000Y1243997D02*
Y1234000D01*
X491002D01*
X489336Y1235666D01*
Y1237332D01*
Y1238998D01*
X491002Y1240665D01*
X496000D01*
X484337Y1234000D02*
X481005D01*
X479339Y1235666D01*
Y1238998D01*
X481005Y1240665D01*
X484337D01*
X486003Y1238998D01*
Y1235666D01*
X484337Y1234000D01*
X474340D02*
X471008D01*
X469342Y1235666D01*
Y1238998D01*
X471008Y1240665D01*
X474340D01*
X476006Y1238998D01*
Y1235666D01*
X474340Y1234000D01*
X464343Y1242331D02*
Y1240665D01*
X466010D01*
X462677D01*
X464343D01*
Y1235666D01*
X462677Y1234000D01*
X457679Y1242331D02*
X456013Y1243997D01*
X452681D01*
X451015Y1242331D01*
Y1235666D01*
X452681Y1234000D01*
X456013D01*
X457679Y1235666D01*
Y1242331D01*
X412000Y1215665D02*
Y1209000D01*
Y1212332D01*
X410334Y1213998D01*
X408668Y1215665D01*
X407002D01*
X397005Y1209000D02*
X400337D01*
X402003Y1210666D01*
Y1213998D01*
X400337Y1215665D01*
X397005D01*
X395339Y1213998D01*
Y1212332D01*
X402003D01*
X392006Y1209000D02*
X387008D01*
X385342Y1210666D01*
X387008Y1212332D01*
X390340D01*
X392006Y1213998D01*
X390340Y1215665D01*
X385342D01*
X377011Y1209000D02*
X380344D01*
X382010Y1210666D01*
Y1213998D01*
X380344Y1215665D01*
X377011D01*
X375345Y1213998D01*
Y1212332D01*
X382010D01*
X370347Y1217331D02*
Y1215665D01*
X372013D01*
X368681D01*
X370347D01*
Y1210666D01*
X368681Y1209000D01*
X555000Y1066997D02*
Y1057000D01*
X550002D01*
X548335Y1058666D01*
Y1060332D01*
Y1061998D01*
X550002Y1063664D01*
X555000D01*
X543337Y1057000D02*
X540005D01*
X538339Y1058666D01*
Y1061998D01*
X540005Y1063664D01*
X543337D01*
X545003Y1061998D01*
Y1058666D01*
X543337Y1057000D01*
X533340D02*
X530008D01*
X528342Y1058666D01*
Y1061998D01*
X530008Y1063664D01*
X533340D01*
X535006Y1061998D01*
Y1058666D01*
X533340Y1057000D01*
X523344Y1065331D02*
Y1063664D01*
X525010D01*
X521677D01*
X523344D01*
Y1058666D01*
X521677Y1057000D01*
X516679D02*
X513347D01*
X515013D01*
Y1066997D01*
X516679Y1065331D01*
X1021500Y633000D02*
Y642997D01*
X1016502D01*
X1014836Y641331D01*
Y637998D01*
X1016502Y636332D01*
X1021500D01*
X1018168D02*
X1014836Y633000D01*
X1006505Y642997D02*
X1009837D01*
X1011503Y641331D01*
Y634666D01*
X1009837Y633000D01*
X1006505D01*
X1004839Y634666D01*
Y641331D01*
X1006505Y642997D01*
X994842Y641331D02*
X996508Y642997D01*
X999840D01*
X1001507Y641331D01*
Y639664D01*
X999840Y637998D01*
X996508D01*
X994842Y636332D01*
Y634666D01*
X996508Y633000D01*
X999840D01*
X1001507Y634666D01*
X984845Y633000D02*
X991510D01*
X984845Y639664D01*
Y641331D01*
X986511Y642997D01*
X989844D01*
X991510Y641331D01*
X974848Y642997D02*
X981513D01*
Y637998D01*
X978181Y639664D01*
X976515D01*
X974848Y637998D01*
Y634666D01*
X976515Y633000D01*
X979847D01*
X981513Y634666D01*
X805000Y791000D02*
Y800997D01*
X800002D01*
X798335Y799331D01*
Y795998D01*
X800002Y794332D01*
X805000D01*
X801668D02*
X798335Y791000D01*
X790005Y800997D02*
X793337D01*
X795003Y799331D01*
Y792666D01*
X793337Y791000D01*
X790005D01*
X788339Y792666D01*
Y799331D01*
X790005Y800997D01*
X778342Y799331D02*
X780008Y800997D01*
X783340D01*
X785006Y799331D01*
Y797664D01*
X783340Y795998D01*
X780008D01*
X778342Y794332D01*
Y792666D01*
X780008Y791000D01*
X783340D01*
X785006Y792666D01*
X775010Y791000D02*
X771677D01*
X773344D01*
Y800997D01*
X775010Y799331D01*
X760014Y800997D02*
X766679D01*
Y795998D01*
X763347Y797664D01*
X761681D01*
X760014Y795998D01*
Y792666D01*
X761681Y791000D01*
X765013D01*
X766679Y792666D01*
X430000Y1111000D02*
X439997D01*
Y1115998D01*
X438331Y1117664D01*
X434998D01*
X433332Y1115998D01*
Y1111000D01*
Y1114332D02*
X430000Y1117664D01*
Y1120997D02*
X439997D01*
X436665Y1124329D01*
X439997Y1127661D01*
X430000D01*
Y1130993D02*
Y1134326D01*
Y1132660D01*
X439997D01*
X438331Y1130993D01*
X468708Y616270D02*
Y626267D01*
X463710D01*
X462043Y624601D01*
Y621268D01*
X463710Y619602D01*
X468708D01*
X465376D02*
X462043Y616270D01*
X458711Y626267D02*
X455379D01*
X457045D01*
Y616270D01*
X458711D01*
X455379D01*
X443716Y624601D02*
X445382Y626267D01*
X448714D01*
X450381Y624601D01*
Y622934D01*
X448714Y621268D01*
X445382D01*
X443716Y619602D01*
Y617936D01*
X445382Y616270D01*
X448714D01*
X450381Y617936D01*
X440384Y624601D02*
X438718Y626267D01*
X435385D01*
X433719Y624601D01*
Y622934D01*
X435385Y621268D01*
X437052D01*
X435385D01*
X433719Y619602D01*
Y617936D01*
X435385Y616270D01*
X438718D01*
X440384Y617936D01*
X423722Y626267D02*
X430387D01*
Y621268D01*
X427055Y622934D01*
X425389D01*
X423722Y621268D01*
Y617936D01*
X425389Y616270D01*
X428721D01*
X430387Y617936D01*
X419000Y1302000D02*
X428997D01*
Y1306998D01*
X427331Y1308665D01*
X423998D01*
X422332Y1306998D01*
Y1302000D01*
X419000Y1313663D02*
Y1316995D01*
X420666Y1318661D01*
X423998D01*
X425664Y1316995D01*
Y1313663D01*
X423998Y1311997D01*
X420666D01*
X419000Y1313663D01*
X425664Y1321994D02*
X420666D01*
X419000Y1323660D01*
X420666Y1325326D01*
X419000Y1326992D01*
X420666Y1328658D01*
X425664D01*
X419000Y1336989D02*
Y1333656D01*
X420666Y1331990D01*
X423998D01*
X425664Y1333656D01*
Y1336989D01*
X423998Y1338655D01*
X422332D01*
Y1331990D01*
X425664Y1341987D02*
X419000D01*
X422332D01*
X423998Y1343653D01*
X425664Y1345319D01*
Y1346985D01*
X722316Y1104087D02*
X723982Y1105753D01*
X727314D01*
X728980Y1104087D01*
Y1102421D01*
X727314Y1100754D01*
X723982D01*
X722316Y1099088D01*
Y1097422D01*
X723982Y1095756D01*
X727314D01*
X728980Y1097422D01*
X713985Y1095756D02*
X717317D01*
X718983Y1097422D01*
Y1100754D01*
X717317Y1102421D01*
X713985D01*
X712319Y1100754D01*
Y1099088D01*
X718983D01*
X708986Y1102421D02*
Y1095756D01*
Y1099088D01*
X707320Y1100754D01*
X705654Y1102421D01*
X703988D01*
X698990Y1095756D02*
X695657D01*
X697324D01*
Y1102421D01*
X698990D01*
X688993D02*
X685661D01*
X683995Y1100754D01*
Y1095756D01*
X688993D01*
X690659Y1097422D01*
X688993Y1099088D01*
X683995D01*
X680662Y1095756D02*
X677330D01*
X678996D01*
Y1105753D01*
X680662D01*
X760415Y1216751D02*
X763748D01*
X762082D01*
Y1208420D01*
X763748Y1206754D01*
X765414D01*
X767080Y1208420D01*
X757083Y1216751D02*
X750419D01*
X753751D01*
Y1206754D01*
X747086D02*
Y1213419D01*
X743754Y1216751D01*
X740422Y1213419D01*
Y1206754D01*
Y1211752D01*
X747086D01*
X730425Y1215085D02*
X732091Y1216751D01*
X735424D01*
X737090Y1215085D01*
Y1208420D01*
X735424Y1206754D01*
X732091D01*
X730425Y1208420D01*
Y1211752D01*
X733757D01*
X533000Y1247000D02*
Y1256997D01*
X526335Y1247000D01*
Y1256997D01*
X523003D02*
X516339D01*
X519671D01*
Y1247000D01*
X506342D02*
X513006D01*
X506342Y1253664D01*
Y1255331D01*
X508008Y1256997D01*
X511340D01*
X513006Y1255331D01*
X873335Y711331D02*
X875002Y712997D01*
X878334D01*
X880000Y711331D01*
Y704666D01*
X878334Y703000D01*
X875002D01*
X873335Y704666D01*
X865005Y712997D02*
X868337D01*
X870003Y711331D01*
Y704666D01*
X868337Y703000D01*
X865005D01*
X863339Y704666D01*
Y711331D01*
X865005Y712997D01*
X853342Y711331D02*
X855008Y712997D01*
X858340D01*
X860006Y711331D01*
Y709665D01*
X858340Y707998D01*
X855008D01*
X853342Y706332D01*
Y704666D01*
X855008Y703000D01*
X858340D01*
X860006Y704666D01*
X843345Y703000D02*
X850010D01*
X843345Y709665D01*
Y711331D01*
X845011Y712997D01*
X848344D01*
X850010Y711331D01*
X833348Y712997D02*
X836681Y711331D01*
X840013Y707998D01*
Y704666D01*
X838347Y703000D01*
X835014D01*
X833348Y704666D01*
Y706332D01*
X835014Y707998D01*
X840013D01*
X419331Y1115665D02*
X420997Y1113998D01*
Y1110666D01*
X419331Y1109000D01*
X412666D01*
X411000Y1110666D01*
Y1113998D01*
X412666Y1115665D01*
X411000Y1118997D02*
X420997D01*
X417664Y1122329D01*
X420997Y1125661D01*
X411000D01*
Y1128994D02*
Y1132326D01*
Y1130660D01*
X420997D01*
X419331Y1128994D01*
D11*
X627869Y1147300D02*
Y1198100D01*
X754870Y1147300D02*
Y1198100D01*
X627869D02*
X754870D01*
X627869Y1147300D02*
X754870D01*
X412700Y1222900D02*
Y1349900D01*
X361900Y1222900D02*
Y1349900D01*
X412700D01*
X361900Y1222900D02*
X412700D01*
X628850Y1061750D02*
Y1087150D01*
Y1061750D02*
X730450D01*
X628850Y1087150D02*
X730450D01*
Y1061750D02*
Y1087150D01*
D12*
X620000Y1351500D02*
X628000D01*
X620000Y1330500D02*
X628000D01*
X598000D02*
X605500D01*
X598000Y1351500D02*
X606000D01*
X628000Y1330500D02*
Y1351500D01*
X598000Y1330500D02*
Y1351500D01*
X620000Y1276500D02*
X628000D01*
X620000Y1255500D02*
X628000D01*
X598000D02*
X605500D01*
X598000Y1276500D02*
X606000D01*
X628000Y1255500D02*
Y1276500D01*
X598000Y1255500D02*
Y1276500D01*
X531500Y1233000D02*
Y1240500D01*
X514500D02*
X531500D01*
X514500Y1233000D02*
Y1240500D01*
Y1215500D02*
Y1223000D01*
Y1215500D02*
X531500D01*
Y1223000D01*
X426500Y1159000D02*
Y1166500D01*
X443500D01*
Y1159000D02*
Y1166500D01*
Y1141500D02*
Y1149000D01*
X426500Y1141500D02*
X443500D01*
X426500D02*
Y1149000D01*
D13*
X368500Y1173000D02*
Y1203000D01*
Y1173000D02*
X418500D01*
Y1203000D01*
X368500D02*
X418500D01*
D15*
X1026000Y629000D02*
X1032000Y621000D01*
X968000Y629000D02*
X1026000D01*
X968000D02*
Y644000D01*
X993001Y586501D02*
X1023999D01*
X993001Y617499D02*
X1023999D01*
X993001Y586501D02*
Y617499D01*
X409000Y1140000D02*
X413000D01*
X409000D02*
Y1146000D01*
Y1140000D02*
Y1146000D01*
X406000Y1136000D02*
X409000Y1140000D01*
X406000Y1105000D02*
Y1136000D01*
Y1105000D02*
X422000D01*
X426000Y1136000D02*
X426500Y1141500D01*
X426000Y1136000D02*
X426536Y1106000D01*
X443000D01*
X460999Y573501D02*
Y604499D01*
X430001Y573501D02*
X460999D01*
X430001Y604499D02*
X460999D01*
X765001Y747501D02*
X795999D01*
X765001Y778499D02*
X795999D01*
X765001Y747501D02*
Y778499D01*
X508000Y1071000D02*
X516290Y1073000D01*
X508000Y1054000D02*
Y1071000D01*
Y1083000D02*
X514000D01*
X511000Y1080000D02*
Y1086000D01*
X562500Y1092000D02*
X568000D01*
X361000Y1206000D02*
X368500Y1203000D01*
X361000Y1206000D02*
Y1219000D01*
X459000Y1217000D02*
X465000D01*
X462000Y1214000D02*
Y1220000D01*
X501909Y1204000D02*
X508000D01*
X445000Y1229000D02*
X467000Y1225000D01*
X445000Y1229000D02*
Y1248000D01*
X531500Y1240500D02*
X538000Y1246000D01*
Y1259000D01*
X628000Y1276500D02*
X630000Y1283000D01*
Y1295000D01*
X628000Y1351500D02*
X630000Y1357000D01*
Y1368000D01*
X419000Y616000D02*
X422000Y608000D01*
X419000Y616000D02*
Y628000D01*
X871000Y693000D02*
Y697000D01*
X875000D01*
X871000D02*
X875000D01*
X868000Y700000D02*
X871000Y697000D01*
X828000Y699000D02*
X868000Y700000D01*
X828000Y699000D02*
Y701000D01*
Y716000D01*
X754000Y791000D02*
X756000Y782000D01*
X754000Y791000D02*
Y804000D01*
D16*
X1012404Y602000D02*
G03*
X1012404Y602000I-3904J0D01*
G01*
X1020918D02*
G03*
X1020918Y602000I-12418J0D01*
G01*
X457918Y589000D02*
G03*
X457918Y589000I-12418J0D01*
G01*
X449404D02*
G03*
X449404Y589000I-3904J0D01*
G01*
X784404Y763000D02*
G03*
X784404Y763000I-3904J0D01*
G01*
X792918D02*
G03*
X792918Y763000I-12418J0D01*
G01*
X1006999Y590499D02*
Y598500D01*
X1010499Y590499D02*
Y597999D01*
X1012501Y600499D02*
X1020001D01*
X1006999Y606001D02*
Y613501D01*
X1012501Y603999D02*
X1020001D01*
X1010499Y606001D02*
Y613501D01*
X1006999Y590499D02*
X1010499D01*
X1007499Y597999D02*
X1010499D01*
X1006999Y613501D02*
X1010499D01*
X1006999Y606001D02*
X1010499D01*
X1012501Y600499D02*
Y603999D01*
X1000001Y586501D02*
X1023999D01*
X1000001Y617499D02*
X1023999D01*
Y586501D02*
Y617499D01*
X996999Y600499D02*
X1005000D01*
X996999D02*
Y603999D01*
X993001Y599000D02*
Y604499D01*
X996999Y603999D02*
X1005000D01*
X449000Y587001D02*
X457001D01*
X460999Y586501D02*
Y592000D01*
X457001Y587001D02*
Y590501D01*
X449000D02*
X457001D01*
X430001Y573501D02*
Y604499D01*
Y573501D02*
X453999D01*
X430001Y604499D02*
X453999D01*
X441499Y587001D02*
Y590501D01*
X443501Y585000D02*
X447001D01*
X443501Y577499D02*
X447001D01*
X443501Y593000D02*
X446501D01*
X443501Y600501D02*
X447001D01*
X443501Y577499D02*
Y585000D01*
X433999Y587001D02*
X441499D01*
X447001Y577499D02*
Y585000D01*
X433999Y590501D02*
X441499D01*
X443501Y593000D02*
Y600501D01*
X447001Y592500D02*
Y600501D01*
X778999Y751499D02*
Y759500D01*
X782499Y751499D02*
Y758999D01*
X784501Y761499D02*
X792001D01*
X778999Y767000D02*
Y774501D01*
X784501Y764999D02*
X792001D01*
X782499Y767000D02*
Y774501D01*
X778999Y751499D02*
X782499D01*
X779499Y758999D02*
X782499D01*
X778999Y774501D02*
X782499D01*
X778999Y767000D02*
X782499D01*
X784501Y761499D02*
Y764999D01*
X772001Y747501D02*
X795999D01*
X772001Y778499D02*
X795999D01*
Y747501D02*
Y778499D01*
X768999Y761499D02*
X777000D01*
X768999D02*
Y764999D01*
X765001Y760000D02*
Y765499D01*
X768999Y764999D02*
X777000D01*
X759106Y1180320D02*
X767570D01*
X759106Y1188784D01*
Y1190900D01*
X761221Y1193016D01*
X765453D01*
X767570Y1190900D01*
X762489Y1154920D02*
X758258D01*
X760374D01*
Y1167616D01*
X762489Y1165500D01*
X625330Y1157036D02*
X623214Y1154920D01*
X618982D01*
X616866Y1157036D01*
Y1165500D01*
X618982Y1167616D01*
X623214D01*
X625330Y1165500D01*
Y1163384D01*
X623214Y1161268D01*
X616866D01*
X625330Y1180320D02*
X621097D01*
X623214D01*
Y1193016D01*
X625330Y1190900D01*
X614750D02*
X612634Y1193016D01*
X608402D01*
X606286Y1190900D01*
Y1182436D01*
X608402Y1180320D01*
X612634D01*
X614750Y1182436D01*
Y1190900D01*
X406000Y1361348D02*
X397536D01*
X401768Y1365580D02*
Y1357116D01*
X393304Y1355000D02*
X389072D01*
X391188D01*
Y1367696D01*
X393304Y1365580D01*
X374260Y1355000D02*
X382724D01*
X374260Y1363464D01*
Y1365580D01*
X376376Y1367696D01*
X380608D01*
X382724Y1365580D01*
D68*
X1023000Y621000D02*
X1032000D01*
Y612000D02*
Y621000D01*
Y583000D02*
Y592000D01*
X1023000Y583000D02*
X1032000D01*
X984000Y621000D02*
X993000D01*
X984000Y612000D02*
Y621000D01*
Y583000D02*
Y592000D01*
Y583000D02*
X993000D01*
X461000Y608000D02*
X470000D01*
Y599000D02*
Y608000D01*
Y570000D02*
Y579000D01*
X461000Y570000D02*
X470000D01*
X422000Y608000D02*
X431000D01*
X422000Y599000D02*
Y608000D01*
Y570000D02*
Y579000D01*
Y570000D02*
X431000D01*
X795000Y782000D02*
X804000D01*
Y773000D02*
Y782000D01*
Y744000D02*
Y753000D01*
X795000Y744000D02*
X804000D01*
X756000Y782000D02*
X765000D01*
X756000Y773000D02*
Y782000D01*
Y744000D02*
Y753000D01*
Y744000D02*
X765000D01*
M02*
